<svg width="558" height="1096" viewBox="0 0 558 1096" fill="inherit" xmlns="http://www.w3.org/2000/svg">
<path d="M556 841.057C556 980.588 432.157 1094 279 1094C125.844 1094 2 980.588 2 841.057C2 608.048 71.6396 398.077 141.318 246.318C176.153 170.447 210.987 109.148 237.108 66.8237C250.169 45.6619 261.05 29.2451 268.662 18.1233C272.468 12.5624 275.458 8.32548 277.493 5.48119C278.074 4.66934 278.578 3.97096 279 3.38764C279.423 3.97096 279.926 4.66934 280.507 5.48119C282.543 8.32548 285.532 12.5624 289.338 18.1233C296.951 29.2451 307.832 45.6619 320.892 66.8237C347.013 109.148 381.847 170.447 416.682 246.318C486.36 398.077 556 608.048 556 841.057Z" fill="inherit" stroke="inherit" stroke-width="4"/>
</svg>
