<svg id="Layer_1" height="512" viewBox="0 0 55 55" width="512" xmlns="http://www.w3.org/2000/svg" data-name="Layer 1"><path d="m18 49.91a.76.76 0 0 1 -.75-.75v-45.66a.75.75 0 0 1 1.5 0v45.66a.75.75 0 0 1 -.75.75z" fill="#ECC373"/><ellipse cx="18.02" cy="49.56" fill="#ECC373" rx="5.87" ry="1.94"/><path d="m18 52.25c-3.19 0-6.62-.84-6.62-2.69s3.43-2.69 6.62-2.69 6.63.84 6.63 2.69-3.42 2.69-6.63 2.69zm0-3.88c-3.3 0-5 .87-5.12 1.21.12.3 1.82 1.17 5.12 1.17s5-.87 5.13-1.21c-.13-.3-1.81-1.17-5.13-1.17z" fill="#556065"/><path d="m42.85 15.95-24.83 10.77v-21.55z" fill="#ECC373"/><path d="m42.85 15.95-3.5 1.52-21.33-9.25v-3.04z" fill="#ECC373"/><path d="m18 27.47a.77.77 0 0 1 -.75-.75v-21.55a.75.75 0 0 1 1.05-.68l24.85 10.77a.75.75 0 0 1 0 1.37l-24.83 10.78a.8.8 0 0 1 -.32.06zm.75-21.15v19.25l22.25-9.57z" fill="#fff"/></svg>