<svg width="24" height="24" viewBox="0 0 24 24" fill="none" xmlns="http://www.w3.org/2000/svg">
<path d="M20 7H4C2.89543 7 2 7.89543 2 9V19C2 20.1046 2.89543 21 4 21H20C21.1046 21 22 20.1046 22 19V9C22 7.89543 21.1046 7 20 7Z" stroke="white" stroke-width="2" stroke-linecap="round" stroke-linejoin="round"/>
<path d="M16 11V3.88889C16 3.65314 15.7893 3.42705 15.4142 3.26035C15.0391 3.09365 14.5304 3 14 3H10C9.46957 3 8.96086 3.09365 8.58579 3.26035C8.21071 3.42705 8 3.65314 8 3.88889V11" stroke="white" stroke-width="2" stroke-linecap="round" stroke-linejoin="round"/>
</svg>
