<svg width="244" height="59" viewBox="0 0 244 59" fill="none" xmlns="http://www.w3.org/2000/svg">
<path d="M107.018 20.7052V38.5321H105.213V23.5988L99.0499 38.5321H97.4255L91.237 23.6505V38.5321H89.4062V20.7052H91.5464L98.2506 36.2844L104.903 20.7052H107.018Z" fill="#fff"/>
<path d="M111.348 24.4256L116.247 36.181L120.759 24.4256H122.771L114.494 45.1979H112.431L115.267 38.3771L109.337 24.4256H111.348Z" fill="#fff"/>
<path d="M142.848 33.9075C142.848 34.7342 142.65 35.5179 142.255 36.2585C141.877 36.982 141.284 37.5762 140.476 38.0412C139.668 38.4891 138.662 38.713 137.459 38.713C136.29 38.713 135.25 38.4977 134.339 38.0671C133.428 37.6365 132.697 37.0509 132.147 36.3102C131.614 35.5524 131.305 34.7084 131.219 33.7783H133.127C133.196 34.3122 133.394 34.8462 133.72 35.3801C134.047 35.9141 134.519 36.3619 135.138 36.7236C135.757 37.0681 136.505 37.2403 137.382 37.2403C138.533 37.2403 139.41 36.9303 140.012 36.3102C140.631 35.6902 140.94 34.9065 140.94 33.9591C140.94 33.1496 140.734 32.4951 140.321 31.9956C139.926 31.4789 139.427 31.0827 138.826 30.8071C138.241 30.5315 137.433 30.2301 136.402 29.9029C135.267 29.5411 134.348 29.1967 133.643 28.8694C132.955 28.5249 132.371 28.0254 131.889 27.3709C131.408 26.7164 131.167 25.8466 131.167 24.7615C131.167 23.3835 131.649 22.264 132.611 21.4028C133.574 20.5416 134.898 20.111 136.582 20.111C138.301 20.111 139.659 20.5329 140.656 21.3769C141.671 22.2209 142.272 23.2716 142.461 24.5289H140.527C140.373 23.7539 139.96 23.0649 139.29 22.462C138.637 21.8592 137.734 21.5578 136.582 21.5578C135.517 21.5578 134.666 21.8334 134.03 22.3845C133.394 22.9357 133.076 23.7022 133.076 24.684C133.076 25.459 133.273 26.0877 133.669 26.57C134.064 27.0523 134.545 27.4226 135.113 27.6809C135.697 27.9393 136.488 28.2321 137.485 28.5594C138.637 28.9211 139.565 29.2742 140.27 29.6187C140.992 29.9631 141.602 30.4799 142.1 31.1688C142.599 31.8578 142.848 32.7707 142.848 33.9075Z" fill="#fff"/>
<path d="M152.069 24.2447C153.496 24.2447 154.708 24.6151 155.705 25.3557C156.719 26.0963 157.415 27.0781 157.794 28.301V24.4256H159.573V38.5321H157.794V34.6567C157.415 35.8796 156.719 36.8614 155.705 37.602C154.708 38.3427 153.496 38.713 152.069 38.713C150.797 38.713 149.654 38.4202 148.64 37.8346C147.643 37.2489 146.861 36.4136 146.293 35.3284C145.743 34.2261 145.468 32.9429 145.468 31.4789C145.468 29.9976 145.743 28.7144 146.293 27.6293C146.861 26.5269 147.643 25.6916 148.64 25.1232C149.637 24.5375 150.78 24.2447 152.069 24.2447ZM152.533 25.8466C150.952 25.8466 149.68 26.3547 148.717 27.3709C147.772 28.3699 147.299 29.7392 147.299 31.4789C147.299 33.2185 147.772 34.5964 148.717 35.6126C149.68 36.6116 150.952 37.1111 152.533 37.1111C153.531 37.1111 154.424 36.8786 155.215 36.4136C156.023 35.9485 156.651 35.294 157.097 34.45C157.562 33.5888 157.794 32.5984 157.794 31.4789C157.794 30.3593 157.562 29.3775 157.097 28.5335C156.651 27.6723 156.023 27.0092 155.215 26.5442C154.424 26.0791 153.531 25.8466 152.533 25.8466Z" fill="#fff"/>
<path d="M163.076 20.2401C163.076 19.8612 163.196 19.5598 163.437 19.3359C163.695 19.112 164.021 19 164.417 19C164.812 19 165.13 19.112 165.371 19.3359C165.611 19.5598 165.732 19.8612 165.732 20.2401C165.732 20.6018 165.611 20.8947 165.371 21.1186C165.13 21.3425 164.812 21.4544 164.417 21.4544C164.021 21.4544 163.695 21.3425 163.437 21.1186C163.196 20.8947 163.076 20.6018 163.076 20.2401ZM165.319 24.4256V38.5321H163.488V24.4256H165.319Z" fill="#fff"/>
<path d="M171.06 19.4134V38.5321H169.23V19.4134H171.06Z" fill="#fff"/>
<path d="M174.558 20.2401C174.558 19.8612 174.679 19.5598 174.919 19.3359C175.177 19.112 175.504 19 175.899 19C176.294 19 176.613 19.112 176.853 19.3359C177.094 19.5598 177.214 19.8612 177.214 20.2401C177.214 20.6018 177.094 20.8947 176.853 21.1186C176.613 21.3425 176.294 21.4544 175.899 21.4544C175.504 21.4544 175.177 21.3425 174.919 21.1186C174.679 20.8947 174.558 20.6018 174.558 20.2401ZM176.802 24.4256V38.5321H174.971V24.4256H176.802Z" fill="#fff"/>
<path d="M187.751 24.1672C189.385 24.1672 190.708 24.6926 191.722 25.7432C192.754 26.7767 193.269 28.301 193.269 30.3162V38.5321H191.49V30.4454C191.49 28.9125 191.104 27.7412 190.33 26.9317C189.556 26.1049 188.499 25.6916 187.158 25.6916C185.749 25.6916 184.623 26.148 183.781 27.0609C182.955 27.9565 182.543 29.2828 182.543 31.0396V38.5321H180.712V24.4256H182.543V27.8876C182.904 26.6819 183.557 25.7605 184.503 25.1232C185.448 24.4859 186.531 24.1672 187.751 24.1672Z" fill="#fff"/>
<path d="M203.01 24.2447C204.437 24.2447 205.649 24.6151 206.646 25.3557C207.66 26.0963 208.356 27.0781 208.735 28.301V24.4256H210.514V38.868C210.514 40.177 210.239 41.3224 209.689 42.3042C209.139 43.3032 208.374 44.0697 207.394 44.6036C206.414 45.1548 205.297 45.4304 204.042 45.4304C202.202 45.4304 200.69 44.9826 199.503 44.0869C198.335 43.2085 197.57 42.0114 197.209 40.4957H199.014C199.323 41.5291 199.89 42.3473 200.715 42.9501C201.558 43.553 202.632 43.8544 203.939 43.8544C204.832 43.8544 205.64 43.6563 206.362 43.2601C207.102 42.8812 207.677 42.3128 208.09 41.555C208.52 40.7971 208.735 39.9014 208.735 38.868V34.6567C208.356 35.8796 207.66 36.8614 206.646 37.602C205.649 38.3427 204.437 38.713 203.01 38.713C201.738 38.713 200.595 38.4202 199.581 37.8346C198.584 37.2489 197.802 36.4136 197.234 35.3284C196.684 34.2261 196.409 32.9429 196.409 31.4789C196.409 29.9976 196.684 28.7144 197.234 27.6293C197.802 26.5269 198.584 25.6916 199.581 25.1232C200.578 24.5375 201.721 24.2447 203.01 24.2447ZM203.474 25.8466C201.893 25.8466 200.621 26.3547 199.658 27.3709C198.713 28.3699 198.24 29.7392 198.24 31.4789C198.24 33.2185 198.713 34.5964 199.658 35.6126C200.621 36.6116 201.893 37.1111 203.474 37.1111C204.471 37.1111 205.365 36.8786 206.156 36.4136C206.964 35.9485 207.591 35.294 208.038 34.45C208.502 33.5888 208.735 32.5984 208.735 31.4789C208.735 30.3593 208.502 29.3775 208.038 28.5335C207.591 27.6723 206.964 27.0092 206.156 26.5442C205.365 26.0791 204.471 25.8466 203.474 25.8466Z" fill="#fff"/>
<path d="M224.444 20.266V38.5321H220.034V20.266H224.444Z" fill="#fff"/>
<path d="M243.887 29.3603C243.887 31.1516 243.5 32.7448 242.727 34.14C241.971 35.5179 240.87 36.5944 239.426 37.3695C238 38.1446 236.315 38.5321 234.373 38.5321H227.488V20.266H234.373C236.332 20.266 238.025 20.6449 239.452 21.4028C240.879 22.1606 241.971 23.2285 242.727 24.6064C243.5 25.9844 243.887 27.569 243.887 29.3603ZM233.986 34.5792C235.705 34.5792 237.037 34.1228 237.982 33.2099C238.945 32.297 239.426 31.0138 239.426 29.3603C239.426 27.7068 238.945 26.4236 237.982 25.5107C237.037 24.5978 235.705 24.1414 233.986 24.1414H231.897V34.5792H233.986Z" fill="#fff"/>
<path fill-rule="evenodd" clip-rule="evenodd" d="M-0.000480652 41.2812C1.93704 44.4531 4.57302 47.3756 7.83102 49.9053C15.3088 55.7117 25.4509 58.9737 36.0261 58.9737C46.6013 58.9737 56.7434 55.7117 64.2212 49.9054C67.4792 47.3756 70.1152 44.4531 72.0527 41.2812L-0.000480652 41.2812Z" fill="#00369F"/>
<path opacity="0.7" d="M30.1679 25.0635V41.2812H13.9502L30.1679 25.0635Z" fill="#00369F"/>
<circle cx="53.6873" cy="8.63454" r="6.63454" fill="#00369F"/>
<path d="M13.9502 2.94824H30.1679V16.2173H13.9502L22.0591 9.58278L13.9502 2.94824Z" fill="#31B8B0"/>
<path opacity="0.8" d="M30.168 41.2812L30.168 -0.00030899L37.5397 -0.000309313C48.9393 -0.000309811 58.1805 9.24088 58.1805 20.6405C58.1805 32.0401 48.9393 41.2812 37.5397 41.2812L30.168 41.2812Z" fill="#4180F8"/>
</svg>
