<svg width="719" height="593" viewBox="0 0 719 593" fill="none" xmlns="http://www.w3.org/2000/svg">
<path opacity="0.1" d="M126.018 327.532C2.49961 369 -60.9999 464 85.0001 550C231 636 876.268 565.5 876.268 565.5C880.593 519.556 886.649 418.596 876.268 382.312C863.292 336.957 899.814 326.381 719 313.5C529.5 300 437 185 398.5 121.5C351.314 199.252 242.5 288.427 126.018 327.532Z" fill="#599DF9"/>
<g opacity="0.8">
<mask id="mask0" mask-type="alpha" maskUnits="userSpaceOnUse" x="350" y="0" width="371" height="314">
<path d="M720.5 313.5C467.7 297.1 368.5 97.6667 350.5 0H720.5V313.5Z" fill="black"/>
</mask>
<g mask="url(#mask0)">
<rect opacity="0.5" width="523.19" height="171.869" transform="matrix(-1 0 0 1 812.19 147.842)" fill="url(#paint0_linear)"/>
<rect opacity="0.15" width="523" height="155" transform="matrix(-1 0 0 1 812 0.5)" fill="#599DF9"/>
<path opacity="0.5" d="M514.997 82.0522C517.64 78.9637 522.138 79.4341 524.056 80.0553C521.427 80.0553 515.935 81.6724 514.997 84.6543C514.57 81.5659 509.064 80.011 506.364 80.0553C508.602 79.5228 513.462 79.1767 514.997 82.0522Z" fill="#01315F"/>
<path opacity="0.5" d="M677.196 104.91C679.839 101.821 684.337 102.292 686.255 102.913C683.626 102.913 678.134 104.53 677.196 107.512C676.77 104.423 671.263 102.868 668.563 102.913C670.801 102.38 675.661 102.034 677.196 104.91Z" fill="#01315F"/>
<path d="M657.335 174.878L666.293 186.9L665.907 187.188L656.949 175.166L657.335 174.878Z" fill="white"/>
<path d="M554.862 193.395L588.352 77.5L554.391 193.253L554.862 193.395Z" fill="white"/>
<path d="M606.432 190.174L608.348 189.857C608.304 189.572 603.587 161.428 598.892 133.613C596.134 117.278 593.912 104.264 592.292 94.9188C591.329 89.3645 590.574 85.07 590.048 82.134C589.764 80.5565 589.534 79.3405 589.381 78.5298C589.293 78.0916 589.337 79.1323 589.282 78.9132C589.195 78.5188 588.571 77.8067 588.363 77.5L588.254 79.2309C587.87 79.1214 587.86 80.8194 587.816 80.6551C588.516 82.9557 600.095 152.302 606.432 190.174Z" fill="#0C4983"/>
<path d="M588.352 77.5C588.352 77.5 626.614 113.488 657.149 175.034C657.149 175.034 621.043 178.255 610.887 189.835C610.887 189.824 598.082 103.694 588.352 77.5Z" fill="#599DF9"/>
<path d="M602.657 190.262L588.352 77.5C588.352 77.5 571.859 157.243 569.101 185.562C569.101 185.562 589.6 183.919 602.657 190.262Z" fill="white"/>
<path d="M548 205.128C548.022 205.128 548.033 205.128 548.055 205.139C568.827 207.549 655.289 205.128 655.289 205.128C657.401 203.989 659.36 202.849 661.166 201.743H661.177C675.722 192.869 680.976 185.562 680.976 185.562C656.099 185.562 557.697 192.037 554.621 193.318C551.557 194.622 548 205.128 548 205.128Z" fill="#0C4983"/>
<path d="M659.896 194.677C659.189 194.677 658.616 194.103 658.616 193.395C658.616 192.687 659.189 192.113 659.896 192.113C660.604 192.113 661.177 192.687 661.177 193.395C661.177 194.103 660.604 194.677 659.896 194.677Z" fill="#01315F"/>
<path d="M652.673 194.677C651.966 194.677 651.392 194.103 651.392 193.395C651.392 192.687 651.966 192.113 652.673 192.113C653.38 192.113 653.953 192.687 653.953 193.395C653.953 194.103 653.38 194.677 652.673 194.677Z" fill="#01315F"/>
<path d="M645.767 194.677C645.06 194.677 644.486 194.103 644.486 193.395C644.486 192.687 645.06 192.113 645.767 192.113C646.474 192.113 647.048 192.687 647.048 193.395C647.048 194.103 646.474 194.677 645.767 194.677Z" fill="#01315F"/>
<path d="M548 205.128C548 205.128 548.022 205.128 548.054 205.139C568.827 207.549 655.289 205.128 655.289 205.128C657.401 203.989 659.36 202.849 661.166 201.743C659.962 202.05 558.857 205.511 548 205.128Z" fill="#01315F"/>
<path d="M535.683 154.376C535.683 154.376 530.796 157.315 524.537 162.866C524.537 162.866 486.972 163.914 478 162.866C478 162.866 479.539 158.307 480.872 157.744C482.204 157.188 525.449 155.433 535.683 154.376Z" fill="#0C4983"/>
<path d="M525.414 149.766L529.31 154.97L529.144 155.094L525.249 149.889L525.414 149.766Z" fill="white"/>
<path d="M480.975 157.775L495.509 107.5L480.777 157.712L480.975 157.775Z" fill="white"/>
<path d="M503.347 156.378L504.18 156.243C504.156 156.123 502.117 143.91 500.078 131.847C498.881 124.764 497.913 119.118 497.215 115.06C496.794 112.654 496.469 110.788 496.239 109.517C496.112 108.834 496.017 108.31 495.945 107.953C495.906 107.762 495.929 108.215 495.906 108.119C495.866 107.945 495.596 107.643 495.509 107.508L495.461 108.262C495.295 108.215 495.287 108.953 495.271 108.882C495.572 109.866 500.602 139.947 503.347 156.378Z" fill="#0C4983"/>
<path d="M495.509 107.5C495.509 107.5 512.106 123.112 525.355 149.81C525.355 149.81 509.694 151.208 505.283 156.227C505.283 156.227 499.73 118.864 495.509 107.5Z" fill="#599DF9"/>
<path d="M501.713 156.417L495.509 107.5C495.509 107.5 488.353 142.092 487.155 154.377C487.155 154.377 496.048 153.662 501.713 156.417Z" fill="white"/>
<path opacity="0.2" d="M653.896 223.539C650.886 222.913 648.621 224.862 646.818 227.171C648.642 227.519 649.816 227.096 651.576 226.649C654.541 225.896 657.979 225.876 661.124 226.318C663.167 226.606 665.194 226.739 667.226 227.162C668.552 227.438 669.355 226.754 670.826 227.06C673.502 227.616 677.52 228.003 680.173 227.207C683.493 226.212 687.272 227.498 690.533 226.478C691.773 226.091 692.53 224.928 693.652 224.362C694.417 223.977 696.019 222.599 696.822 222.681C698.711 222.875 700.543 222.789 702.46 222.767C704.703 222.74 706.258 223.421 708.454 222.997C709.809 222.735 710.968 221.517 712.459 221.254C714.448 220.902 716.473 220.735 718.423 220.178C720.083 219.703 721.651 219.619 723.283 219.061C723.713 218.914 725.685 218.619 724.134 218.813C722.525 219.014 721.029 218.729 719.431 218.544C714.782 218.004 710.233 219.29 705.54 219.058C703.053 218.935 700.704 220.405 698.283 220.858C695.429 221.391 692.43 222.619 689.568 222.024C686.705 221.428 683.444 222.133 680.5 221.816C676.806 221.417 673.477 220.74 670.042 222.217C666.993 223.528 665.765 225.506 661.926 225.185C659.289 224.965 656.464 224.073 653.896 223.539Z" fill="white"/>
<path opacity="0.2" d="M514.323 172.471C512.675 172.128 511.435 173.196 510.448 174.459C511.447 174.65 512.089 174.418 513.053 174.174C514.676 173.761 516.558 173.75 518.28 173.993C519.399 174.15 520.509 174.223 521.621 174.455C522.347 174.606 522.787 174.231 523.592 174.399C525.057 174.703 527.257 174.915 528.709 174.479C530.527 173.935 532.596 174.639 534.381 174.08C535.06 173.868 535.474 173.231 536.089 172.922C536.507 172.711 537.384 171.956 537.824 172.001C538.859 172.108 539.862 172.061 540.911 172.048C542.139 172.034 542.991 172.407 544.193 172.174C544.935 172.031 545.569 171.364 546.385 171.22C547.474 171.027 548.583 170.936 549.65 170.631C550.559 170.371 551.418 170.325 552.311 170.019C552.547 169.939 553.626 169.778 552.777 169.884C551.896 169.994 551.078 169.838 550.202 169.736C547.657 169.441 545.167 170.145 542.597 170.018C541.236 169.951 539.95 170.755 538.624 171.003C537.062 171.295 535.42 171.967 533.853 171.641C532.285 171.315 530.5 171.702 528.888 171.528C526.866 171.309 525.043 170.938 523.163 171.747C521.493 172.465 520.821 173.548 518.719 173.372C517.276 173.252 515.729 172.763 514.323 172.471Z" fill="white"/>
<path opacity="0.2" d="M517.323 233.471C515.675 233.128 514.435 234.196 513.448 235.459C514.447 235.65 515.089 235.418 516.053 235.174C517.676 234.761 519.558 234.75 521.28 234.993C522.399 235.15 523.509 235.223 524.621 235.455C525.347 235.606 525.787 235.231 526.592 235.399C528.057 235.703 530.257 235.915 531.709 235.479C533.527 234.935 535.596 235.639 537.381 235.08C538.06 234.868 538.474 234.231 539.089 233.922C539.507 233.711 540.384 232.956 540.824 233.001C541.859 233.108 542.862 233.061 543.911 233.048C545.139 233.034 545.991 233.407 547.193 233.174C547.935 233.031 548.569 232.364 549.385 232.22C550.474 232.027 551.583 231.936 552.65 231.631C553.559 231.371 554.418 231.325 555.311 231.019C555.547 230.939 556.626 230.778 555.777 230.884C554.896 230.994 554.078 230.838 553.202 230.736C550.657 230.441 548.167 231.145 545.597 231.018C544.236 230.951 542.95 231.755 541.624 232.003C540.062 232.295 538.42 232.967 536.853 232.641C535.285 232.315 533.5 232.702 531.888 232.528C529.866 232.309 528.043 231.938 526.163 232.747C524.493 233.465 523.821 234.548 521.719 234.372C520.276 234.252 518.729 233.763 517.323 233.471Z" fill="white"/>
<path opacity="0.2" d="M466.158 268.997C464.664 268.686 463.54 269.654 462.645 270.8C463.55 270.972 464.133 270.762 465.006 270.54C466.478 270.167 468.184 270.157 469.745 270.376C470.759 270.519 471.765 270.585 472.774 270.795C473.432 270.932 473.831 270.593 474.56 270.744C475.889 271.021 477.883 271.212 479.2 270.818C480.848 270.324 482.723 270.962 484.341 270.456C484.957 270.263 485.333 269.686 485.89 269.405C486.269 269.214 487.064 268.53 487.463 268.571C488.401 268.668 489.31 268.625 490.261 268.614C491.374 268.601 492.146 268.939 493.236 268.728C493.909 268.598 494.484 267.993 495.224 267.863C496.211 267.688 497.216 267.605 498.184 267.329C499.008 267.093 499.786 267.051 500.596 266.775C500.809 266.702 501.788 266.555 501.019 266.651C500.22 266.751 499.478 266.61 498.684 266.518C496.377 266.25 494.119 266.888 491.79 266.773C490.556 266.712 489.39 267.442 488.188 267.666C486.771 267.931 485.283 268.54 483.863 268.245C482.442 267.949 480.823 268.299 479.362 268.142C477.529 267.944 475.876 267.608 474.171 268.341C472.658 268.992 472.049 269.973 470.144 269.814C468.835 269.705 467.432 269.262 466.158 268.997Z" fill="white"/>
<path opacity="0.2" d="M347.366 188.117C345.872 187.807 344.748 188.774 343.853 189.92C344.758 190.093 345.341 189.883 346.214 189.661C347.686 189.287 349.392 189.277 350.953 189.497C351.967 189.64 352.973 189.706 353.982 189.915C354.64 190.052 355.039 189.713 355.768 189.865C357.097 190.141 359.091 190.333 360.408 189.938C362.055 189.444 363.931 190.082 365.549 189.576C366.165 189.384 366.541 188.807 367.098 188.526C367.477 188.335 368.272 187.651 368.671 187.692C369.608 187.788 370.518 187.745 371.469 187.734C372.582 187.721 373.354 188.059 374.444 187.848C375.117 187.718 375.692 187.114 376.432 186.983C377.419 186.809 378.424 186.726 379.392 186.449C380.216 186.214 380.994 186.172 381.804 185.895C382.017 185.822 382.996 185.676 382.226 185.772C381.427 185.871 380.685 185.73 379.892 185.638C377.585 185.37 375.327 186.008 372.998 185.893C371.763 185.833 370.598 186.562 369.396 186.787C367.979 187.051 366.491 187.661 365.071 187.365C363.649 187.07 362.031 187.42 360.57 187.262C358.737 187.064 357.084 186.728 355.379 187.461C353.866 188.112 353.257 189.094 351.351 188.934C350.043 188.825 348.64 188.382 347.366 188.117Z" fill="white"/>
</g>
</g>
<path opacity="0.3" d="M168 471.5C168 469.843 169.343 468.5 171 468.5H237V528.5H168V471.5Z" fill="#599DF9"/>
<path opacity="0.3" d="M237 441.5C237 439.843 238.343 438.5 240 438.5H322V528.5H237V441.5Z" fill="#599DF9"/>
<path opacity="0.3" d="M99.9998 501.5C99.9998 499.843 101.343 498.5 103 498.5H168V528.5H99.9998V501.5Z" fill="#599DF9"/>
<path d="M375.767 336.021V273.87C375.767 211.441 325.157 160.658 262.536 160.658C199.915 160.658 149 211.428 149 273.87V336.021H193.775V273.87C193.775 236.061 224.606 205.305 262.536 205.305C300.467 205.305 330.831 236.048 330.831 273.87V336.021H375.767Z" fill="#599DF9"/>
<path fill-rule="evenodd" clip-rule="evenodd" d="M331.354 336.021V336.07H312.706C308.288 336.07 304.706 339.651 304.706 344.07V520.472C304.706 524.89 308.288 528.472 312.706 528.472H577.074C581.492 528.472 585.074 524.89 585.074 520.472V344.07C585.074 339.651 581.492 336.07 577.074 336.07H558.426V336.021H513.652V336.07H376.129V336.021H331.354ZM417.572 479.055C416.707 481.645 418.635 484.323 421.366 484.323H468.244C471.02 484.323 472.952 481.564 472.003 478.955L470.947 476.052L458.322 437.545C468.326 432.571 475.26 422.391 475.26 410.502C475.26 402.467 472.059 394.761 466.361 389.08C460.663 383.398 452.935 380.206 444.877 380.206C436.819 380.206 429.091 383.398 423.393 389.08C417.695 394.761 414.494 402.467 414.494 410.502C414.511 416.137 416.108 421.655 419.103 426.434C422.098 431.212 426.373 435.061 431.445 437.545L417.572 479.055Z" fill="#0C4983"/>
<rect opacity="0.2" x="330.916" y="324.526" width="44.9353" height="11.4951" fill="#01315F"/>
<path opacity="0.2" d="M162.482 373.194C162.482 373.194 168.715 375.454 167.619 378.605C166.523 381.755 159.058 377.509 159.058 377.509L162.482 373.194Z" fill="#01315F"/>
<path d="M151.661 366.276C155.085 367.03 163.921 372.988 163.921 372.988L160.907 380.111L152.962 377.509L151.661 366.276Z" fill="#0C4983"/>
<path d="M123.544 494.269H128.338L128.749 483.105H123.954L123.544 494.269Z" fill="#9F5B53"/>
<path d="M129.023 493.652H123.133C122.927 493.652 122.79 493.789 122.722 493.995L121.763 498.241C121.694 498.652 121.9 498.995 122.311 499.063C122.379 499.063 122.448 499.063 122.448 499.063C124.365 499.063 125.735 498.926 128.064 498.926C129.502 498.926 133.954 499.063 135.94 499.063C137.926 499.063 138.2 497.077 137.379 496.871C133.68 496.049 130.872 494.954 129.708 493.858C129.571 493.789 129.297 493.652 129.023 493.652Z" fill="#01315F"/>
<path opacity="0.2" d="M123.954 483.105H128.749L128.543 488.858H123.68L123.954 483.105Z" fill="#01315F"/>
<path d="M131.762 487.968H121.42V484.817L132.173 484.612L131.762 487.968Z" fill="#599DF9"/>
<path d="M130.598 494.543C130.94 494.543 131.283 494.474 131.488 494.269C131.694 494.132 131.762 493.858 131.694 493.652C131.694 493.515 131.625 493.378 131.488 493.31C130.94 493.036 129.434 493.995 129.228 494.132C129.16 494.132 129.16 494.2 129.16 494.269C129.16 494.337 129.228 494.337 129.228 494.337C129.708 494.474 130.187 494.543 130.598 494.543ZM131.283 493.515C131.351 493.515 131.351 493.515 131.42 493.515C131.42 493.515 131.488 493.584 131.488 493.652C131.488 493.789 131.42 493.926 131.351 494.063C130.803 494.337 130.187 494.337 129.639 494.132C130.119 493.858 130.735 493.652 131.283 493.515Z" fill="#599DF9"/>
<path d="M129.365 494.337C129.913 494.063 130.872 493.036 130.804 492.488C130.735 492.283 130.598 492.214 130.461 492.214C130.256 492.214 130.119 492.214 129.982 492.351C129.434 492.831 129.297 494.2 129.297 494.269C129.228 494.337 129.228 494.337 129.365 494.337C129.297 494.406 129.365 494.337 129.365 494.337ZM130.324 492.42C130.53 492.42 130.53 492.488 130.53 492.557C130.598 492.899 129.982 493.652 129.502 494.063C129.502 493.515 129.708 492.968 130.05 492.557C130.119 492.42 130.256 492.42 130.324 492.42Z" fill="#599DF9"/>
<path opacity="0.2" d="M131.762 487.968H121.42V484.817L132.173 484.612L131.762 487.968Z" fill="#0C4983"/>
<path d="M157.37 494.823L162.329 494.499L161.494 483.801L156.535 484.125L157.37 494.823Z" fill="#9F5B53"/>
<path d="M162.484 493.739L156.785 493.814C156.595 493.775 156.404 493.983 156.366 494.173L155.629 498.273C155.552 498.653 155.873 499.015 156.253 499.093C156.31 499.055 156.348 499.112 156.405 499.074C158.343 499.024 159.407 498.895 161.839 498.847C163.377 498.814 169.515 498.285 171.247 497.304C172.979 496.322 172.15 494.572 171.313 494.797C167.054 495.807 164.588 495.057 163.319 494.008C163.053 493.855 162.769 493.797 162.484 493.739Z" fill="#01315F"/>
<path opacity="0.2" d="M156.535 484.125L161.494 483.801L161.949 489.33L156.99 489.654L156.535 484.125Z" fill="#01315F"/>
<path d="M165.049 488.183L154.278 488.41L154.099 485.408L165.289 485.068L165.049 488.183Z" fill="#599DF9"/>
<path d="M164.153 494.524C164.495 494.544 164.856 494.47 165.141 494.281C165.313 494.167 165.408 493.94 165.352 493.731C165.334 493.579 165.258 493.464 165.163 493.445C164.575 493.177 162.995 494.14 162.824 494.253C162.767 494.291 162.767 494.291 162.805 494.348C162.842 494.405 162.842 494.405 162.88 494.463C163.317 494.502 163.754 494.542 164.153 494.524ZM164.84 493.577C164.897 493.539 164.935 493.596 165.03 493.616C165.068 493.673 165.068 493.673 165.105 493.73C165.124 493.882 165.085 494.072 164.971 494.147C164.419 494.43 163.773 494.447 163.223 494.236C163.737 493.896 164.27 493.708 164.84 493.577Z" fill="#599DF9"/>
<path d="M162.899 494.368C163.451 494.085 164.405 493.043 164.255 492.568C164.198 492.359 164.066 492.282 163.819 492.281C163.629 492.243 163.458 492.356 163.343 492.432C162.81 492.867 162.729 494.234 162.767 494.291C162.767 494.291 162.805 494.348 162.899 494.368C162.842 494.405 162.842 494.405 162.899 494.368ZM163.818 492.528C164.008 492.567 164.046 492.624 164.046 492.624C164.14 492.89 163.529 493.705 163.015 494.045C163.092 493.665 163.152 492.887 163.514 492.565C163.609 492.585 163.723 492.509 163.818 492.528Z" fill="#599DF9"/>
<path opacity="0.2" d="M165.049 488.183L154.278 488.41L154.099 485.408L165.289 485.068L165.049 488.183Z" fill="#0C4983"/>
<path d="M132.93 400.5C132.93 400.5 128.606 408.03 128.945 414.902C129.284 421.774 127.418 429.21 126.74 436.364C126.062 444.365 123.094 463.191 123.009 467.427C122.925 471.663 123.433 485.312 123.433 485.312L129.284 485.5C129.284 485.5 136.622 452.394 137.894 449.005C139.166 445.617 144.823 422.17 144.993 419.44C145.332 416.71 132.93 400.5 132.93 400.5Z" fill="#599DF9"/>
<path d="M156.87 401.829C156.87 401.829 158.652 410.938 159.077 415.069C159.501 419.201 161.199 444.932 161.453 447.468C161.708 450.097 162.896 481.65 164 485.5H156.445C156.445 485.5 150.674 462.587 150.674 451.693C150.674 440.8 146.175 428.123 143.289 420.986C140.403 413.849 133.782 413.661 132 400.42C132.17 400.42 154.493 397.603 156.87 401.829Z" fill="#599DF9"/>
<path d="M152.483 402.713L140.223 402.85V399.837H152.483V402.713Z" fill="#01315F"/>
<path d="M139.264 399.837V402.85L130.908 402.919V399.837H139.264Z" fill="#01315F"/>
<path d="M153.442 399.837H157.003L157.345 402.645H153.442V399.837Z" fill="#01315F"/>
<path d="M145.086 399.289H149.949V402.782H145.086V399.289Z" fill="#0C4983"/>
<path d="M156.797 399.426L130.634 401.138C129.195 388.467 125.017 375.386 123.784 370.797C123.579 370.112 123.99 369.427 124.675 369.221C125.976 368.879 127.277 368.537 128.647 368.194C135.428 366.687 142.688 366.002 147.208 365.728C149.948 365.523 151.66 366.208 151.66 366.208C155.633 377.372 156.523 391.001 156.797 399.426Z" fill="#0C4983"/>
<path d="M125.813 379.716C126.091 380.708 126.369 381.7 126.577 382.763C128.037 388.502 129.496 395.374 130.261 402.105L156.813 400.334C156.604 394.028 156.048 384.959 154.241 376.032C151.6 369.797 144.927 367.105 144.927 367.105C144.927 367.105 144.162 368.735 140.896 369.16C137.559 369.656 133.18 368.593 133.18 368.593C128.037 372.702 126.716 380.354 126.716 380.354C126.716 380.354 126.369 380.071 125.813 379.716Z" fill="#FE2B1E"/>
<path opacity="0.2" d="M124.881 374.495C125.497 376.687 126.251 379.358 127.073 382.44C129.949 378.399 127.347 372.577 127.347 372.577C126.319 372.92 125.566 373.605 124.881 374.495Z" fill="#01315F"/>
<path d="M133.374 367.441C135.634 369.495 141.113 368.742 141.113 368.742C141.113 368.742 144.538 367.783 143.853 366.756C141.798 366.413 140.839 365.454 140.428 364.29C140.223 363.605 140.154 362.783 140.223 361.961C140.223 361.756 140.291 361.55 140.291 361.413C140.291 361.14 140.36 360.934 140.428 360.66L133.648 355.592C133.922 356.482 134.127 357.647 134.333 358.879C134.812 361.756 134.949 365.043 133.785 366.893C133.648 367.098 133.511 367.304 133.374 367.441Z" fill="#9F5B53"/>
<path opacity="0.2" d="M133.785 366.893C138.648 366.619 139.949 362.92 140.291 361.345C140.36 360.934 140.428 360.592 140.428 360.592C138.1 359.633 136.114 359.016 134.333 358.811C134.744 361.756 134.949 365.043 133.785 366.893Z" fill="#01315F"/>
<path d="M142.88 344.633C142.88 344.633 146.03 350.455 143.633 354.016C141.167 357.578 137.058 346.072 137.058 346.072L142.88 344.633Z" fill="#0C4983"/>
<path d="M145.688 357.304C145.688 357.51 145.619 357.784 145.619 357.989C145.482 358.811 145.208 359.633 144.798 360.318C144.387 361.071 143.77 361.687 143.154 362.167C141.921 363.057 140.483 363.537 138.907 363.4C137.88 363.331 136.853 362.989 135.894 362.304C133.154 360.386 132.675 357.578 131.579 353.058C131.305 352.099 131.305 351.071 131.51 350.044C132.264 346.551 135.688 344.359 139.181 345.113C144.044 346.209 145.962 352.921 145.688 357.304Z" fill="#9F5B53"/>
<path d="M133.976 346.62L134.661 348.606C134.044 349.085 133.839 349.976 134.318 350.661C135.346 352.236 135.003 355.044 133.907 356.414C133.907 356.414 133.702 355.66 133.085 356.003C132.469 356.345 133.565 360.112 135.209 361.688C135.209 361.688 133.017 360.455 131.031 356.619C129.25 353.126 128.428 350.044 128.839 348.4L133.976 346.62Z" fill="#0C4983"/>
<path d="M130.209 357.167C130.894 358.126 131.99 358.743 133.154 358.948C134.729 359.153 135.277 357.715 134.729 356.345C134.181 355.113 132.743 353.537 131.236 353.948C129.73 354.359 129.387 356.003 130.209 357.167Z" fill="#9F5B53"/>
<path d="M128.771 349.496C128.771 349.496 127.675 346.962 131.442 343.948C135.209 340.935 140.277 342.373 142.674 339.976C145.071 337.579 146.784 344.907 140.962 347.031C135.209 349.085 128.771 349.496 128.771 349.496Z" fill="#0C4983"/>
<path d="M167.619 377.303C165.564 374.358 163.373 375.111 150.633 373.81C150.633 373.81 149.88 372.303 149.469 372.235C148.99 372.166 142.209 371.961 142.209 371.961L142.963 378.673C142.963 378.673 147.688 379.221 148.853 379.015C149.332 378.947 150.633 377.577 150.633 377.577C150.633 377.577 163.921 381.276 165.701 381.07C167.482 380.933 168.989 379.289 167.619 377.303Z" fill="#9F5B53"/>
<path d="M114.744 379.016C114.744 379.016 108.991 383.741 110.155 387.851C111.32 391.96 124.812 399.768 124.812 399.768C124.812 399.768 123.648 401.754 123.717 402.645C123.785 403.535 124.812 408.33 124.812 408.33L129.812 405.864C129.812 405.864 129.333 401.686 129.333 400.59C129.333 399.494 127.552 398.193 127.552 398.193C127.552 398.193 116.046 387.919 116.046 387.029C116.046 386.07 119.539 382.714 119.539 382.714L114.744 379.016Z" fill="#9F5B53"/>
<path d="M124.676 369.29C120.84 371.071 113.238 380.043 113.238 380.043L118.922 386.618L127.21 380.112C127.21 380.112 128.032 374.906 127.347 372.578C126.662 370.249 124.676 369.29 124.676 369.29Z" fill="#0C4983"/>
<path d="M483.754 191.15L484.302 187.931C484.302 187.931 483.754 186.973 483.412 186.562C483.069 186.151 482.179 179.713 482.179 179.713L488.069 178.48C488.069 178.48 488.617 184.849 488.617 185.466C488.617 186.082 487.179 187.794 487.179 187.794L486.562 191.698L483.754 191.15Z" fill="#F7A491"/>
<path d="M467.864 193.273C470.809 193.342 479.987 203.273 479.987 203.273L483.343 189.917L487.932 190.944C487.932 190.944 486.562 207.588 483.891 209.916C481.151 212.245 466.974 203.958 466.974 203.958L467.864 193.273Z" fill="#599DF9"/>
<path d="M488 190.876C488 190.876 486.63 207.52 483.959 209.848C482.452 211.15 477.453 209.163 473.275 207.177C470.877 206.013 468.754 204.849 467.727 204.232C467.316 203.958 467.042 203.821 467.042 203.821L467.384 199.712L467.521 197.999L467.932 193.205C470.877 193.274 480.055 203.205 480.055 203.205L483.48 189.849L488 190.876Z" fill="#0C4983"/>
<path opacity="0.2" d="M473.206 207.177C470.809 206.013 468.686 204.849 467.659 204.232C467.453 202.588 467.316 201.013 467.316 199.712C467.316 199.095 467.385 198.479 467.453 198C467.453 198.068 472.179 201.493 473.206 207.177Z" fill="#01315F"/>
<path d="M447.317 330.734H441.29C441.085 330.734 440.879 330.871 440.879 331.076L439.92 335.46C439.852 335.871 440.057 336.213 440.468 336.35C440.537 336.35 440.605 336.35 440.605 336.35C442.523 336.35 443.961 336.213 446.427 336.213C447.934 336.213 452.454 336.35 454.577 336.35C456.632 336.35 456.906 334.295 456.084 334.09C452.248 333.268 449.372 332.104 448.139 331.008C447.934 330.802 447.591 330.734 447.317 330.734Z" fill="#0C4983"/>
<path d="M472.864 330.597H466.837C466.631 330.597 466.426 330.734 466.426 330.939L465.467 335.323C465.398 335.733 465.604 336.076 466.015 336.213C466.083 336.213 466.152 336.213 466.152 336.213C468.07 336.213 469.508 336.076 471.974 336.076C473.48 336.076 478.001 336.213 480.124 336.213C482.179 336.213 482.453 334.158 481.631 333.953C477.795 333.131 474.919 331.966 473.686 330.871C473.412 330.665 473.138 330.528 472.864 330.597Z" fill="#0C4983"/>
<path d="M444.098 229.163H470.399C472.933 242.792 480.741 288.27 475.124 331.282H466.221C466.221 331.282 467.042 275.942 459.166 254.778C458.276 266.079 449.098 331.213 449.098 331.213H440.057C440.057 331.213 441.427 312.927 442.797 286.284C443.619 269.504 444.098 232.656 444.098 229.163Z" fill="#599DF9"/>
<path opacity="0.6" d="M444.098 229.163H470.399C472.933 242.792 480.741 288.27 475.124 331.282H466.221C466.221 331.282 467.042 275.942 459.166 254.778C458.276 266.079 449.098 331.213 449.098 331.213H440.057C440.057 331.213 441.427 312.927 442.797 286.284C443.619 269.504 444.098 232.656 444.098 229.163Z" fill="#599DF9"/>
<path opacity="0.2" d="M459.166 254.847C460.33 257.929 461.289 261.833 462.111 266.216C462.864 256.148 459.919 245.463 459.919 245.463L459.166 254.847Z" fill="#01315F"/>
<path d="M466.084 232.382L453.618 232.519V229.505H466.084V232.382Z" fill="#01315F"/>
<path d="M452.659 229.505V232.519L444.167 232.656V229.505H452.659Z" fill="#01315F"/>
<path d="M467.042 229.505H470.604L470.946 232.313L467.042 232.382V229.505Z" fill="#01315F"/>
<path d="M440.057 193.274C440.263 194.849 440.468 196.698 440.674 198.616C440.811 199.849 440.948 201.15 441.153 202.52C441.427 204.643 441.633 206.903 441.906 209.301C441.975 209.917 442.043 210.533 442.112 211.15C442.797 216.972 443.482 223.204 444.098 229.437H470.536C470.536 229.437 472.522 210.396 467.727 193.205H440.057V193.274Z" fill="#599DF9"/>
<path d="M456.769 197.52C456.769 197.52 445.399 196.493 443.55 193.548C441.632 190.603 451.975 186.836 458.55 188C465.193 189.164 471.083 193.685 456.769 197.52Z" fill="#599DF9"/>
<path d="M456.769 197.52C456.769 197.52 445.399 196.493 443.55 193.548C441.632 190.603 451.975 186.836 458.55 188C465.193 189.164 471.083 193.685 456.769 197.52Z" fill="#0C4983"/>
<path d="M454.098 196.904C454.098 196.904 458.07 201.904 455.193 207.862" stroke="white" stroke-width="0.5" stroke-miterlimit="10" stroke-linecap="round" stroke-linejoin="round"/>
<path d="M455.262 207.588C455.262 207.588 454.782 207.52 454.508 208.136L455.193 208.547C455.125 208.547 455.536 208.068 455.262 207.588Z" fill="white"/>
<path d="M463.344 203.068C463.344 203.068 463.412 203.547 464.097 203.684L464.303 202.931C464.303 202.862 463.755 202.657 463.344 203.068Z" fill="white"/>
<path d="M458.481 196.904C458.481 196.904 458.481 202.862 463.549 203.068" stroke="white" stroke-width="0.5" stroke-miterlimit="10" stroke-linecap="round" stroke-linejoin="round"/>
<path d="M450.399 192.178C450.331 192.657 450.125 193.205 449.646 193.753L456.769 197.52L459.988 194.027C459.988 194.027 458.413 192.794 457.111 190.192C456.426 188.753 455.741 186.973 455.467 184.712L448.892 189.164C449.029 189.164 450.673 190.466 450.399 192.178Z" fill="#F7A491"/>
<path opacity="0.2" d="M450.399 192.178C453.55 193 455.81 191.561 457.111 190.192C456.426 188.753 455.741 186.973 455.467 184.712L448.892 189.164C449.029 189.164 450.673 190.466 450.399 192.178Z" fill="#01315F"/>
<path d="M443.637 174.715C443.637 174.715 442.818 181.308 446.388 183.683C449.95 186.127 449.6 173.937 449.6 173.937L443.637 174.715Z" fill="#01315F"/>
<path d="M456.612 188.611C454.991 191.101 452.282 191.8 449.886 191.089C448.356 190.623 446.962 189.621 446.043 188.127C445.933 187.906 445.814 187.753 445.703 187.532C443.916 183.584 443.129 176.584 447.332 173.862C450.269 171.881 454.246 172.65 456.219 175.656C456.806 176.488 457.172 177.431 457.249 178.476C457.848 183.105 458.479 185.806 456.612 188.611Z" fill="#F7A491"/>
<path d="M452.708 173.357L452.454 174.291C454.077 174.562 454.053 176.422 453.816 177.221C453.384 179.031 454.796 181.553 456.275 182.427C456.275 182.427 456.232 181.662 456.844 181.738C457.524 181.822 457.935 185.738 456.993 187.761C456.993 187.761 458.614 185.823 459.002 181.592C459.423 177.641 459.055 174.49 458.043 173.191L452.708 173.357Z" fill="#01315F"/>
<path d="M460.013 181.786C459.733 182.925 458.987 183.937 457.951 184.498C456.609 185.298 455.512 184.126 455.554 182.682C455.578 181.374 456.383 179.334 457.921 179.18C459.39 179.018 460.326 180.376 460.013 181.786Z" fill="#F7A491"/>
<path d="M459.158 175.883C459.158 175.883 460.234 171.668 454.863 169.345C449.492 167.022 444.585 170.415 443.932 172.336C443.932 172.336 440.875 174.165 443.639 176.924L445.251 174.501C445.183 174.493 450.496 178.948 459.158 175.883Z" fill="#01315F"/>
<path d="M258.256 433.771H252.317C252.112 433.771 251.976 433.908 251.908 434.113L250.952 438.413C250.884 438.823 251.088 439.164 251.498 439.232C251.566 439.232 251.634 439.232 251.634 439.232C253.546 439.232 254.911 439.096 257.368 439.096C258.87 439.096 263.307 439.232 265.355 439.232C267.402 439.232 267.675 437.184 266.856 437.048C263.102 436.229 260.303 435.068 259.075 434.045C258.87 433.908 258.529 433.771 258.256 433.771Z" fill="#01315F"/>
<path d="M283.307 433.635H277.368C277.163 433.635 277.027 433.771 276.959 433.976L276.003 438.276C275.935 438.686 276.14 439.027 276.549 439.096C276.617 439.096 276.686 439.096 276.686 439.096C278.597 439.096 279.962 438.959 282.419 438.959C283.921 438.959 288.358 439.096 290.406 439.096C292.454 439.096 292.727 437.048 291.907 436.911C288.153 436.092 285.355 434.932 284.126 433.908C283.921 433.703 283.648 433.635 283.307 433.635Z" fill="#01315F"/>
<path opacity="0.6" d="M258.256 433.771H252.317C252.112 433.771 251.976 433.908 251.908 434.113L250.952 438.413C250.884 438.823 251.088 439.164 251.498 439.232C251.566 439.232 251.634 439.232 251.634 439.232C253.546 439.232 254.911 439.096 257.368 439.096C258.87 439.096 263.307 439.232 265.355 439.232C267.402 439.232 267.675 437.184 266.856 437.048C263.102 436.229 260.303 435.068 259.075 434.045C258.87 433.908 258.529 433.771 258.256 433.771Z" fill="#01315F"/>
<path opacity="0.6" d="M283.307 433.635H277.368C277.163 433.635 277.027 433.771 276.959 433.976L276.003 438.276C275.935 438.686 276.14 439.027 276.549 439.096C276.617 439.096 276.686 439.096 276.686 439.096C278.597 439.096 279.962 438.959 282.419 438.959C283.921 438.959 288.358 439.096 290.406 439.096C292.454 439.096 292.727 437.048 291.907 436.911C288.153 436.092 285.355 434.932 284.126 433.908C283.921 433.703 283.648 433.635 283.307 433.635Z" fill="#01315F"/>
<path d="M299.609 314.727L303.535 313.331C303.535 313.331 304.664 312.074 305.473 311.644C306.281 311.215 312.687 310.713 312.687 310.713L312.278 316.186C312.278 316.186 306.032 317.639 304.833 316.099L300.907 317.494L299.609 314.727Z" fill="#F7A491"/>
<path d="M269.89 308.571C269.696 308.985 269.709 309.531 269.929 310.14C270.521 311.969 272.015 314.39 273.777 316.599C276.459 320.083 279.814 323.208 281.534 323.712C284.42 324.459 303.867 318.444 303.867 318.444L301.404 312.769C301.404 312.769 285.76 317.939 283.691 317.103C281.62 316.199 278.952 310.53 278.055 307.411C277.987 307.413 270.989 306.085 269.89 308.571Z" fill="#599DF9"/>
<path d="M285.943 317.048L284.603 323.568C283.175 323.808 282.085 323.904 281.536 323.781C281.055 323.656 280.362 323.264 279.598 322.737L284.172 317.229C284.649 317.217 285.262 317.133 285.943 317.048Z" fill="white"/>
<path d="M300.727 312.992L303.19 318.666C302.512 318.888 301.427 319.188 300.073 319.631L297.746 313.954C299.032 313.512 300.049 313.214 300.727 312.992Z" fill="white"/>
<path d="M292.526 315.45L294.105 321.283C293.02 321.583 291.867 321.885 290.782 322.185L290.424 316.049C291.101 315.827 291.849 315.672 292.526 315.45Z" fill="white"/>
<path d="M282.926 316.577L278.55 321.807C277.643 321.01 276.732 320.077 275.749 319.009L281.801 315.239C282.225 315.843 282.577 316.244 282.926 316.577Z" fill="white"/>
<path d="M281.091 314.165L274.905 318.006C273.991 316.936 273.145 315.865 272.433 314.722L279.368 310.794C279.876 312.01 280.451 313.156 281.091 314.165Z" fill="white"/>
<path d="M277.987 307.414C280.06 311.11 278.432 308.837 278.793 309.647L271.587 313.65C270.804 312.373 270.161 311.228 269.863 310.211C268.451 305.603 275.914 303.718 277.987 307.414Z" fill="white"/>
<path d="M287.437 316.738C287.981 316.656 288.524 316.506 289.134 316.354L289.492 322.49C288.271 322.794 287.116 323.027 286.097 323.258L287.437 316.738Z" fill="white"/>
<path d="M293.814 315.077C294.696 314.85 295.576 314.555 296.39 314.33L298.717 320.007C297.7 320.306 296.615 320.606 295.393 320.909L293.814 315.077Z" fill="white"/>
<path opacity="0.2" d="M269.89 308.571C269.696 308.986 269.709 309.532 269.929 310.141C270.521 311.97 272.015 314.391 273.777 316.6C274.728 313.64 273.304 308.555 273.304 308.555C273.304 308.555 271.591 308.324 269.89 308.571Z" fill="#01315F"/>
<path d="M255.116 338.283H280.918C283.375 351.662 291.088 392.133 285.559 434.386H276.822C276.822 434.386 277.641 384.222 269.928 363.471C269.041 374.597 260.03 434.317 260.03 434.317H251.157C251.157 434.317 252.454 420.536 253.819 394.324C254.638 377.805 255.116 341.628 255.116 338.283Z" fill="#0C4983"/>
<path opacity="0.2" d="M269.928 363.403C271.088 366.474 272.044 370.297 272.795 374.597C273.546 364.7 270.611 354.256 270.611 354.256L269.928 363.403Z" fill="#01315F"/>
<path d="M277.573 341.355H281.464L281.191 338.556H277.573V341.355Z" fill="#01315F"/>
<path d="M263.512 338.556H255.184V341.628L263.512 341.56V338.556Z" fill="#01315F"/>
<path d="M264.467 341.56L276.686 341.423V338.556H264.467V341.56Z" fill="#01315F"/>
<path d="M270.065 341.765H273.273C273.682 341.765 274.024 341.423 274.024 341.014V339.102C274.024 338.693 273.682 338.352 273.273 338.352H270.065C269.655 338.352 269.314 338.693 269.314 339.102V341.014C269.314 341.423 269.655 341.765 270.065 341.765Z" stroke="white" stroke-miterlimit="10" stroke-linecap="round" stroke-linejoin="round"/>
<path d="M271.43 339.99H269.928" stroke="white" stroke-miterlimit="10" stroke-linecap="round" stroke-linejoin="round"/>
<path d="M246.31 312.276C246.788 313.3 247.334 314.597 247.948 316.235C248.631 318.078 249.45 320.331 250.201 322.788C251.771 327.908 253.341 334.256 254.365 341.287L282.078 338.01C282.078 338.01 280.098 319.99 273.682 305.45L247.744 309.614C246.447 309.819 245.764 311.184 246.31 312.276Z" fill="#599DF9"/>
<path d="M279.553 323.88L252.113 329.819C251.84 328.727 251.567 327.635 251.294 326.611L278.597 319.853C278.939 321.218 279.28 322.583 279.553 323.88Z" fill="white"/>
<path d="M246.31 312.276C246.72 313.095 247.198 314.188 247.676 315.416L275.525 309.955C275.048 308.727 274.57 307.566 274.092 306.406L265.696 307.771C265.491 308.932 264.809 310.365 262.829 310.775C260.167 311.389 257.095 310.433 255.594 309.341L246.242 310.843C246.037 311.252 246.037 311.799 246.31 312.276Z" fill="white"/>
<path d="M276.754 313.71L249.314 320.126C248.904 318.897 248.495 317.737 248.085 316.713L275.867 311.252C276.208 312.072 276.549 312.891 276.754 313.71Z" fill="white"/>
<path d="M281.669 334.87L253.955 338.693C253.819 337.805 253.614 336.918 253.478 336.031L281.054 330.911C281.259 332.413 281.464 333.778 281.669 334.87Z" fill="white"/>
<path d="M281.873 336.235C282.01 337.396 282.078 338.078 282.078 338.078L254.365 341.355C254.297 340.877 254.228 340.467 254.16 339.99L281.873 336.235Z" fill="white"/>
<path d="M277.232 315.075C277.573 316.235 277.915 317.396 278.256 318.488L250.952 325.246C250.543 323.949 250.201 322.652 249.792 321.491L277.232 315.075Z" fill="white"/>
<path d="M279.894 325.246C280.235 326.747 280.508 328.249 280.781 329.546L253.205 334.665C252.932 333.437 252.727 332.276 252.454 331.184L279.894 325.246Z" fill="white"/>
<path opacity="0.2" d="M247.949 316.235C248.631 318.078 249.45 320.331 250.201 322.788C251.566 319.307 249.655 314.802 249.655 314.802C248.972 315.143 248.426 315.689 247.949 316.235Z" fill="#01315F"/>
<path d="M263.648 309.683C263.648 309.683 258.187 310.706 255.867 308.727C256.89 307.498 257.095 305.314 256.89 303.061C256.754 301.423 256.344 299.785 256.003 298.352C255.867 297.874 255.73 297.396 255.594 296.986L262.556 301.696C262.556 301.833 262.556 301.901 262.488 302.038C262.488 302.379 262.419 302.652 262.419 302.993C262.419 303.812 262.488 304.563 262.692 305.314C262.966 305.928 262.966 306.406 263.239 306.747C263.512 307.02 263.921 307.225 264.877 307.294C265.696 308.317 263.648 309.683 263.648 309.683Z" fill="#F7A491"/>
<path opacity="0.2" d="M263.307 306.679C261.327 306.27 258.733 305.314 256.89 303.061C256.754 301.423 256.344 299.785 256.003 298.352L262.556 301.969C262.556 302.311 262.488 302.584 262.488 302.925C262.488 303.744 262.556 304.495 262.761 305.246C263.034 305.86 263.034 306.338 263.307 306.679Z" fill="#01315F"/>
<path d="M254.365 297.669C254.365 297.669 252.727 298.283 252.385 297.328C251.976 296.372 252.59 295.075 251.907 294.734C251.157 294.392 249.518 294.188 249.723 293.3C249.928 292.413 251.02 291.73 250.406 291.048C249.723 290.365 248.358 289.409 249.109 288.727C249.86 288.044 250.542 286.952 249.996 286.474C249.45 285.997 250.474 283.607 251.907 283.88C253.341 284.222 253.204 282.993 253.273 281.969C253.341 280.945 255.593 280.263 256.003 281.355C256.413 282.447 257.641 281.218 258.051 280.331C258.46 279.444 259.143 279.171 260.372 279.99C261.6 280.809 261.6 282.993 262.419 281.764C263.239 280.536 264.809 279.921 265.423 280.672C266.105 281.491 265.559 282.311 266.72 282.379C267.88 282.447 269.245 284.7 268.631 284.973C268.017 285.246 268.085 285.792 268.768 286.543C269.45 287.225 270.269 288.317 269.245 288.727C268.221 289.068 268.153 289.819 268.426 290.16C268.699 290.502 267.675 291.867 266.31 291.662C264.945 291.321 254.365 297.669 254.365 297.669Z" fill="#0C4983"/>
<path d="M267.607 285.723C267.607 285.723 269.587 292.14 266.515 295.143C263.443 298.147 261.6 285.996 261.6 285.996L267.607 285.723Z" fill="#0C4983"/>
<path d="M257.163 301.833C259.211 304.017 262.078 304.222 264.331 303.13C265.764 302.447 266.993 301.15 267.675 299.512C267.744 299.307 267.812 299.102 267.88 298.829C268.972 294.597 268.494 287.498 263.853 285.519C260.576 284.085 256.754 285.587 255.32 288.863C254.911 289.819 254.706 290.843 254.774 291.867C254.911 296.577 254.843 299.375 257.163 301.833Z" fill="#F7A491"/>
<path d="M258.392 285.997L258.802 286.884C257.232 287.43 257.573 289.273 257.914 290.092C258.665 291.867 257.71 294.597 256.413 295.689C256.413 295.689 256.344 294.939 255.73 295.143C255.116 295.348 255.389 299.307 256.686 301.15C256.686 301.15 254.706 299.512 253.546 295.348C252.454 291.526 252.249 288.317 253 286.816L258.392 285.997Z" fill="#0C4983"/>
<path d="M252.59 295.689C253.068 296.781 254.024 297.601 255.116 298.01C256.617 298.556 257.437 297.259 257.164 295.758C256.891 294.461 255.73 292.549 254.228 292.686C252.658 292.822 251.976 294.324 252.59 295.689Z" fill="#F7A491"/>
<path d="M262.078 283.539C262.078 283.539 264.604 283.812 265.833 284.973C266.993 286.133 267.744 287.908 267.266 287.976C266.788 288.044 265.491 287.157 265.15 287.294C264.809 287.43 264.604 289.478 263.375 288.659C262.147 287.84 262.897 287.908 261.874 287.567C260.85 287.225 260.167 288.454 259.689 288.317C259.28 288.181 258.802 287.771 258.802 287.771C258.802 287.771 260.235 287.43 260.372 287.021C260.508 286.611 261.874 286.474 261.874 286.474C261.874 286.474 260.304 285.724 259.689 286.133C259.143 286.543 259.348 287.635 257.983 287.43C256.618 287.294 254.433 288.249 254.365 286.474C254.297 284.836 259.075 282.106 262.078 283.539Z" fill="#0C4983"/>
<path d="M264.05 326.747L268.224 326.455C268.224 326.455 269.683 325.54 270.592 325.35C271.501 325.16 277.906 326.396 277.906 326.396L275.983 331.668C275.983 331.668 269.462 331.353 268.715 329.52L264.479 329.785L264.05 326.747Z" fill="#F7A491"/>
<path d="M246.305 310.5C245.305 311.328 244.061 313.125 243.903 314.444C243.22 320.16 242.76 328.969 245.316 332.613C248.463 337.098 266.197 331.456 266.197 331.456L266.21 325.773C266.21 325.773 253.86 327.102 252.696 327.027C251.809 327.002 252.905 317.914 253.344 314.444C253.431 313.585 253.033 312.807 252.224 312.442C251.539 312.134 250.605 311.714 249.581 311.328C247.375 310.41 246.305 310.5 246.305 310.5Z" fill="#599DF9"/>
<path d="M256.456 333.808L257.66 326.641C258.756 326.535 259.852 326.429 260.947 326.323L260.972 332.922C259.577 333.192 258.065 333.559 256.456 333.808Z" fill="white"/>
<path d="M245.317 332.613C245.186 332.404 245.055 332.196 244.924 331.987L252.634 326.998L249.633 334.331C247.673 334.197 246.095 333.711 245.317 332.613Z" fill="white"/>
<path d="M252.457 323.401C249.232 323.746 245.855 324.097 243.421 324.349C243.365 322.977 243.372 321.632 243.468 320.254L252.709 319.846C252.606 321.072 252.503 322.299 252.457 323.401Z" fill="white"/>
<path d="M252.363 325.604L244.417 330.786C243.932 329.37 243.649 327.67 243.449 325.784C245.883 325.532 249.35 325.146 252.332 324.842C252.373 325.084 252.351 325.299 252.363 325.604Z" fill="white"/>
<path d="M254.221 326.964C254.769 326.911 255.469 326.852 256.26 326.759L255.089 334.017C253.723 334.225 252.413 334.309 251.13 334.331L254.221 326.964Z" fill="white"/>
<path d="M243.904 314.462C244.063 313.111 245.305 311 246.305 310.5C246.305 310.5 247.312 310.381 249.609 311.265C250.633 311.651 251.567 312.072 252.252 312.38C252.999 312.716 253.459 313.522 253.372 314.381C253.378 314.534 253.294 314.72 253.272 314.935L243.904 314.462Z" fill="white"/>
<path d="M253.114 316.286C253.048 316.93 252.927 317.699 252.896 318.433L243.537 318.937C243.584 317.835 243.665 316.824 243.808 315.84L253.114 316.286Z" fill="white"/>
<path d="M262.285 326.177C263.776 326.025 265.114 325.879 265.753 325.791L265.774 331.565C265.17 331.742 263.872 332.131 262.332 332.561L262.285 326.177Z" fill="white"/>
<path d="M440.057 193.274C440.057 193.274 428.33 199.338 424.631 199.955C420.933 200.571 411.72 209.15 411.72 209.15L415.213 211.205C415.213 211.205 423.741 204.817 427.028 205.228C429.426 205.502 441.153 202.588 441.153 202.588C441.153 202.588 442.523 196.698 440.057 193.274Z" fill="#0C4983"/>
<path d="M394.166 202.894C394.166 203.407 398.849 204.138 398.849 204.138C398.849 204.138 402.948 217.897 404.777 217.897C405.875 217.897 410.266 215.409 413.632 213.433C415.315 212.481 416.706 211.603 417.291 211.237C417.511 211.091 417.584 211.018 417.584 211.018L417.73 209.115L417.877 207.212L418.096 203.992C415.389 204.724 407.265 211.53 406.094 212.042C404.923 212.628 401.045 202.236 401.045 202.236C401.045 202.236 401.338 201.284 401.045 200.845C400.24 199.674 394.385 198.65 394.239 198.503C393.946 198.503 394.166 202.382 394.166 202.894Z" fill="#9F5B53"/>
<path opacity="0.2" d="M413.632 213.506C415.315 212.555 416.706 211.676 417.291 211.31C417.438 210.579 417.584 209.847 417.73 209.261C417.95 208.09 418.096 207.212 418.096 207.212C418.096 207.212 418.023 207.285 417.877 207.359C416.999 208.017 413.779 210.432 413.632 213.506Z" fill="#01315F"/>
<path d="M437.856 179.476C445.833 181.452 446.565 189.721 443.93 194.844C441.295 199.894 437.856 199.089 437.344 202.089C436.831 205.09 435.075 203.992 435.075 203.992L435.148 202.894C435.148 202.894 434.05 204.651 431.489 203.919C428.928 203.187 427.83 202.382 427.83 202.382L426.878 202.968C426.878 202.968 424.829 202.382 425.561 200.406C426.293 198.43 423.439 191.844 423.951 187.233C424.537 182.55 428.342 182.037 433.831 183.062L437.856 179.476Z" fill="#FE2B1E"/>
<path d="M397.971 331.795L402.142 332.527L403.899 326.819L405.436 321.55L400.606 319.866L399.215 326.16L397.971 331.795Z" fill="#9F5B53"/>
<path opacity="0.2" d="M399.215 326.307L403.899 326.965L405.436 321.623L400.606 319.94L399.215 326.307Z" fill="#01315F"/>
<path d="M425.927 333.698H430.171L430.903 327.697L431.489 322.282L426.439 321.403L426.22 327.917L425.927 333.698Z" fill="#9F5B53"/>
<path opacity="0.2" d="M426.22 327.99L430.903 327.77L431.489 322.282L426.439 321.477L426.22 327.99Z" fill="#01315F"/>
<path d="M398.776 323.013L405.656 324.258C412.608 306.986 417.511 302.496 421.024 290.494C422.927 284.054 424.464 278.273 425.561 273.15L425.342 291.958V324.404H432.148C449.126 243.464 437.124 234.948 437.124 234.948L416.779 231.582C415.974 234.583 415.389 239.559 415.096 242.999L414.145 249.731L406.168 290.787L398.776 323.013Z" fill="#0C4983"/>
<path opacity="0.2" d="M421.097 290.494C423 284.054 424.463 278.273 425.561 273.15C425.561 273.15 425.415 263.197 424.244 255.074C424.244 255.074 421.243 278.419 421.097 290.494Z" fill="#01315F"/>
<path d="M416.34 230.045L437.124 232.46C437.417 228.069 437.783 224.63 439.246 219.36C439.466 218.555 439.759 217.75 439.978 216.872C440.271 215.848 440.637 214.75 441.076 213.579C441.369 212.701 441.734 211.676 442.1 210.652C442.174 210.359 442.32 210.066 442.466 209.7C442.832 208.676 443.271 207.578 443.71 206.407C441.003 205.675 438.222 205.017 435.441 204.651C432.44 204.212 429.513 203.919 426.439 203.846C422.561 203.846 418.096 204.212 418.096 204.212C418.096 204.212 417.438 204.358 417.072 208.017C416.706 211.457 415.535 217.458 416.34 230.045Z" fill="#599DF9"/>
<path d="M426.659 205.017C426.805 204.943 427.025 204.87 427.244 204.724C427.683 204.358 428.269 203.48 428.269 201.357C428.269 200.699 428.195 199.821 428.049 198.869L433.977 197.771C433.977 197.771 431.928 201.797 433.611 204.724C434.196 205.017 434.562 205.382 434.489 205.822C434.05 209.261 427.537 209.92 427.537 209.92C427.537 209.92 423.073 206.993 426.659 205.017Z" fill="#9F5B53"/>
<path opacity="0.2" d="M428.049 198.869C428.196 199.821 428.269 200.699 428.269 201.357C432.294 201.357 433.977 197.771 433.977 197.771L428.049 198.869Z" fill="#01315F"/>
<path d="M434.563 179.769C434.563 179.769 428.122 176.988 425.342 181.964C422.561 186.94 425.854 191.185 425.854 191.185L434.563 179.769Z" fill="#FE2B1E"/>
<path d="M434.343 182.842C429.44 181.159 427.025 183.208 424.829 188.038C422.195 194.186 421.975 199.089 428.561 199.894C437.49 200.992 442.393 185.696 434.343 182.842Z" fill="#9F5B53"/>
<path d="M436.758 192.941C436.758 192.941 435.88 188.111 437.343 185.184C437.343 185.184 429.074 177.866 425.195 187.453C425.195 187.453 427.317 178.451 435.733 181.159C444.149 183.94 439.832 196.161 434.197 198.284C434.197 198.284 437.27 195.942 436.758 192.941Z" fill="#FE2B1E"/>
<path d="M433.831 179.183C433.831 179.183 430.025 176.988 428.562 177.719C427.098 178.451 433.099 188.477 437.197 190.453C437.197 190.453 437.27 195.649 435.441 197.552C435.441 197.552 440.783 197.259 443.125 189.941C445.54 182.696 438.588 177.646 433.831 179.183Z" fill="#FE2B1E"/>
<path d="M435.587 193.673C435.88 192.868 437.197 191.844 438.588 192.502C440.051 193.234 439.685 196.527 435.66 195.942C435.075 195.869 435.002 195.283 435.587 193.673Z" fill="#9F5B53"/>
<path d="M428.854 178.232C428.854 178.232 429 185.77 434.123 189.502" stroke="#FE2B1E" stroke-width="0.6862" stroke-miterlimit="10" stroke-linecap="round" stroke-linejoin="round"/>
<path d="M437.051 232.167L416.34 230.338V233.924L437.563 235.753L437.051 232.167Z" fill="#01315F"/>
<path d="M422.121 231.948V233.631C422.121 234.29 422.633 234.875 423.292 234.948L425.853 235.168C425.927 235.168 425.927 235.168 426 235.168C426.293 235.168 426.658 235.022 426.878 234.802C427.171 234.582 427.317 234.217 427.317 233.851V232.167C427.317 231.509 426.805 230.923 426.146 230.85L423.585 230.631C423.219 230.631 422.853 230.704 422.633 230.997C422.267 231.216 422.121 231.582 422.121 231.948ZM422.78 233.558V233.046L423.512 233.119C423.731 233.119 423.951 232.972 423.951 232.68C423.951 232.46 423.804 232.241 423.512 232.241L422.78 232.167H422.707V231.948C422.707 231.802 422.78 231.582 422.926 231.509C423.072 231.436 423.219 231.362 423.365 231.362C423.365 231.362 423.365 231.362 423.438 231.362L426 231.582C426.293 231.582 426.585 231.875 426.585 232.167V233.851C426.585 233.997 426.512 234.217 426.366 234.29C426.219 234.436 426.073 234.436 425.853 234.436L423.292 234.217C422.999 234.143 422.78 233.924 422.78 233.558Z" fill="white"/>
<path d="M395.044 332.015C394.678 332.015 394.312 331.942 394.092 331.722C393.873 331.576 393.8 331.283 393.873 331.063C393.873 330.917 393.946 330.771 394.092 330.698C394.678 330.405 396.288 331.429 396.507 331.576C396.581 331.576 396.581 331.649 396.581 331.722C396.581 331.795 396.507 331.795 396.507 331.795C395.922 331.942 395.483 332.015 395.044 332.015ZM394.239 330.917C394.166 330.917 394.166 330.917 394.092 330.917C394.092 330.917 394.019 330.99 394.019 331.063C394.019 331.21 394.092 331.356 394.166 331.503C394.751 331.795 395.41 331.795 395.995 331.576C395.483 331.283 394.897 331.063 394.239 330.917Z" fill="#01315F"/>
<path d="M396.361 331.795C395.776 331.503 394.751 330.405 394.824 329.819C394.898 329.6 395.044 329.527 395.19 329.527C395.41 329.527 395.556 329.527 395.703 329.673C396.288 330.185 396.434 331.649 396.434 331.722C396.434 331.795 396.434 331.795 396.361 331.795C396.361 331.868 396.361 331.795 396.361 331.795ZM395.337 329.746C395.117 329.746 395.117 329.819 395.117 329.893C395.044 330.258 395.703 331.063 396.215 331.503C396.215 330.917 395.995 330.332 395.629 329.893C395.483 329.746 395.41 329.746 395.337 329.746Z" fill="#01315F"/>
<path d="M423.585 332.015C423.219 332.015 422.853 331.942 422.634 331.722C422.414 331.576 422.341 331.283 422.414 331.063C422.414 330.917 422.487 330.771 422.634 330.698C423.219 330.405 424.829 331.429 425.049 331.576C425.122 331.576 425.122 331.649 425.122 331.722C425.122 331.795 425.049 331.795 425.049 331.795C424.463 331.942 424.024 332.015 423.585 332.015ZM422.78 330.917C422.707 330.917 422.707 330.917 422.634 330.917C422.634 330.917 422.561 330.99 422.561 331.063C422.561 331.21 422.634 331.356 422.707 331.503C423.292 331.795 423.951 331.795 424.537 331.576C424.024 331.283 423.439 331.063 422.78 330.917Z" fill="#01315F"/>
<path d="M424.902 331.795C424.317 331.503 423.292 330.405 423.366 329.819C423.439 329.6 423.585 329.527 423.731 329.527C423.951 329.527 424.097 329.527 424.244 329.673C424.829 330.185 424.976 331.649 424.976 331.722C424.976 331.795 424.976 331.795 424.902 331.795C424.902 331.868 424.902 331.795 424.902 331.795ZM423.878 329.746C423.658 329.746 423.658 329.819 423.658 329.893C423.585 330.258 424.244 331.063 424.756 331.503C424.756 330.917 424.536 330.332 424.171 329.893C424.024 329.746 423.951 329.746 423.878 329.746Z" fill="#01315F"/>
<path d="M396.727 331.063H402.948C403.167 331.063 403.313 331.21 403.387 331.429L404.411 335.967C404.484 336.406 404.265 336.772 403.826 336.845C403.753 336.845 403.679 336.845 403.679 336.845C401.63 336.845 400.167 336.699 397.678 336.699C396.142 336.699 391.385 336.845 389.262 336.845C387.14 336.845 386.847 334.723 387.726 334.503C391.677 333.625 394.678 332.454 395.922 331.283C396.068 331.21 396.434 331.063 396.727 331.063Z" fill="#FE2B1E"/>
<path d="M425.268 331.063H431.489C431.708 331.063 431.855 331.21 431.928 331.429L432.952 335.967C433.026 336.406 432.806 336.772 432.367 336.845C432.294 336.845 432.221 336.845 432.221 336.845C430.171 336.845 428.708 336.699 426.22 336.699C424.683 336.699 419.926 336.845 417.804 336.845C415.681 336.845 415.388 334.723 416.267 334.503C420.219 333.625 423.219 332.454 424.463 331.283C424.61 331.21 424.975 331.063 425.268 331.063Z" fill="#FE2B1E"/>
<path d="M421.389 204.138C421.389 204.138 421.389 205.09 421.902 206.261C422.121 206.7 422.414 207.212 422.853 207.724C423.731 208.749 425.195 209.7 427.537 210.139C430.245 210.578 432.367 210.066 434.05 209.261C434.489 209.042 434.855 208.822 435.221 208.603C437.197 207.285 438.221 205.748 438.221 205.748C437.782 205.602 437.343 205.382 436.831 205.236C436.538 205.163 436.172 205.09 435.88 205.017C432.586 204.285 428.122 204.065 425.049 204.065C424.609 204.065 424.244 204.065 423.878 204.065C422.341 204.138 421.389 204.138 421.389 204.138Z" fill="#9F5B53"/>
<path d="M421.902 206.334C422.122 206.773 422.414 207.285 422.853 207.798C423.073 205.529 424.39 204.504 425.049 204.138C424.61 204.138 424.244 204.138 423.878 204.138C422.78 204.504 422.195 205.456 421.902 206.334Z" fill="#01315F"/>
<path d="M434.05 209.261C434.489 209.115 434.928 208.895 435.294 208.603C435.441 206.846 436.246 205.822 436.904 205.236C436.612 205.163 436.246 205.09 435.953 205.017C433.904 206.114 434.05 209.261 434.05 209.261Z" fill="#01315F"/>
<path opacity="0.2" d="M439.978 216.872C440.271 215.848 440.637 214.75 441.076 213.579C441.369 212.701 441.735 211.676 442.1 210.652C441.881 210.139 441.588 209.773 441.295 209.407C441.295 209.481 439.759 213.652 439.978 216.872Z" fill="#01315F"/>
<path d="M443.71 206.48C446.345 207.798 454.322 220.385 452.053 224.63C449.785 228.874 439.612 232.606 439.612 232.606C439.612 232.606 443.857 234.948 443.71 235.534C443.564 236.119 440.051 238.461 439.612 238.461C439.393 238.461 436.831 236.119 436.173 235.387C435.66 234.802 436.099 232.387 436.099 232.387C438.953 230.045 446.857 224.41 447.296 223.166C447.809 221.922 441.149 213.213 441.149 213.213C441.149 213.213 440.929 209.627 441.734 208.017C442.613 206.48 443.71 206.48 443.71 206.48Z" fill="#9F5B53"/>
<path d="M417.72 208.208L417.405 208.773C417.405 208.773 415.908 209.218 415.292 210.566C414.619 211.95 413.334 215.727 413.703 216.063C414.166 216.42 418.559 218.049 418.559 218.049C418.559 218.049 420.188 211.964 420.37 211.609C420.553 211.254 419.87 209.502 419.87 209.502L419.977 208.34L417.72 208.208Z" fill="#F7A491"/>
<path d="M420.702 209.324L426.972 204.099H427.756L428.017 203.576L419.134 203.054C419.134 203.054 417.152 204.177 416.522 205.144C415.922 206.064 415.999 207.756 415.999 207.756L420.702 209.324Z" fill="#0C4983"/>
<defs>
<linearGradient id="paint0_linear" x1="261.583" y1="218.722" x2="261.583" y2="-0.0314364" gradientUnits="userSpaceOnUse">
<stop stop-color="#38C39D"/>
<stop offset="0.1713" stop-color="#3BBAA6"/>
<stop offset="0.4506" stop-color="#42A2BE"/>
<stop offset="0.5893" stop-color="#4693CD"/>
<stop offset="0.9266" stop-color="#236AC5"/>
<stop offset="1" stop-color="#1B61C3"/>
</linearGradient>
</defs>
</svg>
