<svg width="631" height="432" viewBox="0 0 631 432" fill="none" xmlns="http://www.w3.org/2000/svg">
<g opacity="0.2">
<path d="M270 34.5987C270 35.6801 270.606 36.6703 271.569 37.1626L294.629 48.9528C296.288 49.8008 298.257 48.5962 298.257 46.7333V46.7333C298.257 45.7771 297.71 44.9052 296.849 44.489L276.916 34.8516C276.819 34.8047 276.757 34.7064 276.757 34.5987V34.5987C276.757 34.491 276.819 34.3927 276.916 34.3458L296.849 24.7083C297.71 24.2922 298.257 23.4203 298.257 22.4641V22.4641C298.257 20.6012 296.288 19.3966 294.629 20.2446L271.569 32.0348C270.606 32.5271 270 33.5173 270 34.5987V34.5987Z" fill="#31B8B0"/>
<path d="M324.342 7.88118C324.732 6.42762 323.636 5 322.131 5V5C321.096 5 320.189 5.6955 319.921 6.69581L306.669 56.1188C306.279 57.5724 307.375 59 308.879 59V59C309.915 59 310.822 58.3045 311.09 57.3042L324.342 7.88118Z" fill="#31B8B0"/>
<path d="M359.431 37.1626C360.394 36.6703 361 35.6801 361 34.5987V34.5987C361 33.5173 360.394 32.5271 359.431 32.0348L336.371 20.2446C334.712 19.3966 332.743 20.6012 332.743 22.4641V22.4641C332.743 23.4203 333.29 24.2922 334.151 24.7084L354.084 34.3458C354.181 34.3927 354.243 34.491 354.243 34.5987V34.5987C354.243 34.7064 354.181 34.8047 354.084 34.8516L334.151 44.489C333.29 44.9052 332.743 45.7771 332.743 46.7333V46.7333C332.743 48.5962 334.712 49.8008 336.371 48.9528L359.431 37.1626Z" fill="#31B8B0"/>
</g>
<g opacity="0.15">
<path opacity="0.5" d="M41.129 189.38C42.2655 159.827 52.1609 129.648 70.4743 107.345C99.0242 72.59 143.842 61.3602 183.708 66.3535C200.406 68.4428 217.063 72.9869 233.964 70.1142C258.609 65.9148 279.715 46.7771 301.73 32.3194C331.709 12.6385 366.501 0.82367 399.41 6.37067C436.727 12.6594 468.346 43.6014 473.695 87.0477C476.114 106.729 460.845 142.695 466.844 161.112C472.932 179.79 514.162 235.511 514.949 279.897C515.736 324.117 507.318 338.439 495.54 361.713C460.35 406.361 411.489 428.423 362.337 421.863L250.816 384.789C206.705 370.122 160.589 368.493 115.917 380.026C88.4631 387.108 65.206 353.46 73.9893 319.249C74.0705 318.946 74.1435 318.643 74.2247 318.34C80.662 294 59.8321 275.656 51.1949 253.959C43.5075 234.654 40.2929 211.025 41.129 189.38Z" fill="#599DF9"/>
</g>
<path opacity="0.5" d="M468 233C468 235.478 468.825 237.757 470.177 239.607C470.672 240.267 471.232 240.862 471.859 241.39C472.42 241.886 473.013 242.282 473.673 242.646C475.256 243.505 477.07 244 478.984 244C480.6 244 482.15 243.637 483.535 243.009C483.667 242.943 483.799 242.877 483.931 242.811C484.723 242.414 485.448 241.952 486.075 241.39C487.064 240.565 487.889 239.574 488.549 238.45C489.472 236.832 490 234.982 490 233C490 226.922 485.085 222 479.016 222C472.915 221.967 468 226.922 468 233Z" fill="#CDE1FD"/>
<path opacity="0.5" fill-rule="evenodd" clip-rule="evenodd" d="M600.483 95.6766C604.22 99.8342 607.541 104.408 610.033 109.189H625.395L631 133.927L617.091 140.579C616.883 145.984 616.053 151.596 614.392 157.001L625.187 167.811L611.693 189.431L597.161 184.442C593.009 188.183 588.442 191.51 583.668 194.004V209.387L558.963 215L552.32 201.072C546.923 200.864 541.317 200.033 535.92 198.37L525.125 209.179L503.535 195.667L508.517 181.115C504.78 176.958 501.459 172.385 498.967 167.603H483.605L478 142.865L491.909 136.213C492.117 130.808 492.947 125.196 494.608 119.791L483.813 108.981L497.722 87.5693L512.254 92.5584C516.406 88.8165 520.973 85.4904 525.748 82.9959V67.6127L550.452 62L557.095 75.928C562.493 76.1358 568.098 76.9674 573.495 78.6304L584.29 67.8206L605.881 81.3329L600.483 95.6766ZM570.174 115.841C557.51 107.942 540.695 111.683 532.598 124.572C524.71 137.253 528.446 154.091 541.317 162.198C553.981 170.098 570.796 166.356 578.893 153.467C586.989 140.787 583.045 123.948 570.174 115.841Z" fill="#CDE1FD"/>
<path opacity="0.5" d="M545 139C545 141.478 545.825 143.757 547.177 145.607C547.672 146.267 548.232 146.862 548.859 147.39C549.42 147.886 550.013 148.282 550.673 148.646C552.256 149.505 554.07 150 555.984 150C557.6 150 559.15 149.637 560.535 149.009C560.667 148.943 560.799 148.877 560.931 148.811C561.723 148.414 562.448 147.952 563.075 147.39C564.064 146.565 564.889 145.574 565.549 144.45C566.472 142.832 567 140.982 567 139C567 132.922 562.085 128 556.016 128C549.915 127.967 545 132.922 545 139Z" fill="#CDE1FD"/>
<path opacity="0.5" d="M405 23.0002C405 28.1803 406.724 32.946 409.552 36.8139C410.586 38.1953 411.759 39.4385 413.069 40.5436C414.241 41.5796 415.483 42.4084 416.862 43.1682C420.172 44.964 423.966 46 427.966 46C431.345 46 434.586 45.2402 437.483 43.9279C437.759 43.7898 438.034 43.6517 438.31 43.5135C439.966 42.6847 441.483 41.7177 442.793 40.5436C444.862 38.8169 446.586 36.7448 447.966 34.3965C449.897 31.0121 451 27.1443 451 23.0002C451 10.2916 440.724 0.00034335 428.034 0.00034335C415.276 -0.0687252 405 10.2916 405 23.0002Z" fill="#CDE1FD"/>
<path opacity="0.5" d="M22 161.5C22 166.568 23.6867 171.23 26.4528 175.014C27.4648 176.365 28.6117 177.581 29.8936 178.662C31.0405 179.676 32.2549 180.487 33.6042 181.23C36.8426 182.986 40.5532 184 44.4663 184C47.7721 184 50.943 183.257 53.7766 181.973C54.0465 181.838 54.3163 181.703 54.5862 181.568C56.2054 180.757 57.6897 179.811 58.9715 178.662C60.9955 176.973 62.6822 174.946 64.0315 172.649C65.9205 169.338 67 165.554 67 161.5C67 149.068 56.9475 139 44.5337 139C32.0525 138.933 22 149.068 22 161.5Z" fill="#CDE1FD"/>
<path opacity="0.2" fill-rule="evenodd" clip-rule="evenodd" d="M81.6553 297.451C84.1465 300.223 86.3609 303.272 88.0217 306.459H98.2632L102 322.951L92.7273 327.386C92.5889 330.989 92.0353 334.731 90.9281 338.334L98.1248 345.541L89.1289 359.954L79.441 356.628C76.673 359.122 73.6282 361.34 70.445 363.003V373.258L53.9756 377L49.5468 367.715C45.9484 367.576 42.2117 367.022 38.6133 365.913L31.4166 373.12L17.023 364.111L20.3447 354.41C17.8535 351.639 15.6391 348.59 13.9783 345.402H3.73677L0 328.91L9.27274 324.476C9.41114 320.872 9.96472 317.13 11.0719 313.527L3.87517 306.321L13.1479 292.046L22.8358 295.372C25.6038 292.878 28.6486 290.66 31.8317 288.997V278.742L48.3012 275L52.73 284.285C56.3284 284.424 60.0651 284.978 63.6635 286.087L70.8602 278.88L85.2537 287.889L81.6553 297.451ZM61.4491 310.894C53.0068 305.628 41.7964 308.122 36.3989 316.715C31.1397 325.168 33.6309 336.394 42.2117 341.799C50.654 347.065 61.8643 344.571 67.2619 335.978C72.6594 327.524 70.0298 316.299 61.4491 310.894Z" fill="#31B8B0"/>
<path opacity="0.2" d="M45 326.5C45 328.189 45.5247 329.743 46.3853 331.005C46.7002 331.455 47.057 331.86 47.4558 332.221C47.8126 332.559 48.1904 332.829 48.6102 333.077C49.6177 333.662 50.7721 334 51.9895 334C53.018 334 54.0045 333.752 54.8861 333.324C54.97 333.279 55.054 333.234 55.1379 333.189C55.6417 332.919 56.1035 332.604 56.5023 332.221C57.1319 331.658 57.6567 330.982 58.0765 330.216C58.6642 329.113 59 327.851 59 326.5C59 322.356 55.8726 319 52.0105 319C48.1274 318.978 45 322.356 45 326.5Z" fill="#31B8B0"/>
<g filter="url(#filter0_d)">
<rect x="82" y="17" width="138" height="138" rx="26" fill="#FEFEFE"/>
</g>
<path d="M131.386 51.7475C117.651 64.8855 117.278 86.608 130.266 100.194L130.565 100.492C130.639 100.567 130.789 100.716 130.863 100.791C130.938 100.866 131.087 101.015 131.162 101.09L155.124 125.051L179.608 100.567C192.97 87.0558 192.746 65.1841 179.011 51.8968C165.799 39.1321 144.673 39.0574 131.386 51.7475ZM150.123 70.7827C153.108 67.7968 157.886 67.7968 160.872 70.7827C163.858 73.7686 163.858 78.546 160.872 81.5319C157.886 84.5178 153.108 84.5178 150.123 81.5319C147.137 78.546 147.137 73.7686 150.123 70.7827Z" fill="#0C4983"/>
<path d="M124.283 92.1885C113.458 92.1885 100.238 100.169 93.2463 105.292C113.204 102.329 122.469 100.476 139.813 105.292C149.718 108.042 157.268 112.487 176.124 110.307C194.98 108.126 201.533 98.0122 203.58 93.6444C194.883 97.0415 177.943 102.542 160.435 98.0122C142.928 93.4826 135.108 92.1885 124.283 92.1885Z" fill="#599DF9"/>
<path fill-rule="evenodd" clip-rule="evenodd" d="M207.943 89.6963L205.878 94.1418C203.593 99.0619 196.486 109.855 176.723 112.159C160.967 113.997 152.673 111.269 144.913 108.718C143.095 108.12 141.307 107.532 139.459 107.014C123.455 102.533 114.612 103.87 96.826 106.557C95.7363 106.722 94.6129 106.892 93.4523 107.065L92 103.55C95.5864 100.9 100.773 97.507 106.474 94.768C112.14 92.0457 118.497 89.879 124.37 89.879C135.499 89.879 143.548 91.2384 161.215 95.8482C178.187 100.276 194.719 94.9059 203.386 91.4916L207.943 89.6963ZM101.555 101.885C116.13 99.7473 125.406 99.0091 140.513 103.24C142.508 103.798 144.384 104.413 146.251 105.025C153.913 107.538 161.416 109.998 176.27 108.266C189.101 106.77 195.897 101.476 199.425 97.1089C189.834 100.318 175.27 103.566 160.228 99.6412C142.686 95.0641 135.01 93.7987 124.37 93.7987C119.359 93.7987 113.627 95.6787 108.168 98.3017C105.854 99.4137 103.621 100.643 101.555 101.885Z" fill="#FEFEFE"/>
<circle cx="213" cy="28" r="24" fill="#31B8B0"/>
<path d="M226 18L209.5 37L202 28.3636" stroke="#FEFEFE" stroke-width="6" stroke-linecap="round" stroke-linejoin="round"/>
<g filter="url(#filter1_d)">
<rect x="280" y="92" width="138" height="138" rx="26" fill="#FEFEFE"/>
</g>
<circle cx="407" cy="101" r="24" fill="#31B8B0"/>
<path d="M420 91L403.5 110L396 101.364" stroke="#FEFEFE" stroke-width="6" stroke-linecap="round" stroke-linejoin="round"/>
<path d="M319.388 180.025L333.67 132.688C334.368 130.735 337.481 130.961 337.435 133.08L334.285 178.263C334.205 179.295 333.395 180.343 332.42 180.691L322.807 183.382C320.815 184.093 318.843 182.069 319.388 180.025Z" fill="#31B8B0"/>
<path d="M342.683 174.349L342.706 115.25C342.707 112.882 345.603 111.748 347.201 113.489L390.555 160.732C391.87 162.166 391.204 164.49 389.33 165.002L345.954 176.859C344.306 177.309 342.683 176.064 342.683 174.349Z" fill="#599DF9"/>
<path d="M311.187 195.327L374.838 174.329C377.227 173.675 378.708 176.18 376.939 178.132C376.856 178.224 376.759 178.303 376.657 178.372L333.341 208.086C332.636 208.525 331.765 208.605 330.992 208.3L311.187 200.577C308.87 199.665 308.802 196.045 311.187 195.327Z" fill="#0C4983"/>
<g filter="url(#filter2_d)">
<rect x="67" y="206.294" width="173.706" height="173.706" rx="26" fill="#FEFEFE"/>
</g>
<path d="M150.648 250.8C140.785 251.347 131.817 255.25 124.866 261.385L150.648 287.167V250.8Z" fill="#599DF9"/>
<path d="M121.102 265.15C114.966 272.101 111.064 281.068 110.517 290.932H146.883L121.102 265.15Z" fill="#599DF9"/>
<path d="M110.549 296.256C111.213 306.043 115.184 314.923 121.352 321.787L146.884 296.256H110.549Z" fill="#599DF9"/>
<path d="M125.151 325.52C132.061 331.511 140.919 335.315 150.648 335.855V300.021L125.151 325.52Z" fill="#599DF9"/>
<path d="M155.973 335.823C165.626 335.168 174.396 331.296 181.221 325.271L155.973 300.021V335.823Z" fill="#599DF9"/>
<path d="M184.987 321.506C191.012 314.681 194.884 305.909 195.54 296.256H159.737L184.987 321.506Z" fill="#599DF9"/>
<path d="M195.572 290.932C195.032 281.202 191.227 272.344 185.235 265.434L159.738 290.932H195.572Z" fill="#599DF9"/>
<path d="M181.504 261.636L155.973 287.167V250.832C165.76 251.497 174.64 255.467 181.504 261.636Z" fill="#599DF9"/>
<circle cx="153.044" cy="293.327" r="32.6375" fill="#FEFEFE"/>
<path fill-rule="evenodd" clip-rule="evenodd" d="M153.273 233.986C154.743 233.986 155.936 235.178 155.936 236.649V245.702C155.936 247.173 154.743 248.365 153.273 248.365C151.802 248.365 150.61 247.173 150.61 245.702V236.649C150.61 235.178 151.802 233.986 153.273 233.986Z" fill="#599DF9"/>
<path fill-rule="evenodd" clip-rule="evenodd" d="M153.807 337.301C155.277 337.301 156.469 338.493 156.469 339.963V349.017C156.469 350.487 155.277 351.679 153.807 351.679C152.336 351.679 151.144 350.487 151.144 349.017V339.963C151.144 338.493 152.336 337.301 153.807 337.301Z" fill="#599DF9"/>
<path fill-rule="evenodd" clip-rule="evenodd" d="M194.964 251.032C196.004 252.072 196.004 253.758 194.964 254.798L188.562 261.199C187.522 262.239 185.836 262.239 184.797 261.199C183.757 260.16 183.757 258.474 184.797 257.434L191.198 251.032C192.238 249.992 193.924 249.992 194.964 251.032Z" fill="#599DF9"/>
<path fill-rule="evenodd" clip-rule="evenodd" d="M122.286 324.464C123.326 325.504 123.326 327.19 122.286 328.23L115.885 334.631C114.845 335.671 113.159 335.671 112.119 334.631C111.079 333.591 111.079 331.905 112.119 330.865L118.521 324.464C119.561 323.424 121.247 323.424 122.286 324.464Z" fill="#599DF9"/>
<path fill-rule="evenodd" clip-rule="evenodd" d="M111.742 251.409C112.782 250.369 114.468 250.369 115.508 251.409L121.91 257.811C122.949 258.851 122.949 260.537 121.91 261.576C120.87 262.616 119.184 262.616 118.144 261.576L111.742 255.175C110.702 254.135 110.702 252.449 111.742 251.409Z" fill="#599DF9"/>
<path fill-rule="evenodd" clip-rule="evenodd" d="M185.174 324.085C186.213 323.045 187.899 323.045 188.939 324.085L195.341 330.487C196.381 331.526 196.381 333.212 195.341 334.252C194.301 335.292 192.615 335.292 191.575 334.252L185.174 327.851C184.134 326.811 184.134 325.125 185.174 324.085Z" fill="#599DF9"/>
<path fill-rule="evenodd" clip-rule="evenodd" d="M212.385 292.566C212.385 294.037 211.193 295.229 209.722 295.229L200.669 295.229C199.198 295.229 198.006 294.037 198.006 292.566C198.006 291.095 199.198 289.903 200.669 289.903L209.722 289.903C211.193 289.903 212.385 291.095 212.385 292.566Z" fill="#599DF9"/>
<path fill-rule="evenodd" clip-rule="evenodd" d="M109.071 293.099C109.071 294.57 107.879 295.762 106.408 295.762L97.355 295.762C95.8844 295.762 94.6923 294.57 94.6923 293.099C94.6923 291.629 95.8844 290.437 97.355 290.437L106.408 290.437C107.879 290.437 109.071 291.629 109.071 293.099Z" fill="#599DF9"/>
<path fill-rule="evenodd" clip-rule="evenodd" d="M154.033 296.954C158.767 296.954 162.605 293.116 162.605 288.382C162.605 283.648 158.767 279.811 154.033 279.811C149.299 279.811 145.462 283.648 145.462 288.382C145.462 293.116 149.299 296.954 154.033 296.954ZM154.033 302.229C161.68 302.229 167.88 296.029 167.88 288.382C167.88 280.735 161.68 274.536 154.033 274.536C146.386 274.536 140.187 280.735 140.187 288.382C140.187 296.029 146.386 302.229 154.033 302.229Z" fill="#599DF9"/>
<path d="M137.083 311.758C142.236 308.107 148.082 306.185 154.033 306.185C159.985 306.185 165.831 308.107 170.984 311.758C171.365 312.028 171.741 312.307 172.112 312.594C173.107 313.364 173.27 314.78 172.549 315.811C171.711 317.011 170.005 317.2 168.81 316.353C164.317 313.17 159.221 311.494 154.033 311.494C148.846 311.494 143.75 313.17 139.257 316.353C138.062 317.2 136.355 317.011 135.517 315.811C134.797 314.78 134.96 313.364 135.955 312.594C136.326 312.307 136.702 312.028 137.083 311.758Z" fill="#599DF9"/>
<circle cx="230" cy="215" r="30" fill="#31B8B0"/>
<path d="M243 205L225.812 225L218 215.909" stroke="#FEFEFE" stroke-width="6" stroke-linecap="round" stroke-linejoin="round"/>
<g filter="url(#filter3_d)">
<rect x="298" y="265.706" width="161.728" height="161.728" rx="26" fill="#FEFEFE"/>
</g>
<circle cx="449" cy="276" r="30" fill="#FE2B1E"/>
<path d="M334.4 318.407C334.4 318.407 336.325 315.627 337.801 313.881C339.276 312.136 341.957 309.467 341.957 309.467C341.957 309.467 345.735 326.769 348.568 345.66C351.402 364.551 341.957 388.085 341.957 388.085C341.957 388.085 339.276 385.475 337.801 383.778C336.325 382.081 334.4 379.395 334.4 379.395C334.4 379.395 324.955 365.832 324.955 348.83C324.955 331.828 334.4 318.407 334.4 318.407Z" fill="#599DF9"/>
<path d="M345.733 306.322C402.557 323.148 395.932 380.34 381.627 402.669C428.832 399.625 439.948 356.82 428.81 328.973C416.628 298.517 377.848 282.71 345.733 306.322Z" fill="#0C4983"/>
<path d="M459.05 266.017L439.017 286.05" stroke="#FEFEFE" stroke-width="6" stroke-linecap="round" stroke-linejoin="round"/>
<path d="M439.017 266.017L459.05 286.05" stroke="#FEFEFE" stroke-width="6" stroke-linecap="round" stroke-linejoin="round"/>
<defs>
<filter id="filter0_d" x="82" y="17" width="142" height="142" filterUnits="userSpaceOnUse" color-interpolation-filters="sRGB">
<feFlood flood-opacity="0" result="BackgroundImageFix"/>
<feColorMatrix in="SourceAlpha" type="matrix" values="0 0 0 0 0 0 0 0 0 0 0 0 0 0 0 0 0 0 127 0"/>
<feOffset dx="4" dy="4"/>
<feColorMatrix type="matrix" values="0 0 0 0 0.803922 0 0 0 0 0.882353 0 0 0 0 0.992157 0 0 0 1 0"/>
<feBlend mode="normal" in2="BackgroundImageFix" result="effect1_dropShadow"/>
<feBlend mode="normal" in="SourceGraphic" in2="effect1_dropShadow" result="shape"/>
</filter>
<filter id="filter1_d" x="280" y="92" width="142" height="142" filterUnits="userSpaceOnUse" color-interpolation-filters="sRGB">
<feFlood flood-opacity="0" result="BackgroundImageFix"/>
<feColorMatrix in="SourceAlpha" type="matrix" values="0 0 0 0 0 0 0 0 0 0 0 0 0 0 0 0 0 0 127 0"/>
<feOffset dx="4" dy="4"/>
<feColorMatrix type="matrix" values="0 0 0 0 0.803922 0 0 0 0 0.882353 0 0 0 0 0.992157 0 0 0 1 0"/>
<feBlend mode="normal" in2="BackgroundImageFix" result="effect1_dropShadow"/>
<feBlend mode="normal" in="SourceGraphic" in2="effect1_dropShadow" result="shape"/>
</filter>
<filter id="filter2_d" x="67" y="206.294" width="177.706" height="177.706" filterUnits="userSpaceOnUse" color-interpolation-filters="sRGB">
<feFlood flood-opacity="0" result="BackgroundImageFix"/>
<feColorMatrix in="SourceAlpha" type="matrix" values="0 0 0 0 0 0 0 0 0 0 0 0 0 0 0 0 0 0 127 0"/>
<feOffset dx="4" dy="4"/>
<feColorMatrix type="matrix" values="0 0 0 0 0.803922 0 0 0 0 0.882353 0 0 0 0 0.992157 0 0 0 1 0"/>
<feBlend mode="normal" in2="BackgroundImageFix" result="effect1_dropShadow"/>
<feBlend mode="normal" in="SourceGraphic" in2="effect1_dropShadow" result="shape"/>
</filter>
<filter id="filter3_d" x="298" y="265.706" width="165.728" height="165.728" filterUnits="userSpaceOnUse" color-interpolation-filters="sRGB">
<feFlood flood-opacity="0" result="BackgroundImageFix"/>
<feColorMatrix in="SourceAlpha" type="matrix" values="0 0 0 0 0 0 0 0 0 0 0 0 0 0 0 0 0 0 127 0"/>
<feOffset dx="4" dy="4"/>
<feColorMatrix type="matrix" values="0 0 0 0 0.803922 0 0 0 0 0.882353 0 0 0 0 0.992157 0 0 0 1 0"/>
<feBlend mode="normal" in2="BackgroundImageFix" result="effect1_dropShadow"/>
<feBlend mode="normal" in="SourceGraphic" in2="effect1_dropShadow" result="shape"/>
</filter>
</defs>
</svg>
