<svg width="715" height="678" viewBox="0 0 715 678" fill="none" xmlns="http://www.w3.org/2000/svg">
<g opacity="0.7">
<mask id="mask0" mask-type="alpha" maskUnits="userSpaceOnUse" x="44" y="161" width="606" height="408">
<path d="M219.98 240.065C186.525 229.586 143.792 214.443 106.314 229.575C60.754 247.971 -33.5428 353.798 167.448 508.74C263.177 570.737 328.125 581.921 413.421 555.539C497.102 526.011 583.642 472.975 628.367 388.427C634.278 377.282 642.548 354.995 645.798 342.595C658.257 294.848 635.139 238.302 595.3 204.164C555.46 170.026 501.917 157.052 453.17 162.407C404.423 167.761 363.419 194.879 322.198 219.015C299.89 232.086 260.69 252.78 219.98 240.065Z" fill="#2B63A4"/>
</mask>
<g mask="url(#mask0)">
<rect opacity="0.1" width="669.659" height="250.774" transform="matrix(-1 0 0 1 669.659 155.108)" fill="#599DF9"/>
<path opacity="0.5" d="M694 406H-7V565H694V406Z" fill="url(#paint0_linear)"/>
<path d="M87.3572 432.962C88.0059 430.86 89.9488 429.426 92.1485 429.426H97.9999C101.634 429.426 105.158 430.675 107.982 432.962H87.3572Z" fill="white"/>
<path d="M96.1965 432.438C96.6514 430.959 98.0176 429.95 99.5648 429.95H100.337C102.436 429.95 104.471 430.673 106.1 431.997L106.643 432.438H96.1965Z" fill="#01315F"/>
<path d="M88.1609 432.438C88.6158 430.959 89.982 429.95 91.5291 429.95H92.9459C94.24 429.95 95.1665 431.2 94.7903 432.438H88.1609Z" fill="#01315F"/>
<path d="M101.129 427.681L103.954 427.596L110.013 427.415L109.996 408.465L109.993 404.886L101.129 427.681Z" fill="white"/>
<path d="M110.261 423.962L122.202 424.094L125.853 424.135L123.623 419.746L119.125 410.903L110.481 393.903L110.466 396.069L110.384 407.172L110.339 413.423L110.261 423.962Z" fill="white"/>
<path d="M110.143 407.172C110.354 409.402 110.237 411.711 110.339 413.423C110.435 415.041 110.339 416.126 110.339 416.126C110.339 416.126 113.597 415.769 117.826 417.067C119.611 417.615 121.593 418.457 123.623 419.746L119.125 410.903C116.949 409.239 114.089 407.557 111.185 407.228C110.918 407.197 110.651 407.179 110.384 407.172C110.213 407.167 110.315 407.165 110.143 407.172Z" fill="#599DF9"/>
<path d="M109.925 433.725C109.925 433.867 110.04 433.981 110.2 433.981C110.36 433.981 110.476 433.867 110.476 433.725V393.256C110.476 393.114 110.36 393 110.2 393C110.04 393 109.925 393.114 109.925 393.256V433.725Z" fill="#0C4983"/>
<path d="M110.012 424.25C110.012 424.377 110.117 424.48 110.247 424.48H126.764C126.894 424.48 127 424.377 127 424.25C127 424.123 126.894 424.019 126.764 424.019H110.249C110.117 424.019 110.012 424.123 110.012 424.25Z" fill="#0C4983"/>
<path d="M100.9 427.718C100.851 427.844 100.917 427.981 101.045 428.028C101.174 428.074 101.316 428.011 101.364 427.886L110.328 403.926C110.377 403.801 110.311 403.664 110.182 403.616C110.054 403.571 109.912 403.633 109.864 403.759L100.9 427.718Z" fill="#0C4983"/>
<path d="M126.52 424.162L126.631 424.107L110.337 393.198L110.226 393.254L126.52 424.162Z" fill="#0C4983"/>
<path d="M84.0089 432.962H122.312C119.809 436.878 115.482 439.247 110.835 439.247H91.0482C88.2096 439.247 85.4395 438.376 83.1123 436.75C82.4942 436.319 82.3345 435.472 82.7529 434.845L84.0089 432.962Z" fill="#0C4983"/>
<path opacity="0.1" d="M114.143 435.974C119.366 435.772 122.312 432.962 122.312 432.962C119.809 436.878 115.482 439.247 110.835 439.247H92.4049C88.6832 439.247 85.0513 438.104 82 435.974C82 435.974 102.29 436.432 114.143 435.974Z" fill="#01315F"/>
<path opacity="0.5" d="M219.5 423C173.9 425.8 153.667 410.333 153 405.5H211C230.333 408 265.1 420.2 219.5 423Z" fill="#0C4983"/>
<path d="M185.469 313.858H172.591V318.078H185.469V313.858Z" fill="#599DF9"/>
<path d="M185.469 308.531H172.591V309.638H185.469V308.531Z" fill="#599DF9"/>
<path d="M185.469 309.638H172.591V313.858H185.469V309.638Z" fill="white"/>
<path d="M187.443 307.267L185.469 308.531H172.591L170.618 307.267H187.443Z" fill="#FE2B1E"/>
<path d="M187.443 306.442H170.674V307.267H187.443V306.442Z" fill="#599DF9"/>
<path d="M172.786 308.531H172.591V318.078H172.786V308.531Z" fill="#599DF9"/>
<path d="M185.469 308.531H185.274V318.078H185.469V308.531Z" fill="#599DF9"/>
<path d="M176.898 308.531H176.703V318.078H176.898V308.531Z" fill="#599DF9"/>
<path d="M181.358 308.531H181.163V318.078H181.358V308.531Z" fill="#599DF9"/>
<path d="M179.002 302.03L175.015 306.442H170.674L179.002 302.03Z" fill="#FE2B1E"/>
<path d="M187.446 306.442H183.046L179.04 302.011L179.058 302L187.446 306.442Z" fill="#FE2B1E"/>
<path d="M183.046 306.442H175.014L179.002 302.03L179.04 302.011L183.046 306.442Z" fill="#599DF9"/>
<path d="M189.832 318.179H168.277V312.868H189.832V318.179ZM168.423 318.033H189.686V313.014H168.423V318.033Z" fill="#FE2B1E"/>
<path d="M179.152 312.868H179.006V318.179H179.152V312.868Z" fill="#FE2B1E"/>
<path d="M184.565 312.868H184.419V318.179H184.565V312.868Z" fill="#FE2B1E"/>
<path d="M173.762 312.868H173.615V318.179H173.762V312.868Z" fill="#FE2B1E"/>
<path d="M189.832 314.679H168.277V314.826H189.832V314.679Z" fill="#FE2B1E"/>
<path d="M189.783 316.221H168.228V316.368H189.783V316.221Z" fill="#FE2B1E"/>
<path d="M192.177 406.163H165.888L166.102 402.408L166.165 401.361H191.896L191.959 402.408L192.177 406.163Z" fill="white"/>
<path d="M193.49 402.408H164.574V407.329H193.49V402.408Z" fill="white"/>
<path d="M193.49 402.408H164.571L166.165 401.361H191.895L193.49 402.408Z" fill="#0C4983"/>
<path d="M190.774 319.526L187.293 321.754H170.768L167.291 319.526H190.774Z" fill="#0C4983"/>
<path d="M190.77 318.078H167.291V319.53H190.77V318.078Z" fill="white"/>
<path d="M191.895 401.361H166.165L166.93 388.093H191.13L191.895 401.361Z" fill="#599DF9"/>
<path d="M188.061 335.023H170.003L170.682 323.266L170.768 321.754H187.292L187.382 323.266L188.061 335.023Z" fill="white"/>
<path d="M188.827 348.287H169.234L170.003 335.023H188.061L188.827 348.287Z" fill="#599DF9"/>
<path d="M189.596 361.556H168.465L169.234 348.287H188.827L189.596 361.556Z" fill="white"/>
<path d="M190.361 374.824H167.699L168.465 361.556H189.596L190.361 374.824Z" fill="#599DF9"/>
<path d="M191.13 388.093H166.93L167.699 374.824H190.361L191.13 388.093Z" fill="white"/>
<path opacity="0.15" d="M171.672 401.357L172.111 388.093L172.55 374.824L172.989 361.556L173.428 348.287L173.867 335.019L174.305 321.754H170.764L170.678 323.266L169.999 335.019L169.234 348.287L168.465 361.556L167.696 374.824L166.93 388.093L166.161 401.357H171.672Z" fill="#01315F"/>
<path opacity="0.05" d="M187.758 329.786H184.021L183.755 321.754H187.292L187.758 329.786Z" fill="#01315F"/>
<path opacity="0.1" d="M184.021 329.786L173.675 340.83L174.306 321.754H183.755L184.021 329.786Z" fill="#01315F"/>
<path opacity="0.05" d="M186.388 401.357H171.676L173.675 340.83L184.021 329.786L186.388 401.357Z" fill="#01315F"/>
<path d="M191.76 388.955L185.608 397.4H184.348L191.13 388.093L191.76 388.955Z" fill="#FE2B1E"/>
<path opacity="0.05" d="M199.173 397.4L199.161 411.94H185.608L185.615 397.4H185.608L191.76 388.955L192.39 388.093L199.173 397.4Z" fill="#01315F"/>
<path d="M219.865 397.4H197.912L193.212 390.947L191.13 388.093H213.083L215.161 390.947L219.865 397.4Z" fill="#599DF9"/>
<path d="M219.865 397.4V397.411L219.857 397.4H219.865Z" fill="white"/>
<path d="M219.865 397.411L219.854 411.94H197.905L197.912 397.4H219.857L219.865 397.411Z" fill="white"/>
<path opacity="0.08" d="M219.865 397.4V400.254H199.994L197.912 397.4H219.865Z" fill="#01315F"/>
<path opacity="0.4" d="M214.002 412.69C213.882 412.679 213.762 412.671 213.649 412.709C213.537 412.746 213.432 412.84 213.424 412.956C213.405 413.17 213.668 413.286 213.878 413.331C215.18 413.609 216.526 413.68 217.851 413.538C218.241 413.496 218.635 413.436 219.029 413.44C219.374 413.444 219.715 413.5 220.056 413.523C220.431 413.545 220.81 413.53 221.186 413.515C222.855 413.44 224.524 413.369 226.193 413.294C226.362 413.286 226.599 413.193 226.542 413.031C226.52 412.971 226.464 412.934 226.404 412.904C225.972 412.675 225.473 412.615 224.986 412.574C224.194 412.51 223.399 412.491 222.603 412.476C220.146 412.435 217.686 412.442 215.228 412.499C215.123 412.502 215 412.51 214.91 412.566C214.846 412.607 214.808 412.697 214.745 412.731C214.572 412.814 214.193 412.705 214.002 412.69Z" fill="#01315F"/>
<path d="M492.566 391.477L409.821 373.123C407.849 372.641 406.623 370.626 407.105 368.655L432.204 266.461C432.686 264.489 434.701 263.263 436.672 263.745L520.864 285.209L492.566 391.477Z" fill="#599DF9"/>
<path d="M491.427 390.951L572.728 414.912C574.699 415.438 576.714 414.299 577.24 412.328L604.705 310.746C605.23 308.775 604.091 306.76 602.12 306.234L518.017 284.245L491.427 390.951Z" fill="#599DF9"/>
<path opacity="0.7" d="M492.435 388.805L490.464 387.184C480.871 379.124 469.175 373.868 456.735 372.072L408.025 371.459L439.345 264.402L488.098 264.971C500.539 266.767 512.191 272.024 521.827 280.083L523.799 281.704L492.435 388.805Z" fill="white"/>
<path d="M492.435 388.805L490.464 387.184C480.871 379.124 469.175 373.868 456.735 372.072L412.799 370.101L444.163 263L488.098 264.971C500.539 266.767 512.191 272.024 521.827 280.084L523.799 281.704L492.435 388.805Z" fill="white"/>
<path d="M492.26 388.717L494.8 388.367C507.241 386.746 519.9 388.63 531.333 393.799L569.399 415.832L601.638 303.957L564.493 286.304C553.06 281.135 538.517 279.646 526.076 281.266L523.536 281.617L492.26 388.717Z" fill="white"/>
<g opacity="0.2">
<path d="M451.084 274.915L484.2 279.295C493.662 281.179 502.817 284.727 510.658 289.589L512.235 290.596" stroke="#599DF9" stroke-width="3.9776" stroke-miterlimit="10"/>
<path d="M448.807 281.047L481.922 285.428C491.384 287.311 500.539 290.859 508.38 295.722L509.957 296.729" stroke="#599DF9" stroke-width="3.9776" stroke-miterlimit="10"/>
<path d="M446.572 287.223L479.688 291.604C489.15 293.487 498.305 297.035 506.146 301.898L507.723 302.905" stroke="#599DF9" stroke-width="3.9776" stroke-miterlimit="10"/>
<path d="M444.207 298.481L477.323 302.861C486.784 304.745 495.939 308.293 503.78 313.155L505.357 314.163" stroke="#599DF9" stroke-width="3.9776" stroke-miterlimit="10"/>
<path d="M441.929 304.614L475.045 308.994C484.507 310.878 493.662 314.426 501.503 319.288L503.08 320.295" stroke="#599DF9" stroke-width="3.9776" stroke-miterlimit="10"/>
<path d="M439.695 310.79L472.811 315.17C482.273 317.054 491.428 320.602 499.268 325.464L500.845 326.472" stroke="#599DF9" stroke-width="3.9776" stroke-miterlimit="10"/>
<path d="M437.111 323.581L470.227 327.961C479.688 329.845 488.843 333.393 496.684 338.255L498.261 339.263" stroke="#599DF9" stroke-width="3.9776" stroke-miterlimit="10"/>
<path d="M434.876 329.757L467.992 334.138C477.585 336.021 489.369 341.322 494.45 344.432L496.027 345.439" stroke="#599DF9" stroke-width="3.9776" stroke-miterlimit="10"/>
<path d="M432.599 335.934L465.715 340.314C475.483 342.241 489.894 349.206 492.172 350.608L493.749 351.615" stroke="#599DF9" stroke-width="3.9776" stroke-miterlimit="10"/>
<path d="M429.927 345.483L463.042 349.863C472.504 351.747 481.659 355.295 489.5 360.157L491.077 361.165" stroke="#599DF9" stroke-width="3.9776" stroke-miterlimit="10"/>
<path d="M428.437 351.922L461.553 356.302C471.015 358.186 480.17 361.734 488.011 366.596L489.588 367.604" stroke="#599DF9" stroke-width="3.9776" stroke-miterlimit="10"/>
<path d="M426.904 358.361L460.02 362.742C469.482 364.625 478.637 368.173 486.477 373.035L488.054 374.043" stroke="#599DF9" stroke-width="3.9776" stroke-miterlimit="10"/>
</g>
<g opacity="0.2">
<path d="M528.179 294.933C528.179 294.933 542.108 294.495 550.081 295.722C562.171 297.649 580.174 305.621 588.015 310.483L589.592 311.491" stroke="#599DF9" stroke-width="3.9776" stroke-miterlimit="10"/>
<path d="M526.602 302.029C526.602 302.029 545.438 302.117 553.585 304.132C564.186 306.76 577.94 311.797 585.781 316.66L587.358 317.667" stroke="#599DF9" stroke-width="3.9776" stroke-miterlimit="10"/>
<path d="M524.981 309.082C524.981 309.082 548.767 309.607 557.045 312.498C566.157 315.652 575.662 317.93 583.503 322.792L585.08 323.8" stroke="#599DF9" stroke-width="3.9776" stroke-miterlimit="10"/>
<path d="M521.565 319.376L554.681 323.756C564.142 325.64 573.297 329.188 581.138 334.05L582.715 335.057" stroke="#599DF9" stroke-width="3.9776" stroke-miterlimit="10"/>
<path d="M519.331 325.552L552.446 329.932C561.908 331.816 571.063 335.364 578.904 340.226L580.481 341.234" stroke="#599DF9" stroke-width="3.9776" stroke-miterlimit="10"/>
<path d="M517.053 331.685L550.169 336.065C559.63 337.949 568.785 341.497 576.626 346.359L578.203 347.366" stroke="#599DF9" stroke-width="3.9776" stroke-miterlimit="10"/>
<path d="M514.512 344.519L547.628 348.9C557.089 350.783 566.244 354.331 574.085 359.193L575.662 360.201" stroke="#599DF9" stroke-width="3.9776" stroke-miterlimit="10"/>
<path d="M512.234 350.696L545.35 355.076C554.943 356.96 566.726 362.26 571.807 365.37L573.384 366.377" stroke="#599DF9" stroke-width="3.9776" stroke-miterlimit="10"/>
<path d="M510 356.828L543.116 361.208C552.884 363.136 567.296 370.101 569.573 371.502L571.15 372.51" stroke="#599DF9" stroke-width="3.9776" stroke-miterlimit="10"/>
<path d="M507.328 366.421L540.443 370.802C549.905 372.685 559.06 376.233 566.901 381.095L568.478 382.103" stroke="#599DF9" stroke-width="3.9776" stroke-miterlimit="10"/>
<path d="M505.795 372.86L538.911 377.241C548.372 379.124 557.527 382.672 565.368 387.535L566.945 388.542" stroke="#599DF9" stroke-width="3.9776" stroke-miterlimit="10"/>
<path d="M504.305 379.3L537.421 383.68C546.883 385.564 556.038 389.112 563.879 393.974L565.456 394.981" stroke="#599DF9" stroke-width="3.9776" stroke-miterlimit="10"/>
</g>
</g>
</g>
<path d="M222.936 316.961C215.021 319.917 209.907 326.766 209.907 334.313V501.71C209.907 535.956 226.174 568.036 253.44 587.553L351.826 650.569C358.366 654.764 367.26 654.764 373.821 650.569L472.207 587.553C499.472 568.026 515.74 535.956 515.74 501.71V334.76C515.74 326.995 510.303 320.011 502.065 317.18C382.548 276.283 334.642 275.19 222.936 316.961Z" fill="#0C4983"/>
<path opacity="0.1" d="M502.066 317.18C443.89 297.267 402.68 286.827 362.823 286.13V653.712C366.687 653.712 370.52 652.661 373.821 650.569L472.207 587.553C499.472 568.026 515.74 535.956 515.74 501.71V334.75C515.74 326.995 510.314 320.001 502.066 317.18Z" fill="white"/>
<path opacity="0.5" d="M97.8735 307.367C93.2422 301.868 85.3614 302.706 82 303.812C86.6064 303.812 96.2301 306.691 97.8735 312C98.6205 306.501 108.269 303.733 113 303.812C109.078 302.864 100.563 302.248 97.8735 307.367Z" fill="#01315F"/>
<path opacity="0.5" d="M572.386 265.367C567.605 259.868 559.47 260.706 556 261.812C560.755 261.812 570.689 264.691 572.386 270C573.157 264.501 583.116 261.733 588 261.812C583.952 260.864 575.161 260.248 572.386 265.367Z" fill="#01315F"/>
<path opacity="0.5" d="M380.5 228.078C380.5 228.078 389.787 211.721 404.35 218.759C418.913 225.796 417.678 222.342 427.911 224.029C438.144 225.716 450.607 233.316 442.266 234.425C433.926 235.534 369 234.698 369 234.698C369 234.698 370.187 228.56 380.5 228.078Z" fill="white"/>
<path d="M381.668 386C351.661 386 327.337 410.154 327.337 439.952C327.337 452.428 331.608 463.91 338.757 473.05L331.412 480.344L320.277 469.288C320.005 469.023 319.639 468.875 319.259 468.875C318.878 468.875 318.512 469.023 318.24 469.288L311.127 476.351C310.86 476.621 310.711 476.985 310.711 477.363C310.711 477.741 310.86 478.104 311.127 478.374L322.261 489.431L314.236 497.399L303.102 486.343C302.83 486.078 302.464 485.93 302.083 485.93C301.703 485.93 301.337 486.078 301.065 486.343L293.952 493.406C293.685 493.677 293.536 494.04 293.536 494.418C293.536 494.796 293.685 495.159 293.952 495.429L305.086 506.486L293.415 518.075C293.149 518.342 293 518.702 293 519.078C293 519.453 293.149 519.813 293.415 520.08L300.975 527.587C301.529 528.138 302.441 528.138 302.995 527.587L348.319 482.58C357.86 489.929 369.594 493.913 381.668 493.903C411.676 493.903 436 469.749 436 439.952C436 410.154 411.676 386 381.668 386ZM410.478 468.56C402.793 476.209 392.553 480.415 381.668 480.415C370.784 480.415 360.543 476.209 352.858 468.56C345.155 460.929 340.92 450.76 340.92 439.952C340.92 429.144 345.155 418.974 352.858 411.343C360.543 403.694 370.784 399.488 381.668 399.488C392.553 399.488 402.793 403.694 410.478 411.343C418.181 418.974 422.417 429.144 422.417 439.952C422.417 450.76 418.181 460.929 410.478 468.56Z" fill="white"/>
<path d="M238.841 506.993C240.837 507.234 238.478 515.119 235.453 514.637C232.368 514.156 233.941 508.257 233.941 508.257C233.941 508.257 236.784 506.692 238.841 506.993Z" fill="#01315F"/>
<path d="M244.467 515.179C243.983 514.637 241.987 513.554 241.987 513.554C240.232 512.952 239.264 512.651 238.539 511.929C237.813 511.207 234.969 511.327 234.969 511.327C234.969 511.327 235.393 508.739 237.208 506.933C237.208 506.933 238.599 507.354 239.023 507.174C239.869 506.873 240.535 505.609 242.229 505.368C243.922 505.127 245.979 504.044 245.979 504.044C245.979 504.044 246.766 504.525 246.161 505.187C245.556 505.85 244.164 506.09 243.983 506.512C243.922 506.572 243.922 506.692 243.922 506.752C243.862 507.053 243.862 507.354 244.043 507.595C244.043 507.595 244.043 507.655 244.104 507.655C244.769 508.438 247.008 508.859 248.036 508.979C249.427 509.16 251.363 509.461 250.94 510.243C250.516 511.026 249.851 510.183 246.645 510.424L246.584 510.725C246.342 510.725 248.338 511.628 250.335 512.049C251.666 512.35 251.061 513.133 250.577 513.253C250.153 513.373 248.822 512.892 247.854 512.711C247.189 512.591 246.524 512.41 246.161 512.35L245.919 512.711C248.096 514.397 249.125 514.036 249.064 514.818C249.004 515.601 247.068 515.059 246.342 514.517C246.04 514.276 245.374 514.036 244.769 513.795C246.161 515.36 247.008 515.36 246.826 515.962C246.463 516.503 244.951 515.721 244.467 515.179Z" fill="#F7A491"/>
<path d="M241.624 508.739C242.955 508.438 243.802 506.873 243.862 506.692C243.802 506.993 243.802 507.294 243.983 507.535C243.015 509.04 241.624 508.739 241.624 508.739Z" fill="#F7A491"/>
<path d="M215.672 468.17C220.33 474.249 224.383 501.516 224.383 501.516C224.383 501.516 226.017 501.215 225.896 502.178C225.835 503.141 238.841 506.933 238.841 506.933C238.841 506.933 234.002 509.28 235.454 514.577C235.454 514.577 220.33 512.23 216.035 510.304C211.74 508.378 210.712 479.546 210.712 479.546L215.672 468.17Z" fill="#599DF9"/>
<path d="M220.451 614.917C220.451 615.579 220.391 616.06 220.391 616.06H201.335C201.335 615.699 201.335 615.338 201.335 614.917C201.577 609.981 203.15 605.647 203.15 605.647L207.929 603.601C208.353 606.068 209.381 607.573 210.712 608.596C211.075 608.897 211.438 609.078 211.801 609.319C211.982 609.439 212.164 609.499 212.345 609.56C212.769 609.74 213.132 609.861 213.555 609.981C215.249 610.462 216.943 610.583 218.092 610.763C220.149 611.125 220.451 613.472 220.451 614.917Z" fill="#0C4983"/>
<path d="M220.451 614.917C220.451 615.579 220.391 616.06 220.391 616.06H201.335C201.335 615.699 201.335 615.338 201.335 614.917H220.451Z" fill="#01315F"/>
<path d="M211.801 609.319L209.139 610.161L208.595 609.198L210.712 608.596C211.014 608.897 211.377 609.138 211.801 609.319Z" fill="#01315F"/>
<path d="M213.555 610.041L211.801 611.245L210.712 610.823L212.345 609.62C212.708 609.74 213.132 609.921 213.555 610.041Z" fill="#01315F"/>
<path d="M190.265 614.916C190.205 615.579 190.023 616.06 190.023 616.06H177.32C177.138 615.699 177.017 615.338 176.957 614.916C175.686 608.897 185.97 601.494 185.97 601.494L186.817 605.045C186.817 605.045 186.515 610.703 188.753 611.907C190.205 612.629 190.386 613.953 190.265 614.916Z" fill="#0C4983"/>
<path d="M177.017 614.917H190.265C190.205 615.579 190.023 616.06 190.023 616.06H177.32C177.259 615.639 177.138 615.278 177.017 614.917Z" fill="#01315F"/>
<path d="M188.269 611.425C188.269 611.425 182.946 610.222 180.465 611.787V610.944C180.465 610.944 185.002 608.717 188.269 611.425Z" fill="#01315F"/>
<path d="M187.18 610.101C187.18 610.101 183.792 608.536 180.465 610.101L180.828 609.198C180.889 609.198 184.821 607.694 187.18 610.101Z" fill="#01315F"/>
<path d="M183.672 517.346C183.672 529.324 179.8 572.602 179.377 575.732C178.59 581.631 179.014 591.863 177.925 598.123C176.715 604.865 177.078 610.944 177.078 610.944C177.078 610.944 183.672 605.647 187.362 609.56L188.874 604.202L187.725 599.989L189.902 593.789C188.39 591.081 199.4 533.177 199.4 533.177L200.489 532.996L200.065 599.989V603.781C200.065 603.781 201.336 608.657 201.336 611.726L212.527 608.536L211.014 604.142L212.043 598.484L211.68 590.9C211.68 590.9 215.249 525.653 216.035 518.49L183.672 517.346Z" fill="#0C4983"/>
<path d="M183.127 520.356C183.127 520.356 186.212 523.004 201.275 522.703C212.89 522.462 215.975 519.694 215.975 519.694C215.975 519.694 218.697 472.082 215.672 468.17C213.495 465.341 209.26 464.137 203.695 463.896C201.577 463.776 199.339 463.836 196.859 463.896C195.044 463.956 193.35 464.257 191.778 464.679C185.547 466.484 181.191 470.517 180.526 473.707C179.679 477.74 183.127 520.356 183.127 520.356Z" fill="#599DF9"/>
<path d="M219.725 497.122C220.996 500.432 220.27 508.618 219.06 510.785C217.668 513.253 211.498 512.109 211.498 512.109C211.498 512.109 211.68 491.464 210.651 480.99C209.683 470.517 205.086 463.956 205.086 463.956C205.086 463.956 216.156 464.378 217.85 470.517C218.939 474.49 218.636 477.74 218.273 479.486C218.092 480.449 217.85 480.93 217.85 480.93C217.91 480.93 217.91 480.93 217.971 480.93C218.334 480.99 219.544 481.532 220.391 485.926C221.419 491.103 219.06 495.978 219.06 495.978C219.362 496.339 219.544 496.7 219.725 497.122Z" fill="#FE2B1E"/>
<path d="M209.381 473.828C209.381 473.828 211.256 467.508 209.018 464.498C206.719 461.488 204.239 461.007 204.239 461.007C204.239 461.007 207.324 463.896 207.687 465.822C208.111 467.748 209.381 473.828 209.381 473.828Z" fill="#FE2B1E"/>
<path d="M201.5 464.5C200.5 462 199.7 459.4 204.5 461C209.3 462.6 209.5 469 209 472C208.2 468 203.667 464.667 201.5 464.5Z" fill="#FE2B1E"/>
<path d="M201 460.5C196.6 458.9 191.5 459.5 189.5 460L190.5 463.5L198.5 464.5C201.167 463.833 205.4 462.1 201 460.5Z" fill="#FE2B1E"/>
<path d="M197.766 491.765C197.585 509.1 195.589 514.096 195.589 514.096C195.589 514.096 182.764 515.781 180.405 513.193C178.046 510.605 180.405 502.539 180.405 502.539C180.405 502.539 179.921 501.275 179.377 499.349C179.135 498.566 178.893 497.603 178.711 496.64C178.469 495.677 178.348 494.594 178.227 493.51C177.925 490.741 178.59 488.575 179.195 487.311C179.619 486.408 179.982 485.986 179.982 485.986C179.982 485.986 177.501 475.934 178.59 471.48C178.832 470.457 179.256 469.614 179.861 468.892C183.127 464.679 190.689 464.679 190.689 464.679C192.806 465.28 196.012 470.878 197.222 481.532C197.585 484.542 197.766 487.973 197.766 491.765Z" fill="#FE2B1E"/>
<path d="M203.392 459.863L201.396 467.628C201.396 467.628 199.158 468.651 194.439 465.521C194.439 465.521 196.98 459.622 194.742 455.409C194.742 455.409 195.286 455.469 196.194 455.529C196.194 455.529 197.041 460.104 203.392 459.863Z" fill="#F7A491"/>
<path d="M194.439 451.376C194.318 460.525 203.211 461.849 205.509 458.479C206.235 457.395 206.901 455.409 207.324 453.242C207.445 452.761 207.506 452.279 207.566 451.737C207.99 448.367 207.687 444.936 205.751 444.033C199.158 440.903 194.5 442.167 194.439 451.376Z" fill="#F7A491"/>
<path d="M192.467 444.745C190.079 448.323 192.8 455.578 195.467 457.245L194.967 454.745L193.967 451.245C194.3 450.578 195.167 449.545 195.967 450.745C198.248 454.168 199.5 449 199.5 447C202.082 445.731 205.042 445.718 207.467 446.245C209.3 445.245 209.5 443.5 206.5 442.5C202.205 441.068 195.967 439.5 192.467 444.745Z" fill="white"/>
<path d="M196.287 451.21C196.287 451.21 194.956 449.344 193.504 450.247C192.052 451.21 194.048 454.58 195.561 454.641C197.013 454.641 196.287 451.21 196.287 451.21Z" fill="#F7A491"/>
<path d="M195.468 472.564C195.468 472.564 197.524 466.003 196.92 463.896C196.315 461.789 189.781 459.502 189.176 460.164C188.572 460.766 187.906 462.632 188.511 464.859C188.511 464.859 192.564 465.521 195.468 472.564Z" fill="#FE2B1E"/>
<path d="M197.222 481.532C195.286 484.06 183.793 484.12 183.793 484.12C183.793 484.12 176.231 495.135 181.675 498.566C186.999 501.937 196.557 499.59 196.92 499.469C194.802 501.215 181.615 502.358 179.316 499.289C179.195 499.168 179.135 498.988 179.074 498.867C178.832 498.265 178.711 497.483 178.651 496.58C178.409 493.691 178.832 489.658 179.135 487.311C179.558 486.408 179.921 485.986 179.921 485.986C179.921 485.986 177.441 475.934 178.53 471.48C178.772 470.457 179.195 469.614 179.8 468.892C186.575 469.073 187.18 481.532 187.18 481.532C189.056 482.254 196.98 481.592 197.222 481.532Z" fill="#FE2B1E"/>
<path d="M181.433 537.209C181.494 538.774 174.053 541.904 173.751 539.617C173.388 537.39 181.191 533.237 181.433 537.209Z" fill="#01315F"/>
<path d="M175.021 538.594C174.9 539.316 174.235 544.372 174.537 545.275C174.537 545.335 174.537 545.335 174.598 545.395C174.961 546.238 176.049 547.081 176.412 547.683C176.775 548.285 177.441 548.405 178.046 548.886C178.59 549.368 179.982 549.488 179.982 549.488C179.982 549.488 182.159 551.053 182.22 550.211C182.28 549.127 181.01 548.164 181.01 548.164L180.042 545.757C180.042 545.757 180.586 542.446 181.252 542.446C181.917 542.446 181.675 543.83 181.978 544.914C182.159 545.636 183.006 545.516 183.006 545.516L183.067 543.529C183.067 543.529 182.946 540.7 182.583 540.159C182.22 539.617 180.405 537.751 180.405 537.751L179.619 533.718L174.174 534.019C174.114 533.959 175.142 537.871 175.021 538.594Z" fill="#F7A491"/>
<path d="M174.598 545.395C174.961 546.238 176.049 547.081 176.412 547.683C176.775 548.285 177.441 548.405 178.046 548.886C178.59 549.368 179.982 549.488 179.982 549.488C179.437 549.067 178.53 546.78 178.288 546.659C178.046 546.539 177.925 546.84 177.501 546.84C177.078 546.84 176.896 545.997 176.473 546.118C176.049 546.238 175.626 546.298 175.324 545.756C175.082 545.456 174.84 545.395 174.598 545.395Z" fill="#F7A491"/>
<path d="M180.889 469.554C185.184 471.781 186.696 481.111 186.212 484.843L180.163 503.201C180.163 503.201 179.981 505.308 179.256 505.609L181.373 537.209C180.768 536.006 174.537 536.969 173.69 539.617C173.69 539.617 169.456 509.1 170.061 500.733C170.182 499.108 180.889 469.554 180.889 469.554Z" fill="#599DF9"/>
<path d="M211.377 480.99C211.377 480.99 215.249 480.87 218.274 479.546C218.092 480.509 217.85 480.99 217.85 480.99C217.85 480.99 213.676 481.532 211.377 480.99Z" fill="#FE2B1E"/>
<path d="M219.725 497.122C216.882 497.423 212.89 496.761 212.89 496.761C212.89 496.761 217.306 496.821 219.06 496.038C219.362 496.339 219.544 496.7 219.725 497.122Z" fill="#FE2B1E"/>
<path d="M546.725 536.047C546.665 537.616 554.042 540.752 554.402 538.46C554.642 536.228 546.905 532.067 546.725 536.047Z" fill="#0C4983"/>
<path d="M553.022 537.435C553.142 538.158 553.802 543.225 553.502 544.13C553.502 544.19 553.502 544.19 553.442 544.25C553.082 545.095 552.003 545.939 551.643 546.542C551.283 547.145 550.623 547.266 550.024 547.748C549.484 548.231 548.105 548.352 548.105 548.352C548.105 548.352 545.946 549.92 545.886 549.075C545.826 547.99 547.085 547.025 547.085 547.025L548.045 544.612C548.045 544.612 547.505 541.295 546.845 541.295C546.186 541.295 546.425 542.682 546.126 543.768C545.946 544.491 545.106 544.371 545.106 544.371L545.046 542.38C545.046 542.38 545.166 539.546 545.526 539.003C545.886 538.46 547.685 536.59 547.685 536.59L548.464 532.549L553.862 532.851C553.922 532.79 552.902 536.711 553.022 537.435Z" fill="#F7A491"/>
<path d="M553.502 544.19C553.142 545.034 552.063 545.879 551.703 546.482C551.343 547.085 550.683 547.206 550.084 547.688C549.544 548.171 548.165 548.291 548.165 548.291C548.704 547.869 549.604 545.577 549.844 545.456C550.084 545.336 550.204 545.637 550.623 545.637C551.043 545.637 551.223 544.793 551.643 544.914C552.063 545.034 552.482 545.095 552.782 544.552C552.962 544.25 553.202 544.25 553.502 544.19Z" fill="#F7A491"/>
<path d="M487.054 484.417C485.735 482.91 480.457 489.182 482.556 491.474C484.655 493.766 488.673 489.182 488.673 489.182C488.673 489.182 488.434 486.046 487.054 484.417Z" fill="#0C4983"/>
<path d="M477.159 484.236C477.879 484.357 479.918 485.443 479.918 485.443C481.357 486.589 482.137 487.192 483.156 487.373C484.176 487.554 485.615 489.966 485.615 489.966C485.615 489.966 487.534 488.217 488.014 485.684C488.014 485.684 486.934 484.719 486.814 484.297C486.574 483.392 487.294 482.186 486.574 480.618C485.855 479.049 485.675 476.757 485.675 476.757C485.675 476.757 484.835 476.395 484.595 477.24C484.415 478.145 484.895 479.411 484.715 479.773C484.655 479.833 484.655 479.894 484.595 479.954C484.415 480.195 484.116 480.316 483.876 480.316H483.816C482.796 480.195 481.237 478.567 480.577 477.783C479.678 476.697 478.358 475.249 477.939 476.094C477.519 476.878 478.598 476.999 480.157 479.773L479.918 480.014C480.038 480.195 478.178 479.049 476.799 477.662C475.84 476.697 475.48 477.662 475.66 478.145C475.78 478.627 476.919 479.411 477.579 480.135C478.058 480.618 478.538 481.04 478.838 481.341L478.598 481.764C476.019 480.859 475.72 479.833 475.12 480.316C474.52 480.798 476.019 482.125 476.859 482.367C477.219 482.487 477.759 482.91 478.358 483.332C476.259 483.03 475.84 482.306 475.42 482.789C475 483.332 476.439 484.176 477.159 484.236Z" fill="#F7A491"/>
<path d="M484.056 483.09C483.576 481.824 484.415 480.256 484.535 480.075C484.355 480.316 484.056 480.437 483.816 480.437C483.096 482.065 484.056 483.09 484.056 483.09Z" fill="#F7A491"/>
<path d="M512.722 466.866L498.269 493.465C498.269 493.465 497.609 491.957 496.889 492.56C496.17 493.163 487.054 484.417 487.054 484.417C487.054 484.417 487.774 489.725 482.556 491.474C482.556 491.474 494.551 502.15 498.509 504.683C502.467 507.217 515.78 484.719 515.78 484.719L512.722 466.866Z" fill="#599DF9"/>
<path d="M489.993 613.854C489.993 614.518 490.053 615 490.053 615H508.944C508.944 614.638 508.944 614.276 508.944 613.854C508.704 608.908 507.144 604.565 507.144 604.565L502.407 602.515C501.987 604.988 500.967 606.496 499.648 607.521C499.288 607.823 498.928 608.003 498.569 608.245C498.389 608.365 498.209 608.426 498.029 608.486C497.609 608.667 497.249 608.788 496.829 608.908C495.15 609.391 493.471 609.511 492.332 609.692C490.293 610.114 489.993 612.467 489.993 613.854Z" fill="#0C4983"/>
<path d="M489.993 613.854C489.993 614.517 490.053 615 490.053 615H508.944C508.944 614.638 508.944 614.276 508.944 613.854H489.993Z" fill="#01315F"/>
<path d="M498.569 608.305L501.207 609.149L501.747 608.184L499.648 607.581C499.288 607.883 498.928 608.124 498.569 608.305Z" fill="#01315F"/>
<path d="M496.83 609.029L498.569 610.235L499.648 609.813L498.029 608.607C497.669 608.727 497.249 608.908 496.83 609.029Z" fill="#01315F"/>
<path d="M523.517 613.854C523.577 614.517 523.757 615 523.757 615H536.351C536.53 614.638 536.65 614.276 536.71 613.854C537.97 607.822 529.574 600.404 529.574 600.404L526.935 603.962C526.935 603.962 527.235 609.632 525.016 610.838C523.577 611.562 523.397 612.949 523.517 613.854Z" fill="#0C4983"/>
<path d="M536.59 613.854H523.517C523.577 614.517 523.756 615 523.756 615H536.35C536.41 614.638 536.53 614.276 536.59 613.854Z" fill="#01315F"/>
<path d="M525.496 610.416C525.496 610.416 530.773 609.21 533.232 610.778V609.873C533.172 609.873 528.734 607.702 525.496 610.416Z" fill="#01315F"/>
<path d="M526.515 609.089C526.515 609.089 529.874 607.521 533.172 609.089L532.812 608.184C532.812 608.184 528.914 606.677 526.515 609.089Z" fill="#01315F"/>
<path d="M544.446 516.143C544.446 528.146 543.247 540.39 542.947 543.526C542.647 546.602 539.469 581.344 538.989 594.734C538.749 601.61 536.59 609.934 536.59 609.934C536.59 609.934 530.053 604.626 526.395 608.546L525.495 603.178L527.235 598.956C527.235 598.956 525.376 595.458 526.875 592.744C528.374 590.029 528.854 532.006 528.854 532.006L525.915 531.825L512.002 598.956V602.756C512.002 602.756 508.943 607.642 508.943 610.718L499.648 607.521L501.147 603.118L500.188 596.905L503.546 588.703C503.546 588.703 513.201 524.527 512.422 517.35L544.446 516.143Z" fill="#FE2B1E"/>
<path d="M544.387 519.159C544.387 519.159 539.349 526.276 524.596 523.924C516.2 522.597 512.422 518.496 512.422 518.496C512.422 518.496 509.723 470.786 512.722 466.866C514.881 464.031 519.079 462.825 524.596 462.583C526.695 462.463 528.914 462.523 531.373 462.583C533.172 462.644 534.851 462.945 536.41 463.367C542.587 465.117 546.905 469.158 547.565 472.354C548.405 476.395 544.387 519.159 544.387 519.159Z" fill="white"/>
<path d="M532.092 462.644C532.092 462.644 534.731 464.212 534.671 466.624C534.671 466.624 535.571 461.136 533.472 460.291C531.373 459.507 532.092 462.644 532.092 462.644Z" fill="#0C4983"/>
<path d="M545.466 524.467C545.466 524.467 539.109 528.749 531.253 527.483C531.253 527.483 528.614 477.421 529.334 472.716C529.334 472.716 531.853 469.942 533.952 468.313C535.811 466.926 536.35 464.091 536.41 463.367C542.587 465.117 547.085 466.504 547.745 469.7C548.525 473.742 545.466 524.467 545.466 524.467Z" fill="#599DF9"/>
<path d="M524.596 462.583C523.757 463.91 522.197 466.926 521.717 471.269C521.418 474.224 516.44 525.311 516.44 525.311C511.942 525.311 510.923 522.718 510.923 522.718C510.923 522.718 509.723 470.726 512.662 466.866C514.881 464.091 519.079 462.885 524.596 462.583Z" fill="#599DF9"/>
<path d="M533.472 460.352C533.472 460.352 537.85 460.412 538.929 464.936C540.009 469.459 534.312 472.958 534.312 472.958C534.312 472.958 533.352 470.545 532.093 470.545C530.833 470.545 529.274 472.716 529.274 472.716C529.274 472.716 530.473 470.002 532.272 468.615C534.072 467.167 535.811 463.307 533.472 460.352Z" fill="#599DF9"/>
<path d="M525.316 460.231C525.316 460.231 519.439 462.161 517.639 469.339C517.639 469.339 518.779 467.047 519.858 467.71C520.878 468.374 521.717 471.269 521.717 471.269C521.717 471.269 522.737 464.272 526.095 462.523L525.316 460.231Z" fill="#599DF9"/>
<path d="M547.205 468.253C542.947 470.485 541.448 479.833 541.928 483.573L547.925 501.969C547.925 501.969 548.105 504.08 548.824 504.382L546.725 536.047C547.325 534.841 553.502 535.806 554.402 538.46C554.402 538.46 558.6 507.88 558 499.496C557.82 497.868 547.205 468.253 547.205 468.253Z" fill="#599DF9"/>
<path d="M524.896 458.482L526.875 466.262C526.875 466.262 529.094 467.288 533.772 464.151C533.772 464.151 531.253 458.241 533.472 454.018C533.472 454.018 532.932 454.079 532.033 454.139C532.033 454.139 531.193 458.783 524.896 458.482Z" fill="#F7A491"/>
<path d="M534.791 450.158C534.911 459.326 525.136 460.533 522.857 457.155C522.137 456.069 521.477 454.079 521.058 451.907C520.938 451.425 520.878 450.942 520.818 450.4C520.398 447.022 520.698 443.584 522.617 442.679C529.094 439.543 534.671 440.93 534.791 450.158Z" fill="#F7A491"/>
<path d="M520.998 444.79C520.998 444.79 522.797 442.378 528.434 442.981C528.434 442.981 529.274 446.359 531.013 447.384C532.692 448.409 533.352 451.244 533.352 451.244C533.352 451.244 533.532 449.796 534.251 449.676C534.971 449.495 534.011 454.139 534.011 454.139C534.011 454.139 536.77 453.717 536.95 445.997C537.07 439.06 531.133 440.81 531.133 440.81C531.133 440.81 529.694 437.914 523.097 439.422L523.576 439.664C523.576 439.664 520.518 440.146 519.438 442.74L519.978 442.679C519.978 442.679 519.379 444.067 520.998 444.79Z" fill="#0C4983"/>
<path d="M532.812 450.098C532.812 450.098 534.132 448.228 535.571 449.133C537.01 450.098 535.031 453.476 533.532 453.536C532.093 453.536 532.812 450.098 532.812 450.098Z" fill="#F7A491"/>
<path d="M521.118 452.511C521.118 452.511 521.897 453.596 523.936 453.415C527.355 453.053 531.433 451.425 532.632 448.65L533.052 449.796C533.052 449.796 534.131 454.199 533.652 455.647L533.352 455.526C533.352 455.526 533.472 457.336 530.893 458.723C528.254 460.11 526.455 460.11 526.455 460.11L526.815 460.472C526.815 460.472 522.677 460.774 521.597 457.879L521.537 458.542C521.597 458.602 519.918 454.923 521.118 452.511Z" fill="#0C4983"/>
<path d="M523.037 453.958C523.037 453.958 523.217 454.26 524.836 453.898C526.395 453.536 527.415 453.053 527.415 453.053C527.415 453.053 527.415 456.31 525.016 456.491C522.977 456.733 523.037 453.958 523.037 453.958Z" fill="#F7A491"/>
<defs>
<linearGradient id="paint0_linear" x1="343.484" y1="608.345" x2="343.484" y2="405.971" gradientUnits="userSpaceOnUse">
<stop stop-color="#38C39D"/>
<stop offset="0.1713" stop-color="#3BBAA6"/>
<stop offset="0.4506" stop-color="#42A2BE"/>
<stop offset="0.5893" stop-color="#4693CD"/>
<stop offset="0.9266" stop-color="#236AC5"/>
<stop offset="1" stop-color="#1B61C3"/>
</linearGradient>
</defs>
</svg>
