<svg width="568" height="475" viewBox="0 0 568 475" fill="none" xmlns="http://www.w3.org/2000/svg">
<path opacity="0.15" d="M91.0174 139.133L239.571 88.8865L239.708 88.7499L318.217 8.32877L381.162 65.8115L382.117 64.8557L318.217 6.41724L238.889 87.6576L91.427 137.494L31.0771 54.2057L29.8482 55.0249L91.0174 139.133Z" fill="#599DF9"/>
<path opacity="0.15" d="M552.927 262.564C552.927 266.66 556.204 269.937 560.3 269.937C564.396 269.937 567.673 266.66 567.673 262.564C567.673 258.467 564.396 255.19 560.3 255.19C556.204 255.327 552.927 258.604 552.927 262.564Z" fill="#599DF9"/>
<path opacity="0.15" d="M310.844 7.37308C310.844 11.4692 314.121 14.7462 318.217 14.7462C322.313 14.7462 325.59 11.4692 325.59 7.37308C325.59 3.27692 322.313 0 318.217 0C314.121 0 310.844 3.27692 310.844 7.37308Z" fill="#599DF9"/>
<path opacity="0.15" d="M23.1576 54.6155C23.1576 58.7117 26.4345 61.9886 30.5306 61.9886C34.6268 61.9886 37.9037 58.7117 37.9037 54.6155C37.9037 50.5194 34.6268 47.2424 30.5306 47.2424C26.4345 47.2424 23.1576 50.6559 23.1576 54.6155Z" fill="#599DF9"/>
<path opacity="0.15" d="M22.475 442.248C22.475 446.344 25.7519 449.621 29.848 449.621C33.9442 449.621 37.2211 446.344 37.2211 442.248C37.2211 438.152 33.9442 434.875 29.848 434.875C25.7519 435.012 22.475 438.288 22.475 442.248Z" fill="#599DF9"/>
<path opacity="0.15" d="M231.925 88.3404C231.925 92.4365 235.202 95.7134 239.298 95.7134C243.394 95.7134 246.671 92.4365 246.671 88.3404C246.671 84.2442 243.394 80.9673 239.298 80.9673C235.202 80.9673 231.925 84.2442 231.925 88.3404Z" fill="#599DF9"/>
<path opacity="0.15" d="M367.508 442.521L368.19 442.385L552.381 407.567L552.108 406.202L368.463 440.883L239.844 88.0674L238.615 88.477L367.508 442.521Z" fill="#599DF9"/>
<path opacity="0.15" d="M543.488 120.763L544.393 121.785L481.523 177.45L480.618 176.427L543.488 120.763Z" fill="#599DF9"/>
<path opacity="0.15" d="M30.121 442.931L121.192 386.404L119.281 385.858L23.5672 293.831L91.8364 138.586L90.6075 138.04L21.9287 294.104L22.3383 294.513L118.188 386.677L29.4383 441.702L30.121 442.931Z" fill="#599DF9"/>
<path opacity="0.15" d="M551.698 407.294L552.79 406.611L497.765 321.548L561.256 262.7L560.71 262.154L481.244 176.135L480.835 176.408L118.598 385.858L119.281 387.086L480.971 177.773L559.344 262.563L495.99 321.275L551.698 407.294Z" fill="#599DF9"/>
<path d="M301.608 369.641C297.192 369.969 292.776 370.132 288.524 370.132C251.562 369.641 217.708 353.777 193.666 328.264C173.713 307.166 160.63 279.363 158.013 248.126C158.013 247.308 157.849 246.49 157.849 245.672C156.704 228.99 158.831 212.799 163.573 197.753C177.966 151.632 216.89 115.652 266.118 106.493C270.534 105.675 275.113 105.021 279.529 104.694C290.65 103.713 301.444 104.204 311.911 106.003C342.985 111.073 370.625 126.937 390.741 149.833C408.732 170.44 420.671 196.935 423.124 226.374C424.432 242.074 422.96 257.448 419.035 272.003C404.806 324.339 359.013 364.899 301.608 369.641Z" fill="white"/>
<path d="M301.608 369.641C297.192 369.969 292.776 370.132 288.524 370.132C251.562 369.641 217.708 353.777 193.666 328.264C173.713 307.166 160.63 279.363 158.013 248.126C158.013 247.308 157.849 246.49 157.849 245.672C156.704 228.99 158.831 212.799 163.573 197.753C177.966 151.632 216.89 115.652 266.118 106.493C270.534 105.675 275.113 105.021 279.529 104.694C290.65 103.713 301.444 104.204 311.911 106.003C342.985 111.073 370.625 126.937 390.741 149.833C408.732 170.44 420.671 196.935 423.124 226.374C424.432 242.074 422.96 257.448 419.035 272.003C404.806 324.339 359.013 364.899 301.608 369.641Z" fill="#0C4983"/>
<path d="M390.251 269.55C390.741 272.003 393.849 272.985 396.302 273.148C400.064 273.639 403.825 274.13 407.75 274.62C409.549 269.877 415.11 269.877 419.035 271.676C404.806 324.339 359.013 364.899 301.608 369.641C297.192 369.969 292.776 370.132 288.524 370.132C288.524 369.969 288.36 369.969 288.36 369.805C286.398 366.371 289.178 363.263 290.814 360.319C291.141 359.665 294.412 351.488 293.267 351.488C296.701 351.488 300.299 351.161 303.57 350.179C303.897 350.179 304.061 350.016 304.225 349.852C304.552 349.362 303.734 348.707 303.243 348.707C301.608 348.38 299.972 348.217 298.5 347.726C297.028 347.235 295.393 346.254 294.902 344.782C294.248 343.31 294.739 341.511 294.412 340.039C293.921 338.077 292.449 336.605 290.65 335.787C289.015 334.969 287.052 334.642 285.089 334.315C289.178 332.189 286.234 327.61 289.342 324.502C290.323 323.521 291.795 322.376 291.141 321.068C290.487 319.923 288.36 319.923 288.197 318.615C288.033 317.633 289.015 316.979 289.832 316.652C290.814 316.488 291.795 316.488 292.613 315.998C293.757 315.344 294.085 313.708 293.43 312.563C292.776 311.582 291.468 311.255 290.487 310.764C289.505 310.274 288.524 308.965 289.178 307.984C289.342 307.82 289.505 307.493 289.832 307.493C291.468 306.512 293.757 307.33 295.393 308.475C297.028 309.619 298.664 310.928 300.79 310.928C301.281 310.11 300.954 309.129 300.136 308.638C299.809 308.475 299.482 308.475 299.318 308.148C298.827 307.657 299.155 306.839 299.482 306.348C300.954 303.568 301.281 300.297 300.463 297.19C296.374 297.19 292.286 297.353 288.36 297.353C288.197 296.372 288.197 295.881 287.216 295.554C289.996 292.283 292.94 289.34 295.393 285.741C295.72 285.251 296.047 284.924 296.538 284.76C297.028 284.597 297.683 284.76 298.173 284.76C299.972 284.597 300.136 282.143 299.972 280.344C300.299 279.854 301.117 280.017 301.444 280.508C301.771 280.999 301.771 281.653 302.262 282.143C302.916 282.798 303.897 282.798 304.715 282.47C307.496 281.326 309.131 277.728 307.823 274.947C307.659 274.62 307.496 274.293 307.168 274.13C306.514 273.802 305.696 274.293 304.879 274.293C301.771 274.784 302.262 271.349 302.916 269.877C303.897 267.751 307.005 266.279 309.131 265.625C311.748 264.971 328.757 261.7 325.976 256.139C325.649 255.649 325.159 255.322 324.668 254.994C323.033 254.34 321.234 254.504 319.434 254.013C317.799 253.523 316 251.724 316.818 250.088C317.145 249.434 317.799 248.943 318.126 248.289C319.107 246.49 317.635 244.364 318.29 242.401C318.617 241.584 319.271 240.929 319.762 240.112C320.252 239.294 320.252 238.149 319.434 237.658C318.617 237.168 317.308 237.986 316.491 237.495C315.509 237.004 315.509 235.369 316.491 234.878C317.308 234.224 318.617 234.551 319.598 235.042C320.089 235.369 320.579 235.696 321.07 235.859C322.051 236.023 322.869 235.042 323.36 234.06C324.177 232.752 324.995 231.28 325.813 229.972C326.794 229.972 327.448 230.789 327.775 231.771C328.103 232.588 328.103 233.57 328.43 234.387C330.229 238.476 336.443 237.986 335.626 243.546C333.99 243.383 332.355 245.182 332.845 246.817C333.5 248.78 336.443 249.924 336.116 251.887C335.953 252.541 335.462 253.195 335.299 253.85C334.972 255.812 338.079 256.63 339.387 256.957C343.803 258.429 343.967 255.649 347.892 255.485C349.691 255.485 351.163 256.63 352.962 256.794C354.597 256.957 356.069 256.303 357.705 256.466C362.12 256.794 359.831 262.681 359.504 265.298C361.793 263.663 365.064 265.625 366.863 267.588C369.807 270.859 369.48 270.204 373.242 270.368C374.223 270.368 375.368 270.859 375.695 271.84C376.349 273.475 374.877 275.111 374.877 276.91C374.877 277.728 375.204 278.545 375.041 279.363C374.877 281.489 372.26 282.47 370.625 284.106C369.317 285.414 368.662 287.54 368.989 289.34C370.134 289.34 371.279 289.34 372.424 289.176C373.078 287.868 373.732 286.559 374.387 285.414C375.041 284.27 375.531 283.125 376.676 282.307C377.33 281.816 377.985 281.653 378.312 280.999C379.129 279.854 378.475 278.218 378.312 276.91C377.821 273.475 379.457 267.751 380.438 264.48C381.256 260.882 383.709 259.574 384.527 256.139C384.69 255.485 385.508 255.322 385.998 255.649C386.489 255.976 386.816 256.466 386.98 257.121C387.307 258.429 387.143 259.901 386.653 261.209C387.47 259.574 391.559 263.99 391.886 264.807C392.377 266.116 391.396 268.078 391.396 269.55C391.559 273.148 392.377 275.111 395.975 272.494C397.447 271.513 399.082 270.368 400.554 271.186C400.227 272.167 400.881 273.148 401.699 273.639C402.517 274.13 403.662 274.13 404.643 273.802C405.297 273.639 405.951 273.475 406.442 272.985C406.605 272.658 406.769 272.331 407.096 272.167C408.077 271.513 409.222 272.658 409.713 273.802" fill="#01315F"/>
<path d="M229.647 165.043C228.992 166.188 229.647 167.66 230.464 168.805C231.282 169.95 232.263 171.095 231.936 172.403C230.301 172.566 228.829 172.73 227.193 172.894C226.866 172.894 226.539 172.894 226.376 173.221C226.212 173.384 226.212 173.711 226.212 174.038C226.376 175.02 226.539 176.001 226.539 177.146C227.521 177.964 228.502 175.51 229.81 175.674C230.301 175.837 230.628 176.328 230.955 176.819C233.572 180.907 237.988 177.8 240.441 175.674C243.221 173.221 247.31 173.057 250.908 173.057C252.216 173.057 253.688 173.057 254.669 174.038C255.651 175.02 255.651 176.328 256.141 177.636C256.959 179.763 258.922 181.071 260.067 183.034C264.155 189.903 256.796 195.136 250.744 193.173C247.637 192.192 248.128 191.702 244.857 192.519C243.548 192.846 241.913 192.519 240.931 194.155C240.114 195.79 241.259 197.916 243.221 197.916C245.02 197.916 246.819 198.243 248.455 197.262C247.8 199.388 248.455 201.841 248.618 204.131C250.744 203.641 252.707 206.257 251.889 208.22C250.908 208.22 249.436 208.547 249.6 209.692C249.6 210.019 249.763 210.346 249.927 210.51C250.581 211.491 251.562 212.472 252.216 213.617C253.198 215.252 253.198 220.486 255.651 220.977C256.141 221.14 256.469 220.977 256.959 221.14C257.777 221.467 258.431 222.449 258.104 223.43C257.94 224.411 257.123 225.065 256.141 225.229C255.487 225.392 254.833 225.392 254.342 225.556C251.235 226.701 254.015 229.808 253.198 231.28C252.87 232.098 247.637 235.369 246.983 235.532C248.782 236.841 250.417 238.803 250.581 241.093C250.581 243.71 248.782 244.855 246.329 245.672C243.712 246.49 240.604 246.817 238.805 247.471C237.824 247.798 236.516 248.289 235.698 247.471C234.717 246.654 234.88 244.691 233.735 244.2C233.408 244.037 232.918 244.037 232.427 244.037C229.974 243.873 228.011 241.257 228.502 238.803C228.011 237.986 226.866 238.149 225.885 238.149C224.904 238.149 223.759 237.822 223.595 237.004C223.432 235.859 224.74 235.369 225.885 235.205C227.03 235.205 228.011 235.205 229.156 235.532C229.974 235.696 230.792 236.023 231.609 235.696C232.1 235.369 232.591 234.878 232.918 234.388C233.735 233.079 234.39 231.607 234.226 230.135C234.062 228.663 232.918 227.191 231.446 227.191C231.119 227.191 230.628 227.355 230.301 227.191C229.32 227.028 228.829 225.719 228.829 224.738C228.829 223.757 229.32 222.612 228.992 221.631C228.665 220.649 227.357 219.832 226.703 220.649C226.049 219.341 225.722 217.379 227.03 216.724C227.521 216.561 227.848 216.561 228.338 216.561C231.119 216.234 235.044 212.472 231.936 210.182C229.81 208.711 226.539 211.818 224.74 209.038C223.923 207.729 224.413 205.767 223.432 204.622C222.941 204.295 222.287 204.949 222.123 205.603C221.796 207.566 222.451 209.855 224.086 211.164C222.451 212.145 219.997 211 218.853 212.472C217.708 213.944 219.343 216.561 217.871 217.706C217.544 218.033 216.89 218.196 216.399 218.196C213.783 218.523 209.04 218.196 208.876 221.794C208.876 222.285 208.876 222.776 208.876 223.103C208.549 224.411 206.75 224.575 205.442 224.411C204.787 223.103 205.605 221.631 206.259 220.159C206.914 218.85 206.75 216.724 205.442 216.397C204.46 216.234 203.152 217.051 202.334 216.397C202.007 216.07 201.68 215.579 201.353 215.416C200.372 214.925 199.39 216.561 198.245 216.888C196.61 217.379 195.465 215.252 195.465 213.617C195.465 211.981 195.956 210.019 194.811 208.874C194.484 208.547 193.993 208.22 193.666 207.893C192.521 206.748 192.358 205.112 192.194 203.477C191.867 200.86 181.891 207.566 181.237 207.566C176.33 208.383 173.386 203.641 170.115 200.86C168.316 199.552 166.354 198.571 164.391 197.589C178.129 153.268 215.418 118.269 260.721 107.638C262.683 107.147 264.809 106.657 266.936 106.493C266.281 109.601 264.482 114.507 266.445 117.451C269.062 121.212 274.622 117.942 276.748 122.357C276.748 123.502 274.949 123.339 274.132 123.993C273.641 124.32 273.477 125.138 273.314 125.628C273.15 126.282 272.496 126.773 272.006 126.61C271.351 127.591 272.333 128.899 273.314 129.717C274.459 130.698 275.44 131.843 275.767 133.315C276.585 136.259 274.622 139.203 273.477 141.983C272.496 144.273 271.842 146.726 271.351 149.179C271.351 148.034 269.716 147.544 268.571 148.034C267.59 148.525 266.936 149.67 266.118 150.487C264.646 151.796 262.847 150.978 261.375 152.123C259.412 153.595 258.268 156.212 255.814 156.539C252.87 157.029 250.908 153.922 249.6 151.305C246.492 152.941 244.53 157.029 240.931 157.193C239.623 157.357 238.151 156.702 237.006 156.212C234.39 155.23 231.773 154.086 229.156 153.104C228.011 152.614 226.866 152.287 225.722 152.614C224.413 153.104 223.759 154.413 223.268 155.721C222.778 157.029 222.123 158.501 221.633 159.81C221.469 160.3 221.142 160.955 221.306 161.609C221.469 162.263 221.96 162.754 222.614 163.081C225.558 165.043 229.32 165.697 232.754 165.207C232.427 169.95 231.446 174.693 229.974 179.108C232.591 178.454 235.698 179.272 238.151 178.291" fill="#01315F"/>
<path d="M193.666 328.1C172.732 307.33 160.466 277.237 158.176 248.125C158.176 247.308 158.013 246.49 158.013 245.672C162.102 241.584 170.115 238.803 172.241 246.326C173.059 246.326 173.223 245.836 173.877 245.345C174.858 244.691 176.33 245.672 176.821 246.654C178.62 250.252 178.947 254.831 183.853 253.85C189.905 252.705 185.816 250.088 187.779 246.817C188.106 246.326 188.596 245.999 188.923 245.672C190.395 244.2 190.232 241.911 189.905 239.948C188.76 240.602 187.124 239.948 186.797 238.64C186.634 238.149 186.634 237.658 186.307 237.331C185.652 236.514 184.18 237.331 183.853 238.313C183.526 239.294 183.853 240.439 183.526 241.42C183.363 242.401 182.218 243.383 181.237 242.892C180.91 242.728 180.746 242.238 180.582 241.747C180.092 239.948 180.419 237.985 181.564 236.514C180.582 236.186 179.765 235.205 179.928 234.224C179.928 233.243 180.746 232.261 181.727 232.098C183.199 231.771 185.325 232.588 185.816 231.28C185.652 232.425 186.143 233.733 187.124 234.551C191.049 237.331 199.718 234.878 198.736 243.055C198.573 244.364 198.082 245.672 198.246 246.981C198.246 248.289 199.063 249.761 200.372 250.088C198.082 252.051 198.9 256.303 196.447 257.938C195.302 258.756 193.503 258.593 192.521 257.448C192.358 257.284 192.194 257.121 192.031 256.957C191.54 256.793 191.213 257.284 190.722 257.284C189.905 257.448 189.25 256.63 188.433 256.63C187.288 256.63 186.634 257.938 186.47 259.083C186.307 260.228 185.98 261.7 184.835 261.863C184.508 262.027 184.017 261.863 183.69 262.027C182.872 262.191 182.381 263.008 182.381 263.826C182.381 264.644 182.709 265.461 182.872 266.116C183.363 266.606 184.18 266.279 184.671 265.789C185.162 265.298 185.489 264.644 185.979 264.153C186.307 263.99 193.176 264.48 193.012 263.99C193.993 266.443 194.648 271.676 198.082 270.204C199.39 269.714 200.699 268.896 202.007 269.223C201.353 267.588 200.862 265.789 200.208 264.153C200.699 263.662 201.517 264.317 201.844 264.971C202.007 265.625 202.171 266.443 202.661 266.933C202.988 267.261 203.643 267.261 204.133 267.261C205.769 267.261 207.404 267.261 208.876 267.097C210.675 267.097 212.638 267.097 213.783 268.569C215.091 270.041 214.273 272.494 212.965 273.966C212.638 274.293 212.311 274.784 212.311 275.111C212.311 275.601 212.638 275.929 212.965 276.092C214.6 277.728 215.745 280.017 215.255 282.143C214.927 284.433 212.801 286.396 210.512 286.232C209.694 286.232 208.549 285.905 208.058 286.559C207.731 287.05 207.731 287.704 207.241 287.868C206.587 288.195 206.096 287.377 205.769 286.886C204.951 286.069 203.643 285.741 202.661 286.396C202.171 286.723 200.535 291.629 201.026 292.283C202.007 293.919 206.587 293.265 208.386 293.428C209.04 293.428 209.857 293.592 210.348 294.082C211.002 294.9 210.512 296.208 209.694 296.863C208.876 297.517 207.895 298.171 207.404 299.152C207.241 299.807 207.241 300.461 207.241 300.951C207.241 302.26 207.404 303.568 208.386 304.386C208.876 304.713 209.367 305.04 209.857 305.367C210.839 306.185 211.002 307.82 210.675 309.129C210.348 310.437 209.694 311.582 209.367 312.89C208.876 315.671 210.348 318.778 209.203 321.395C208.713 322.703 206.914 323.685 205.932 322.867C204.951 322.049 204.951 320.25 203.806 320.086C202.661 319.923 201.189 322.867 200.372 323.357C199.554 323.848 198.082 323.03 196.774 324.012C195.138 325.32 194.975 327.119 193.666 328.1Z" fill="#01315F"/>
<path d="M371.279 150.978C370.134 149.506 369.317 147.707 367.191 147.38C364.247 146.889 363.102 148.525 364.41 151.469C364.574 151.796 364.574 151.959 364.574 152.286C364.41 153.104 363.102 152.614 362.284 152.123C360.485 150.978 358.359 150.978 356.56 151.796C356.069 151.959 355.252 143.782 355.742 142.801C357.214 139.53 364.247 141.002 362.775 137.404C360.158 137.404 357.541 137.731 354.924 137.894C354.761 136.586 354.597 135.441 354.434 134.133C354.597 135.114 349.691 134.95 349.2 134.623C347.074 133.478 347.565 129.717 343.803 130.208C338.897 131.025 338.733 140.511 344.13 139.039C345.439 141.819 345.929 145.254 346.093 148.361C347.074 148.361 348.055 148.361 349.037 148.361C349.527 149.016 349.691 149.997 349.364 150.815C346.911 152.45 343.476 152.614 341.023 150.815C339.387 151.959 337.261 150.815 335.626 149.67C333.336 153.268 326.794 152.777 325.159 148.852C323.523 144.927 327.612 139.857 331.864 140.838C331.864 138.876 332.682 136.913 333.99 135.278C328.757 135.441 323.687 131.843 322.051 126.937C321.234 124.483 321.07 121.376 318.944 119.904C317.963 119.25 316.818 118.923 315.837 118.269C313.71 116.797 313.056 114.016 312.729 111.4C312.566 109.601 312.402 107.965 312.239 106.166C343.313 111.236 370.952 127.1 391.069 149.997C391.232 150.978 391.232 151.796 390.905 152.777C390.251 154.249 388.452 154.903 386.816 155.394C380.438 157.029 376.349 156.702 371.933 151.796C371.443 151.142 371.279 151.142 371.279 150.978Z" fill="#01315F"/>
<path d="M326.571 159.401C326.571 159.401 323.096 161.49 318.646 165.436C318.646 165.436 291.937 166.182 285.558 165.436C285.558 165.436 286.652 162.195 287.6 161.795C288.547 161.399 319.294 160.152 326.571 159.401Z" fill="#599DF9"/>
<path d="M319.269 156.122L322.039 159.823L321.921 159.911L319.151 156.21L319.269 156.122Z" fill="white"/>
<path d="M287.673 161.817L298.007 126.072L287.532 161.772L287.673 161.817Z" fill="white"/>
<path d="M298.007 126.072C298.007 126.072 309.807 137.172 319.227 156.154C319.227 156.154 308.092 157.148 304.956 160.716C304.956 160.716 301.008 134.151 298.007 126.072Z" fill="white"/>
<path d="M302.418 160.852L298.007 126.072C298.007 126.072 292.919 150.666 292.067 159.401C292.067 159.401 298.39 158.893 302.418 160.852Z" fill="white"/>
<path d="M242.121 302.109C242.121 302.109 240.277 303.217 237.915 305.312C237.915 305.312 223.741 305.707 220.355 305.312C220.355 305.312 220.936 303.592 221.439 303.379C221.942 303.169 238.259 302.507 242.121 302.109Z" fill="#599DF9"/>
<path d="M238.246 300.369L239.716 302.333L239.653 302.379L238.183 300.416L238.246 300.369Z" fill="white"/>
<path d="M221.478 303.391L226.962 284.421L221.403 303.367L221.478 303.391Z" fill="white"/>
<path d="M226.962 284.421C226.962 284.421 233.224 290.312 238.223 300.386C238.223 300.386 232.314 300.913 230.65 302.807C230.65 302.807 228.555 288.709 226.962 284.421Z" fill="white"/>
<path d="M229.303 302.879L226.962 284.421C226.962 284.421 224.262 297.473 223.81 302.109C223.81 302.109 227.166 301.839 229.303 302.879Z" fill="white"/>
<path d="M396.478 243.56C396.478 243.56 394.634 244.668 392.272 246.763C392.272 246.763 378.098 247.158 374.713 246.763C374.713 246.763 375.293 245.043 375.796 244.83C376.299 244.62 392.616 243.958 396.478 243.56Z" fill="#599DF9"/>
<path d="M392.603 241.82L394.073 243.783L394.011 243.83L392.541 241.866L392.603 241.82Z" fill="white"/>
<path d="M375.835 244.842L381.319 225.872L375.76 244.818L375.835 244.842Z" fill="white"/>
<path d="M381.319 225.872C381.319 225.872 387.582 231.763 392.581 241.837C392.581 241.837 386.672 242.364 385.007 244.258C385.007 244.258 382.912 230.16 381.319 225.872Z" fill="white"/>
<path d="M383.66 244.329L381.319 225.872C381.319 225.872 378.619 238.924 378.167 243.559C378.167 243.559 381.523 243.29 383.66 244.329Z" fill="white"/>
<path d="M188.894 226.261C188.894 226.261 187.05 227.37 184.688 229.464C184.688 229.464 170.514 229.86 167.129 229.464C167.129 229.464 167.71 227.744 168.212 227.531C168.715 227.322 185.033 226.66 188.894 226.261Z" fill="#599DF9"/>
<path d="M185.019 224.521L186.489 226.485L186.427 226.532L184.957 224.568L185.019 224.521Z" fill="white"/>
<path d="M168.251 227.543L173.735 208.573L168.177 227.519L168.251 227.543Z" fill="white"/>
<path d="M173.735 208.573C173.735 208.573 179.998 214.464 184.997 224.538C184.997 224.538 179.088 225.065 177.423 226.959C177.423 226.959 175.328 212.861 173.735 208.573Z" fill="white"/>
<path d="M176.076 227.031L173.735 208.573C173.735 208.573 171.035 221.625 170.583 226.261C170.583 226.261 173.939 225.991 176.076 227.031Z" fill="white"/>
<path d="M560.3 121.246C560.3 127.254 557.023 132.579 552.108 135.31C549.787 136.675 546.919 137.494 544.052 137.494C540.229 137.494 536.815 136.265 534.085 134.081C530.262 131.077 527.804 126.435 527.804 121.246C527.804 112.235 535.04 104.998 544.052 104.998C552.927 104.998 560.3 112.371 560.3 121.246Z" fill="#599DF9"/>
<path opacity="0.3" d="M541.608 136.352C533.271 134.999 527.61 127.143 528.963 118.807C530.316 110.47 538.171 104.808 546.508 106.162C554.844 107.515 560.506 115.37 559.153 123.706C557.8 132.043 549.945 137.705 541.608 136.352Z" fill="white"/>
<path opacity="0.6" d="M560.3 121.246C560.3 127.254 557.023 132.579 552.108 135.31C549.787 136.675 546.919 137.494 544.052 137.494C540.229 137.494 536.815 136.265 534.085 134.081C530.262 131.077 527.804 126.435 527.804 121.246C527.804 112.235 535.04 104.998 544.052 104.998C552.927 104.998 560.3 112.371 560.3 121.246Z" fill="white"/>
<path opacity="0.3" d="M553.064 121.11C552.927 123.021 551.152 123.431 551.152 123.431C551.152 123.431 551.562 124.523 551.152 125.752C550.742 126.981 548.148 126.981 548.148 126.981C548.148 126.981 547.875 127.664 547.056 127.8C547.056 127.937 546.919 127.937 546.919 127.937C546.783 128.073 546.646 128.21 546.51 128.483C546.237 130.94 546.237 133.535 547.466 134.9C548.558 135.037 549.514 135.173 550.606 135.31C551.152 135.446 551.544 135.06 552.09 135.196C549.769 136.562 546.957 137.196 544.09 137.196C540.267 137.196 536.821 135.881 534.09 133.696C534.5 133.696 535.041 134.354 535.587 134.354C536.406 134.354 537.362 134.354 538.454 134.354C540.229 134.081 541.048 133.262 541.458 132.169C541.594 131.623 541.731 131.077 541.594 130.531C541.185 130.394 540.639 130.258 540.229 130.121C539 129.575 538.044 128.483 537.498 127.117C537.362 126.981 537.362 126.708 537.362 126.571C536.952 125.206 536.816 123.431 536.952 121.792C536.542 121.519 535.996 121.11 535.86 120.29C535.587 118.652 536.952 118.242 536.952 118.242C536.952 118.242 535.314 117.969 535.314 115.921C535.314 113.873 536.952 113.873 536.952 113.873C536.952 113.873 536.406 113.054 537.498 111.415C538.591 109.777 540.229 110.869 540.229 110.869C540.229 110.869 541.458 108.958 543.369 109.367C545.417 109.777 545.827 111.006 545.827 111.006C545.827 111.006 545.827 109.777 548.012 110.46C550.196 111.142 549.923 113.737 549.923 113.737C549.923 113.737 551.425 112.917 552.244 114.556C553.064 116.194 551.289 119.062 551.289 119.062C551.289 119.062 553.337 119.062 553.064 121.11Z" fill="#0C4983"/>
<path d="M552.244 421.358C544.251 421.358 537.771 414.878 537.771 406.885C537.771 398.891 544.251 392.412 552.244 392.412C560.237 392.412 566.717 398.891 566.717 406.885C566.717 414.878 560.237 421.358 552.244 421.358Z" fill="#599DF9"/>
<path opacity="0.3" d="M538.591 406.885C538.591 410.025 539.683 412.892 541.458 415.214C543.915 418.354 547.875 420.539 552.244 420.539C555.112 420.539 557.706 419.719 559.89 418.217C563.44 415.76 565.898 411.664 565.898 407.021C565.898 399.512 559.754 393.367 552.244 393.367C544.735 393.367 538.591 399.375 538.591 406.885Z" fill="white"/>
<path opacity="0.7" d="M552.244 421.358C544.251 421.358 537.771 414.878 537.771 406.885C537.771 398.891 544.251 392.412 552.244 392.412C560.237 392.412 566.717 398.891 566.717 406.885C566.717 414.878 560.237 421.358 552.244 421.358Z" fill="white"/>
<path opacity="0.4" d="M541.458 415.35C543.915 418.49 547.875 420.675 552.244 420.675C555.112 420.675 557.706 419.856 559.89 418.354C559.481 417.262 559.208 416.715 559.208 416.715C557.569 416.169 555.794 415.76 554.019 415.487C553.61 415.077 552.927 414.804 552.244 414.667C551.835 413.575 552.108 412.346 552.381 411.527C552.927 411.117 553.337 410.708 553.746 410.162C554.019 410.025 554.292 409.752 554.429 409.479C554.839 409.342 557.706 407.977 557.842 403.198C557.842 403.062 557.842 402.789 557.842 402.652C558.798 402.515 559.617 402.789 559.071 404.7C557.979 407.84 559.071 409.479 559.071 409.479C559.071 408.523 559.208 407.431 559.208 407.431C559.208 410.708 560.983 410.844 560.983 410.844C560.983 410.844 559.89 409.615 561.529 406.065C563.167 402.379 562.758 397.464 559.617 397.327C557.979 397.19 556.75 398.01 556.067 398.829C554.292 397.19 551.562 396.917 549.923 398.146C549.923 398.146 547.056 397.464 546.237 398.146C546.1 398.283 546.237 398.692 546.51 399.239C545.827 399.785 545.144 400.467 544.871 401.56C544.462 403.471 545.008 404.973 545.69 405.929C545.281 409.479 545.964 412.21 548.831 412.483C548.831 412.619 548.831 412.619 548.831 412.756C548.831 412.892 548.831 413.029 548.831 413.165C548.831 413.848 548.694 414.394 548.694 414.667C548.285 414.804 547.875 414.804 547.465 414.94C544.871 414.94 542.004 415.214 542.004 415.214C541.867 414.94 541.731 415.077 541.458 415.35Z" fill="#0C4983"/>
<path d="M11.4821 305.263C5.24355 299.025 5.24354 288.91 11.4821 282.671C17.7207 276.433 27.8354 276.433 34.074 282.671C40.3125 288.91 40.3125 299.025 34.0739 305.263C27.8354 311.502 17.7207 311.502 11.4821 305.263Z" fill="#599DF9"/>
<path opacity="0.3" d="M7.72915 293.967C7.72915 297.108 8.6849 299.975 10.1868 302.296C12.9176 306.392 17.4234 308.987 22.7484 308.987C26.1618 308.987 29.4387 307.758 31.8964 305.846C35.4464 303.116 37.7676 298.746 37.7676 293.967C37.7676 285.639 31.0772 278.948 22.7484 278.948C14.4195 278.948 7.72915 285.639 7.72915 293.967Z" fill="white"/>
<path opacity="0.6" d="M11.4821 305.263C5.24355 299.025 5.24354 288.91 11.4821 282.671C17.7207 276.433 27.8354 276.433 34.074 282.671C40.3125 288.91 40.3125 299.025 34.0739 305.263C27.8354 311.502 17.7207 311.502 11.4821 305.263Z" fill="white"/>
<path opacity="0.4" d="M10.1866 302.296C12.9174 306.392 17.4232 308.987 22.7482 308.987C26.1617 308.987 29.4386 307.758 31.8963 305.846C32.0328 304.89 31.8963 304.071 31.7598 303.388C31.6232 301.613 29.4386 300.112 29.4386 298.746C29.4386 297.517 31.6232 295.742 30.2578 295.06C28.8924 294.377 28.6194 291.51 29.7117 289.871C30.6674 288.779 31.3501 287.14 29.5751 284.956C28.4828 283.59 26.9809 283.044 25.479 282.771C24.3867 282.225 23.0213 281.952 20.9732 282.089C19.0616 282.225 17.6963 282.771 16.604 283.59C15.5117 284.41 14.6924 285.365 14.2828 286.458C14.2828 286.458 12.6444 289.598 13.8732 293.012C14.6924 295.196 11.279 295.06 11.1424 296.971C11.0059 298.883 12.6444 299.019 12.3713 300.385C12.5078 301.067 11.279 301.613 10.1866 302.296Z" fill="#0C4983"/>
<path d="M91.8517 134.757L213.618 187.551L213.075 188.804L91.3086 136.01L91.8517 134.757Z" fill="#599DF9"/>
<path d="M381.08 64.9567L382.241 65.6753L330.142 149.847L328.981 149.128L381.08 64.9567Z" fill="#599DF9"/>
<path d="M364.732 288.832L499.845 317.145L499.565 318.481L364.451 290.169L364.732 288.832Z" fill="#599DF9"/>
<path d="M197.21 267.238L198.367 267.963L120.659 391.996L119.502 391.271L197.21 267.238Z" fill="#599DF9"/>
<path opacity="0.3" d="M368.19 442.385L500.496 318.135L481.79 176.681L481.654 176.544L381.981 64.7193H381.708L201.067 39.5962L90.8808 135.173V135.583L119.417 392.412L119.963 392.548L368.19 442.385ZM498.994 317.589L367.781 441.019L120.646 391.183L92.2462 135.719L201.477 41.0981L381.298 65.9481L480.425 177.227L498.994 317.589Z" fill="#599DF9"/>
<path d="M326.59 145.567C326.59 148.844 329.184 151.439 332.461 151.439C335.738 151.439 338.332 148.844 338.332 145.567C338.332 142.291 335.738 139.696 332.461 139.696C329.184 139.696 326.59 142.291 326.59 145.567Z" fill="#FE2B1E"/>
<path d="M213.356 194.158C210.113 194.158 207.485 191.529 207.485 188.287C207.485 185.044 210.113 182.416 213.356 182.416C216.598 182.416 219.227 185.044 219.227 188.287C219.227 191.529 216.598 194.158 213.356 194.158Z" fill="#FE2B1E"/>
<path d="M364.64 294.786C361.398 294.786 358.769 292.158 358.769 288.915C358.769 285.673 361.398 283.044 364.64 283.044C367.883 283.044 370.512 285.673 370.512 288.915C370.512 292.158 367.883 294.786 364.64 294.786Z" fill="#FE2B1E"/>
<path d="M191.783 267.616C191.783 270.892 194.377 273.487 197.654 273.487C200.931 273.487 203.525 270.892 203.525 267.616C203.525 264.339 200.931 261.744 197.654 261.744C194.513 261.744 191.783 264.339 191.783 267.616Z" fill="#FE2B1E"/>
<path d="M45.6865 138.313C45.6865 148.554 49.0999 157.975 54.698 165.621C56.7461 168.352 59.0672 170.81 61.6615 172.994C63.9826 175.042 66.4403 176.681 69.1711 178.183C75.7249 181.733 83.2346 183.781 91.1538 183.781C97.8442 183.781 104.261 182.279 109.996 179.685C110.542 179.412 111.088 179.138 111.635 178.865C114.911 177.227 117.915 175.315 120.51 172.994C124.606 169.581 128.019 165.485 130.75 160.842C134.573 154.152 136.758 146.506 136.758 138.313C136.758 113.19 116.413 92.8461 91.2903 92.8461C66.0307 92.7096 45.6865 113.19 45.6865 138.313Z" fill="#599DF9"/>
<path opacity="0.7" d="M59.9692 169.626C42.6932 152.35 42.6932 124.34 59.9692 107.064C77.2452 89.7879 105.255 89.7879 122.531 107.064C139.807 124.34 139.807 152.35 122.531 169.626C105.255 186.902 77.2452 186.902 59.9692 169.626Z" fill="white"/>
<path d="M105.49 163.71L109.45 178.456C109.996 178.183 110.542 178.046 110.952 177.773C114.092 176.271 116.96 174.36 119.554 172.038C119.281 171.356 111.088 153.06 108.085 153.196L105.49 163.71Z" fill="#599DF9"/>
<path d="M105.49 163.71L109.45 178.456C109.996 178.183 110.542 178.046 110.952 177.773C114.092 176.271 116.96 174.36 119.554 172.038C119.281 171.356 111.088 153.06 108.085 153.196L105.49 163.71Z" fill="#0C4983"/>
<path d="M64.3922 123.021C65.4845 127.39 59.3403 139.269 61.798 160.979C64.2557 182.688 88.1499 181.323 98.7999 174.087C109.45 166.85 107.675 127.527 103.988 119.744C100.302 112.235 64.3922 123.021 64.3922 123.021Z" fill="#599DF9"/>
<path d="M57.9744 158.248C58.2475 158.931 58.384 159.477 58.6571 160.16C58.9301 160.842 59.0667 161.388 59.3398 161.935C59.7494 163.163 60.159 164.256 60.5686 165.485C61.3878 167.806 62.0705 169.854 62.6167 171.902C64.8013 173.813 67.259 175.588 69.8532 176.954C76.134 180.504 83.5071 182.415 91.1532 182.415C97.7071 182.415 103.851 181.05 109.449 178.456C109.996 178.183 110.542 178.046 110.951 177.773C110.951 177.363 110.951 176.954 110.951 176.408C110.951 175.998 110.951 175.588 110.951 175.179C110.951 173.95 110.951 172.721 110.815 171.629C110.815 170.946 110.815 170.127 110.678 169.581C110.678 169.171 110.678 168.898 110.678 168.625C110.678 167.396 110.542 166.304 110.542 165.212C110.542 164.938 110.542 164.529 110.542 164.256C110.542 163.3 110.405 162.481 110.269 161.662C109.722 156.61 109.04 154.562 108.63 153.879C108.494 153.742 108.494 153.606 108.357 153.469C108.221 153.333 108.221 153.333 108.221 153.333C108.221 153.333 107.538 153.333 106.446 153.196C103.442 152.923 97.434 152.513 91.8359 152.513C91.6994 152.513 91.5628 152.513 91.5628 152.513C90.8802 152.513 90.0609 152.513 89.3782 152.65C86.5109 152.787 83.6436 153.06 80.9129 153.333C79.8206 153.469 78.8648 153.606 77.7725 153.742C76.6801 153.879 75.4513 154.152 74.359 154.288C74.2225 154.288 74.0859 154.288 73.9494 154.425C69.7167 155.108 65.6205 156.063 61.5244 157.292C60.2955 157.565 59.2032 157.838 57.9744 158.248Z" fill="#599DF9"/>
<path d="M58.1115 158.249C58.3846 158.931 58.5212 159.478 58.7942 160.16C59.0673 160.843 59.2039 161.389 59.4769 161.935C59.8866 163.164 60.2962 164.256 60.7058 165.485C61.525 167.806 62.2077 169.854 62.7538 171.903C64.9385 173.814 67.3962 175.589 69.9904 176.954C76.2712 180.504 83.6442 182.416 91.2904 182.416C97.8442 182.416 103.988 181.051 109.587 178.456C110.133 178.183 110.679 178.047 111.088 177.774C111.088 177.364 111.088 176.954 111.088 176.545C111.088 176.135 111.088 175.726 111.088 175.316C111.088 174.087 111.088 172.858 110.952 171.766C110.952 171.083 110.952 170.264 110.815 169.718C110.815 169.308 110.815 169.035 110.815 168.762C110.815 167.533 110.679 166.441 110.679 165.349C110.679 165.076 110.679 164.666 110.679 164.393C110.679 163.437 110.542 162.618 110.406 161.799C109.86 156.747 109.177 154.699 108.767 154.016C108.631 153.879 108.631 153.743 108.494 153.606C108.358 153.47 108.358 153.47 108.358 153.47C108.358 153.47 107.675 153.47 106.583 153.333C103.579 153.06 97.5711 152.651 91.9731 152.651C91.8365 152.651 91.7 152.651 91.7 152.651C91.0173 152.651 90.1981 152.651 89.5154 152.787C86.6481 152.924 83.7808 153.197 81.05 153.47C79.9577 153.606 79.0019 153.743 77.9096 153.879C76.8173 154.016 75.5885 154.289 74.4962 154.426C74.3596 154.426 74.2231 154.426 74.0866 154.562C69.8539 155.245 65.7577 156.201 61.6616 157.429C60.2962 157.566 59.2039 157.839 58.1115 158.249Z" fill="#0C4983"/>
<path d="M88.6961 161.115C79.0019 159.887 76.1346 155.79 76.1346 155.79C82.2788 150.056 77.2269 139.952 77.2269 139.952L88.8327 142.137C88.5596 144.048 88.4231 145.687 88.4231 147.052C88.2865 154.152 91.5634 154.152 91.5634 154.152C93.475 157.975 88.6961 161.115 88.6961 161.115Z" fill="#F7A491"/>
<path opacity="0.2" d="M88.6961 142.137C88.4231 144.048 88.2865 145.687 88.2865 147.052C80.5038 147.052 77.0904 139.952 77.0904 139.952L88.6961 142.137Z" fill="#01315F"/>
<path d="M82.2786 109.64C92.3825 109.094 95.9325 114.283 97.2978 124.66C98.9363 137.631 96.6151 147.052 83.7805 144.867C66.4401 142.137 65.6209 110.596 82.2786 109.64Z" fill="#F7A491"/>
<path d="M72.1747 127.254C72.1747 127.254 76.4074 118.652 75.3151 112.371C75.3151 112.371 94.8401 103.087 97.0247 123.294C97.0247 123.294 97.9805 105.135 80.6401 105.681C63.2997 106.227 64.6651 131.623 74.0863 138.723C74.0863 138.723 69.5805 132.579 72.1747 127.254Z" fill="#599DF9"/>
<path d="M78.1826 111.279C78.1826 111.279 79.821 123.704 72.3114 135.037C66.5768 143.638 73.1306 151.148 73.1306 151.148C73.1306 151.148 63.0268 144.731 62.7537 135.037C62.7537 135.037 54.4249 111.962 71.7652 105.681C71.7652 105.681 71.9018 100.492 83.0979 101.448C94.4306 102.404 103.442 112.098 105.217 124.387C106.992 136.675 100.575 150.465 100.575 150.465C100.575 150.465 107.129 106.91 78.1826 111.279Z" fill="#599DF9"/>
<path d="M77.4997 111.552C78.319 114.419 78.4555 117.423 78.3189 120.563C78.1824 123.567 77.6363 126.571 76.817 129.575C75.9978 132.579 74.9055 135.446 73.4036 138.04C71.9017 140.771 70.1266 143.229 67.669 145.277C70.1266 143.365 72.0382 140.908 73.6766 138.313C75.3151 135.583 76.544 132.715 77.3632 129.848C78.319 126.844 78.8651 123.84 79.1382 120.7C79.4113 117.56 79.4113 114.419 78.592 111.279L77.4997 111.552Z" fill="#599DF9"/>
<path d="M55.7903 164.802C57.7018 167.396 60.023 169.854 62.4807 171.902C64.6653 173.813 67.123 175.588 69.7172 176.954C69.5807 176.408 69.3076 175.725 69.1711 175.179C67.3961 170.263 64.3922 165.758 61.9345 162.754C59.8864 160.16 58.248 158.521 57.9749 158.248C57.0191 159.067 56.3364 161.525 55.7903 164.802Z" fill="#599DF9"/>
<path d="M55.3805 164.938C57.2921 167.533 59.6133 169.99 62.071 172.038C64.2556 173.95 66.7132 175.725 69.3075 177.09C69.1709 176.544 68.8979 175.861 68.7613 175.315C66.9863 170.4 63.9825 165.894 61.5248 162.89C59.4767 160.296 57.8382 158.658 57.5652 158.385C56.6094 159.204 55.9267 161.661 55.3805 164.938Z" fill="#0C4983"/>
<path d="M202.706 67.9961C188.981 67.9961 177.856 56.8704 177.856 43.1461C177.856 29.4219 188.981 18.2961 202.706 18.2961C216.43 18.2961 227.556 29.4219 227.556 43.1461C227.556 56.8704 216.43 67.9961 202.706 67.9961Z" fill="#599DF9"/>
<path opacity="0.3" d="M179.221 43.146C179.221 49.2903 181.542 54.8883 185.502 59.121C189.735 63.7633 195.879 66.6306 202.706 66.6306C209.942 66.6306 216.496 63.3537 220.729 58.1653C224.142 54.0691 226.054 48.8806 226.054 43.2826C226.054 30.3114 215.54 19.7979 202.569 19.7979C189.735 19.6614 179.221 30.1749 179.221 43.146Z" fill="white"/>
<path opacity="0.6" d="M202.706 67.9961C188.981 67.9961 177.856 56.8704 177.856 43.1461C177.856 29.4219 188.981 18.2961 202.706 18.2961C216.43 18.2961 227.556 29.4219 227.556 43.1461C227.556 56.8704 216.43 67.9961 202.706 67.9961Z" fill="white"/>
<path opacity="0.6" d="M185.502 58.9845C189.734 63.6268 195.879 66.4941 202.706 66.4941C209.942 66.4941 216.496 63.2172 220.729 58.0288C220.592 58.0288 220.456 57.8922 220.319 57.8922C220.046 57.4826 219.636 57.073 219.227 56.6634V56.5268L218.817 56.3903C218.135 55.9807 217.315 55.7076 216.223 55.7076C215.95 55.7076 215.677 55.7076 215.404 55.7076L213.902 55.4345C213.902 55.4345 213.902 55.5711 213.902 55.8441C211.99 55.9807 209.259 56.1172 205.983 56.3903C205.3 55.8441 204.754 55.1614 204.481 54.3422C204.208 53.523 204.208 52.5672 204.208 51.6114C205.3 51.6114 206.529 51.2018 207.484 50.7922C209.259 49.8364 210.761 48.198 211.581 46.1499C211.717 45.8768 211.717 45.6038 211.854 45.3307C212.4 42.873 212.673 39.4595 211.99 36.4557C212.127 36.4557 212.127 36.4557 212.263 36.4557C212.4 36.4557 212.536 36.3191 212.536 36.1826C212.536 36.0461 212.4 35.9095 212.263 35.9095C212.263 35.9095 212.263 35.9095 212.127 35.9095C212.263 33.998 211.99 31.9499 211.717 30.5845C212.536 29.2191 212.536 26.3518 211.717 25.2595C210.898 24.0307 211.581 24.7134 209.26 24.4403C206.938 24.3038 208.304 22.2557 206.938 22.1191C205.436 22.1191 205.709 23.0749 203.934 23.7576C202.159 24.4403 202.842 22.3922 200.794 22.2557C198.746 22.1191 198.473 23.6211 196.971 24.0307C195.469 24.4403 195.196 24.0307 194.104 24.0307C193.011 24.0307 192.875 27.1711 192.465 27.7172C192.056 28.2634 191.236 27.4441 190.281 29.0826C190.144 29.3557 190.144 29.4922 190.144 29.9018C190.144 31.9499 192.738 35.9095 192.738 35.9095C192.875 36.8653 193.011 37.8211 193.284 38.7768C192.465 39.4595 192.329 40.6884 192.875 41.9172C193.421 42.873 194.24 43.8288 195.196 44.3749C195.742 45.4672 196.152 46.2864 196.698 46.9691C197.381 50.5191 197.654 54.7518 196.425 57.4826C192.329 57.7557 188.369 58.3018 185.502 58.9845Z" fill="#0C4983"/>
<path d="M350.493 457.125C340.789 447.42 340.789 431.686 350.493 421.982C360.198 412.278 375.932 412.278 385.636 421.982C395.34 431.686 395.341 447.42 385.636 457.125C375.932 466.829 360.198 466.829 350.493 457.125Z" fill="#599DF9"/>
<path opacity="0.2" d="M344.569 439.517C344.569 446.208 347.436 452.215 351.942 456.585C356.175 460.544 361.773 463.002 368.054 463.002C372.969 463.002 377.475 461.5 381.298 458.906C387.442 454.673 391.402 447.573 391.402 439.654C391.402 426.683 380.888 416.169 367.917 416.169C355.083 416.169 344.569 426.546 344.569 439.517Z" fill="white"/>
<path opacity="0.6" d="M350.493 457.125C340.789 447.42 340.789 431.686 350.493 421.982C360.198 412.278 375.932 412.278 385.636 421.982C395.34 431.686 395.341 447.42 385.636 457.125C375.932 466.829 360.198 466.829 350.493 457.125Z" fill="white"/>
<path opacity="0.6" d="M351.942 456.585C356.175 460.544 361.773 463.002 368.054 463.002C372.969 463.002 377.475 461.5 381.298 458.906C379.66 458.633 377.748 458.496 375.973 458.223C374.608 455.219 374.881 450.304 375.7 446.208C376.246 445.388 376.792 444.433 377.338 443.204C378.431 442.521 379.386 441.565 379.933 440.473C380.479 439.108 380.342 437.742 379.387 436.923C379.933 434.875 380.069 432.963 380.206 431.325H380.342C380.342 431.325 382.254 424.088 375.154 421.358C368.054 418.627 360.954 423.406 360.954 423.406C360.954 423.406 359.452 420.538 357.54 421.358C356.038 422.04 356.858 423.952 357.131 424.635C356.994 424.362 356.448 423.679 355.492 423.269C354.263 422.723 352.488 424.225 356.448 428.185C356.858 428.594 357.267 428.867 357.813 429.14C357.54 430.642 357.404 432.554 357.677 434.465C356.994 438.015 357.131 441.702 357.813 444.706C357.95 444.979 357.95 445.388 358.086 445.662C358.906 448.119 360.681 449.894 362.729 450.987C363.958 451.533 365.186 451.942 366.552 451.942C366.552 453.035 366.552 454.127 366.279 455.083C366.006 456.038 365.46 456.858 364.64 457.404C360.954 457.131 357.677 456.994 355.492 456.721C355.492 456.448 355.492 456.312 355.492 456.312L353.854 456.585C353.171 456.448 352.488 456.448 351.942 456.585Z" fill="#0C4983"/>
<path d="M456.96 182.661C453.806 169.304 462.077 155.92 475.433 152.766C488.789 149.612 502.174 157.883 505.328 171.24C508.481 184.596 500.211 197.981 486.854 201.134C473.498 204.288 460.113 196.017 456.96 182.661Z" fill="#599DF9"/>
<path opacity="0.2" d="M457.759 176.954C457.759 182.962 460.08 188.423 463.767 192.519C468 197.298 474.281 200.302 481.244 200.302C486.432 200.302 491.211 198.664 495.034 195.796C500.906 191.564 504.729 184.6 504.729 176.817C504.729 163.846 494.215 153.333 481.244 153.333C468.273 153.333 457.759 163.983 457.759 176.954Z" fill="white"/>
<path opacity="0.6" d="M456.96 182.661C453.806 169.304 462.077 155.92 475.433 152.766C488.789 149.612 502.174 157.883 505.328 171.24C508.481 184.596 500.211 197.981 486.854 201.134C473.498 204.288 460.113 196.017 456.96 182.661Z" fill="white"/>
<path opacity="0.6" d="M477.36 187.437L474.464 190.08L467.311 191.942C467.311 191.942 465.819 192.159 464.59 193.199C468.89 197.227 474.683 199.696 481.09 199.696C487.497 199.696 493.289 197.227 497.59 193.199C496.317 192.202 494.869 191.942 494.869 191.942L491.139 190.859L487.365 189.82L487.321 189.906L484.776 187.567V185.748C484.82 185.705 484.908 185.661 484.952 185.618C485.039 185.575 485.127 185.531 485.215 185.445C485.259 185.401 485.303 185.358 485.39 185.358C485.522 185.271 485.654 185.142 485.785 185.055L485.829 185.012C486.268 184.665 486.663 184.275 487.014 183.799C487.014 183.755 487.058 183.755 487.058 183.712C487.058 183.712 487.058 183.669 487.102 183.669C487.453 183.192 487.716 182.716 487.848 182.153C487.936 181.893 487.98 181.589 488.067 181.373C488.111 181.286 488.331 180.42 488.594 179.337C490.086 179.12 490.305 175.525 490.305 175.525C490.086 175.005 489.735 174.919 489.384 174.962C489.384 174.832 489.384 174.745 489.384 174.615C489.384 174.615 492.631 161.273 480.344 161.707C480.344 161.707 475.868 162.356 475.429 164.782C475.429 164.782 473.191 165.389 472.972 167.381C472.972 167.381 472.401 170.89 472.708 175.005C472.313 174.875 471.787 174.919 471.523 175.525C471.523 175.525 471.787 179.38 473.41 179.337C473.542 179.857 473.718 180.377 473.893 180.853C473.981 181.243 474.113 181.676 474.244 182.153C474.42 182.802 474.727 183.409 475.166 183.929C475.21 183.972 475.253 184.059 475.297 184.102C475.341 184.145 475.385 184.232 475.473 184.275C475.561 184.362 475.648 184.492 475.78 184.578C475.868 184.665 475.912 184.708 475.999 184.752C476.043 184.795 476.131 184.838 476.175 184.925C476.57 185.228 476.965 185.488 477.36 185.748V187.437Z" fill="#0C4983"/>
<path d="M383.346 104.861C360.347 104.861 341.702 86.2167 341.702 63.2172C341.702 40.2178 360.347 21.573 383.346 21.573C406.346 21.573 424.99 40.2178 424.99 63.2172C424.99 86.2167 406.346 104.861 383.346 104.861Z" fill="#599DF9"/>
<path opacity="0.7" d="M343.067 63.2171C343.067 72.5018 346.207 80.9671 351.396 87.7941C352.761 89.7056 354.4 91.4806 356.175 92.9825C357.813 94.4844 359.452 95.8498 361.363 96.9421C361.5 97.0787 361.5 97.0787 361.636 97.0787C363.138 98.0344 364.504 98.8537 366.142 99.5364C371.331 101.994 377.202 103.359 383.346 103.359C395.634 103.359 406.694 97.8979 414.067 89.1595C420.075 82.0595 423.761 73.0479 423.761 63.0806C423.761 40.8248 405.602 22.8018 383.482 22.8018C361.09 22.9383 343.067 41.0979 343.067 63.2171Z" fill="white"/>
<path d="M361.363 97.0788C361.363 97.3519 361.363 97.4884 361.226 97.6249C361.363 97.4884 361.5 97.3519 361.5 97.2153C363.001 98.1711 364.367 98.9903 366.005 99.673C365.596 96.9422 365.186 94.348 364.913 92.2999C364.64 90.3884 364.367 88.7499 364.094 87.6576C363.957 86.5653 363.684 85.8826 363.684 85.7461C363.138 85.8826 362.728 86.0192 362.319 86.1557C360.271 87.248 358.223 89.5692 356.175 92.8461C357.813 94.4846 359.588 95.8499 361.363 97.0788Z" fill="#FE2B1E"/>
<path d="M361.227 97.625C361.363 97.4885 361.5 97.352 361.5 97.2154C363.002 98.1712 364.367 98.9904 366.006 99.6731C371.194 102.131 377.065 103.496 383.209 103.496C395.498 103.496 406.557 98.0347 413.931 89.2962C413.248 89.1597 412.565 89.0231 411.746 88.8866C411.746 88.8866 411.609 88.8866 411.473 88.8866C411.336 88.8866 411.2 88.8866 411.063 88.75C409.288 88.3404 407.377 88.0674 405.465 87.7943C404.646 87.6577 403.827 87.5212 403.007 87.3847C401.915 87.2481 400.823 87.1116 399.731 86.9751C399.594 86.9751 399.594 86.9751 399.457 86.9751C397 86.702 394.406 86.4289 392.084 86.2924C391.265 86.2924 390.446 86.1558 389.763 86.1558C388.671 86.1558 387.715 86.0193 386.759 86.0193C385.804 86.0193 384.711 85.8827 383.756 85.8827C383.346 85.8827 382.936 85.8827 382.527 85.8827C381.298 85.8827 380.206 85.7462 379.113 85.7462C375.563 85.6097 372.423 85.6097 369.829 85.7462C369.282 85.7462 368.736 85.7462 368.19 85.7462C367.234 85.7462 366.415 85.7462 365.732 85.8827C364.367 85.8827 363.684 85.8827 363.684 85.8827C363.548 86.4289 363.411 87.1116 363.138 87.7943C362.456 90.6616 361.773 93.6654 361.227 97.0789C361.363 97.2154 361.363 97.4885 361.227 97.625Z" fill="#599DF9"/>
<path d="M361.227 97.6259C361.363 97.4894 361.5 97.3528 361.5 97.2163C363.002 98.1721 364.367 98.9913 366.005 99.674C371.194 102.132 377.065 103.497 383.209 103.497C395.498 103.497 406.557 98.0355 413.93 89.2971C414.203 89.2971 414.613 89.4336 414.886 89.5701C414.613 89.4336 414.203 89.4336 413.93 89.2971C413.248 89.1605 412.565 89.024 411.746 88.8875C411.746 88.8875 411.609 88.8875 411.473 88.8875C411.336 88.8875 411.2 88.8875 411.063 88.7509C409.288 88.3413 407.377 88.0682 405.465 87.7952C404.646 87.6586 403.827 87.5221 403.007 87.3855C401.915 87.249 400.823 87.1125 399.73 86.9759C399.594 86.9759 399.594 86.9759 399.457 86.9759C397 86.7028 394.405 86.4298 392.084 86.2932C391.265 86.2932 390.446 86.1567 389.763 86.1567C388.671 86.1567 387.715 86.0201 386.759 86.0201C385.803 86.0201 384.711 85.8836 383.755 85.8836C383.346 85.8836 382.936 85.8836 382.527 85.8836C381.298 85.8836 380.205 85.7471 379.113 85.7471C375.563 85.7471 372.423 85.7471 369.828 85.7471C369.282 85.7471 368.736 85.7471 368.19 85.7471C367.234 85.7471 366.415 85.7471 365.869 85.7471C364.503 85.7471 363.821 85.8836 363.821 85.8836C363.684 86.4298 363.548 87.1125 363.275 87.7952C362.592 90.6625 361.909 93.6663 361.363 97.0798C361.363 97.2163 361.363 97.4894 361.227 97.6259Z" fill="#0C4983"/>
<path d="M400.003 87.1115C395.634 91.0711 384.711 89.7057 384.711 89.7057C384.711 89.7057 377.884 87.7942 379.386 85.7461C383.346 85.0634 385.257 83.2884 386.077 80.8307C386.486 79.4654 386.623 77.8269 386.486 76.325C386.486 75.5057 386.35 74.6865 386.213 73.7307L399.594 63.7634C397.682 70.1807 395.634 82.3327 400.003 87.1115Z" fill="#F7A491"/>
<path opacity="0.2" d="M396.454 70.0442C395.907 78.1 389.354 80.2846 386.077 80.8307C386.486 79.4653 386.623 77.8269 386.486 76.325L396.454 70.0442Z" fill="#01315F"/>
<path d="M374.147 42.2146C374.147 42.2146 371.33 57.073 378.021 61.8519C384.711 66.6307 384.711 43.2826 384.711 43.2826L374.147 42.2146Z" fill="#599DF9"/>
<path d="M397.273 71.8192C393.996 76.4615 388.807 77.6903 384.165 76.1884C381.161 75.2326 378.567 73.1845 376.928 70.3172C376.655 69.9076 376.519 69.498 376.382 69.0884C373.105 61.4422 372.013 48.0615 380.205 43.0095C385.94 39.323 393.586 41.098 397.136 46.8326C398.228 48.4711 398.775 50.3826 399.048 52.2942C400.003 61.3057 401.096 66.4942 397.273 71.8192Z" fill="#F7A491"/>
<path d="M390.582 42.4634V46.423C391.948 46.9691 392.903 48.3345 392.494 49.973C391.675 53.3865 394.132 58.3018 396.863 60.0768C396.863 60.0768 396.727 58.5749 397.955 58.848C399.184 58.9845 399.73 66.6307 397.819 70.4538C397.819 70.4538 400.959 66.7672 402.052 58.7115C403.007 51.2018 402.461 45.1941 400.686 42.4634H390.582Z" fill="#599DF9"/>
<path d="M404.099 58.9846C403.417 61.1693 401.915 62.9443 400.003 64.0366C397.409 65.4019 395.361 63.2173 395.498 60.35C395.634 57.7558 397.273 53.9327 400.14 53.7962C403.28 53.6596 404.919 56.2539 404.099 58.9846Z" fill="#F7A491"/>
<path d="M389.79 46.0843C389.79 46.0843 387.835 47.9698 385.88 46.5805C385.88 46.5805 383.719 48.2675 381.969 47.0766C381.969 47.0766 381.043 48.6644 379.397 48.8629C377.853 49.0614 377.853 47.4736 377.853 47.4736C377.853 47.4736 375.384 48.8629 374.458 48.1683C373.532 47.4736 374.972 44.8934 374.972 44.8934C374.972 44.8934 373.84 44.298 374.561 42.2141C375.281 40.1301 378.779 40.6263 378.779 40.6263C378.779 40.6263 378.677 38.6415 381.043 36.6568C383.513 34.6721 384.953 37.153 384.953 37.153C384.953 37.153 387.32 34.0766 390.201 34.4736C393.083 34.8705 392.774 36.8553 392.774 36.8553C392.774 36.8553 396.17 34.8705 397.61 36.8553C399.154 38.84 397.61 39.8324 397.61 39.8324C397.61 39.8324 401.006 40.924 400.8 43.1072C400.594 45.2904 398.948 44.9927 398.948 44.9927C398.948 44.9927 399.874 46.0843 397.713 46.9774C395.552 47.8705 393.494 45.6873 393.494 45.6873C393.494 45.6873 394.317 46.9774 392.774 47.7713C391.23 48.6644 389.79 46.0843 389.79 46.0843Z" fill="#599DF9"/>
<path d="M384.711 89.5691C384.711 89.5691 400.413 78.9191 405.328 78.373C410.38 77.8268 409.425 83.9711 409.425 83.9711C409.425 83.9711 413.248 83.9711 411.746 88.7499C410.244 93.5288 388.944 96.123 381.161 93.8018C373.242 91.4807 368.6 87.1114 369.965 82.8788C371.33 78.7826 374.88 82.3326 374.88 82.3326C374.88 82.3326 376.928 78.373 380.069 79.3288C383.073 80.148 384.711 89.5691 384.711 89.5691Z" fill="#FE2B1E"/>
<path d="M372.369 59.0251C372.139 57.7942 373.083 56.6565 374.335 56.6565H379.514C380.766 56.6565 381.71 57.7942 381.479 59.0251L380.98 61.6905C380.802 62.6365 379.976 63.322 379.014 63.322H374.835C373.873 63.322 373.047 62.6365 372.869 61.6905L372.369 59.0251Z" fill="#0C4983"/>
<path d="M382.368 59.0251C382.137 57.7942 383.081 56.6565 384.333 56.6565H389.512C390.764 56.6565 391.708 57.7942 391.478 59.0251L390.978 61.6905C390.801 62.6365 389.975 63.322 389.012 63.322H384.833C383.871 63.322 383.045 62.6365 382.867 61.6905L382.368 59.0251Z" fill="#0C4983"/>
<path d="M396.365 56.6565H389.7L391.366 58.3229L395.81 57.7674L396.365 56.6565Z" fill="#0C4983"/>
<rect x="380.813" y="58.8782" width="2.22182" height="1.11091" fill="#0C4983"/>
<path d="M498.585 359.233C476.792 359.233 459.125 341.566 459.125 319.773C459.125 297.98 476.792 280.313 498.585 280.313C520.378 280.313 538.044 297.98 538.044 319.773C538.044 341.566 520.378 359.233 498.585 359.233Z" fill="#599DF9"/>
<path opacity="0.7" d="M460.49 319.773C460.49 328.921 463.631 337.25 469.092 343.804C470.731 345.715 472.506 347.627 474.417 349.265C475.1 349.812 475.646 350.221 476.329 350.767C478.104 352.133 480.152 353.225 482.2 354.317C487.115 356.639 492.577 358.004 498.448 358.004C505.411 358.004 511.965 356.092 517.563 352.815C519.065 351.996 520.431 351.04 521.659 350.085L521.796 349.948C523.298 348.719 524.8 347.354 526.029 345.989C532.446 339.162 536.269 330.15 536.269 320.046C536.269 299.019 519.202 281.952 498.311 281.952C477.558 281.815 460.49 298.883 460.49 319.773Z" fill="white"/>
<path d="M474.69 338.888C476.192 337.796 477.558 336.977 478.65 336.84C478.65 336.84 486.706 336.021 493.669 336.157C494.488 336.157 495.171 336.157 495.99 336.294C499.54 336.431 503.09 336.84 506.64 337.386C507.733 337.523 508.688 337.659 509.781 337.932C513.194 338.479 516.608 339.298 519.885 340.117C521.523 340.527 523.025 341.073 524.663 341.482C525.21 342.165 525.756 343.804 526.302 345.852C524.936 347.354 523.571 348.582 522.069 349.811L521.933 349.948C520.567 351.04 519.202 351.859 517.836 352.679C512.238 355.956 505.685 357.867 498.721 357.867C492.85 357.867 487.388 356.502 482.473 354.181C480.425 353.225 478.377 351.996 476.602 350.631C475.919 350.084 475.236 349.675 474.69 349.129C472.779 347.49 470.867 345.715 469.365 343.667C470.867 341.892 472.915 340.117 474.69 338.888Z" fill="#599DF9"/>
<path opacity="0.2" d="M474.69 338.888C476.192 337.796 477.558 336.977 478.65 336.84C478.65 336.84 486.706 336.021 493.669 336.157C494.488 336.157 495.171 336.157 495.99 336.294C499.54 336.431 503.09 336.84 506.64 337.386C507.733 337.523 508.688 337.659 509.781 337.932C513.194 338.479 516.608 339.298 519.885 340.117C521.523 340.527 523.025 341.073 524.663 341.482C525.21 342.165 525.756 343.804 526.302 345.852C524.936 347.354 523.571 348.582 522.069 349.811L521.933 349.948C520.567 351.04 519.202 351.859 517.836 352.679C512.238 355.956 505.685 357.867 498.721 357.867C492.85 357.867 487.388 356.502 482.473 354.181C480.425 353.225 478.377 351.996 476.602 350.631C475.919 350.084 475.236 349.675 474.69 349.129C472.779 347.49 470.867 345.715 469.365 343.667C470.867 341.892 472.915 340.117 474.69 338.888Z" fill="#599DF9"/>
<path d="M496.673 343.94C505.548 342.848 508.142 339.025 508.142 339.025C504.592 335.611 505.138 330.559 506.094 327.419C506.64 325.644 507.186 324.552 507.186 324.552L496.536 326.6C496.809 328.375 496.946 329.877 496.946 331.106C496.946 332.471 496.809 333.563 496.673 334.383C495.99 337.523 494.079 337.659 494.079 337.659C492.304 341.073 496.673 343.94 496.673 343.94Z" fill="#F7A491"/>
<path opacity="0.2" d="M496.946 331.106C496.946 332.471 496.81 333.563 496.673 334.382C500.906 333.836 504.046 330.423 506.094 327.556C506.64 325.781 507.187 324.688 507.187 324.688L496.537 326.736C496.81 328.375 496.946 329.74 496.946 331.106Z" fill="#01315F"/>
<path d="M498.721 297.108C489.436 297.517 486.706 302.569 486.296 312.127C485.886 324.142 488.89 332.471 500.359 329.467C515.925 325.371 514.15 296.561 498.721 297.108Z" fill="#F7A491"/>
<path d="M485.794 324.941C485.794 328.274 488.838 330.923 495.236 332.162C501.635 333.401 505.235 329.94 508.012 323.275C508.71 318.837 509.022 316.855 507.456 314.943C506.29 313.518 497.994 319.757 493.57 318.831C489.052 317.942 488.016 316.61 486.349 314.388C486.164 318.831 485.238 320.498 485.794 324.941Z" fill="white"/>
<path d="M491.975 322.753L495.757 323.243C496.466 323.407 497.175 322.916 497.412 322.263V321.772C497.648 321.118 496.939 320.628 496.23 320.464L492.448 319.974C491.738 319.811 491.029 320.301 490.793 320.955V321.445C490.793 321.936 491.266 322.59 491.975 322.753Z" fill="#F7A491"/>
<path d="M509.371 312.263C509.371 312.263 504.729 304.754 505.138 298.883C505.138 298.883 486.569 292.056 486.296 310.761C486.296 310.761 483.838 294.24 499.813 293.285C515.652 292.329 516.471 315.54 508.552 322.913C508.688 322.913 512.238 316.906 509.371 312.263Z" fill="white"/>
<path d="M508.006 314.312C508.006 312.81 509.508 310.215 512.238 310.488C515.106 310.762 516.744 316.496 509.644 318.271C508.552 318.408 508.006 317.452 508.006 314.312Z" fill="#F7A491"/>
<path d="M83.7789 422.02C64.69 402.931 64.69 371.982 83.7789 352.893C102.868 333.804 133.817 333.804 152.906 352.893C171.995 371.982 171.995 402.931 152.906 422.02C133.817 441.109 102.868 441.109 83.7789 422.02Z" fill="#599DF9"/>
<path opacity="0.7" d="M70.9459 387.496C70.9459 395.142 72.7209 402.379 75.9979 408.796C76.6806 410.025 77.3633 411.254 78.0459 412.483C78.5921 413.438 79.2748 414.394 79.9575 415.213C82.6882 419.036 86.1017 422.45 89.9248 425.317C90.744 426 91.6998 426.546 92.519 427.229C96.2056 429.686 100.165 431.461 104.398 432.827C108.767 434.192 113.546 434.875 118.325 434.875C125.288 434.875 131.979 433.373 137.986 430.642C138.806 430.233 139.488 429.96 140.307 429.55C144.54 427.365 148.5 424.498 151.777 421.085C155.054 417.808 157.921 414.121 160.106 410.025C160.788 408.796 161.334 407.567 161.881 406.475C164.475 400.604 165.84 394.186 165.84 387.496C165.84 361.281 144.54 339.981 118.325 339.981C92.2459 339.981 70.9459 361.281 70.9459 387.496Z" fill="white"/>
<path d="M142.083 385.585C142.765 386.813 145.087 389.135 145.087 389.135L149.183 408.523L151.913 421.221C155.19 417.944 158.058 414.258 160.242 410.162C159.969 409.069 159.56 408.113 159.15 407.021C156.283 398.01 152.869 387.633 152.733 386.677C152.323 384.902 153.962 375.89 153.552 374.252C153.142 372.613 144.95 370.702 143.175 370.702C141.263 370.565 141.4 384.492 142.083 385.585Z" fill="#9F5B53"/>
<path d="M135.665 407.021L137.44 424.771L137.986 430.779C138.806 430.369 139.488 430.096 140.308 429.687C144.54 427.502 148.5 424.635 151.777 421.221C155.054 417.944 157.921 414.258 160.106 410.162C160.788 408.933 161.335 407.704 161.881 406.612L159.15 407.021L149.183 408.66L146.998 409.069L149.592 421.358C149.456 421.085 140.308 408.387 135.665 407.021Z" fill="#599DF9"/>
<path d="M135.665 407.021L137.44 424.771L137.986 430.779C138.806 430.369 139.488 430.096 140.308 429.687C144.54 427.502 148.5 424.635 151.777 421.221C155.054 417.944 157.921 414.258 160.106 410.162C160.788 408.933 161.335 407.704 161.881 406.612L159.15 407.021L149.183 408.66L146.998 409.069L149.592 421.358C149.456 421.085 140.308 408.387 135.665 407.021Z" fill="#0C4983"/>
<path d="M75.998 408.796C76.6807 410.025 77.3633 411.254 78.046 412.483C78.5922 413.439 79.2749 414.394 79.9576 415.214C82.6883 419.037 86.1018 422.45 89.9249 425.317C90.7441 426 91.6999 426.546 92.5191 427.229C96.2057 429.687 100.165 431.462 104.398 432.827C108.767 434.192 113.546 434.875 118.325 434.875C125.288 434.875 131.979 433.373 137.986 430.642C138.806 430.233 139.488 429.96 140.308 429.55C138.396 415.896 135.938 407.84 135.665 407.021C130.75 405.656 125.698 404.563 120.646 404.017C120.509 404.017 120.51 404.017 120.373 404.017C113.136 403.471 105.763 403.335 98.3903 403.608C93.3383 403.744 88.2864 404.29 83.2345 405.11C82.5518 405.246 79.1383 406.612 75.998 408.796Z" fill="#599DF9"/>
<path d="M75.998 408.796C76.6807 410.025 77.3633 411.254 78.046 412.483C78.5922 413.439 79.2749 414.394 79.9576 415.214C82.6883 419.037 86.1018 422.45 89.9249 425.317C90.7441 426 91.6999 426.546 92.5191 427.229C96.2057 429.687 100.165 431.462 104.398 432.827C108.767 434.192 113.546 434.875 118.325 434.875C125.288 434.875 131.979 433.373 137.986 430.642C138.806 430.233 139.488 429.96 140.308 429.55C138.396 415.896 135.938 407.84 135.665 407.021C130.75 405.656 125.698 404.563 120.646 404.017C120.509 404.017 120.51 404.017 120.373 404.017C113.136 403.471 105.763 403.335 98.3903 403.608C93.3383 403.744 88.2864 404.29 83.2345 405.11C82.5518 405.246 79.1383 406.612 75.998 408.796Z" fill="#0C4983"/>
<path d="M89.7884 425.454C90.6076 426.137 91.5634 426.683 92.3826 427.365C96.0692 429.823 100.029 431.598 104.261 432.963C108.631 434.329 113.41 435.012 118.188 435.012C125.152 435.012 131.842 433.51 137.85 430.779C138.669 430.369 139.352 430.096 140.171 429.687C140.171 429.277 140.035 428.867 140.035 428.458C139.215 427.229 138.396 426 137.304 424.771C132.388 418.49 125.561 412.21 122.011 409.206C121.056 410.435 119.417 411.39 116.686 411.937C112.181 412.756 107.129 410.708 102.896 408.25C100.985 410.162 98.1172 413.165 95.3864 416.442C93.3384 418.9 91.5634 421.631 90.3345 423.952C90.198 424.362 90.0615 424.908 89.7884 425.454Z" fill="white"/>
<path d="M98.3903 403.471C98.3903 403.471 103.988 410.298 114.502 410.844C123.65 411.254 120.646 404.017 120.646 404.017C117.233 403.198 115.458 401.56 114.502 399.648C113.273 397.19 113.683 394.05 114.365 391.046C114.365 390.773 114.502 390.637 114.502 390.364L101.121 378.348C102.35 385.585 103.442 398.829 98.3903 403.471Z" fill="#9F5B53"/>
<path opacity="0.2" d="M103.306 388.998C103.989 393.64 109.587 398.146 114.502 399.512C113.273 397.054 113.683 393.914 114.365 390.91L103.306 382.444C102.896 384.629 102.896 386.814 103.306 388.998Z" fill="#01315F"/>
<path d="M112.044 362.919C108.904 366.469 111.771 370.565 122.285 375.208C124.606 369.746 122.967 360.598 119.554 359.096C116.14 357.594 114.775 359.779 112.044 362.919Z" fill="#599DF9"/>
<path d="M97.2981 374.389C100.165 383.673 101.258 389.271 107.265 392.958C116.14 398.556 126.79 391.456 126.79 381.489C126.79 372.477 122.148 358.823 112.044 357.185C104.808 356.092 97.9807 361.008 96.8884 368.244C96.4788 370.293 96.6154 372.341 97.2981 374.389Z" fill="#9F5B53"/>
<path d="M99.0729 365.104C103.852 365.514 104.398 370.429 99.8922 381.079C94.4306 378.621 91.0292 370.014 92.5311 366.601C93.8965 363.051 94.8402 364.694 99.0729 365.104Z" fill="#599DF9"/>
<path d="M94.5672 382.99C95.796 385.175 97.7075 386.677 100.165 387.36C103.306 388.179 104.808 385.448 103.988 382.444C103.169 379.85 100.575 376.164 97.4345 376.573C94.2941 376.983 93.0653 380.26 94.5672 382.99Z" fill="#9F5B53"/>
<path d="M116.971 361.601C108.084 361.157 98.8263 371.414 95.3084 377.154C91.7905 371.6 87.5321 357.713 100.307 352.714C115.885 346.619 123.637 360.12 123.081 366.045C121.785 364.194 118.749 361.601 116.971 361.601Z" fill="#FE2B1E"/>
<path d="M111.972 371.044L101.974 368.822C105.862 362.712 115.86 358.824 120.859 362.712C122.526 363.638 125.303 366.045 129.191 368.823C120.859 364.379 114.194 367.156 111.972 371.044Z" fill="#0C4983"/>
</svg>
