<svg width="70" height="70" viewBox="0 0 70 70" fill="none" xmlns="http://www.w3.org/2000/svg">
<circle cx="35" cy="35" r="35" fill="#348CCE"/>
<path d="M8 41.4793L9.18346 44.7338L9.47933 45.6214H32.8527L34.9238 40L8 41.4793Z" fill="white"/>
<path d="M24.0278 39.5918H18V20.4082L24.0278 39.5918Z" fill="white"/>
<path d="M18 20V20.4082M18 40V39.5918M18 39.5918C18.1356 39.5918 21.6307 39.5918 24.0278 39.5918M18 39.5918V20.4082M24.0278 39.5918C24.3803 39.5918 24.7091 39.5918 25 39.5918H24.0278ZM24.0278 39.5918L18 20.4082" stroke="white" stroke-width="1.5" stroke-linecap="round" stroke-linejoin="round"/>
<path d="M12.472 40L18 24V40H12.472Z" fill="white" stroke="white" stroke-width="1.5" stroke-linecap="round" stroke-linejoin="round"/>
<path d="M18 20V43" stroke="white" stroke-width="1.5" stroke-linecap="round" stroke-linejoin="round"/>
<path d="M25.752 50.6511L25.4561 45.0297H26.3437L26.0478 50.6511C26.1464 50.6511 27.5272 50.6511 27.5272 51.2429C27.5272 51.8346 26.0478 51.8346 24.8644 51.5387C23.0006 51.0728 24.6671 50.8484 25.752 50.6511Z" fill="white"/>
<path d="M12.438 48.876L12.7339 45.3256H10.9587L11.5504 48.876H12.438Z" fill="white"/>
<path d="M53.75 20.7143H46V7.28571L53.75 20.7143Z" fill="white"/>
<path d="M46 7V7.28571M46 21V20.7143M46 20.7143C46.1744 20.7143 50.6681 20.7143 53.75 20.7143M46 20.7143V7.28571M53.75 20.7143C54.2033 20.7143 54.626 20.7143 55 20.7143H53.75ZM53.75 20.7143L46 7.28571" stroke="white" stroke-width="1.5" stroke-linecap="round" stroke-linejoin="round"/>
<path d="M38.6294 21L46 11V21H38.6294Z" fill="white" stroke="white" stroke-width="1.5" stroke-linecap="round" stroke-linejoin="round"/>
<path d="M29.252 21L37 11V21H29.252Z" fill="white" stroke="white" stroke-width="1.5" stroke-linecap="round" stroke-linejoin="round"/>
<path d="M45.9583 6V30.0833" stroke="white" stroke-width="1.5" stroke-linecap="round" stroke-linejoin="round"/>
<path d="M37 8V30" stroke="white" stroke-width="1.5" stroke-linecap="round" stroke-linejoin="round"/>
<path d="M24 29.4693L25.4945 33.1601L25.8702 34.1667H55.3846L58 27.7917L24 29.4693Z" fill="white"/>
<path d="M31.5985 27.0833L31.0833 29.2083H50.9167L50.1439 27.0833H31.5985Z" fill="white" stroke="white" stroke-width="2"/>
<path d="M49.8115 44.0351H44.1646V35.5647L49.8115 44.0351Z" fill="white"/>
<path d="M49.6495 44.2489H43.4244C43.2094 44.2489 43.0352 44.0746 43.0352 43.8597C43.0352 43.6447 43.2094 43.4704 43.4244 43.4704H49.6495C49.8645 43.4704 50.0387 43.6447 50.0387 43.8597C50.0387 44.0746 49.8645 44.2489 49.6495 44.2489Z" fill="white"/>
<path d="M43.8822 46.2939C43.7262 46.2939 43.5998 46.1478 43.5998 45.9675V35.3264C43.5998 35.1461 43.7262 35 43.8822 35C44.0381 35 44.1645 35.1461 44.1645 35.3264V45.9675C44.1645 46.1478 44.0381 46.2939 43.8822 46.2939Z" fill="white"/>
<path fill-rule="evenodd" clip-rule="evenodd" d="M44.0075 51.9121L49.3221 51.6077L48.4532 46.5253C48.3168 45.7277 47.6258 45.1444 46.8166 45.1444H41.1835C40.3742 45.1444 39.6832 45.7277 39.5468 46.5253L38.6779 51.6077L44.0075 51.9121ZM48.6115 49.027H45.9733V46.8961H48.2939L48.6115 49.027ZM42.0934 46.9064H39.7837L39.423 49.0175H42.0934V46.9064ZM45.1783 46.9064H42.8719V49.0175H45.1783V46.9064Z" fill="white"/>
<path d="M50.8479 51.6077H37.1521L36.8477 52.7169L37.1521 54.2312H41.695C42.1433 54.2312 42.5701 54.4231 42.8677 54.7583L43.1613 55.089C43.2852 55.2287 43.4631 55.3087 43.6499 55.3087H44.3502C44.537 55.3087 44.7148 55.2287 44.8388 55.089L45.1323 54.7583C45.4299 54.4231 45.8567 54.2312 46.305 54.2312H50.848L51.1524 52.7169L50.8479 51.6077Z" fill="white"/>
<path d="M45.1257 54.5637L44.8322 54.8544C44.7082 54.9771 44.5303 55.0474 44.3436 55.0474H43.6433C43.4565 55.0474 43.2787 54.9771 43.1547 54.8544L42.8612 54.5637C42.5636 54.269 42.1368 54.1004 41.6885 54.1004H37.1455V55.1254H41.6885C42.1368 55.1254 42.5636 55.3173 42.8612 55.6526L43.1547 55.9833C43.2787 56.123 43.4565 56.2029 43.6434 56.2029H44.3436C44.5304 56.2029 44.7083 56.1229 44.8323 55.9833L45.1258 55.6526C45.4234 55.3173 45.8502 55.1254 46.2985 55.1254H50.8415V54.1004H46.2985C45.8501 54.1004 45.4233 54.269 45.1257 54.5637Z" fill="white"/>
<path d="M51.7669 58.7172H51.2269C51.0176 58.7172 50.848 58.5476 50.848 58.3383V51.6077H53.59C53.834 51.6077 54.025 51.8199 53.9974 52.0623C53.7441 54.2857 53.1014 56.4301 52.1082 58.5036C52.0453 58.6345 51.9121 58.7172 51.7669 58.7172Z" fill="white"/>
<path d="M36.233 58.7172H36.7731C36.9823 58.7172 37.152 58.5476 37.152 58.3383V51.6077H34.41C34.166 51.6077 33.9751 51.8199 34.0027 52.0623C34.2559 54.2857 34.8986 56.4301 35.8918 58.5036C35.9546 58.6345 36.0878 58.7172 36.233 58.7172Z" fill="white"/>
</svg>
