<svg width="70" height="70" viewBox="0 0 70 70" fill="none" xmlns="http://www.w3.org/2000/svg">
<circle cx="35" cy="35" r="35" fill="#348CCE"/>
<path d="M46.172 43.64H42.6815C42.1981 43.64 41.8064 43.2663 41.8064 42.8053C41.8064 42.3444 42.1982 41.9706 42.6815 41.9706H46.172C46.5944 41.9706 46.938 41.6429 46.938 41.24C46.938 40.8371 46.5944 40.5094 46.172 40.5094H39.0035C38.5201 40.5094 38.1284 40.1356 38.1284 39.6747C38.1284 39.2137 38.5202 38.84 39.0035 38.84H46.172C47.5596 38.84 48.6884 39.9166 48.6884 41.2401C48.6884 42.5635 47.5596 43.64 46.172 43.64Z" fill="white"/>
<path d="M42.6717 53.24C42.6383 53.24 42.6046 53.238 42.5706 53.2342C42.1049 53.1807 41.772 52.7715 41.8272 52.3203C41.9993 50.9133 42.1114 49.4541 42.1603 47.9835C42.6756 32.4626 36.1551 17.762 34.1443 13.6261C33.702 12.716 33.4287 12.2106 33.426 12.2057C33.2079 11.8034 33.3677 11.3059 33.7827 11.0946C34.1978 10.8833 34.7112 11.0378 34.9295 11.4401C34.9412 11.4615 35.2209 11.9783 35.6811 12.925C36.8099 15.2468 38.9761 20.0692 40.8011 26.2792C43.0543 33.9463 44.0829 41.2665 43.8581 48.0365C43.8077 49.5542 43.6919 51.0606 43.5141 52.514C43.4629 52.9322 43.0962 53.24 42.6717 53.24Z" fill="white"/>
<path fill-rule="evenodd" clip-rule="evenodd" d="M42.9003 48.1797L42.79 48.3176C34.2999 48.9645 25.7723 47.7146 17.8256 44.6583L17 44.3408L18.0416 40.5747H35.186C35.5507 40.5747 35.8473 40.2793 35.8473 39.9134C35.8473 39.5486 35.5508 39.2521 35.186 39.2521H18.4075L18.4075 39.2521L19.7136 34.5315H35.1859C35.5507 34.5315 35.8472 34.2349 35.8472 33.8701C35.8472 33.5053 35.5508 33.2088 35.1859 33.2088H20.0795L20.0795 33.2088L21.3845 28.4882L21.3845 28.4881H31.8793C32.2441 28.4881 32.5407 28.1916 32.5407 27.8268C32.5407 27.462 32.2441 27.1656 31.8793 27.1655H21.7504L23.0566 22.4449L23.0566 22.4449H28.5729C28.9377 22.4449 29.2343 22.1483 29.2343 21.7835C29.2343 21.4187 28.9378 21.1222 28.5729 21.1222H23.4225L24.1642 18.4396L32.057 14.6922L35.0197 13.2859C37.1722 17.8554 43.4039 32.5243 42.9003 48.1797Z" fill="white"/>
<path d="M30.4484 55.16V59C30.4484 59 35.2484 57.9835 35.2484 55.16" fill="white"/>
<path d="M27.2792 56.12H44.8456C47.743 56.12 50.5159 54.734 52.5284 52.28H27.2792C26.3786 52.28 25.6484 53.1396 25.6484 54.2C25.6484 55.2604 26.3786 56.12 27.2792 56.12Z" fill="white"/>
<path d="M51.5684 53.24C49.6555 55.0915 47.2037 56.12 44.6539 56.12H27.2629C26.8175 56.12 26.4134 55.9182 26.1217 55.5908C25.8289 55.2646 25.6484 54.8125 25.6484 54.3145C25.6484 54.1266 25.674 53.946 25.7219 53.7754C25.7999 54.0568 25.9391 54.3096 26.1217 54.5125C26.4134 54.84 26.8176 55.0417 27.2629 55.0417H44.6539C46.6548 55.0417 49.4095 54.4067 51.5684 53.24Z" fill="white"/>
</svg>
