<svg width="607" height="486" viewBox="0 0 607 486" fill="none" xmlns="http://www.w3.org/2000/svg">
<path opacity="0.05" d="M367.112 124.881C375.561 130.464 386.212 138.083 397.827 136.882C411.947 135.421 451.766 133.69 408.367 74.6263C396.101 59.8584 369.38 39.2293 344.355 35.1328C314.951 30.3195 284.794 31.1758 265.614 51.0579C263.081 53.6774 259.002 59.1999 257.108 62.3805C249.829 74.6322 251.722 92.1702 260.05 104.828C268.379 117.486 282.204 125.368 296.165 127.78C310.125 130.193 323.678 125.948 337.052 122.547C344.291 120.705 356.829 118.098 367.112 124.881Z" fill="#599DF9"/>
<g opacity="0.8">
<mask id="mask0" mask-type="alpha" maskUnits="userSpaceOnUse" x="2" y="68" width="550" height="418">
<path d="M213.12 134.93C190.585 109.68 162.701 75.9945 123.721 69.6005C76.335 61.8278 -56.3754 100.94 31.9815 327.583C83.6821 424.481 157.273 454.4 241.868 475.517C326.726 493.264 416.626 488.766 477.741 459.821C488.366 453.694 506.654 439.667 515.702 431.188C550.497 398.512 560.129 340.894 544.367 293.178C528.604 245.462 490.599 208.144 447.223 188.154C403.847 168.164 355.8 169.773 309.096 168.845C283.818 168.35 240.559 165.627 213.12 134.93Z" fill="#2B63A4"/>
</mask>
<g mask="url(#mask0)">
<path opacity="0.1" d="M213.12 134.93C190.585 109.68 162.701 75.9945 123.721 69.6005C76.335 61.8278 -56.3754 100.94 31.9815 327.583C80.0964 425.917 128.525 467.474 213.12 488.591C297.978 506.338 397.235 506.36 477.741 459.821C488.366 453.694 506.654 439.667 515.702 431.188C550.497 398.512 560.129 340.894 544.367 293.178C528.604 245.462 490.599 208.144 447.223 188.154C403.847 168.164 355.8 169.773 309.096 168.845C283.818 168.35 240.559 165.627 213.12 134.93Z" fill="#599DF9"/>
<rect opacity="0.5" x="-52.9111" y="238.494" width="684.97" height="318.974" fill="url(#paint0_linear)"/>
</g>
<path opacity="0.2" d="M305.421 288.345C308.318 287.633 310.587 289.444 312.421 291.62C310.663 292.021 309.51 291.651 307.786 291.279C304.882 290.653 301.546 290.753 298.511 291.292C296.539 291.642 294.578 291.842 292.623 292.323C291.346 292.637 290.542 292.002 289.127 292.349C286.55 292.982 282.666 293.497 280.064 292.818C276.807 291.969 273.188 293.348 269.987 292.473C268.77 292.14 267.993 291.039 266.884 290.53C266.128 290.183 264.524 288.903 263.747 289.011C261.922 289.265 260.141 289.245 258.281 289.29C256.104 289.343 254.62 290.057 252.475 289.722C251.15 289.515 249.982 288.375 248.525 288.172C246.583 287.9 244.613 287.809 242.701 287.336C241.073 286.934 239.549 286.907 237.946 286.423C237.523 286.296 235.599 286.079 237.11 286.212C238.679 286.351 240.119 286.023 241.663 285.787C246.154 285.102 250.613 286.19 255.158 285.802C257.566 285.596 259.898 286.939 262.264 287.294C265.052 287.711 268.006 288.797 270.76 288.12C273.516 287.443 276.705 288.013 279.55 287.602C283.118 287.087 286.324 286.314 289.71 287.626C292.715 288.791 293.979 290.666 297.691 290.221C300.241 289.916 302.95 288.952 305.421 288.345Z" fill="white"/>
<path opacity="0.2" d="M80.5062 272.528C83.02 272.011 84.9047 273.629 86.403 275.544C84.8791 275.831 83.9012 275.48 82.4334 275.108C79.9609 274.482 77.0915 274.463 74.4656 274.828C72.7593 275.065 71.0671 275.174 69.3705 275.523C68.2623 275.751 67.5941 275.184 66.3663 275.436C64.1308 275.896 60.776 276.213 58.5645 275.552C55.7965 274.725 52.6389 275.789 49.9203 274.941C48.8864 274.619 48.2582 273.655 47.323 273.185C46.6865 272.865 45.3535 271.721 44.6825 271.789C43.1054 271.949 41.5766 271.876 39.9767 271.856C38.1054 271.833 36.805 272.397 34.9739 272.043C33.8436 271.825 32.88 270.815 31.6363 270.595C29.9772 270.303 28.2882 270.163 26.6625 269.699C25.2784 269.305 23.9699 269.234 22.6096 268.771C22.2508 268.648 20.6063 268.403 21.8995 268.564C23.2424 268.732 24.4911 268.497 25.826 268.344C29.7075 267.9 33.5 268.969 37.418 268.78C39.4935 268.68 41.4497 269.9 43.4692 270.277C45.8493 270.721 48.3488 271.74 50.7388 271.249C53.1304 270.757 55.8495 271.344 58.3079 271.082C61.3916 270.754 64.1725 270.195 67.0349 271.422C69.5753 272.511 70.5943 274.151 73.7992 273.888C76.0007 273.707 78.3614 272.969 80.5062 272.528Z" fill="white"/>
<path d="M42.0333 256.663C43.3276 252.472 47.2018 249.613 51.5881 249.613H141.126C145.708 249.613 150.15 251.186 153.71 254.068L178.134 273.84H36.7285L42.0333 256.663Z" fill="white"/>
<path d="M100.406 260.262C101.697 256.066 105.573 253.203 109.963 253.203H140.865C145.457 253.203 149.91 254.784 153.475 257.679L168.952 270.252H97.3311L100.406 260.262Z" fill="#01315F"/>
<path d="M45.3124 260.262C46.6036 256.066 50.4802 253.203 54.87 253.203H86.1255C89.4824 253.203 91.8856 256.445 90.9095 259.657L87.6896 270.252H42.2378L45.3124 260.262Z" fill="#01315F"/>
<path d="M173.492 298.043C173.492 298.043 173.379 299.988 173.379 300.006C173.342 300.263 173.174 300.868 173.174 301.089C173.174 301.932 176.936 300.373 176.094 299.988C176.019 299.951 175.626 299.694 175.588 299.401C175.551 298.96 175.457 298.061 175.457 298.061L173.492 298.043Z" fill="#9F5B53"/>
<path d="M176.094 299.987C176.094 299.987 175.214 300.244 174.765 300.317C174.315 300.391 173.716 299.84 173.398 299.987C173.042 300.152 173.08 301.75 173.08 301.75C173.08 301.75 177.797 302.025 179.127 301.603C179.651 301.401 177.91 300.593 176.094 299.987Z" fill="#9F5B53"/>
<path d="M165.199 298.226C165.199 298.226 165.086 300.17 165.086 300.189C165.049 300.446 164.881 301.051 164.881 301.271C164.881 302.115 168.643 300.556 167.801 300.17C167.726 300.134 167.202 299.693 167.183 299.4C167.146 298.959 167.164 298.244 167.164 298.244L165.199 298.226Z" fill="#9F5B53"/>
<path d="M167.801 300.171C167.801 300.171 166.921 300.428 166.472 300.501C166.023 300.575 165.423 300.024 165.105 300.171C164.75 300.336 164.731 301.786 164.731 301.786C164.731 301.786 169.785 302.154 170.965 301.805C171.489 301.658 169.598 300.776 167.801 300.171Z" fill="#9F5B53"/>
<path d="M171.17 270.046L173.23 270.927L176.113 286.723L175.607 299.4L173.398 299.676C173.398 299.676 172.032 288.282 172.032 287.475C172.032 286.668 166.247 273.238 166.247 273.238L171.17 270.046Z" fill="#9F5B53"/>
<path d="M169.935 270.927C169.935 270.927 168.756 283.255 168.756 285.329C168.756 287.402 167.164 299.107 167.164 299.107L165.143 299.235C165.143 299.235 164.937 295.474 164.637 290.264C164.6 289.438 164.693 287.805 164.637 286.961C164.225 280.889 163.289 274.596 163.683 272.339C163.739 271.972 163.87 271.055 164.094 270.816C165.854 268.963 169.935 270.927 169.935 270.927Z" fill="#9F5B53"/>
<path d="M171.133 252.667C171.547 253.208 176.962 257.256 177.077 257.376C178.202 256.51 181.026 253.363 181.162 253.217C181.297 253.07 180.91 250.29 181.228 250.346C181.546 250.402 181.41 251.82 181.771 251.813C182.144 251.83 184.162 249.234 184.29 249.476C184.525 249.912 183.116 251.105 183.246 251.289C183.376 251.473 184.597 249.879 184.933 250.098C185.269 250.317 183.655 251.476 183.684 251.662C183.731 251.855 185.342 250.813 185.405 251.227C185.439 251.454 183.953 252.111 184.112 252.325C184.271 252.539 185.508 252.222 185.522 252.501C185.543 252.763 184.447 252.602 183.94 253.045C183.433 253.488 182.846 253.511 182.232 254.502C181.619 255.494 178.8 260.95 177.45 260.933C177.23 260.932 176.137 260.831 175.171 260.111C174.081 259.451 169.306 256.975 168.434 255.429C167.537 253.893 169.927 251.157 171.133 252.667Z" fill="#9F5B53"/>
<path d="M165.498 252.488C165.498 252.488 163.645 252.744 163.158 253.111C162.616 253.515 161.998 254.414 161.998 254.414C161.998 254.414 164.282 265.202 164.282 267C164.282 268.412 163.795 271.843 163.795 271.843C163.795 271.843 170.684 272.284 173.305 271.256C173.305 271.256 172.481 267.165 172.481 266.082C172.481 265 171.489 255.221 171.264 254.542C171.058 253.919 170.684 252.799 169.43 252.524C168.157 252.249 165.498 252.488 165.498 252.488Z" fill="#9F5B53"/>
<path d="M166.004 249.589L165.536 252.598C165.536 252.598 167.22 256.176 168.213 255.864C169.055 255.607 168.531 252.433 168.531 252.433C168.512 252.36 168.063 250.617 168.213 249.883C168.4 249.039 166.004 249.589 166.004 249.589Z" fill="#9F5B53"/>
<path opacity="0.3" d="M168.231 249.883C168.363 249.039 166.003 249.59 166.003 249.59L165.965 249.846L165.891 250.305C165.891 250.305 166.696 252.177 168.419 251.902C168.363 251.443 168.175 250.232 168.231 249.883Z" fill="#9F5B53"/>
<path d="M166.657 245.128C167.686 244.743 168.98 245.205 169.167 246.25C169.242 246.709 169.336 247.296 169.355 247.92C169.43 249.443 168.681 250.965 167.969 250.984C167.258 251.002 165.292 250.066 165.143 247.902C165.086 246.562 165.571 245.531 166.657 245.128Z" fill="#9F5B53"/>
<path d="M165.704 248.049C165.723 248.379 165.498 248.673 165.218 248.673C164.937 248.673 164.693 248.416 164.693 248.085C164.674 247.755 164.899 247.461 165.18 247.461C165.442 247.461 165.686 247.718 165.704 248.049Z" fill="#9F5B53"/>
<path d="M170.611 252.161C170.322 251.596 169.045 251.925 168.443 252.161C167.864 254.703 166.274 253.455 165.552 252.514C164.468 251.925 162.01 251.949 162.299 253.926C162.661 256.398 164.106 266.992 164.106 268.757C166.708 269.887 171.213 269.228 173.14 268.757C172.417 263.46 170.9 252.726 170.611 252.161Z" fill="#FE2B1E"/>
<path d="M171.333 256.045C170.009 256.516 166.636 257.317 163.745 256.752" stroke="#01315F"/>
<path d="M172.056 260.989C170.731 261.46 166.274 262.262 163.384 261.696" stroke="#01315F"/>
<path d="M178.033 276.981C174.972 273.542 169.953 265.675 174.36 261.727C179.869 256.792 194.561 248.717 194.102 237.949" stroke="#0C4983"/>
<path d="M161.286 254.451C162.409 253.185 163.495 252.946 163.495 252.946L164.375 258.083L163.439 259.514L162.672 262.542L162.54 263.129C165.292 263.33 167.932 263.716 167.932 263.716C167.932 263.716 168.288 263.752 168.737 263.771C169.149 263.789 170.759 263.863 170.833 263.826C170.946 263.771 171.301 263.514 171.526 263.459C171.769 263.404 172.144 263.202 172.275 263.22C172.387 263.22 173.005 263.459 173.099 263.477C173.192 263.477 173.286 263.551 173.323 263.587C173.379 263.624 173.96 263.642 174.072 263.716C174.184 263.789 174.222 264.119 174.147 264.211C174.147 264.211 174.147 264.248 174.203 264.284C174.259 264.321 174.334 264.468 174.315 264.56C174.297 264.651 174.222 264.78 174.091 264.78C174.091 264.78 174.035 264.798 174.016 264.817C174.016 264.835 174.053 264.963 174.016 265.073C173.978 265.183 173.885 265.257 173.698 265.257C173.698 265.257 173.829 265.66 173.436 265.66H172.893C172.893 265.66 172.593 265.734 172.462 265.734C172.331 265.734 171.507 265.697 171.451 265.66C171.395 265.624 171.245 265.55 171.208 265.55C171.17 265.55 170.759 265.477 170.702 265.44C170.665 265.422 170.347 265.367 170.122 265.349C169.766 265.33 168.98 265.275 168.531 265.294C168.194 265.312 167.82 265.33 167.426 265.349C163.832 265.514 159.751 265.624 159.807 264.468C159.789 264.101 160.257 255.588 161.286 254.451Z" fill="#9F5B53"/>
<path fill-rule="evenodd" clip-rule="evenodd" d="M163.683 281.348C163.387 278.256 163.377 275.621 163.51 273.818C163.508 273.75 163.509 273.679 163.514 273.604C163.683 271.183 164.151 268.779 164.151 268.779C167.122 269.18 169.89 269.111 169.934 269.11V269.091L172.817 268.779L173.941 273.868L175.308 279.55C174.245 280.105 171.756 281.105 169.683 281.21C169.674 281.343 169.664 281.475 169.654 281.605C168.98 281.66 165.948 281.843 163.683 281.348Z" fill="#01315F"/>
<path d="M234.71 243.57C234.71 243.57 235.724 242.083 237.708 242.514C239.097 242.816 239.56 244.022 239.759 244.561C239.825 244.776 239.847 244.992 239.825 245.207L239.384 247.34L237.355 244.022L235.393 244.173L234.71 243.57Z" fill="#01315F"/>
<path d="M236.253 254.709C235.217 254.709 234.379 253.89 234.379 252.877V247.922H238.105V252.877C238.127 253.89 237.289 254.709 236.253 254.709Z" fill="#F7A491"/>
<path d="M238.149 250.487C236.87 250.487 235.834 249.453 235.834 248.16V243.937L237.973 243.722C238.767 243.722 239.847 245.101 239.847 245.898V248.785C239.847 249.733 239.075 250.487 238.149 250.487Z" fill="#F7A491"/>
<path d="M239.803 246.521L240.355 247.794C240.443 247.923 240.355 248.096 240.2 248.096H239.164L239.803 246.521Z" fill="#F7A491"/>
<path d="M238.635 243.807C236.915 243.182 236.122 243.139 236.122 243.139C235.615 242.967 235.46 243.29 234.997 243.462C234.997 243.462 233.674 243.462 233.145 244.518C232.308 246.198 233.961 247.9 233.961 247.9L234.16 249.775C235.725 249.775 236.475 248.137 236.475 248.137L236.386 245.293L236.408 245.272L236.805 244.345L237.709 244.173C237.687 244.173 240.355 244.432 238.635 243.807Z" fill="#01315F"/>
<path d="M236.408 247.383C236.408 247.383 235.945 246.952 235.415 247.146C234.886 247.34 235.129 248.591 235.923 248.763C235.923 248.763 236.209 248.828 236.43 248.634C236.43 248.612 236.43 247.728 236.408 247.383Z" fill="#F7A491"/>
<path d="M240.045 245.746C240.045 245.746 239.847 243.462 238.833 243.29C237.818 243.118 236.981 243.786 236.981 243.786L236.76 244.023C236.76 244.023 236.694 243.915 236.76 244.023C235.966 244.13 236.253 246.026 236.253 246.026C236.826 245.617 237.245 245.014 237.377 244.647C237.84 245.186 238.789 245.703 240.045 245.746Z" fill="#01315F"/>
<path d="M239.847 248.396C238.943 248.331 238.281 249.02 238.281 249.02C237.708 248.633 236.958 247.986 236.826 247.62C236.804 247.577 236.407 246.629 236.562 245.25L236.121 245.379L236.451 247.771L236.143 248.934C236.054 249.387 236.275 249.882 236.606 250.227C236.892 250.528 237.245 250.765 237.576 250.938C238.149 251.218 238.612 251.153 239.207 250.916C240.508 250.399 239.847 248.396 239.847 248.396Z" fill="#01315F"/>
<path d="M237.554 252.618C237.554 252.618 242.735 255.678 242.03 268.583H232.395L230.609 259.814C230.609 259.814 229.286 254.622 234.886 252.618H237.554V252.618Z" fill="#599DF9"/>
<path d="M234.379 252.812L240.222 256.13C240.222 256.13 239.406 253.825 237.554 252.618L234.908 252.295L234.379 252.812Z" fill="#F7A491"/>
<path d="M235.997 298.848H243.405V298.136H235.997V298.848Z" fill="white"/>
<path d="M240.356 295.881C239.848 295.967 239.187 296.161 238.812 296.7" stroke="white" stroke-width="1.1004" stroke-miterlimit="10"/>
<path d="M232.396 268.583H242.097L242.075 274.809L232.638 274.572L232.396 268.583Z" fill="#01315F"/>
<path d="M232.395 268.583H242.096L240.575 274.572H232.638C232.638 274.572 230.609 271.772 232.395 268.583Z" fill="#01315F"/>
<path d="M240.576 274.251C240.576 272.097 238.79 270.373 236.607 270.373C234.425 270.373 232.639 272.118 232.639 274.251C232.639 274.316 232.639 274.402 232.661 274.467C232.661 274.488 232.661 274.531 232.661 274.553L233.344 281.576C233.278 283.128 234.579 284.442 236.232 284.528C237.93 284.614 239.385 283.429 239.451 281.856L240.598 274.553C240.598 274.488 240.598 274.423 240.598 274.359C240.576 274.337 240.576 274.294 240.576 274.251Z" fill="#01315F"/>
<path d="M233.298 298.848H240.706V298.136H233.298V298.848Z" fill="white"/>
<path d="M237.664 295.881C237.157 295.967 236.496 296.161 236.121 296.7" stroke="white" stroke-width="1.1004" stroke-miterlimit="10"/>
<path d="M250.077 244.61L250.269 246.95L240.545 246.8L240.502 246.272L250.077 244.61Z" fill="#FE2B1E"/>
<rect width="2.80052" height="0.232383" transform="matrix(0.0817381 0.996654 -0.996947 0.0780767 250.29 244.367)" fill="#FE2B1E"/>
<rect width="2.19586" height="0.232383" transform="matrix(0.0817381 0.996654 -0.996947 0.0780767 247.382 244.897)" fill="#FE2B1E"/>
<rect width="1.43936" height="0.232384" transform="matrix(0.0817381 0.996654 -0.996947 0.0780767 244.17 245.527)" fill="#FE2B1E"/>
<rect width="0.833315" height="0.232384" transform="matrix(0.0817381 0.996654 -0.996947 0.0780767 240.489 246.12)" fill="#FE2B1E"/>
<path d="M242.932 255.032L235.934 254.189C235.796 254.172 235.662 254.175 235.51 254.204C234.389 254.329 233.598 255.314 233.701 256.392C233.822 257.334 234.619 258.061 235.553 258.125L242.443 258.878C243.524 259.002 244.517 258.242 244.639 257.165C244.791 256.127 244.012 255.156 242.932 255.032Z" fill="#599DF9"/>
<path d="M244.479 254.673L244.942 249.065L243.081 249.028L241.923 254.32L244.479 254.673Z" fill="#F7A491"/>
<path d="M244.157 249.692C244.563 249.629 244.908 249.343 244.978 248.939L245.155 248.004C245.224 247.795 245.23 247.557 245.146 247.331L244.861 245.607C244.844 245.562 244.805 245.514 244.767 245.466C244.582 245.337 244.262 245.041 243.462 245.428C243.367 245.482 243.313 245.563 243.322 245.672L243.223 247.635L242.839 246.941C242.747 246.779 242.55 246.756 242.404 246.87C242.33 246.927 242.296 247.031 242.33 247.122L242.67 248.375C242.749 248.644 242.896 248.899 243.098 249.074L243.25 249.286C243.461 249.57 243.796 249.738 244.157 249.692Z" fill="#F7A491"/>
<path d="M241.595 252.591L240.871 256.652C240.722 257.719 241.495 258.696 242.587 258.841C243.68 258.986 244.677 258.252 244.825 257.184L245.444 253.069L241.595 252.591Z" fill="#599DF9"/>
<path d="M241.595 252.59L241.377 253.867L245.249 254.347L245.445 253.067L241.595 252.59Z" fill="white"/>
<path d="M131.146 237.653L150.521 237.073L192.061 235.83L191.942 105.973L191.919 81.4512L131.146 237.653Z" fill="white"/>
<path d="M193.76 212.167L275.629 213.072L300.658 213.351L285.37 183.278L254.532 122.681L195.268 6.18848L195.161 21.0273L194.603 97.1137L194.294 139.946L193.76 212.167Z" fill="white"/>
<path d="M192.95 97.1136C194.399 112.394 193.594 128.219 194.295 139.946C194.948 151.035 194.295 158.47 194.295 158.47C194.295 158.47 216.627 156.028 245.624 164.922C257.859 168.672 271.448 174.443 285.37 183.278L254.533 122.681C239.613 111.279 220.001 99.7493 200.092 97.4968C198.263 97.2878 196.433 97.1601 194.604 97.1136C193.428 97.0788 194.126 97.0672 192.95 97.1136Z" fill="#599DF9"/>
<path d="M191.456 279.071C191.456 280.039 192.247 280.824 193.344 280.824C194.441 280.824 195.232 280.039 195.232 279.071V1.75261C195.232 0.784384 194.441 0 193.344 0C192.247 0 191.456 0.784384 191.456 1.75261V279.071Z" fill="#0C4983"/>
<path d="M192.049 214.141C192.049 215.011 192.774 215.72 193.665 215.72H306.906C307.797 215.72 308.521 215.011 308.521 214.141C308.521 213.27 307.797 212.562 306.906 212.562H193.676C192.774 212.562 192.049 213.27 192.049 214.141Z" fill="#0C4983"/>
<path d="M129.578 237.908C129.246 238.767 129.697 239.708 130.576 240.033C131.455 240.346 132.429 239.917 132.762 239.058L194.218 74.8736C194.55 74.0144 194.099 73.0739 193.22 72.7488C192.341 72.4353 191.367 72.8649 191.034 73.7242L129.578 237.908Z" fill="#0C4983"/>
<path d="M305.231 213.538L305.991 213.166L194.282 1.35938L193.522 1.74254L305.231 213.538Z" fill="#0C4983"/>
<path d="M13.7733 273.84H276.384L269.485 284.626C256.621 304.74 234.391 316.91 210.515 316.91H47.8618C37.6261 316.91 27.637 313.768 19.2438 307.91L4.01527 297.28C1.78426 295.723 1.20789 292.668 2.71822 290.404L13.7733 273.84Z" fill="#0C4983"/>
<path opacity="0.5" d="M220.372 294.477C256.183 293.093 276.384 273.84 276.384 273.84L269.485 284.626C256.621 304.74 234.391 316.91 210.515 316.91H47.8618C37.6261 316.91 27.637 313.768 19.2438 307.91L0 294.477C0 294.477 139.11 297.618 220.372 294.477Z" fill="#01315F"/>
<path d="M168.952 246.025C167.85 245.307 166.045 246.623 165.279 247.371C164.973 246.922 164.82 245.845 166.657 245.127C168.952 244.23 169.411 246.474 168.952 246.025Z" fill="#01315F"/>
<path d="M229.933 320.562C231.133 321.396 232.401 322.092 233.718 322.678C232.018 322.514 230.29 322.195 228.733 322.082C225.932 321.88 223.241 322.066 220.361 321.734C218.042 321.467 215.848 320.472 213.604 320.263C208.631 319.8 204.246 317.823 199.18 319.076C197.186 319.569 195.197 320.119 193.189 320.558C190.053 321.244 186.31 320.174 183.004 320.575C177.171 321.283 171.908 319.816 166.13 321.246C162.337 322.184 157.415 324.326 153.437 323.774C150.196 323.325 147.587 320.985 144.528 320.806C140.895 320.592 137.281 321.292 133.635 321.164C129.408 321.016 125.194 320.883 120.973 320.626C117.869 320.437 114.794 320.502 111.697 320.195C110.395 320.067 109.567 319.721 108.243 320.049C104.694 320.927 101.015 321.336 97.4227 322.225C94.7199 322.894 92.1877 323.673 89.4038 323.681C82.9584 323.7 76.3005 323.47 69.8754 323.006C64.1977 322.596 59.0715 319.168 53.5921 317.829C44.024 315.49 34.72 316.497 25.0996 317.603C24.3779 317.781 23.6556 317.957 22.9317 318.128C19.8685 318.849 20.7412 318.103 23.3322 317.806C23.9226 317.738 24.5117 317.67 25.0996 317.603C28.4456 316.777 31.7771 315.905 35.1822 315.319C52.0603 312.417 70.9202 310.247 87.5913 315.257C95.8409 317.737 104.281 317.278 112.735 316.184C119.461 315.314 126.25 314.886 132.984 314.039C139.71 313.192 146.268 313.607 153.017 313.588C161.137 313.564 169.099 316.112 177.27 316.459C181.491 316.639 186.013 314.825 190.077 313.819C202.341 310.785 213.614 313.369 225.113 317.666C226.95 318.352 228.346 319.459 229.933 320.562Z" fill="#B7D2EA"/>
<path opacity="0.5" d="M313.287 107.073C309.518 102.611 303.107 103.291 300.372 104.188C304.119 104.188 311.949 106.524 313.287 110.832C313.894 106.37 321.745 104.124 325.594 104.188C322.403 103.419 315.474 102.919 313.287 107.073Z" fill="#01315F"/>
<path opacity="0.5" d="M38.3436 206.706C34.5755 202.244 28.1636 202.923 25.4287 203.821C29.1766 203.821 37.0066 206.157 38.3436 210.465C38.9514 206.003 46.8016 203.757 50.6508 203.821C47.4601 203.052 40.5316 202.552 38.3436 206.706Z" fill="#01315F"/>
<path opacity="0.5" d="M100.973 109.36C98.2722 106.361 93.6764 106.818 91.7161 107.421C94.4024 107.421 100.015 108.991 100.973 111.886C101.409 108.888 107.036 107.378 109.794 107.421C107.507 106.904 102.541 106.568 100.973 109.36Z" fill="#01315F"/>
<path opacity="0.5" d="M39.7608 161.121C39.7608 161.121 47.2991 148.314 59.1208 153.824C70.9426 159.334 69.9401 156.63 78.2466 157.95C86.553 159.271 96.6692 165.222 89.8991 166.09C83.1289 166.958 30.4258 166.304 30.4258 166.304C30.4258 166.304 31.3892 161.498 39.7608 161.121Z" fill="white"/>
<path opacity="0.2" d="M233.423 375.089C230.044 373.905 227.112 375.81 224.656 378.201C226.71 378.883 228.134 378.574 230.241 378.328C233.791 377.912 237.769 378.416 241.334 379.41C243.651 380.055 245.973 380.52 248.254 381.32C249.744 381.842 250.783 381.175 252.433 381.754C255.439 382.807 260.023 383.87 263.218 383.358C267.216 382.716 271.379 384.782 275.313 384.103C276.81 383.845 277.871 382.618 279.26 382.136C280.206 381.808 282.279 380.461 283.195 380.679C285.348 381.193 287.48 381.375 289.701 381.642C292.297 381.956 293.987 382.981 296.594 382.827C298.203 382.732 299.738 381.503 301.505 381.427C303.861 381.326 306.228 381.442 308.572 381.097C310.568 380.804 312.395 380.946 314.371 380.552C314.892 380.448 317.219 380.41 315.396 380.396C313.502 380.382 311.819 379.823 310 379.364C304.712 378.027 299.246 378.816 293.856 377.829C291.001 377.306 288.049 378.644 285.176 378.796C281.791 378.975 278.126 379.934 274.913 378.807C271.698 377.68 267.814 377.995 264.461 377.177C260.254 376.15 256.513 374.856 252.304 376.037C248.569 377.085 246.831 379.182 242.444 378.223C239.43 377.564 236.307 376.1 233.423 375.089Z" fill="white"/>
<path opacity="0.2" d="M442.497 256.248C444.896 255.642 446.788 257.132 448.321 258.926C446.865 259.268 445.907 258.968 444.475 258.669C442.063 258.165 439.297 258.266 436.783 258.73C435.15 259.031 433.524 259.207 431.906 259.616C430.848 259.883 430.178 259.361 429.006 259.657C426.874 260.196 423.655 260.643 421.493 260.095C418.787 259.408 415.794 260.571 413.134 259.862C412.123 259.593 411.473 258.684 410.55 258.267C409.921 257.984 408.583 256.931 407.94 257.024C406.427 257.245 404.951 257.238 403.408 257.286C401.604 257.341 400.377 257.942 398.596 257.675C397.496 257.511 396.52 256.571 395.312 256.411C393.699 256.196 392.065 256.13 390.477 255.749C389.124 255.424 387.86 255.41 386.528 255.017C386.176 254.914 384.58 254.744 385.834 254.847C387.136 254.954 388.328 254.674 389.607 254.47C393.327 253.877 397.032 254.756 400.799 254.409C402.794 254.226 404.736 255.327 406.7 255.608C409.015 255.94 411.471 256.824 413.751 256.248C416.033 255.671 418.681 256.127 421.038 255.771C423.994 255.325 426.648 254.666 429.464 255.737C431.963 256.687 433.021 258.235 436.097 257.846C438.21 257.579 440.451 256.765 442.497 256.248Z" fill="white"/>
<path opacity="0.2" d="M267.845 436.102C270.247 435.509 272.131 437.008 273.654 438.81C272.197 439.145 271.24 438.84 269.81 438.533C267.4 438.017 264.634 438.103 262.118 438.553C260.483 438.846 258.856 439.014 257.235 439.414C256.176 439.676 255.509 439.15 254.336 439.44C252.2 439.967 248.979 440.398 246.821 439.838C244.118 439.137 241.119 440.285 238.463 439.562C237.453 439.288 236.808 438.375 235.887 437.954C235.26 437.667 233.928 436.607 233.284 436.697C231.771 436.91 230.294 436.895 228.751 436.935C226.946 436.98 225.716 437.575 223.936 437.299C222.838 437.129 221.867 436.184 220.659 436.017C219.048 435.794 217.414 435.72 215.828 435.33C214.478 434.999 213.214 434.978 211.883 434.578C211.532 434.473 209.937 434.295 211.19 434.404C212.492 434.518 213.686 434.244 214.966 434.047C218.689 433.474 222.389 434.372 226.158 434.045C228.154 433.872 230.09 434.983 232.052 435.275C234.365 435.618 236.816 436.515 239.1 435.951C241.384 435.387 244.03 435.856 246.389 435.513C249.347 435.082 252.005 434.437 254.815 435.522C257.308 436.485 258.358 438.039 261.437 437.666C263.551 437.41 265.796 436.608 267.845 436.102Z" fill="white"/>
<path opacity="0.2" d="M181.305 391.357C186.091 390.362 189.693 393.46 192.561 397.129C189.659 397.682 187.794 397.01 184.995 396.3C180.28 395.103 174.813 395.071 169.813 395.774C166.563 396.232 163.34 396.444 160.11 397.115C158 397.553 156.724 396.467 154.386 396.952C150.13 397.837 143.741 398.451 139.523 397.187C134.244 395.605 128.235 397.649 123.05 396.029C121.078 395.412 119.874 393.565 118.089 392.665C116.874 392.053 114.327 389.863 113.049 389.994C110.045 390.303 107.132 390.166 104.084 390.13C100.519 390.088 98.0449 391.17 94.5538 390.495C92.3988 390.079 90.556 388.144 88.185 387.725C85.0221 387.167 81.8033 386.9 78.7028 386.015C76.063 385.261 73.5697 385.126 70.9748 384.241C70.2905 384.007 67.1556 383.538 69.6204 383.846C72.1802 384.166 74.5576 383.713 77.0997 383.418C84.4917 382.56 91.7244 384.604 99.1877 384.236C103.141 384.041 106.877 386.377 110.727 387.096C115.265 387.944 120.034 389.894 124.584 388.949C129.137 388.002 134.321 389.123 139.003 388.618C144.876 387.985 150.17 386.908 155.632 389.256C160.48 391.34 162.432 394.483 168.536 393.974C172.729 393.624 177.222 392.206 181.305 391.357Z" fill="white"/>
</g>
<path d="M579.243 290.003V227.056C579.243 163.826 527.959 112.393 464.503 112.393C401.047 112.393 349.452 163.813 349.452 227.056V290.003H394.824V227.056C394.824 188.761 426.066 157.612 464.503 157.612C502.939 157.612 533.709 188.749 533.709 227.056V290.003H579.243Z" fill="#599DF9"/>
<path fill-rule="evenodd" clip-rule="evenodd" d="M349.896 290.004V290.053H330.893C326.475 290.053 322.893 293.635 322.893 298.053V476.922C322.893 481.34 326.475 484.922 330.893 484.922H599C603.419 484.922 607 481.34 607 476.922V298.053C607 293.635 603.419 290.053 599 290.053H579.997V290.004H534.625V290.053H395.268V290.004H349.896ZM437.242 434.938C436.376 437.529 438.304 440.207 441.036 440.207H488.687C491.463 440.207 493.395 437.448 492.446 434.839L491.351 431.83L478.558 392.83C488.696 387.791 495.722 377.481 495.722 365.44C495.722 357.302 492.478 349.497 486.704 343.743C480.93 337.988 473.099 334.756 464.934 334.756C456.768 334.756 448.937 337.988 443.163 343.743C437.389 349.497 434.145 357.302 434.145 365.44C434.163 371.147 435.78 376.736 438.815 381.576C441.85 386.416 446.182 390.314 451.322 392.83L437.242 434.938Z" fill="#0C4983"/>
<rect opacity="0.2" x="533.709" y="278.361" width="45.5347" height="11.6425" fill="#01315F"/>
<rect opacity="0.2" x="349.452" y="278.361" width="45.5347" height="11.6425" fill="#01315F"/>
<path fill-rule="evenodd" clip-rule="evenodd" d="M346.477 345.938C348.079 347.718 349.503 349.675 350.571 351.721H357.157L359.56 362.306L353.597 365.153C353.508 367.466 353.152 369.868 352.44 372.181L357.068 376.806L351.283 386.058L345.053 383.923C343.273 385.524 341.315 386.948 339.268 388.015V394.598L328.677 397L325.828 391.04C323.514 390.951 321.111 390.595 318.797 389.883L314.169 394.509L304.913 388.727L307.049 382.5C305.447 380.721 304.023 378.764 302.955 376.717H296.369L293.966 366.132L299.929 363.285C300.018 360.972 300.374 358.57 301.086 356.257L296.458 351.632L302.421 342.469L308.651 344.604C310.431 343.003 312.389 341.579 314.436 340.512V333.929L325.027 331.527L327.876 337.487C330.19 337.576 332.593 337.932 334.907 338.644L339.535 334.018L348.791 339.8L346.477 345.938ZM333.483 354.567C328.053 351.187 320.844 352.788 317.373 358.303C313.991 363.73 315.593 370.935 321.111 374.405C326.54 377.785 333.75 376.184 337.221 370.668C340.692 365.242 339.001 358.037 333.483 354.567Z" fill="white"/>
<path d="M322.09 369.156C322.09 369.156 322.09 369.778 322.001 370.045C322.001 370.045 321.734 370.579 321.556 370.935C321.467 371.024 321.467 371.113 321.467 371.202C321.378 371.468 321.289 372.18 320.933 372.803C320.577 373.426 318.174 375.738 318.174 375.738L316.572 374.849L314.97 374.226C314.97 374.226 314.97 369.689 315.326 369.067C315.326 368.978 315.415 368.978 315.415 368.889C315.682 368.355 316.127 368.088 316.305 367.91C316.394 367.821 317.106 366.932 317.462 366.932C317.907 366.932 318.263 367.11 318.441 367.465C318.441 367.465 319.331 367.554 319.865 367.999C319.865 367.999 320.755 367.999 321.111 368.711C321.022 368.533 321.912 368.711 322.09 369.156Z" fill="#F7A491"/>
<path d="M271.804 475.281C271.804 475.281 271.359 478.306 271.27 478.751C271.181 479.195 266.464 478.484 266.464 478.484L266.108 474.925C266.108 474.836 271.27 474.836 271.804 475.281Z" fill="#F7A491"/>
<path d="M271.359 478.306C271.359 478.306 272.872 480.085 274.385 480.886C275.809 481.686 278.123 481.953 279.013 482.843C279.636 483.465 281.327 485.956 275.186 485.956C269.045 485.867 266.107 486.312 265.484 485.333C264.861 484.355 266.463 478.128 266.463 478.128C266.463 478.128 267.888 478.662 271.359 478.306Z" fill="#FE2B1E"/>
<path d="M306.159 475.281C306.159 475.281 305.714 478.306 305.625 478.751C305.536 479.195 300.819 478.484 300.819 478.484L300.463 474.925C300.463 474.836 305.536 474.836 306.159 475.281Z" fill="#F7A491"/>
<path d="M305.713 478.306C305.713 478.306 307.226 480.085 308.739 480.886C310.252 481.686 315.593 482.309 316.483 483.11C317.106 483.732 318.174 486.045 309.54 485.867C303.399 485.689 300.462 486.223 299.839 485.245C299.216 484.266 300.818 478.039 300.818 478.039C300.818 478.039 302.153 478.662 305.713 478.306Z" fill="#FE2B1E"/>
<path d="M275.809 397.622C275.809 397.622 271.269 404.739 271.625 411.232C271.981 417.726 270.023 424.754 269.311 431.515C268.599 439.076 265.484 456.867 265.395 460.871C265.306 464.874 265.84 477.772 265.84 477.772L271.981 477.95C271.981 477.95 277.144 446.815 278.479 443.613C279.814 440.41 286.489 417.815 286.667 415.236C287.023 412.656 275.809 397.622 275.809 397.622Z" fill="#01315F"/>
<path d="M299.483 398.6C299.483 398.6 301.353 407.229 301.798 411.143C302.243 415.057 304.023 439.432 304.29 441.833C304.557 444.324 305.803 474.214 306.96 477.861H299.038C299.038 477.861 292.986 456.155 292.986 445.836C292.986 435.517 288.269 423.508 285.243 416.748C282.217 409.987 275.275 409.809 273.406 397.266C273.584 397.266 296.991 394.597 299.483 398.6Z" fill="#01315F"/>
<path d="M283.285 337.487C283.285 337.487 289.337 335.263 292.096 339.8C294.855 344.426 294.588 353.589 291.562 354.745C288.536 355.901 283.908 355.279 282.395 352.432C280.793 349.586 279.458 345.405 279.458 342.647C279.636 339.8 281.772 338.288 283.285 337.487Z" fill="#F7A491"/>
<path d="M290.939 355.012C290.939 355.012 290.672 356.613 291.117 357.414C291.562 358.214 283.285 358.214 283.285 358.214C283.285 358.214 282.573 353.855 281.327 350.119C280.081 346.472 290.939 355.012 290.939 355.012Z" fill="#F7A491"/>
<path d="M281.772 352.521C281.772 352.521 282.306 353.5 284.62 353.055C286.934 352.699 289.337 347.273 290.316 346.917C291.295 346.561 291.295 346.027 291.295 346.027L291.918 346.917L292.986 347.006C292.986 347.006 292.007 344.248 293.431 343.092C294.143 342.469 295.033 338.377 292.007 338.199C289.782 338.11 290.405 335.619 286.934 336.865C286.934 336.865 284.976 334.997 282.573 335.797C280.259 336.598 278.835 339.889 279.013 341.49C279.28 344.871 280.526 350.92 281.772 352.521Z" fill="#0C4983"/>
<path d="M291.651 357.326C291.651 357.326 291.651 355.813 290.939 355.635C290.227 355.457 283.285 354.834 282.395 355.19V356.97C282.395 356.97 283.997 357.949 291.651 357.326Z" fill="white"/>
<path d="M291.207 344.87C291.118 344.337 289.694 342.735 289.159 344.426C288.625 346.116 289.961 348.34 290.673 348.162C291.474 347.984 291.563 346.294 291.207 344.87Z" fill="#F7A491"/>
<path d="M281.772 413.546C275.453 412.923 271.626 410.521 271.626 410.521C271.626 410.521 272.961 394.598 272.872 392.018C272.741 390.111 272.609 387.353 272.495 384.634C271.828 384.625 270.529 384.536 270.024 384.368C269.223 384.012 268.511 382.322 268.244 381.432C265.941 374.032 269.568 362.377 270.412 360.654C270.455 360.317 270.502 360.111 270.558 360.083C273.94 358.57 282.395 356.702 282.395 356.702L291.652 357.058C291.652 357.058 301.086 359.46 301.531 361.15C301.531 361.15 302.065 361.595 303.934 368.622C304.735 371.558 307.405 379.653 308.028 380.987C308.028 380.987 308.74 380.276 309.63 379.297C310.834 378.043 312.237 375.885 313.295 374.256C314.113 372.996 314.726 372.053 314.881 372.092C315.142 372.144 316.439 373.446 317.542 374.552C318.323 375.336 319.006 376.021 319.153 376.095C319.034 376.143 318.437 377.151 317.536 378.671C315.091 382.801 310.408 390.711 306.96 393.441C305.981 394.242 303.934 390.773 303.311 389.705C301.62 386.681 299.484 380.276 299.395 378.941C299.395 378.941 299.84 388.994 299.662 390.417C299.558 391.251 300.369 397.945 301.042 403.491C301.518 407.413 301.924 410.76 301.887 411.055C301.798 411.855 288.092 414.257 281.772 413.546Z" fill="#599DF9"/>
<path d="M280.17 338.021C280.17 338.021 277.766 338.644 277.944 342.025C278.033 343.092 279.013 344.248 279.013 346.028C279.102 349.23 280.882 350.564 281.95 352.255L280.17 338.021Z" fill="#0C4983"/>
<path d="M446.391 280.732H475.941V285.14C475.941 289.695 472.266 293.368 467.708 293.368H464.01C462.578 302.969 455.506 326.572 455.506 326.572H450.213L453.234 293.368H449.982C449.966 293.606 449.945 293.851 449.919 294.102C449.037 302.623 441.539 326.572 441.539 326.572H436.246L439.587 288.874C439.517 288.522 439.481 288.158 439.481 287.785V287.638C439.481 283.818 442.568 280.732 446.391 280.732Z" fill="#599DF9"/>
<path d="M436.393 326.718H441.686V330.685H431.101C430.366 330.685 430.219 329.069 430.807 328.775L436.393 326.718Z" fill="#F7A491"/>
<path d="M450.213 326.718H455.506V330.685H444.92C444.185 330.685 444.038 329.069 444.626 328.775L450.213 326.718Z" fill="#F7A491"/>
<path d="M475.941 281.025H453.888L451.095 248.409C450.801 245.47 453.153 242.973 456.093 242.973H473.589C476.529 242.973 478.881 245.47 478.587 248.409L475.941 281.025Z" fill="#FE2B1E"/>
<path d="M466.238 245.03H462.856C461.827 245.03 460.945 244.001 460.945 242.826V238.565C460.945 237.39 461.827 236.361 462.856 236.361H466.238C467.267 236.361 468.149 237.39 468.149 238.565V242.826C468.296 244.001 467.414 245.03 466.238 245.03Z" fill="#F7A491"/>
<path d="M451.683 246.059L441.245 263.983L449.331 267.362L455.8 256.784L451.683 246.059Z" fill="#FE2B1E"/>
<path d="M478.588 243.855C488.879 252.817 491.231 264.571 491.231 264.571C491.819 265.893 491.378 268.097 489.908 268.537L469.913 278.528L467.12 273.827L481.087 263.248L470.796 252.229L471.384 243.12C471.384 242.973 476.97 242.532 478.588 243.855Z" fill="#FE2B1E"/>
<path d="M436.246 278.381H470.648V281.319H436.246V278.381Z" fill="#0C4983"/>
<path d="M470.208 278.38H461.386L460.798 274.561H467.414C468.59 274.561 469.766 275.442 469.913 276.617L470.208 278.38Z" fill="#F7A491"/>
<path d="M463.885 278.528H436.246L432.423 261.338H460.063L463.885 278.528Z" fill="#0C4983"/>
<path d="M457.123 236.362C458.446 241.064 462.269 240.329 466.679 239.007C471.09 237.685 473.736 232.689 472.413 227.988C471.09 223.286 466.385 220.642 461.828 221.964C457.417 223.286 455.8 231.661 457.123 236.362Z" fill="#F7A491"/>
<path d="M466.532 226.371C466.532 226.371 466.532 229.456 466.973 229.456C467.414 229.456 468.884 228.869 470.061 230.338C471.237 231.807 469.914 233.423 468.59 233.717C467.267 234.011 468.149 237.684 471.384 237.096C474.618 236.509 475.794 228.575 474.03 225.636C472.413 222.551 467.12 219.319 465.209 219.466C463.298 219.613 451.683 220.788 451.683 220.788C451.683 220.788 456.682 227.106 460.21 227.106C461.975 226.959 466.532 226.371 466.532 226.371Z" fill="#01315F"/>
<path d="M455.065 237.978C454.477 241.651 455.212 242.826 458.299 243.414C461.387 244.001 463.592 243.414 464.18 239.741C464.768 236.068 465.209 234.892 460.21 233.864C455.653 232.982 455.653 234.305 455.065 237.978Z" fill="#01315F"/>
<path d="M458.446 237.096L460.798 237.537C461.239 237.684 461.68 237.243 461.827 236.656V236.215C461.974 235.627 461.533 235.186 461.092 235.04L458.74 234.599C458.299 234.452 457.858 234.893 457.711 235.48V235.921C457.711 236.362 458.005 236.949 458.446 237.096Z" fill="#F7A491"/>
<path d="M469.766 224.167C468.386 224.167 467.267 223.049 467.267 221.67C467.267 220.29 468.386 219.172 469.766 219.172C471.147 219.172 472.266 220.29 472.266 221.67C472.266 223.049 471.147 224.167 469.766 224.167Z" fill="#01315F"/>
<defs>
<linearGradient id="paint0_linear" x1="289.559" y1="644.424" x2="289.559" y2="238.436" gradientUnits="userSpaceOnUse">
<stop stop-color="#38C39D"/>
<stop offset="0.1713" stop-color="#3BBAA6"/>
<stop offset="0.4506" stop-color="#42A2BE"/>
<stop offset="0.5893" stop-color="#4693CD"/>
<stop offset="0.9266" stop-color="#236AC5"/>
<stop offset="1" stop-color="#1B61C3"/>
</linearGradient>
</defs>
</svg>
