<svg width="568" height="475" viewBox="0 0 568 475" fill="none" xmlns="http://www.w3.org/2000/svg">
<path opacity="0.15" d="M90.8336 139.132L239.387 88.8862L239.524 88.7497L318.034 8.32853L380.978 65.8112L381.934 64.8555L318.034 6.41699L238.705 87.6574L91.2432 137.494L30.8933 54.2055L29.6644 55.0247L90.8336 139.132Z" fill="#599DF9"/>
<path opacity="0.15" d="M552.742 262.564C552.742 266.66 556.019 269.937 560.115 269.937C564.211 269.937 567.488 266.66 567.488 262.564C567.488 258.467 564.211 255.19 560.115 255.19C556.019 255.327 552.742 258.604 552.742 262.564Z" fill="#599DF9"/>
<path opacity="0.15" d="M310.659 7.37308C310.659 11.4692 313.936 14.7462 318.032 14.7462C322.129 14.7462 325.406 11.4692 325.406 7.37308C325.406 3.27692 322.129 0 318.032 0C313.936 0 310.659 3.27692 310.659 7.37308Z" fill="#599DF9"/>
<path opacity="0.15" d="M22.9728 54.6153C22.9728 58.7114 26.2497 61.9883 30.3459 61.9883C34.442 61.9883 37.719 58.7114 37.719 54.6153C37.719 50.5191 34.442 47.2422 30.3459 47.2422C26.2497 47.2422 22.9728 50.6557 22.9728 54.6153Z" fill="#599DF9"/>
<path opacity="0.15" d="M22.2902 442.248C22.2902 446.344 25.5671 449.621 29.6633 449.621C33.7594 449.621 37.0364 446.344 37.0364 442.248C37.0364 438.152 33.7594 434.875 29.6633 434.875C25.5671 435.012 22.2902 438.288 22.2902 442.248Z" fill="#599DF9"/>
<path opacity="0.15" d="M231.74 88.3399C231.74 92.436 235.017 95.7129 239.113 95.7129C243.209 95.7129 246.486 92.436 246.486 88.3399C246.486 84.2437 243.209 80.9668 239.113 80.9668C235.017 80.9668 231.74 84.2437 231.74 88.3399Z" fill="#599DF9"/>
<path opacity="0.15" d="M367.322 442.521L368.005 442.385L552.195 407.567L551.922 406.202L368.278 440.883L239.659 88.0674L238.43 88.477L367.322 442.521Z" fill="#599DF9"/>
<path opacity="0.15" d="M543.302 120.763L544.207 121.785L481.338 177.45L480.433 176.427L543.302 120.763Z" fill="#599DF9"/>
<path opacity="0.15" d="M29.9366 442.93L121.008 386.404L119.096 385.857L23.3828 293.83L91.652 138.586L90.4232 138.04L21.7443 294.104L22.1539 294.513L118.004 386.677L29.2539 441.702L29.9366 442.93Z" fill="#599DF9"/>
<path opacity="0.15" d="M551.513 407.294L552.605 406.612L497.58 321.548L561.07 262.7L560.524 262.154L481.059 176.135L480.649 176.408L118.413 385.858L119.095 387.087L480.786 177.773L559.159 262.564L495.805 321.275L551.513 407.294Z" fill="#599DF9"/>
<path d="M301.877 369.444C297.461 369.771 293.046 369.935 288.793 369.935C251.832 369.444 217.977 353.58 193.936 328.067C173.983 306.969 160.899 279.166 158.282 247.928C158.282 247.111 158.119 246.293 158.119 245.475C156.974 228.793 159.1 212.602 163.843 197.556C178.235 151.435 217.16 115.455 266.387 106.296C270.803 105.478 275.383 104.824 279.798 104.497C290.92 103.516 301.714 104.006 312.181 105.805C343.255 110.875 370.894 126.739 391.011 149.636C409.001 170.243 420.94 196.738 423.393 226.176C424.702 241.877 423.23 257.25 419.305 271.806C405.076 324.142 359.283 364.701 301.877 369.444Z" fill="white"/>
<path d="M301.877 369.444C297.461 369.771 293.046 369.935 288.793 369.935C251.832 369.444 217.977 353.58 193.936 328.067C173.983 306.969 160.899 279.166 158.282 247.928C158.282 247.111 158.119 246.293 158.119 245.475C156.974 228.793 159.1 212.602 163.843 197.556C178.235 151.435 217.16 115.455 266.387 106.296C270.803 105.478 275.383 104.824 279.798 104.497C290.92 103.516 301.714 104.006 312.181 105.805C343.255 110.875 370.894 126.739 391.011 149.636C409.001 170.243 420.94 196.738 423.393 226.176C424.702 241.877 423.23 257.25 419.305 271.806C405.076 324.142 359.283 364.701 301.877 369.444Z" fill="#0C4983"/>
<path d="M390.52 269.353C391.011 271.806 394.118 272.787 396.572 272.951C400.333 273.442 404.095 273.932 408.02 274.423C409.819 269.68 415.38 269.68 419.305 271.479C405.076 324.141 359.283 364.701 301.877 369.444C297.462 369.771 293.046 369.935 288.794 369.935C288.794 369.771 288.63 369.771 288.63 369.608C286.667 366.173 289.448 363.066 291.083 360.122C291.41 359.468 294.681 351.29 293.536 351.29C296.971 351.29 300.569 350.963 303.84 349.982C304.167 349.982 304.331 349.818 304.494 349.655C304.821 349.164 304.004 348.51 303.513 348.51C301.877 348.183 300.242 348.019 298.77 347.529C297.298 347.038 295.663 346.057 295.172 344.585C294.518 343.113 295.008 341.314 294.681 339.842C294.191 337.879 292.719 336.408 290.92 335.59C289.284 334.772 287.322 334.445 285.359 334.118C289.448 331.992 286.504 327.412 289.611 324.305C290.593 323.324 292.065 322.179 291.41 320.871C290.756 319.726 288.63 319.726 288.466 318.417C288.303 317.436 289.284 316.782 290.102 316.455C291.083 316.291 292.065 316.291 292.882 315.801C294.027 315.146 294.354 313.511 293.7 312.366C293.046 311.385 291.737 311.058 290.756 310.567C289.775 310.076 288.794 308.768 289.448 307.787C289.611 307.623 289.775 307.296 290.102 307.296C291.737 306.315 294.027 307.133 295.663 308.277C297.298 309.422 298.934 310.731 301.06 310.731C301.55 309.913 301.223 308.932 300.405 308.441C300.078 308.277 299.751 308.277 299.588 307.95C299.097 307.46 299.424 306.642 299.751 306.151C301.223 303.371 301.55 300.1 300.733 296.993C296.644 296.993 292.555 297.156 288.63 297.156C288.466 296.175 288.466 295.684 287.485 295.357C290.265 292.086 293.209 289.142 295.663 285.544C295.99 285.054 296.317 284.726 296.807 284.563C297.298 284.399 297.952 284.563 298.443 284.563C300.242 284.399 300.405 281.946 300.242 280.147C300.569 279.656 301.387 279.82 301.714 280.311C302.041 280.801 302.041 281.455 302.532 281.946C303.186 282.6 304.167 282.6 304.985 282.273C307.765 281.128 309.401 277.53 308.092 274.75C307.929 274.423 307.765 274.096 307.438 273.932C306.784 273.605 305.966 274.096 305.148 274.096C302.041 274.586 302.532 271.152 303.186 269.68C304.167 267.554 307.274 266.082 309.401 265.428C312.017 264.774 329.026 261.503 326.246 255.942C325.919 255.451 325.428 255.124 324.938 254.797C323.302 254.143 321.503 254.307 319.704 253.816C318.069 253.325 316.27 251.526 317.087 249.891C317.414 249.237 318.069 248.746 318.396 248.092C319.377 246.293 317.905 244.167 318.559 242.204C318.886 241.386 319.541 240.732 320.031 239.914C320.522 239.097 320.522 237.952 319.704 237.461C318.886 236.971 317.578 237.788 316.76 237.298C315.779 236.807 315.779 235.171 316.76 234.681C317.578 234.027 318.886 234.354 319.868 234.844C320.358 235.171 320.849 235.499 321.34 235.662C322.321 235.826 323.139 234.844 323.629 233.863C324.447 232.555 325.265 231.083 326.082 229.774C327.064 229.774 327.718 230.592 328.045 231.573C328.372 232.391 328.372 233.372 328.699 234.19C330.498 238.279 336.713 237.788 335.895 243.349C334.26 243.185 332.624 244.984 333.115 246.62C333.769 248.582 336.713 249.727 336.386 251.69C336.222 252.344 335.732 252.998 335.568 253.652C335.241 255.615 338.349 256.433 339.657 256.76C344.073 258.232 344.236 255.451 348.161 255.288C349.96 255.288 351.432 256.433 353.231 256.596C354.867 256.76 356.339 256.106 357.974 256.269C362.39 256.596 360.1 262.484 359.773 265.101C362.063 263.465 365.334 265.428 367.133 267.39C370.077 270.661 369.75 270.007 373.511 270.171C374.493 270.171 375.637 270.661 375.965 271.643C376.619 273.278 375.147 274.914 375.147 276.713C375.147 277.53 375.474 278.348 375.31 279.166C375.147 281.292 372.53 282.273 370.895 283.909C369.586 285.217 368.932 287.343 369.259 289.142C370.404 289.142 371.549 289.142 372.694 288.979C373.348 287.67 374.002 286.362 374.656 285.217C375.31 284.072 375.801 282.927 376.946 282.11C377.6 281.619 378.254 281.455 378.581 280.801C379.399 279.656 378.745 278.021 378.581 276.713C378.091 273.278 379.726 267.554 380.707 264.283C381.525 260.685 383.978 259.377 384.796 255.942C384.96 255.288 385.777 255.124 386.268 255.451C386.759 255.779 387.086 256.269 387.249 256.923C387.576 258.232 387.413 259.704 386.922 261.012C387.74 259.377 391.829 263.792 392.156 264.61C392.646 265.918 391.665 267.881 391.665 269.353C391.829 272.951 392.646 274.914 396.244 272.297C397.716 271.316 399.352 270.171 400.824 270.988C400.497 271.97 401.151 272.951 401.969 273.442C402.786 273.932 403.931 273.932 404.912 273.605C405.567 273.442 406.221 273.278 406.712 272.787C406.875 272.46 407.039 272.133 407.366 271.97C408.347 271.316 409.492 272.46 409.982 273.605" fill="#01315F"/>
<path d="M229.918 164.846C229.264 165.991 229.918 167.463 230.736 168.608C231.553 169.752 232.535 170.897 232.207 172.206C230.572 172.369 229.1 172.533 227.465 172.696C227.137 172.696 226.81 172.696 226.647 173.023C226.483 173.187 226.483 173.514 226.483 173.841C226.647 174.822 226.81 175.804 226.81 176.949C227.792 177.766 228.773 175.313 230.081 175.477C230.572 175.64 230.899 176.131 231.226 176.621C233.843 180.71 238.259 177.603 240.712 175.477C243.492 173.023 247.581 172.86 251.179 172.86C252.487 172.86 253.959 172.86 254.941 173.841C255.922 174.822 255.922 176.131 256.413 177.439C257.23 179.565 259.193 180.874 260.338 182.836C264.426 189.705 257.067 194.939 251.015 192.976C247.908 191.995 248.399 191.504 245.128 192.322C243.819 192.649 242.184 192.322 241.203 193.957C240.385 195.593 241.53 197.719 243.492 197.719C245.291 197.719 247.09 198.046 248.726 197.065C248.072 199.191 248.726 201.644 248.889 203.934C251.015 203.443 252.978 206.06 252.16 208.023C251.179 208.023 249.707 208.35 249.871 209.495C249.871 209.822 250.034 210.149 250.198 210.312C250.852 211.294 251.833 212.275 252.487 213.42C253.469 215.055 253.469 220.289 255.922 220.779C256.413 220.943 256.74 220.779 257.23 220.943C258.048 221.27 258.702 222.251 258.375 223.233C258.212 224.214 257.394 224.868 256.413 225.032C255.758 225.195 255.104 225.195 254.614 225.359C251.506 226.504 254.286 229.611 253.469 231.083C253.142 231.901 247.908 235.172 247.254 235.335C249.053 236.643 250.688 238.606 250.852 240.896C250.852 243.512 249.053 244.657 246.6 245.475C243.983 246.293 240.876 246.62 239.076 247.274C238.095 247.601 236.787 248.092 235.969 247.274C234.988 246.456 235.151 244.494 234.006 244.003C233.679 243.84 233.189 243.84 232.698 243.84C230.245 243.676 228.282 241.059 228.773 238.606C228.282 237.788 227.138 237.952 226.156 237.952C225.175 237.952 224.03 237.625 223.867 236.807C223.703 235.662 225.011 235.172 226.156 235.008C227.301 235.008 228.282 235.008 229.427 235.335C230.245 235.499 231.063 235.826 231.88 235.499C232.371 235.172 232.862 234.681 233.189 234.19C234.006 232.882 234.661 231.41 234.497 229.938C234.334 228.466 233.189 226.994 231.717 226.994C231.39 226.994 230.899 227.158 230.572 226.994C229.591 226.831 229.1 225.522 229.1 224.541C229.1 223.56 229.591 222.415 229.264 221.434C228.937 220.452 227.628 219.634 226.974 220.452C226.32 219.144 225.993 217.181 227.301 216.527C227.792 216.364 228.119 216.364 228.609 216.364C231.39 216.036 235.315 212.275 232.207 209.985C230.081 208.513 226.81 211.621 225.011 208.84C224.194 207.532 224.684 205.569 223.703 204.425C223.212 204.097 222.558 204.752 222.395 205.406C222.067 207.368 222.722 209.658 224.357 210.966C222.722 211.948 220.268 210.803 219.124 212.275C217.979 213.747 219.614 216.364 218.142 217.508C217.815 217.835 217.161 217.999 216.67 217.999C214.054 218.326 209.311 217.999 209.147 221.597C209.147 222.088 209.147 222.578 209.147 222.905C208.82 224.214 207.021 224.377 205.713 224.214C205.059 222.905 205.876 221.434 206.53 219.962C207.185 218.653 207.021 216.527 205.713 216.2C204.731 216.036 203.423 216.854 202.605 216.2C202.278 215.873 201.951 215.382 201.624 215.219C200.643 214.728 199.661 216.364 198.517 216.691C196.881 217.181 195.736 215.055 195.736 213.42C195.736 211.784 196.227 209.822 195.082 208.677C194.755 208.35 194.264 208.023 193.937 207.696C192.792 206.551 192.629 204.915 192.465 203.28C192.138 200.663 182.162 207.368 181.508 207.368C176.601 208.186 173.657 203.443 170.386 200.663C168.587 199.355 166.625 198.373 164.662 197.392C178.4 153.071 215.689 118.071 260.992 107.441C262.954 106.95 265.081 106.459 267.207 106.296C266.552 109.403 264.753 114.31 266.716 117.254C269.333 121.015 274.893 117.744 277.02 122.16C277.02 123.305 275.221 123.141 274.403 123.796C273.912 124.123 273.749 124.94 273.585 125.431C273.422 126.085 272.767 126.576 272.277 126.412C271.622 127.394 272.604 128.702 273.585 129.52C274.73 130.501 275.711 131.646 276.038 133.118C276.856 136.062 274.893 139.005 273.749 141.786C272.767 144.075 272.113 146.529 271.622 148.982C271.622 147.837 269.987 147.346 268.842 147.837C267.861 148.328 267.207 149.472 266.389 150.29C264.917 151.599 263.118 150.781 261.646 151.926C259.683 153.398 258.539 156.014 256.085 156.342C253.142 156.832 251.179 153.725 249.871 151.108C246.763 152.743 244.801 156.832 241.203 156.996C239.894 157.159 238.422 156.505 237.277 156.014C234.661 155.033 232.044 153.888 229.427 152.907C228.282 152.416 227.137 152.089 225.993 152.416C224.684 152.907 224.03 154.215 223.539 155.524C223.049 156.832 222.395 158.304 221.904 159.612C221.74 160.103 221.413 160.757 221.577 161.411C221.74 162.066 222.231 162.556 222.885 162.883C225.829 164.846 229.591 165.5 233.025 165.01C232.698 169.752 231.717 174.495 230.245 178.911C232.862 178.257 235.969 179.075 238.422 178.093" fill="#01315F"/>
<path d="M193.938 327.903C173.004 307.133 160.737 277.04 158.448 247.928C158.448 247.111 158.284 246.293 158.284 245.475C162.373 241.386 170.387 238.606 172.513 246.129C173.331 246.129 173.494 245.639 174.148 245.148C175.13 244.494 176.602 245.475 177.092 246.456C178.891 250.055 179.218 254.634 184.125 253.653C190.176 252.508 186.087 249.891 188.05 246.62C188.377 246.129 188.868 245.802 189.195 245.475C190.667 244.003 190.503 241.714 190.176 239.751C189.031 240.405 187.396 239.751 187.069 238.443C186.905 237.952 186.905 237.461 186.578 237.134C185.924 236.317 184.452 237.134 184.125 238.116C183.798 239.097 184.125 240.242 183.798 241.223C183.634 242.204 182.489 243.186 181.508 242.695C181.181 242.531 181.017 242.041 180.854 241.55C180.363 239.751 180.69 237.788 181.835 236.317C180.854 235.989 180.036 235.008 180.2 234.027C180.2 233.046 181.017 232.064 181.999 231.901C183.471 231.574 185.597 232.391 186.087 231.083C185.924 232.228 186.415 233.536 187.396 234.354C191.321 237.134 199.989 234.681 199.008 242.858C198.844 244.167 198.353 245.475 198.517 246.784C198.517 248.092 199.335 249.564 200.643 249.891C198.354 251.854 199.171 256.106 196.718 257.741C195.573 258.559 193.774 258.395 192.793 257.251C192.629 257.087 192.466 256.924 192.302 256.76C191.812 256.596 191.485 257.087 190.994 257.087C190.176 257.251 189.522 256.433 188.704 256.433C187.559 256.433 186.905 257.741 186.742 258.886C186.578 260.031 186.251 261.503 185.106 261.666C184.779 261.83 184.288 261.666 183.961 261.83C183.144 261.994 182.653 262.811 182.653 263.629C182.653 264.447 182.98 265.264 183.144 265.919C183.634 266.409 184.452 266.082 184.943 265.592C185.433 265.101 185.76 264.447 186.251 263.956C186.578 263.793 193.447 264.283 193.284 263.793C194.265 266.246 194.919 271.479 198.354 270.007C199.662 269.517 200.97 268.699 202.279 269.026C201.624 267.391 201.134 265.592 200.48 263.956C200.97 263.465 201.788 264.12 202.115 264.774C202.279 265.428 202.442 266.246 202.933 266.736C203.26 267.063 203.914 267.064 204.405 267.064C206.04 267.064 207.676 267.064 209.148 266.9C210.947 266.9 212.909 266.9 214.054 268.372C215.362 269.844 214.545 272.297 213.236 273.769C212.909 274.096 212.582 274.587 212.582 274.914C212.582 275.404 212.909 275.732 213.236 275.895C214.872 277.531 216.017 279.82 215.526 281.946C215.199 284.236 213.073 286.199 210.783 286.035C209.965 286.035 208.821 285.708 208.33 286.362C208.003 286.853 208.003 287.507 207.512 287.671C206.858 287.998 206.367 287.18 206.04 286.689C205.222 285.872 203.914 285.544 202.933 286.199C202.442 286.526 200.807 291.432 201.297 292.086C202.279 293.722 206.858 293.068 208.657 293.231C209.311 293.231 210.129 293.395 210.62 293.885C211.274 294.703 210.783 296.011 209.965 296.666C209.148 297.32 208.166 297.974 207.676 298.955C207.512 299.61 207.512 300.264 207.512 300.754C207.512 302.063 207.676 303.371 208.657 304.189C209.148 304.516 209.638 304.843 210.129 305.17C211.11 305.988 211.274 307.623 210.947 308.932C210.62 310.24 209.965 311.385 209.638 312.693C209.148 315.474 210.62 318.581 209.475 321.198C208.984 322.506 207.185 323.487 206.204 322.67C205.222 321.852 205.223 320.053 204.078 319.889C202.933 319.726 201.461 322.67 200.643 323.16C199.825 323.651 198.353 322.833 197.045 323.815C195.41 325.123 195.246 326.922 193.938 327.903Z" fill="#01315F"/>
<path d="M371.549 150.781C370.404 149.309 369.586 147.51 367.46 147.183C364.516 146.692 363.371 148.328 364.68 151.271C364.843 151.599 364.843 151.762 364.843 152.089C364.68 152.907 363.371 152.416 362.553 151.926C360.754 150.781 358.628 150.781 356.829 151.599C356.339 151.762 355.521 143.585 356.012 142.603C357.484 139.332 364.516 140.804 363.044 137.206C360.427 137.206 357.811 137.533 355.194 137.697C355.03 136.389 354.867 135.244 354.703 133.935C354.867 134.917 349.96 134.753 349.47 134.426C347.344 133.281 347.834 129.52 344.073 130.01C339.166 130.828 339.003 140.314 344.4 138.842C345.708 141.622 346.199 145.057 346.362 148.164C347.344 148.164 348.325 148.164 349.306 148.164C349.797 148.818 349.96 149.8 349.633 150.617C347.18 152.253 343.745 152.416 341.292 150.617C339.657 151.762 337.531 150.617 335.895 149.472C333.606 153.071 327.064 152.58 325.428 148.655C323.793 144.73 327.881 139.66 332.134 140.641C332.134 138.678 332.951 136.716 334.26 135.08C329.026 135.244 323.956 131.646 322.321 126.739C321.503 124.286 321.339 121.179 319.213 119.707C318.232 119.053 317.087 118.725 316.106 118.071C313.98 116.599 313.326 113.819 312.999 111.202C312.835 109.403 312.671 107.768 312.508 105.969C343.582 111.039 371.222 126.903 391.338 149.8C391.501 150.781 391.501 151.599 391.174 152.58C390.52 154.052 388.721 154.706 387.086 155.197C380.707 156.832 376.619 156.505 372.203 151.599C371.712 150.944 371.549 150.944 371.549 150.781Z" fill="#01315F"/>
<path d="M394.848 240.948C394.848 240.948 391.033 243.242 386.146 247.575C386.146 247.575 356.821 248.394 349.817 247.575C349.817 247.575 351.018 244.017 352.059 243.577C353.099 243.143 386.858 241.773 394.848 240.948Z" fill="#FE2B1E"/>
<path d="M386.831 237.349L389.872 241.412L389.743 241.509L386.702 237.446L386.831 237.349Z" fill="white"/>
<path d="M352.139 243.601L363.485 204.354L351.984 243.552L352.139 243.601Z" fill="white"/>
<path d="M363.485 204.354C363.485 204.354 376.442 216.541 386.784 237.383C386.784 237.383 374.559 238.474 371.116 242.392C371.116 242.392 366.78 213.225 363.485 204.354Z" fill="white"/>
<path d="M368.328 242.541L363.485 204.354C363.485 204.354 357.899 231.358 356.964 240.948C356.964 240.948 363.906 240.39 368.328 242.541Z" fill="white"/>
<path d="M190.419 207.12L192.759 229.743" stroke="white" stroke-width="0.5"/>
<path d="M211.316 227.811C211.316 227.811 209.141 228.964 204.461 229.744C204.461 229.744 180.099 231.141 174.816 230.524C174.816 230.524 177.581 229.851 179.048 229.793C180.277 229.744 205.292 228.432 211.316 227.811Z" fill="#599DF9"/>
<path d="M188.078 204C188.078 204 195.887 210.999 202.12 222.967C202.12 222.967 194.054 223.593 191.979 225.843C191.979 225.843 191.979 210.241 188.078 204Z" fill="#FE2B1E"/>
<path d="M191.199 225.843C191.199 225.843 191.029 219.24 190.419 214.922C189.82 210.688 188.078 204 188.078 204C188.078 204 185.471 219.446 184.958 224.932C184.958 224.932 188.77 224.613 191.199 225.843Z" fill="#FE2B1E"/>
<path d="M253.151 301.406C253.151 301.406 251.403 302.333 247.641 302.96C247.641 302.96 228.062 304.083 223.816 303.587C223.816 303.587 226.038 303.046 227.218 302.999C228.205 302.96 248.309 301.906 253.151 301.406Z" fill="white"/>
<path d="M247.273 280.86C247.273 280.86 240.338 277.944 232.555 283.514C232.555 283.514 237.757 285.7 238.854 289.562C238.854 289.562 244.081 283.599 247.273 280.86Z" fill="#FE2B1E"/>
<path d="M238.854 289.563C238.854 289.563 240.489 286.55 242.486 284.968C244.442 283.418 247.273 280.86 247.273 280.86C247.273 280.86 254.15 287.152 250.596 293.988C250.596 293.988 246.82 286.791 238.854 289.563Z" fill="#FE2B1E"/>
<path opacity="0.2" d="M238.854 289.562C238.854 289.562 238.184 287.92 237.271 286.856C236.143 285.542 233.711 283.999 233.711 283.999C233.711 283.999 237.626 282.332 240.036 281.897C243.292 281.311 246.209 281.772 246.209 281.772C246.209 281.772 251.838 286.179 249.743 292.78C249.743 292.78 246.029 287.137 238.854 289.562Z" fill="#01315F"/>
<path opacity="0.2" d="M239.097 288.984L246.209 281.772L239.675 289.227L238.854 289.562L239.097 288.984Z" fill="#01315F"/>
<path d="M239.619 289.241C239.739 289.094 240.249 289.679 240.059 289.896C239.865 290.119 239.473 289.696 239.473 289.696C239.473 289.696 239.491 289.39 239.619 289.241Z" fill="#01315F"/>
<path d="M240.556 289.205C240.489 289.216 240.302 289.321 240.302 289.321C240.165 289.431 240.092 289.493 239.998 289.515C239.904 289.536 239.77 289.769 239.77 289.769C239.77 289.769 239.585 289.605 239.532 289.369C239.532 289.369 239.636 289.279 239.643 289.236C239.661 289.154 239.594 289.037 239.66 288.889C239.726 288.742 239.743 288.523 239.743 288.523C239.743 288.523 239.821 288.485 239.844 288.566C239.866 288.648 239.815 288.771 239.84 288.807C239.842 288.815 239.851 288.821 239.856 288.824C239.877 288.844 239.901 288.859 239.929 288.857C239.929 288.857 239.934 288.86 239.937 288.855C240.033 288.841 240.18 288.684 240.241 288.608C240.326 288.506 240.447 288.366 240.488 288.44C240.529 288.513 240.429 288.524 240.286 288.792L240.307 288.812C240.295 288.831 240.468 288.717 240.602 288.579C240.693 288.488 240.725 288.576 240.71 288.62C240.699 288.66 240.593 288.742 240.53 288.81C240.487 288.857 240.439 288.901 240.416 288.927L240.432 288.965C240.677 288.876 240.7 288.776 240.759 288.82C240.819 288.864 240.678 288.991 240.598 289.022C240.563 289.034 240.511 289.075 240.461 289.111C240.656 289.079 240.699 289.011 240.738 289.056C240.763 289.112 240.624 289.194 240.556 289.205Z" fill="#9F5B53"/>
<path d="M235.352 289.135C236.072 289.07 238.453 290.12 238.453 290.12C238.453 290.12 238.511 289.974 238.582 290.033C238.656 290.086 239.614 289.239 239.614 289.239C239.614 289.239 239.558 289.743 240.054 289.894C240.054 289.894 239.104 290.983 238.734 291.229C238.364 291.475 236.01 290.104 236.01 290.104L235.352 289.135Z" fill="#01315F"/>
<path d="M237.357 302.441C237.357 302.504 237.351 302.549 237.351 302.549H235.552C235.552 302.515 235.552 302.481 235.552 302.441C235.575 301.975 235.724 301.566 235.724 301.566L236.175 301.373C236.215 301.606 236.312 301.748 236.438 301.845C236.472 301.873 236.506 301.89 236.54 301.913C236.558 301.924 236.575 301.93 236.592 301.936C236.632 301.953 236.666 301.964 236.706 301.975C236.866 302.021 237.026 302.032 237.134 302.049C237.329 302.083 237.357 302.305 237.357 302.441Z" fill="#01315F"/>
<path d="M237.357 302.441C237.357 302.504 237.351 302.549 237.351 302.549H235.552C235.552 302.515 235.552 302.481 235.552 302.441H237.357Z" fill="#0C4983"/>
<path d="M236.541 301.913L236.289 301.992L236.238 301.902L236.438 301.845C236.466 301.873 236.501 301.896 236.541 301.913Z" fill="#0C4983"/>
<path d="M236.706 301.981L236.54 302.095L236.438 302.055L236.592 301.941C236.626 301.953 236.666 301.97 236.706 301.981Z" fill="#0C4983"/>
<path d="M234.507 302.441C234.501 302.504 234.484 302.549 234.484 302.549H233.285C233.268 302.515 233.256 302.481 233.251 302.441C233.131 301.873 234.102 301.174 234.102 301.174L234.182 301.509C234.182 301.509 234.153 302.043 234.364 302.157C234.501 302.225 234.519 302.35 234.507 302.441Z" fill="#01315F"/>
<path d="M233.256 302.441H234.507C234.501 302.504 234.484 302.549 234.484 302.549H233.285C233.279 302.51 233.268 302.476 233.256 302.441Z" fill="#0C4983"/>
<path d="M234.319 302.111C234.319 302.111 233.816 301.997 233.582 302.145V302.066C233.582 302.066 234.01 301.855 234.319 302.111Z" fill="#0C4983"/>
<path d="M234.216 301.987C234.216 301.987 233.896 301.839 233.582 301.987L233.616 301.901C233.622 301.901 233.993 301.759 234.216 301.987Z" fill="#0C4983"/>
<path d="M233.885 293.229C233.885 294.36 234.307 298.17 234.267 298.466C234.193 299.022 233.445 300.265 233.342 300.856C233.228 301.493 233.262 302.067 233.262 302.067C233.262 302.067 233.885 301.566 234.233 301.936L234.376 301.43L234.473 300.89L235.102 299.825C235.052 299.736 235.304 299.364 235.447 298.466C235.715 296.777 235.37 294.724 235.37 294.724L235.472 294.707L236.235 298.466L235.432 301.032V301.39C235.432 301.39 235.552 301.851 235.552 302.14L236.609 301.839L236.466 301.424L236.563 300.89L236.983 299.825C236.983 299.825 237.35 299.3 237.397 298.456C237.502 296.592 236.889 293.803 236.94 293.337L233.885 293.229Z" fill="#599DF9"/>
<path d="M233.833 293.514C233.833 293.514 234.124 293.764 235.547 293.736C236.643 293.713 236.934 293.451 236.934 293.451C236.934 293.451 236.892 288.909 236.607 288.54C236.401 288.272 236.301 288.206 235.775 288.183C235.575 288.172 235.364 288.178 235.13 288.183C234.958 288.189 234.798 288.217 234.65 288.257C234.062 288.428 233.911 288.865 233.848 289.167C233.768 289.547 233.833 293.514 233.833 293.514Z" fill="#01315F"/>
<path d="M235.729 288.539C235.729 289.041 235.311 288.748 235.102 288.539L234.475 289.793C234.475 289.793 234.663 290.9 234.663 291.674C234.663 292.448 234.475 293.555 234.475 293.555H236.356V291.047C236.356 290.42 236.23 289.041 235.729 288.539Z" fill="#599DF9"/>
<path d="M235.747 287.801L235.558 288.535C235.558 288.535 235.347 288.631 234.901 288.336C234.901 288.336 235.141 287.779 234.93 287.381C234.93 287.381 234.981 287.387 235.067 287.392C235.067 287.392 235.147 287.824 235.747 287.801Z" fill="#9F5B53"/>
<path d="M234.974 286.998C234.945 287.402 234.902 287.634 235.091 287.878C235.368 288.243 235.919 288.154 236.077 287.773C236.219 287.429 236.244 286.828 235.854 286.593C235.573 286.428 235.214 286.499 235.055 286.757C235.006 286.828 234.979 286.908 234.974 286.998Z" fill="#9F5B53"/>
<path d="M235.179 286.591C235.354 286.687 235.274 286.939 234.883 287.395C234.724 287.186 234.771 286.706 234.898 286.561C235.023 286.407 235.026 286.503 235.179 286.591Z" fill="#599DF9"/>
<path d="M234.598 287.32C234.613 287.423 234.667 287.511 234.755 287.578C234.868 287.661 234.972 287.583 234.986 287.456C234.993 287.345 234.946 287.162 234.814 287.125C234.681 287.088 234.58 287.192 234.598 287.32Z" fill="#9F5B53"/>
<path d="M235.928 286.861C235.585 286.697 235.05 286.954 234.816 287.125C234.769 286.846 234.829 286.224 235.417 286.234C236.133 286.246 236.216 286.911 236.096 287.137C236.076 287.043 235.999 286.89 235.928 286.861Z" fill="#FE2B1E"/>
<path d="M235.552 287.187L235.211 286.937C235.465 286.743 235.912 286.738 236.035 286.979C236.082 287.044 236.146 287.188 236.245 287.366C236.006 287.049 235.704 287.06 235.552 287.187Z" fill="#0C4983"/>
<path d="M240.087 287.801C240.227 287.752 240.716 288.336 240.518 288.427C240.327 288.522 239.736 287.933 240.087 287.801Z" fill="#01315F"/>
<path d="M240.391 288.341C240.459 288.331 240.934 288.251 241.007 288.198C241.012 288.197 241.012 288.197 241.016 288.19C241.082 288.133 241.128 288.012 241.172 287.962C241.216 287.913 241.209 287.849 241.235 287.781C241.264 287.719 241.236 287.59 241.236 287.59C241.236 287.59 241.316 287.35 241.239 287.368C241.139 287.393 241.088 287.534 241.088 287.534L240.897 287.688C240.897 287.688 240.583 287.731 240.565 287.671C240.546 287.611 240.678 287.595 240.767 287.537C240.828 287.501 240.793 287.428 240.793 287.428L240.612 287.477C240.612 287.477 240.36 287.567 240.322 287.615C240.283 287.663 240.165 287.878 240.165 287.878L239.823 288.061L240.001 288.544C239.998 288.551 240.322 288.35 240.391 288.341Z" fill="#9F5B53"/>
<path d="M233.998 289.731C234.08 289.281 234.88 288.885 235.23 288.825L237.054 288.86C237.054 288.86 237.25 288.818 237.297 288.875L240.089 287.806C239.997 287.894 240.258 288.429 240.52 288.432C240.52 288.432 237.884 289.663 237.113 289.841C236.963 289.875 233.998 289.731 233.998 289.731Z" fill="#01315F"/>
<path d="M324.738 170.752C324.738 170.752 323.034 171.655 319.369 172.266C319.369 172.266 300.291 173.36 296.155 172.877C296.155 172.877 298.32 172.35 299.469 172.304C300.431 172.266 320.02 171.239 324.738 170.752Z" fill="white"/>
<path d="M311.552 158.899C311.669 158.756 312.167 159.326 311.981 159.538C311.792 159.754 311.41 159.342 311.41 159.342C311.41 159.342 311.428 159.044 311.552 158.899Z" fill="#01315F"/>
<path d="M312.465 158.864C312.4 158.875 312.217 158.977 312.217 158.977C312.084 159.084 312.013 159.144 311.921 159.165C311.83 159.186 311.699 159.413 311.699 159.413C311.699 159.413 311.519 159.253 311.467 159.023C311.467 159.023 311.569 158.936 311.575 158.894C311.593 158.813 311.528 158.7 311.592 158.556C311.657 158.412 311.673 158.199 311.673 158.199C311.673 158.199 311.749 158.162 311.771 158.241C311.793 158.321 311.743 158.441 311.767 158.476C311.769 158.483 311.778 158.489 311.783 158.492C311.804 158.512 311.827 158.526 311.855 158.524C311.855 158.524 311.859 158.527 311.862 158.522C311.956 158.509 312.098 158.356 312.158 158.281C312.241 158.182 312.359 158.046 312.399 158.118C312.439 158.189 312.341 158.199 312.202 158.461L312.223 158.48C312.211 158.499 312.379 158.388 312.51 158.253C312.599 158.165 312.63 158.25 312.616 158.294C312.604 158.332 312.501 158.412 312.44 158.479C312.398 158.525 312.351 158.568 312.329 158.593L312.345 158.629C312.583 158.543 312.605 158.445 312.663 158.488C312.721 158.531 312.584 158.655 312.506 158.685C312.472 158.697 312.421 158.737 312.373 158.772C312.563 158.741 312.604 158.675 312.642 158.718C312.666 158.773 312.531 158.852 312.465 158.864Z" fill="#F7A491"/>
<path d="M307.394 158.796C308.096 158.732 310.416 159.755 310.416 159.755C310.416 159.755 310.473 159.613 310.542 159.67C310.614 159.722 311.548 158.896 311.548 158.896C311.548 158.896 311.493 159.388 311.976 159.535C311.976 159.535 311.051 160.597 310.69 160.836C310.329 161.076 308.036 159.74 308.036 159.74L307.394 158.796Z" fill="#FE2B1E"/>
<path d="M309.348 171.761C309.348 171.822 309.343 171.866 309.343 171.866H307.59C307.59 171.833 307.59 171.8 307.59 171.761C307.612 171.307 307.757 170.908 307.757 170.908L308.196 170.72C308.235 170.947 308.33 171.085 308.452 171.179C308.486 171.207 308.519 171.224 308.553 171.246C308.569 171.257 308.586 171.262 308.603 171.268C308.642 171.285 308.675 171.296 308.714 171.307C308.87 171.351 309.026 171.362 309.131 171.379C309.321 171.412 309.348 171.628 309.348 171.761Z" fill="#01315F"/>
<path d="M309.348 171.761C309.348 171.822 309.343 171.866 309.343 171.866H307.59C307.59 171.833 307.59 171.8 307.59 171.761H309.348Z" fill="#0C4983"/>
<path d="M308.553 171.246L308.308 171.324L308.258 171.235L308.452 171.18C308.48 171.207 308.514 171.23 308.553 171.246Z" fill="#0C4983"/>
<path d="M308.714 171.312L308.553 171.423L308.452 171.384L308.603 171.273C308.636 171.285 308.675 171.301 308.714 171.312Z" fill="#0C4983"/>
<path d="M306.571 171.761C306.566 171.822 306.549 171.866 306.549 171.866H305.38C305.364 171.833 305.353 171.8 305.347 171.761C305.23 171.207 306.176 170.526 306.176 170.526L306.254 170.853C306.254 170.853 306.226 171.374 306.432 171.484C306.566 171.551 306.582 171.673 306.571 171.761Z" fill="#01315F"/>
<path d="M305.353 171.762H306.571C306.566 171.823 306.549 171.867 306.549 171.867H305.38C305.375 171.828 305.364 171.795 305.353 171.762Z" fill="#0C4983"/>
<path d="M306.388 171.44C306.388 171.44 305.898 171.329 305.67 171.473V171.396C305.67 171.396 306.087 171.191 306.388 171.44Z" fill="#0C4983"/>
<path d="M306.288 171.318C306.288 171.318 305.976 171.174 305.67 171.318L305.703 171.235C305.709 171.235 306.07 171.097 306.288 171.318Z" fill="#0C4983"/>
<path d="M308.984 163.102L310.205 144.164L308.841 163.056L308.984 163.102Z" fill="white"/>
<path d="M305.965 162.785C305.965 163.887 306.377 167.599 306.338 167.887C306.265 168.43 305.536 169.64 305.436 170.216C305.325 170.836 305.358 171.396 305.358 171.396C305.358 171.396 305.965 170.908 306.304 171.268L306.443 170.776L306.538 170.25L307.151 169.212C307.103 169.125 307.348 168.763 307.487 167.887C307.748 166.241 307.412 164.241 307.412 164.241L307.512 164.225L308.255 167.887L307.473 170.388V170.737C307.473 170.737 307.59 171.185 307.59 171.468L308.619 171.174L308.48 170.77L308.575 170.25L308.984 169.212C308.984 169.212 309.341 168.7 309.387 167.878C309.489 166.061 308.892 163.344 308.942 162.89L305.965 162.785Z" fill="#599DF9"/>
<path d="M305.915 163.062C305.915 163.062 306.198 163.305 307.584 163.278C308.653 163.256 308.937 163.001 308.937 163.001C308.937 163.001 308.895 158.575 308.617 158.215C308.417 157.955 308.319 157.89 307.807 157.868C307.612 157.857 307.406 157.862 307.178 157.868C307.011 157.873 306.855 157.901 306.71 157.94C306.137 158.106 305.99 158.532 305.929 158.826C305.851 159.197 305.915 163.062 305.915 163.062Z" fill="#01315F"/>
<path d="M307.762 157.604C308.25 157.604 307.965 158.418 307.762 158.825L307.151 158.214C307.151 158.011 307.273 157.604 307.762 157.604Z" fill="#FE2B1E"/>
<path d="M307.779 157.497L307.595 158.211C307.595 158.211 307.389 158.305 306.955 158.017C306.955 158.017 307.189 157.475 306.983 157.087C306.983 157.087 307.033 157.092 307.117 157.098C307.117 157.098 307.195 157.519 307.779 157.497Z" fill="#F7A491"/>
<path d="M307.762 158.825C307.558 158.418 307.029 157.604 306.54 157.604C306.051 157.604 307.151 158.418 307.762 158.825Z" fill="#FE2B1E"/>
<path d="M307.027 156.714C306.998 157.107 306.956 157.334 307.14 157.571C307.41 157.927 307.947 157.84 308.101 157.469C308.24 157.134 308.264 156.548 307.884 156.319C307.61 156.158 307.261 156.227 307.105 156.478C307.057 156.548 307.031 156.626 307.027 156.714Z" fill="#F7A491"/>
<path d="M307.517 156.26V156.415C307.433 156.437 307.375 156.49 307.4 156.555C307.45 156.689 307.299 156.882 307.131 156.952C307.131 156.952 307.14 156.893 307.064 156.903C306.989 156.909 306.955 157.209 307.073 157.359C307.073 157.359 306.88 157.215 306.813 156.898C306.754 156.603 306.788 156.367 306.897 156.26H307.517Z" fill="#599DF9"/>
<path d="M307.39 156.485C307.39 156.485 307.498 156.58 307.605 156.51C307.605 156.51 307.724 156.596 307.82 156.535C307.82 156.535 307.871 156.616 307.962 156.626C308.047 156.636 308.047 156.555 308.047 156.555C308.047 156.555 308.182 156.626 308.233 156.591C308.284 156.555 308.205 156.424 308.205 156.424C308.205 156.424 308.267 156.394 308.228 156.288C308.188 156.182 307.996 156.208 307.996 156.208C307.996 156.208 308.001 156.107 307.871 156.006C307.735 155.905 307.656 156.031 307.656 156.031C307.656 156.031 307.526 155.875 307.368 155.895C307.209 155.915 307.226 156.016 307.226 156.016C307.226 156.016 307.039 155.915 306.96 156.016C306.875 156.117 306.96 156.167 306.96 156.167C306.96 156.167 306.773 156.223 306.785 156.334C306.796 156.444 306.887 156.429 306.887 156.429C306.887 156.429 306.836 156.485 306.954 156.53C307.073 156.575 307.186 156.465 307.186 156.465C307.186 156.465 307.141 156.53 307.226 156.57C307.311 156.616 307.39 156.485 307.39 156.485Z" fill="#599DF9"/>
<path d="M308.232 156.849C308.242 156.763 308.174 156.688 308.087 156.688V156.688C308.001 156.688 307.933 156.763 307.943 156.849L307.952 156.933C307.959 157.002 308.018 157.054 308.087 157.054V157.054C308.157 157.054 308.215 157.002 308.223 156.933L308.232 156.849Z" fill="#01315F"/>
<path d="M307.875 156.911C307.9 156.796 307.813 156.688 307.696 156.688H307.501C307.384 156.688 307.297 156.796 307.322 156.911V156.911C307.341 156.994 307.415 157.054 307.501 157.054H307.696C307.782 157.054 307.856 156.994 307.875 156.911V156.911Z" fill="#01315F"/>
<path d="M308.006 156.871H307.701H307.726H307.93H308.006Z" stroke="#01315F" stroke-width="0.1"/>
<path d="M307.448 156.871L307.159 156.97L307.183 156.962L307.376 156.896L307.448 156.871Z" stroke="#01315F" stroke-width="0.1"/>
<path d="M306.919 157.027C306.934 157.127 306.986 157.213 307.072 157.278C307.182 157.359 307.283 157.283 307.296 157.16C307.304 157.051 307.258 156.873 307.129 156.837C307 156.801 306.901 156.902 306.919 157.027Z" fill="#F7A491"/>
<path d="M312.009 157.496C312.145 157.448 312.621 158.017 312.428 158.106C312.242 158.198 311.666 157.624 312.009 157.496Z" fill="#01315F"/>
<path d="M312.649 157.604L327.311 155.771L312.516 157.534L312.649 157.604Z" fill="white"/>
<path d="M312.649 159.437L310.205 144.164L312.583 159.571L312.649 159.437Z" fill="white"/>
<path d="M308.984 163.102L327.311 155.771L308.851 163.032L308.984 163.102Z" fill="white"/>
<path d="M312.304 158.022C312.371 158.013 312.834 157.934 312.905 157.883C312.91 157.882 312.91 157.882 312.914 157.875C312.978 157.82 313.022 157.701 313.066 157.653C313.109 157.605 313.101 157.543 313.127 157.477C313.155 157.416 313.128 157.29 313.128 157.29C313.128 157.29 313.206 157.057 313.13 157.074C313.034 157.098 312.983 157.236 312.983 157.236L312.798 157.386C312.798 157.386 312.492 157.428 312.474 157.37C312.456 157.311 312.584 157.295 312.671 157.239C312.73 157.203 312.696 157.132 312.696 157.132L312.52 157.181C312.52 157.181 312.275 157.268 312.237 157.315C312.199 157.361 312.084 157.571 312.084 157.571L311.751 157.75L311.925 158.22C311.921 158.227 312.237 158.031 312.304 158.022Z" fill="#F7A491"/>
<path d="M306.076 159.376C306.155 158.938 306.934 158.552 307.276 158.494L309.053 158.528C309.053 158.528 309.244 158.487 309.29 158.543L312.011 157.5C311.921 157.586 312.175 158.108 312.43 158.111C312.43 158.111 309.862 159.31 309.11 159.483C308.964 159.516 306.076 159.376 306.076 159.376Z" fill="#FE2B1E"/>
<path d="M327.128 156.37C330.089 150.222 331.277 144.421 325.546 140.141C317.943 134.463 309.997 144.621 309.997 144.621C309.997 144.621 318.474 140.262 323.276 143.88C328.078 147.497 327.128 156.37 327.128 156.37Z" fill="#FE2B1E"/>
<path d="M560.114 121.246C560.114 127.254 556.837 132.579 551.922 135.31C549.601 136.675 546.733 137.494 543.866 137.494C540.043 137.494 536.629 136.265 533.899 134.081C530.076 131.077 527.618 126.435 527.618 121.246C527.618 112.235 534.854 104.998 543.866 104.998C552.741 104.998 560.114 112.371 560.114 121.246Z" fill="#599DF9"/>
<path opacity="0.3" d="M541.422 136.352C533.085 134.999 527.424 127.143 528.777 118.807C530.13 110.47 537.985 104.808 546.321 106.162C554.658 107.515 560.32 115.37 558.967 123.706C557.614 132.043 549.759 137.705 541.422 136.352Z" fill="white"/>
<path opacity="0.6" d="M560.114 121.246C560.114 127.254 556.837 132.579 551.922 135.31C549.601 136.675 546.733 137.494 543.866 137.494C540.043 137.494 536.629 136.265 533.899 134.081C530.076 131.077 527.618 126.435 527.618 121.246C527.618 112.235 534.854 104.998 543.866 104.998C552.741 104.998 560.114 112.371 560.114 121.246Z" fill="white"/>
<path opacity="0.3" d="M552.878 121.109C552.741 123.021 550.966 123.431 550.966 123.431C550.966 123.431 551.376 124.523 550.966 125.752C550.556 126.981 547.962 126.981 547.962 126.981C547.962 126.981 547.689 127.663 546.87 127.8C546.87 127.936 546.733 127.936 546.733 127.936C546.597 128.073 546.46 128.209 546.324 128.482C546.051 130.94 546.051 133.534 547.279 134.9C548.372 135.036 549.328 135.173 550.42 135.309C550.966 135.446 551.358 135.06 551.904 135.196C549.583 136.561 546.771 137.196 543.904 137.196C540.081 137.196 536.635 135.881 533.904 133.696C534.313 133.696 534.854 134.354 535.401 134.354C536.22 134.354 537.176 134.354 538.268 134.354C540.043 134.081 540.862 133.261 541.272 132.169C541.408 131.623 541.545 131.077 541.408 130.531C540.999 130.394 540.453 130.258 540.043 130.121C538.814 129.575 537.858 128.482 537.312 127.117C537.176 126.981 537.176 126.707 537.176 126.571C536.766 125.206 536.629 123.431 536.766 121.792C536.356 121.519 535.81 121.109 535.674 120.29C535.401 118.652 536.766 118.242 536.766 118.242C536.766 118.242 535.128 117.969 535.128 115.921C535.128 113.873 536.766 113.873 536.766 113.873C536.766 113.873 536.22 113.054 537.312 111.415C538.404 109.777 540.043 110.869 540.043 110.869C540.043 110.869 541.272 108.957 543.183 109.367C545.231 109.777 545.641 111.006 545.641 111.006C545.641 111.006 545.641 109.777 547.826 110.459C550.01 111.142 549.737 113.736 549.737 113.736C549.737 113.736 551.239 112.917 552.058 114.556C552.878 116.194 551.103 119.061 551.103 119.061C551.103 119.061 553.151 119.061 552.878 121.109Z" fill="#0C4983"/>
<path d="M552.058 421.358C544.065 421.358 537.585 414.878 537.585 406.885C537.585 398.892 544.065 392.412 552.058 392.412C560.051 392.412 566.531 398.892 566.531 406.885C566.531 414.878 560.051 421.358 552.058 421.358Z" fill="#599DF9"/>
<path opacity="0.3" d="M538.404 406.885C538.404 410.026 539.497 412.893 541.272 415.214C543.729 418.355 547.689 420.539 552.058 420.539C554.926 420.539 557.52 419.72 559.704 418.218C563.254 415.76 565.712 411.664 565.712 407.022C565.712 399.512 559.568 393.368 552.058 393.368C544.549 393.368 538.404 399.376 538.404 406.885Z" fill="white"/>
<path opacity="0.7" d="M552.058 421.358C544.065 421.358 537.585 414.878 537.585 406.885C537.585 398.892 544.065 392.412 552.058 392.412C560.051 392.412 566.531 398.892 566.531 406.885C566.531 414.878 560.051 421.358 552.058 421.358Z" fill="white"/>
<path opacity="0.4" d="M541.272 415.351C543.729 418.491 547.689 420.676 552.058 420.676C554.926 420.676 557.52 419.856 559.704 418.354C559.295 417.262 559.022 416.716 559.022 416.716C557.383 416.17 555.608 415.76 553.833 415.487C553.424 415.077 552.741 414.804 552.058 414.668C551.649 413.576 551.922 412.347 552.195 411.527C552.741 411.118 553.151 410.708 553.56 410.162C553.833 410.026 554.106 409.752 554.243 409.479C554.652 409.343 557.52 407.977 557.656 403.199C557.656 403.062 557.656 402.789 557.656 402.652C558.612 402.516 559.431 402.789 558.885 404.701C557.793 407.841 558.885 409.479 558.885 409.479C558.885 408.524 559.022 407.431 559.022 407.431C559.022 410.708 560.797 410.845 560.797 410.845C560.797 410.845 559.704 409.616 561.343 406.066C562.981 402.379 562.572 397.464 559.431 397.327C557.793 397.191 556.564 398.01 555.881 398.829C554.106 397.191 551.376 396.918 549.737 398.147C549.737 398.147 546.87 397.464 546.051 398.147C545.914 398.283 546.051 398.693 546.324 399.239C545.641 399.785 544.958 400.468 544.685 401.56C544.276 403.472 544.822 404.974 545.504 405.929C545.095 409.479 545.778 412.21 548.645 412.483C548.645 412.62 548.645 412.62 548.645 412.756C548.645 412.893 548.645 413.029 548.645 413.166C548.645 413.849 548.508 414.395 548.508 414.668C548.099 414.804 547.689 414.804 547.279 414.941C544.685 414.941 541.818 415.214 541.818 415.214C541.681 414.941 541.545 415.078 541.272 415.351Z" fill="#0C4983"/>
<path d="M11.2961 305.264C5.05753 299.025 5.05752 288.91 11.2961 282.672C17.5346 276.433 27.6494 276.433 33.8879 282.672C40.1265 288.91 40.1265 299.025 33.8879 305.264C27.6494 311.502 17.5347 311.502 11.2961 305.264Z" fill="#599DF9"/>
<path opacity="0.3" d="M7.5432 293.967C7.5432 297.108 8.49896 299.975 10.0009 302.296C12.7316 306.392 17.2374 308.987 22.5624 308.987C25.9759 308.987 29.2528 307.758 31.7105 305.846C35.2605 303.116 37.5817 298.746 37.5817 293.967C37.5817 285.639 30.8913 278.948 22.5624 278.948C14.2336 278.948 7.5432 285.639 7.5432 293.967Z" fill="white"/>
<path opacity="0.6" d="M11.2961 305.264C5.05753 299.025 5.05752 288.91 11.2961 282.672C17.5346 276.433 27.6494 276.433 33.8879 282.672C40.1265 288.91 40.1265 299.025 33.8879 305.264C27.6494 311.502 17.5347 311.502 11.2961 305.264Z" fill="white"/>
<path opacity="0.4" d="M10.0007 302.297C12.7314 306.393 17.2372 308.988 22.5622 308.988C25.9757 308.988 29.2526 307.759 31.7103 305.847C31.8468 304.891 31.7103 304.072 31.5738 303.389C31.4372 301.614 29.2526 300.113 29.2526 298.747C29.2526 297.518 31.4372 295.743 30.0718 295.061C28.7065 294.378 28.4334 291.511 29.5257 289.872C30.4815 288.78 31.1642 287.141 29.3892 284.957C28.2968 283.591 26.7949 283.045 25.293 282.772C24.2007 282.226 22.8353 281.953 20.7872 282.089C18.8757 282.226 17.5103 282.772 16.418 283.591C15.3257 284.411 14.5064 285.366 14.0968 286.459C14.0968 286.459 12.4584 289.599 13.6872 293.013C14.5065 295.197 11.093 295.061 10.9565 296.972C10.8199 298.884 12.4584 299.02 12.1853 300.386C12.3218 301.068 11.093 301.614 10.0007 302.297Z" fill="#0C4983"/>
<path d="M84.1832 136.412L183.453 211.664C183.754 211.892 183.813 212.32 183.585 212.62C183.357 212.921 182.929 212.98 182.629 212.752L83.3583 137.5C83.0578 137.272 82.9989 136.844 83.2267 136.544C83.4545 136.243 83.8827 136.184 84.1832 136.412Z" fill="#599DF9"/>
<path d="M317.246 150.116L379.03 74.5287C379.268 74.2368 379.699 74.1936 379.99 74.4322C380.282 74.6708 380.326 75.1009 380.087 75.3928L318.303 150.98C318.065 151.272 317.635 151.315 317.343 151.077C317.051 150.838 317.008 150.408 317.246 150.116Z" fill="#599DF9"/>
<path d="M395.551 244.979L491.887 309.165C492.201 309.374 492.286 309.798 492.077 310.112C491.868 310.426 491.444 310.511 491.13 310.302L394.794 246.116C394.48 245.906 394.395 245.483 394.604 245.169C394.813 244.855 395.237 244.77 395.551 244.979Z" fill="#599DF9"/>
<path d="M112.369 379.827L230.254 295.398C230.56 295.178 230.986 295.249 231.206 295.555C231.426 295.862 231.355 296.288 231.049 296.508L113.164 380.937C112.858 381.156 112.431 381.086 112.212 380.779C111.992 380.473 112.063 380.046 112.369 379.827Z" fill="#599DF9"/>
<path opacity="0.3" d="M368.124 440.788L500.43 316.538L481.724 175.085L481.587 174.948L381.914 63.1231H381.641L201.001 38L90.8143 133.577V133.987L119.351 390.815L119.897 390.952L368.124 440.788ZM498.928 315.992L367.714 439.423L120.58 389.587L92.1797 134.123L201.41 39.5019L381.232 64.3519L480.359 175.631L498.928 315.992Z" fill="#599DF9"/>
<path d="M45.5031 138.314C45.5031 148.554 48.9165 157.975 54.5146 165.621C56.5627 168.352 58.8838 170.81 61.4781 172.994C63.7992 175.043 66.2569 176.681 68.9877 178.183C75.5415 181.733 83.0512 183.781 90.9704 183.781C97.6608 183.781 104.078 182.279 109.813 179.685C110.359 179.412 110.905 179.139 111.451 178.866C114.728 177.227 117.732 175.316 120.326 172.994C124.422 169.581 127.836 165.485 130.567 160.843C134.39 154.152 136.574 146.506 136.574 138.314C136.574 113.191 116.23 92.8464 91.1069 92.8464C65.8473 92.7098 45.5031 113.191 45.5031 138.314Z" fill="#599DF9"/>
<path opacity="0.7" d="M59.7858 169.627C42.5098 152.351 42.5098 124.341 59.7858 107.065C77.0619 89.7886 105.072 89.7886 122.348 107.065C139.624 124.341 139.624 152.351 122.348 169.627C105.072 186.903 77.0619 186.903 59.7858 169.627Z" fill="white"/>
<path d="M105.307 163.711L109.267 178.457C109.813 178.184 110.359 178.047 110.768 177.774C113.909 176.272 116.776 174.361 119.37 172.039C119.097 171.357 110.905 153.061 107.901 153.197L105.307 163.711Z" fill="#599DF9"/>
<path d="M105.307 163.711L109.267 178.457C109.813 178.184 110.359 178.047 110.768 177.774C113.909 176.272 116.776 174.361 119.37 172.039C119.097 171.357 110.905 153.061 107.901 153.197L105.307 163.711Z" fill="#0C4983"/>
<path d="M64.209 123.022C65.3013 127.391 59.157 139.27 61.6147 160.98C64.0724 182.689 87.9666 181.324 98.6166 174.088C109.267 166.851 107.492 127.528 103.805 119.745C100.119 112.236 64.209 123.022 64.209 123.022Z" fill="#599DF9"/>
<path d="M57.791 158.248C58.0641 158.931 58.2006 159.477 58.4737 160.16C58.7468 160.843 58.8833 161.389 59.1564 161.935C59.566 163.164 59.9756 164.256 60.3852 165.485C61.2045 167.806 61.8871 169.854 62.4333 171.902C64.6179 173.814 67.0756 175.589 69.6699 176.954C75.9506 180.504 83.3237 182.416 90.9699 182.416C97.5237 182.416 103.668 181.05 109.266 178.456C109.812 178.183 110.358 178.046 110.768 177.773C110.768 177.364 110.768 176.954 110.768 176.408C110.768 175.998 110.768 175.589 110.768 175.179C110.768 173.95 110.768 172.721 110.631 171.629C110.631 170.946 110.631 170.127 110.495 169.581C110.495 169.171 110.495 168.898 110.495 168.625C110.495 167.396 110.358 166.304 110.358 165.212C110.358 164.939 110.358 164.529 110.358 164.256C110.358 163.3 110.222 162.481 110.085 161.662C109.539 156.61 108.856 154.562 108.447 153.879C108.31 153.743 108.31 153.606 108.174 153.469C108.037 153.333 108.037 153.333 108.037 153.333C108.037 153.333 107.354 153.333 106.262 153.196C103.258 152.923 97.2506 152.514 91.6526 152.514C91.516 152.514 91.3795 152.514 91.3795 152.514C90.6968 152.514 89.8775 152.514 89.1948 152.65C86.3275 152.787 83.4603 153.06 80.7295 153.333C79.6372 153.469 78.6814 153.606 77.5891 153.743C76.4968 153.879 75.2679 154.152 74.1756 154.289C74.0391 154.289 73.9026 154.289 73.766 154.425C69.5333 155.108 65.4372 156.064 61.341 157.293C60.1122 157.566 59.0198 157.839 57.791 158.248Z" fill="#599DF9"/>
<path d="M57.9282 158.248C58.2013 158.931 58.3379 159.477 58.6109 160.16C58.884 160.843 59.0206 161.389 59.2936 161.935C59.7032 163.164 60.1129 164.256 60.5225 165.485C61.3417 167.806 62.0244 169.854 62.5705 171.902C64.7552 173.814 67.2129 175.589 69.8071 176.954C76.0879 180.504 83.4609 182.416 91.1071 182.416C97.6609 182.416 103.805 181.05 109.403 178.456C109.949 178.183 110.496 178.047 110.905 177.773C110.905 177.364 110.905 176.954 110.905 176.545C110.905 176.135 110.905 175.725 110.905 175.316C110.905 174.087 110.905 172.858 110.769 171.766C110.769 171.083 110.769 170.264 110.632 169.718C110.632 169.308 110.632 169.035 110.632 168.762C110.632 167.533 110.496 166.441 110.496 165.348C110.496 165.075 110.496 164.666 110.496 164.393C110.496 163.437 110.359 162.618 110.222 161.798C109.676 156.747 108.994 154.698 108.584 154.016C108.447 153.879 108.447 153.743 108.311 153.606C108.174 153.47 108.174 153.47 108.174 153.47C108.174 153.47 107.492 153.47 106.399 153.333C103.396 153.06 97.3878 152.65 91.7898 152.65C91.6532 152.65 91.5167 152.65 91.5167 152.65C90.834 152.65 90.0148 152.65 89.3321 152.787C86.4648 152.923 83.5975 153.197 80.8667 153.47C79.7744 153.606 78.8186 153.743 77.7263 153.879C76.634 154.016 75.4052 154.289 74.3129 154.425C74.1763 154.425 74.0398 154.425 73.9033 154.562C69.6706 155.245 65.5744 156.2 61.4783 157.429C60.1129 157.566 59.0206 157.839 57.9282 158.248Z" fill="#0C4983"/>
<path d="M88.5128 161.116C78.8185 159.887 75.9513 155.791 75.9513 155.791C82.0955 150.056 77.0435 139.952 77.0435 139.952L88.6493 142.137C88.3762 144.048 88.2397 145.687 88.2397 147.052C88.1032 154.152 91.3801 154.152 91.3801 154.152C93.2916 157.975 88.5128 161.116 88.5128 161.116Z" fill="#F7A491"/>
<path opacity="0.2" d="M88.5128 142.137C88.2397 144.048 88.1032 145.687 88.1032 147.052C80.3205 147.052 76.907 139.952 76.907 139.952L88.5128 142.137Z" fill="#01315F"/>
<path d="M82.0954 109.641C92.1992 109.094 95.7492 114.283 97.1146 124.66C98.7531 137.631 96.4319 147.052 83.5973 144.868C66.2569 142.137 65.4377 110.596 82.0954 109.641Z" fill="#F7A491"/>
<path d="M71.9914 127.254C71.9914 127.254 76.2241 118.652 75.1318 112.371C75.1318 112.371 94.6568 103.087 96.8414 123.294C96.8414 123.294 97.7972 105.135 80.4568 105.681C63.1164 106.227 64.4818 131.623 73.903 138.723C73.903 138.723 69.3972 132.579 71.9914 127.254Z" fill="#599DF9"/>
<path d="M77.9993 111.279C77.9993 111.279 79.6377 123.704 72.1281 135.037C66.3935 143.639 72.9473 151.149 72.9473 151.149C72.9473 151.149 62.8435 144.731 62.5704 135.037C62.5704 135.037 54.2416 111.962 71.5819 105.681C71.5819 105.681 71.7185 100.493 82.9146 101.449C94.2473 102.404 103.259 112.099 105.034 124.387C106.809 136.675 100.392 150.466 100.392 150.466C100.392 150.466 106.945 106.91 77.9993 111.279Z" fill="#599DF9"/>
<path d="M77.3164 111.552C78.1356 114.42 78.2721 117.424 78.1356 120.564C77.9991 123.568 77.4529 126.572 76.6337 129.575C75.8145 132.579 74.7222 135.447 73.2203 138.041C71.7183 140.772 69.9433 143.229 67.4856 145.277C69.9433 143.366 71.8548 140.908 73.4933 138.314C75.1318 135.583 76.3606 132.716 77.1799 129.849C78.1356 126.845 78.6818 123.841 78.9548 120.7C79.2279 117.56 79.2279 114.42 78.4087 111.279L77.3164 111.552Z" fill="#599DF9"/>
<path d="M55.607 164.803C57.5185 167.397 59.8397 169.855 62.2974 171.903C64.482 173.814 66.9397 175.589 69.5339 176.955C69.3974 176.409 69.1243 175.726 68.9878 175.18C67.2128 170.264 64.2089 165.759 61.7512 162.755C59.7031 160.161 58.0647 158.522 57.7916 158.249C56.8359 159.068 56.1532 161.526 55.607 164.803Z" fill="#599DF9"/>
<path d="M55.1972 164.94C57.1087 167.534 59.4299 169.992 61.8876 172.04C64.0722 173.951 66.5299 175.726 69.1241 177.092C68.9876 176.545 68.7145 175.863 68.578 175.317C66.803 170.401 63.7991 165.895 61.3414 162.892C59.2934 160.297 57.6549 158.659 57.3818 158.386C56.4261 159.205 55.7434 161.663 55.1972 164.94Z" fill="#0C4983"/>
<path d="M202.521 67.9959C188.797 67.9959 177.671 56.8702 177.671 43.1459C177.671 29.4216 188.797 18.2959 202.521 18.2959C216.245 18.2959 227.371 29.4216 227.371 43.1459C227.371 56.8702 216.245 67.9959 202.521 67.9959Z" fill="#599DF9"/>
<path opacity="0.3" d="M179.037 43.1463C179.037 49.2905 181.358 54.8886 185.317 59.1213C189.55 63.7636 195.694 66.6309 202.521 66.6309C209.758 66.6309 216.312 63.354 220.544 58.1655C223.958 54.0693 225.869 48.8809 225.869 43.2828C225.869 30.3117 215.356 19.7982 202.385 19.7982C189.55 19.6617 179.037 30.1751 179.037 43.1463Z" fill="white"/>
<path opacity="0.6" d="M202.521 67.9959C188.797 67.9959 177.671 56.8702 177.671 43.1459C177.671 29.4216 188.797 18.2959 202.521 18.2959C216.245 18.2959 227.371 29.4216 227.371 43.1459C227.371 56.8702 216.245 67.9959 202.521 67.9959Z" fill="white"/>
<path opacity="0.6" d="M185.317 58.9845C189.55 63.6268 195.694 66.4941 202.521 66.4941C209.758 66.4941 216.311 63.2172 220.544 58.0288C220.408 58.0288 220.271 57.8922 220.134 57.8922C219.861 57.4826 219.452 57.073 219.042 56.6634V56.5268L218.633 56.3903C217.95 55.9807 217.131 55.7076 216.038 55.7076C215.765 55.7076 215.492 55.7076 215.219 55.7076L213.717 55.4345C213.717 55.4345 213.717 55.5711 213.717 55.8441C211.806 55.9807 209.075 56.1172 205.798 56.3903C205.115 55.8441 204.569 55.1614 204.296 54.3422C204.023 53.523 204.023 52.5672 204.023 51.6114C205.115 51.6114 206.344 51.2018 207.3 50.7922C209.075 49.8364 210.577 48.198 211.396 46.1499C211.533 45.8768 211.533 45.6038 211.669 45.3307C212.215 42.873 212.488 39.4595 211.806 36.4557C211.942 36.4557 211.942 36.4557 212.079 36.4557C212.215 36.4557 212.352 36.3191 212.352 36.1826C212.352 36.0461 212.215 35.9095 212.079 35.9095C212.079 35.9095 212.079 35.9095 211.942 35.9095C212.079 33.998 211.806 31.9499 211.533 30.5845C212.352 29.2191 212.352 26.3518 211.533 25.2595C210.713 24.0307 211.396 24.7134 209.075 24.4403C206.754 24.3038 208.119 22.2557 206.754 22.1191C205.252 22.1191 205.525 23.0749 203.75 23.7576C201.975 24.4403 202.658 22.3922 200.609 22.2557C198.561 22.1191 198.288 23.6211 196.786 24.0307C195.284 24.4403 195.011 24.0307 193.919 24.0307C192.827 24.0307 192.69 27.1711 192.281 27.7172C191.871 28.2634 191.052 27.4441 190.096 29.0826C189.959 29.3557 189.959 29.4922 189.959 29.9018C189.959 31.9499 192.554 35.9095 192.554 35.9095C192.69 36.8653 192.827 37.8211 193.1 38.7768C192.281 39.4595 192.144 40.6884 192.69 41.9172C193.236 42.873 194.056 43.8288 195.011 44.3749C195.558 45.4672 195.967 46.2864 196.513 46.9691C197.196 50.5191 197.469 54.7518 196.24 57.4826C192.144 57.7557 188.184 58.3018 185.317 58.9845Z" fill="#0C4983"/>
<path d="M350.309 457.124C340.605 447.42 340.605 431.686 350.309 421.981C360.014 412.277 375.748 412.277 385.452 421.981C395.156 431.686 395.156 447.42 385.452 457.124C375.748 466.829 360.014 466.829 350.309 457.124Z" fill="#599DF9"/>
<path opacity="0.2" d="M344.385 439.517C344.385 446.207 347.252 452.215 351.758 456.584C355.991 460.544 361.589 463.002 367.87 463.002C372.785 463.002 377.291 461.5 381.114 458.906C387.258 454.673 391.218 447.573 391.218 439.654C391.218 426.682 380.704 416.169 367.733 416.169C354.899 416.169 344.385 426.546 344.385 439.517Z" fill="white"/>
<path opacity="0.6" d="M350.309 457.124C340.605 447.42 340.605 431.686 350.309 421.981C360.014 412.277 375.748 412.277 385.452 421.981C395.156 431.686 395.156 447.42 385.452 457.124C375.748 466.829 360.014 466.829 350.309 457.124Z" fill="white"/>
<path opacity="0.6" d="M351.758 456.584C355.991 460.544 361.589 463.002 367.87 463.002C372.785 463.002 377.291 461.5 381.114 458.906C379.476 458.632 377.564 458.496 375.789 458.223C374.424 455.219 374.697 450.304 375.516 446.207C376.062 445.388 376.608 444.432 377.154 443.204C378.247 442.521 379.202 441.565 379.749 440.473C380.295 439.107 380.158 437.742 379.202 436.923C379.749 434.875 379.885 432.963 380.022 431.325H380.158C380.158 431.325 382.07 424.088 374.97 421.357C367.87 418.627 360.77 423.406 360.77 423.406C360.77 423.406 359.268 420.538 357.356 421.357C355.854 422.04 356.674 423.952 356.947 424.634C356.81 424.361 356.264 423.679 355.308 423.269C354.079 422.723 352.304 424.225 356.264 428.184C356.674 428.594 357.083 428.867 357.629 429.14C357.356 430.642 357.22 432.554 357.493 434.465C356.81 438.015 356.947 441.702 357.629 444.706C357.766 444.979 357.766 445.388 357.902 445.661C358.722 448.119 360.497 449.894 362.545 450.986C363.774 451.532 365.002 451.942 366.368 451.942C366.368 453.034 366.368 454.127 366.095 455.082C365.822 456.038 365.276 456.857 364.456 457.404C360.77 457.131 357.493 456.994 355.308 456.721C355.308 456.448 355.308 456.311 355.308 456.311L353.67 456.584C352.987 456.448 352.304 456.448 351.758 456.584Z" fill="#0C4983"/>
<path d="M456.773 182.661C453.619 169.304 461.89 155.92 475.246 152.766C488.603 149.612 501.987 157.883 505.141 171.24C508.295 184.596 500.024 197.981 486.668 201.134C473.311 204.288 459.927 196.017 456.773 182.661Z" fill="#599DF9"/>
<path opacity="0.2" d="M457.573 176.954C457.573 182.962 459.894 188.423 463.58 192.52C467.813 197.298 474.094 200.302 481.057 200.302C486.246 200.302 491.025 198.664 494.848 195.796C500.719 191.564 504.542 184.6 504.542 176.818C504.542 163.846 494.029 153.333 481.057 153.333C468.086 153.333 457.573 163.983 457.573 176.954Z" fill="white"/>
<path opacity="0.6" d="M456.773 182.661C453.619 169.304 461.89 155.92 475.246 152.766C488.603 149.612 501.987 157.883 505.141 171.24C508.295 184.596 500.024 197.981 486.668 201.134C473.311 204.288 459.927 196.017 456.773 182.661Z" fill="white"/>
<path opacity="0.6" d="M477.173 187.437L474.277 190.08L467.124 191.942C467.124 191.942 465.632 192.159 464.403 193.199C468.704 197.227 474.496 199.696 480.903 199.696C487.31 199.696 493.103 197.227 497.403 193.199C496.131 192.202 494.683 191.942 494.683 191.942L490.953 190.859L487.179 189.82L487.135 189.906L484.589 187.567V185.748C484.633 185.705 484.721 185.661 484.765 185.618C484.853 185.575 484.941 185.531 485.028 185.445C485.072 185.401 485.116 185.358 485.204 185.358C485.336 185.271 485.467 185.142 485.599 185.055L485.643 185.012C486.082 184.665 486.476 184.275 486.828 183.799C486.828 183.755 486.871 183.755 486.871 183.712C486.871 183.712 486.871 183.669 486.915 183.669C487.266 183.192 487.53 182.716 487.661 182.153C487.749 181.893 487.793 181.589 487.881 181.373C487.925 181.286 488.144 180.42 488.407 179.337C489.899 179.12 490.119 175.525 490.119 175.525C489.899 175.005 489.548 174.919 489.197 174.962C489.197 174.832 489.197 174.745 489.197 174.615C489.197 174.615 492.445 161.273 480.157 161.707C480.157 161.707 475.681 162.356 475.242 164.782C475.242 164.782 473.004 165.389 472.785 167.381C472.785 167.381 472.214 170.89 472.522 175.005C472.127 174.875 471.6 174.919 471.337 175.525C471.337 175.525 471.6 179.38 473.224 179.337C473.355 179.857 473.531 180.377 473.707 180.853C473.794 181.243 473.926 181.676 474.058 182.153C474.233 182.802 474.54 183.409 474.979 183.929C475.023 183.972 475.067 184.059 475.111 184.102C475.155 184.145 475.199 184.232 475.286 184.275C475.374 184.362 475.462 184.492 475.593 184.578C475.681 184.665 475.725 184.708 475.813 184.752C475.857 184.795 475.945 184.838 475.988 184.925C476.383 185.228 476.778 185.488 477.173 185.748V187.437Z" fill="#0C4983"/>
<path d="M383.16 104.862C360.161 104.862 341.516 86.2169 341.516 63.2175C341.516 40.218 360.161 21.5732 383.16 21.5732C406.16 21.5732 424.805 40.218 424.805 63.2175C424.805 86.2169 406.16 104.862 383.16 104.862Z" fill="#599DF9"/>
<path opacity="0.7" d="M342.881 63.2171C342.881 72.5018 346.022 80.9671 351.21 87.7941C352.576 89.7056 354.214 91.4806 355.989 92.9825C357.628 94.4844 359.266 95.8498 361.178 96.9421C361.314 97.0787 361.314 97.0787 361.451 97.0787C362.953 98.0344 364.318 98.8537 365.956 99.5364C371.145 101.994 377.016 103.359 383.16 103.359C395.449 103.359 406.508 97.8979 413.881 89.1595C419.889 82.0595 423.576 73.0479 423.576 63.0806C423.576 40.8248 405.416 22.8018 383.297 22.8018C360.905 22.9383 342.881 41.0979 342.881 63.2171Z" fill="white"/>
<path d="M361.178 97.0788C361.178 97.3519 361.178 97.4884 361.041 97.6249C361.178 97.4884 361.314 97.3519 361.314 97.2153C362.816 98.1711 364.181 98.9903 365.82 99.673C365.41 96.9422 365.001 94.348 364.728 92.2999C364.454 90.3884 364.181 88.7499 363.908 87.6576C363.772 86.5653 363.499 85.8826 363.499 85.7461C362.953 85.8826 362.543 86.0192 362.133 86.1557C360.085 87.248 358.037 89.5692 355.989 92.8461C357.628 94.4846 359.403 95.8499 361.178 97.0788Z" fill="#FE2B1E"/>
<path d="M361.041 97.6248C361.178 97.4883 361.314 97.3517 361.314 97.2152C362.816 98.171 364.182 98.9902 365.82 99.6729C371.009 102.131 376.88 103.496 383.024 103.496C395.312 103.496 406.372 98.0344 413.745 89.296C413.062 89.1594 412.38 89.0229 411.56 88.8863C411.56 88.8863 411.424 88.8863 411.287 88.8863C411.151 88.8863 411.014 88.8863 410.878 88.7498C409.103 88.3402 407.191 88.0671 405.28 87.794C404.46 87.6575 403.641 87.521 402.822 87.3844C401.73 87.2479 400.637 87.1113 399.545 86.9748C399.409 86.9748 399.409 86.9748 399.272 86.9748C396.814 86.7017 394.22 86.4287 391.899 86.2921C391.08 86.2921 390.26 86.1556 389.578 86.1556C388.485 86.1556 387.53 86.019 386.574 86.019C385.618 86.019 384.526 85.8825 383.57 85.8825C383.16 85.8825 382.751 85.8825 382.341 85.8825C381.112 85.8825 380.02 85.746 378.928 85.746C375.378 85.6094 372.237 85.6094 369.643 85.746C369.097 85.746 368.551 85.746 368.005 85.746C367.049 85.746 366.23 85.746 365.547 85.8825C364.182 85.8825 363.499 85.8825 363.499 85.8825C363.362 86.4287 363.226 87.1113 362.953 87.794C362.27 90.6613 361.587 93.6652 361.041 97.0786C361.178 97.2152 361.178 97.4883 361.041 97.6248Z" fill="#599DF9"/>
<path d="M361.041 97.6259C361.178 97.4894 361.314 97.3528 361.314 97.2163C362.816 98.1721 364.181 98.9913 365.82 99.674C371.008 102.132 376.88 103.497 383.024 103.497C395.312 103.497 406.372 98.0355 413.745 89.2971C414.018 89.2971 414.428 89.4336 414.701 89.5701C414.428 89.4336 414.018 89.4336 413.745 89.2971C413.062 89.1605 412.38 89.024 411.56 88.8875C411.56 88.8875 411.424 88.8875 411.287 88.8875C411.151 88.8875 411.014 88.8875 410.878 88.7509C409.103 88.3413 407.191 88.0682 405.28 87.7952C404.46 87.6586 403.641 87.5221 402.822 87.3855C401.73 87.249 400.637 87.1125 399.545 86.9759C399.408 86.9759 399.408 86.9759 399.272 86.9759C396.814 86.7028 394.22 86.4298 391.899 86.2932C391.08 86.2932 390.26 86.1567 389.578 86.1567C388.485 86.1567 387.53 86.0201 386.574 86.0201C385.618 86.0201 384.526 85.8836 383.57 85.8836C383.16 85.8836 382.751 85.8836 382.341 85.8836C381.112 85.8836 380.02 85.7471 378.928 85.7471C375.378 85.7471 372.237 85.7471 369.643 85.7471C369.097 85.7471 368.551 85.7471 368.005 85.7471C367.049 85.7471 366.23 85.7471 365.683 85.7471C364.318 85.7471 363.635 85.8836 363.635 85.8836C363.499 86.4298 363.362 87.1125 363.089 87.7952C362.406 90.6625 361.724 93.6663 361.178 97.0798C361.178 97.2163 361.178 97.4894 361.041 97.6259Z" fill="#0C4983"/>
<path d="M399.818 87.1117C395.449 91.0714 384.526 89.706 384.526 89.706C384.526 89.706 377.699 87.7944 379.201 85.7464C383.16 85.0637 385.072 83.2887 385.891 80.831C386.301 79.4656 386.437 77.8271 386.301 76.3252C386.301 75.506 386.164 74.6867 386.027 73.731L399.408 63.7637C397.497 70.181 395.449 82.3329 399.818 87.1117Z" fill="#F7A491"/>
<path opacity="0.2" d="M396.268 70.0449C395.722 78.1007 389.168 80.2853 385.891 80.8315C386.301 79.4661 386.437 77.8276 386.301 76.3257L396.268 70.0449Z" fill="#01315F"/>
<path d="M373.961 42.2148C373.961 42.2148 371.145 57.0733 377.835 61.8521C384.525 66.631 384.525 43.2829 384.525 43.2829L373.961 42.2148Z" fill="#599DF9"/>
<path d="M397.087 71.8192C393.81 76.4615 388.622 77.6903 383.979 76.1884C380.975 75.2326 378.381 73.1845 376.743 70.3172C376.47 69.9076 376.333 69.498 376.197 69.0884C372.92 61.4422 371.827 48.0615 380.02 43.0095C385.754 39.323 393.4 41.098 396.95 46.8326C398.043 48.4711 398.589 50.3826 398.862 52.2942C399.818 61.3057 400.91 66.4942 397.087 71.8192Z" fill="#F7A491"/>
<path d="M390.397 42.4639V46.4235C391.762 46.9696 392.718 48.335 392.308 49.9735C391.489 53.3869 393.947 58.3023 396.677 60.0773C396.677 60.0773 396.541 58.5754 397.77 58.8485C398.999 58.985 399.545 66.6312 397.633 70.4543C397.633 70.4543 400.774 66.7677 401.866 58.7119C402.822 51.2023 402.276 45.1946 400.501 42.4639H390.397Z" fill="#599DF9"/>
<path d="M403.914 58.9846C403.231 61.1693 401.729 62.9443 399.818 64.0366C397.223 65.4019 395.175 63.2173 395.312 60.35C395.448 57.7558 397.087 53.9327 399.954 53.7962C403.095 53.6596 404.733 56.2539 403.914 58.9846Z" fill="#F7A491"/>
<path d="M389.604 46.0845C389.604 46.0845 387.649 47.97 385.694 46.5807C385.694 46.5807 383.533 48.2677 381.784 47.0769C381.784 47.0769 380.858 48.6647 379.211 48.8632C377.668 49.0616 377.668 47.4738 377.668 47.4738C377.668 47.4738 375.198 48.8632 374.272 48.1685C373.346 47.4738 374.786 44.8937 374.786 44.8937C374.786 44.8937 373.655 44.2983 374.375 42.2143C375.095 40.1303 378.594 40.6265 378.594 40.6265C378.594 40.6265 378.491 38.6418 380.858 36.657C383.327 34.6723 384.768 37.1532 384.768 37.1532C384.768 37.1532 387.134 34.0769 390.016 34.4738C392.897 34.8708 392.588 36.8555 392.588 36.8555C392.588 36.8555 395.984 34.8708 397.424 36.8555C398.968 38.8402 397.424 39.8326 397.424 39.8326C397.424 39.8326 400.82 40.9242 400.614 43.1074C400.409 45.2906 398.762 44.9929 398.762 44.9929C398.762 44.9929 399.688 46.0845 397.527 46.9777C395.366 47.8708 393.308 45.6876 393.308 45.6876C393.308 45.6876 394.132 46.9777 392.588 47.7716C391.045 48.6647 389.604 46.0845 389.604 46.0845Z" fill="#599DF9"/>
<path d="M384.526 89.5694C384.526 89.5694 400.228 78.9194 405.143 78.3732C410.195 77.8271 409.239 83.9713 409.239 83.9713C409.239 83.9713 413.062 83.9713 411.56 88.7502C410.058 93.529 388.758 96.1232 380.976 93.8021C373.056 91.4809 368.414 87.1117 369.78 82.879C371.145 78.7828 374.695 82.3328 374.695 82.3328C374.695 82.3328 376.743 78.3732 379.883 79.329C382.887 80.1482 384.526 89.5694 384.526 89.5694Z" fill="#FE2B1E"/>
<path d="M372.184 59.0248C371.953 57.794 372.897 56.6562 374.15 56.6562H379.328C380.58 56.6562 381.525 57.794 381.294 59.0248L380.794 61.6903C380.617 62.6362 379.791 63.3217 378.828 63.3217H374.649C373.687 63.3217 372.861 62.6362 372.684 61.6903L372.184 59.0248Z" fill="#0C4983"/>
<path d="M382.182 59.0248C381.951 57.794 382.896 56.6562 384.148 56.6562H389.326C390.579 56.6562 391.523 57.794 391.292 59.0248L390.792 61.6903C390.615 62.6362 389.789 63.3217 388.827 63.3217H384.648C383.685 63.3217 382.859 62.6362 382.682 61.6903L382.182 59.0248Z" fill="#0C4983"/>
<path d="M396.18 56.6562H389.514L391.181 58.3226L395.624 57.7672L396.18 56.6562Z" fill="#0C4983"/>
<rect x="380.627" y="58.8789" width="2.22182" height="1.11091" fill="#0C4983"/>
<path d="M498.4 359.233C476.607 359.233 458.94 341.566 458.94 319.773C458.94 297.98 476.607 280.313 498.4 280.313C520.193 280.313 537.859 297.98 537.859 319.773C537.859 341.566 520.193 359.233 498.4 359.233Z" fill="#599DF9"/>
<path opacity="0.7" d="M460.305 319.773C460.305 328.921 463.446 337.25 468.907 343.804C470.546 345.715 472.321 347.627 474.232 349.265C474.915 349.812 475.461 350.221 476.144 350.767C477.919 352.133 479.967 353.225 482.015 354.317C486.93 356.639 492.392 358.004 498.263 358.004C505.227 358.004 511.78 356.092 517.378 352.815C518.88 351.996 520.246 351.04 521.475 350.085L521.611 349.948C523.113 348.719 524.615 347.354 525.844 345.989C532.261 339.162 536.084 330.15 536.084 320.046C536.084 299.019 519.017 281.952 498.127 281.952C477.373 281.815 460.305 298.883 460.305 319.773Z" fill="white"/>
<path d="M474.506 338.889C476.008 337.796 477.373 336.977 478.465 336.841C478.465 336.841 486.521 336.021 493.484 336.158C494.304 336.158 494.986 336.158 495.806 336.294C499.356 336.431 502.906 336.841 506.456 337.387C507.548 337.523 508.504 337.66 509.596 337.933C513.009 338.479 516.423 339.298 519.7 340.118C521.338 340.527 522.84 341.073 524.479 341.483C525.025 342.166 525.571 343.804 526.117 345.852C524.752 347.354 523.386 348.583 521.884 349.812L521.748 349.948C520.383 351.041 519.017 351.86 517.652 352.679C512.054 355.956 505.5 357.868 498.536 357.868C492.665 357.868 487.204 356.502 482.288 354.181C480.24 353.225 478.192 351.996 476.417 350.631C475.734 350.085 475.052 349.675 474.506 349.129C472.594 347.491 470.683 345.716 469.181 343.668C470.683 341.893 472.731 340.118 474.506 338.889Z" fill="#599DF9"/>
<path opacity="0.2" d="M474.506 338.889C476.008 337.796 477.373 336.977 478.465 336.841C478.465 336.841 486.521 336.021 493.484 336.158C494.304 336.158 494.986 336.158 495.806 336.294C499.356 336.431 502.906 336.841 506.456 337.387C507.548 337.523 508.504 337.66 509.596 337.933C513.009 338.479 516.423 339.298 519.7 340.118C521.338 340.527 522.84 341.073 524.479 341.483C525.025 342.166 525.571 343.804 526.117 345.852C524.752 347.354 523.386 348.583 521.884 349.812L521.748 349.948C520.383 351.041 519.017 351.86 517.652 352.679C512.054 355.956 505.5 357.868 498.536 357.868C492.665 357.868 487.204 356.502 482.288 354.181C480.24 353.225 478.192 351.996 476.417 350.631C475.734 350.085 475.052 349.675 474.506 349.129C472.594 347.491 470.683 345.716 469.181 343.668C470.683 341.893 472.731 340.118 474.506 338.889Z" fill="#599DF9"/>
<path d="M496.488 343.94C505.363 342.848 507.958 339.025 507.958 339.025C504.408 335.611 504.954 330.559 505.909 327.419C506.456 325.644 507.002 324.552 507.002 324.552L496.352 326.6C496.625 328.375 496.761 329.877 496.761 331.106C496.761 332.471 496.625 333.563 496.488 334.383C495.806 337.523 493.894 337.659 493.894 337.659C492.119 341.073 496.488 343.94 496.488 343.94Z" fill="#F7A491"/>
<path opacity="0.2" d="M496.761 331.106C496.761 332.471 496.625 333.563 496.488 334.383C500.721 333.837 503.861 330.423 505.909 327.556C506.456 325.781 507.002 324.688 507.002 324.688L496.352 326.737C496.625 328.375 496.761 329.74 496.761 331.106Z" fill="#01315F"/>
<path d="M498.536 297.107C489.252 297.517 486.521 302.569 486.111 312.127C485.702 324.142 488.705 332.471 500.175 329.467C515.74 325.371 513.965 296.561 498.536 297.107Z" fill="#F7A491"/>
<path d="M485.609 324.941C485.609 328.274 488.653 330.923 495.052 332.162C501.451 333.401 505.05 329.94 507.827 323.275C508.526 318.837 508.837 316.855 507.272 314.943C506.105 313.518 497.809 319.757 493.385 318.831C488.868 317.942 487.831 316.61 486.164 314.388C485.979 318.831 485.053 320.498 485.609 324.941Z" fill="white"/>
<path d="M491.79 322.753L495.572 323.243C496.281 323.407 496.991 322.916 497.227 322.263V321.772C497.463 321.118 496.754 320.628 496.045 320.464L492.263 319.974C491.554 319.811 490.844 320.301 490.608 320.955V321.445C490.608 321.936 491.081 322.59 491.79 322.753Z" fill="#F7A491"/>
<path d="M509.186 312.263C509.186 312.263 504.544 304.754 504.953 298.883C504.953 298.883 486.384 292.056 486.111 310.761C486.111 310.761 483.653 294.24 499.628 293.285C515.467 292.329 516.286 315.54 508.367 322.913C508.503 322.913 512.053 316.906 509.186 312.263Z" fill="white"/>
<path d="M507.821 314.312C507.821 312.81 509.323 310.216 512.054 310.489C514.921 310.762 516.559 316.496 509.459 318.271C508.367 318.408 507.821 317.452 507.821 314.312Z" fill="#F7A491"/>
<path d="M83.5944 422.02C64.5055 402.931 64.5055 371.981 83.5944 352.892C102.683 333.804 133.633 333.804 152.722 352.892C171.811 371.981 171.811 402.931 152.722 422.02C133.633 441.109 102.683 441.109 83.5944 422.02Z" fill="#599DF9"/>
<path opacity="0.7" d="M70.7614 387.496C70.7614 395.142 72.5364 402.379 75.8133 408.796C76.496 410.025 77.1787 411.254 77.8614 412.482C78.4076 413.438 79.0903 414.394 79.773 415.213C82.5037 419.036 85.9172 422.45 89.7402 425.317C90.5595 426 91.5153 426.546 92.3345 427.229C96.021 429.686 99.9806 431.461 104.213 432.827C108.583 434.192 113.361 434.875 118.14 434.875C125.104 434.875 131.794 433.373 137.802 430.642C138.621 430.232 139.304 429.959 140.123 429.55C144.356 427.365 148.315 424.498 151.592 421.084C154.869 417.807 157.736 414.121 159.921 410.025C160.604 408.796 161.15 407.567 161.696 406.475C164.29 400.604 165.656 394.186 165.656 387.496C165.656 361.28 144.356 339.98 118.14 339.98C92.0614 339.98 70.7614 361.28 70.7614 387.496Z" fill="white"/>
<path d="M141.898 385.585C142.581 386.814 144.902 389.135 144.902 389.135L148.998 408.523L151.729 421.221C155.006 417.944 157.873 414.258 160.058 410.162C159.785 409.069 159.375 408.114 158.966 407.021C156.098 398.01 152.685 387.633 152.548 386.677C152.139 384.902 153.777 375.891 153.367 374.252C152.958 372.614 144.766 370.702 142.991 370.702C141.079 370.566 141.216 384.493 141.898 385.585Z" fill="#9F5B53"/>
<path d="M135.481 407.021L137.256 424.771L137.802 430.779C138.621 430.369 139.304 430.096 140.123 429.686C144.356 427.502 148.316 424.634 151.592 421.221C154.869 417.944 157.737 414.257 159.921 410.161C160.604 408.932 161.15 407.704 161.696 406.611L158.966 407.021L148.998 408.659L146.814 409.069L149.408 421.358C149.271 421.084 140.123 408.386 135.481 407.021Z" fill="#599DF9"/>
<path d="M135.481 407.021L137.256 424.771L137.802 430.779C138.621 430.369 139.304 430.096 140.123 429.686C144.356 427.502 148.316 424.634 151.592 421.221C154.869 417.944 157.737 414.257 159.921 410.161C160.604 408.932 161.15 407.704 161.696 406.611L158.966 407.021L148.998 408.659L146.814 409.069L149.408 421.358C149.271 421.084 140.123 408.386 135.481 407.021Z" fill="#0C4983"/>
<path d="M75.8134 408.797C76.4961 410.026 77.1788 411.254 77.8615 412.483C78.4077 413.439 79.0903 414.395 79.773 415.214C82.5038 419.037 85.9172 422.451 89.7403 425.318C90.5596 426.001 91.5154 426.547 92.3346 427.229C96.0211 429.687 99.9807 431.462 104.213 432.827C108.583 434.193 113.362 434.876 118.14 434.876C125.104 434.876 131.794 433.374 137.802 430.643C138.621 430.233 139.304 429.96 140.123 429.551C138.212 415.897 135.754 407.841 135.481 407.022C130.565 405.656 125.513 404.564 120.461 404.018C120.325 404.018 120.325 404.018 120.188 404.018C112.952 403.472 105.579 403.335 98.2057 403.608C93.1538 403.745 88.1019 404.291 83.0499 405.11C82.3673 405.247 78.9538 406.612 75.8134 408.797Z" fill="#599DF9"/>
<path d="M75.8134 408.797C76.4961 410.026 77.1788 411.254 77.8615 412.483C78.4077 413.439 79.0903 414.395 79.773 415.214C82.5038 419.037 85.9172 422.451 89.7403 425.318C90.5596 426.001 91.5154 426.547 92.3346 427.229C96.0211 429.687 99.9807 431.462 104.213 432.827C108.583 434.193 113.362 434.876 118.14 434.876C125.104 434.876 131.794 433.374 137.802 430.643C138.621 430.233 139.304 429.96 140.123 429.551C138.212 415.897 135.754 407.841 135.481 407.022C130.565 405.656 125.513 404.564 120.461 404.018C120.325 404.018 120.325 404.018 120.188 404.018C112.952 403.472 105.579 403.335 98.2057 403.608C93.1538 403.745 88.1019 404.291 83.0499 405.11C82.3673 405.247 78.9538 406.612 75.8134 408.797Z" fill="#0C4983"/>
<path d="M89.6039 425.455C90.4231 426.138 91.3789 426.684 92.1981 427.366C95.8847 429.824 99.8442 431.599 104.077 432.964C108.446 434.33 113.225 435.013 118.004 435.013C124.967 435.013 131.658 433.511 137.665 430.78C138.485 430.37 139.167 430.097 139.987 429.688C139.987 429.278 139.85 428.868 139.85 428.459C139.031 427.23 138.212 426.001 137.119 424.772C132.204 418.491 125.377 412.211 121.827 409.207C120.871 410.436 119.233 411.391 116.502 411.938C111.996 412.757 106.944 410.709 102.712 408.251C100.8 410.163 97.9327 413.166 95.2019 416.443C93.1539 418.901 91.3789 421.632 90.15 423.953C90.0135 424.363 89.877 424.909 89.6039 425.455Z" fill="#599DF9"/>
<path d="M98.2058 403.472C98.2058 403.472 103.804 410.299 114.317 410.845C123.465 411.254 120.462 404.018 120.462 404.018C117.048 403.199 115.273 401.56 114.317 399.649C113.089 397.191 113.498 394.051 114.181 391.047C114.181 390.774 114.317 390.637 114.317 390.364L100.937 378.349C102.165 385.585 103.258 398.829 98.2058 403.472Z" fill="#9F5B53"/>
<path opacity="0.2" d="M103.121 388.998C103.804 393.64 109.402 398.146 114.318 399.512C113.089 397.054 113.498 393.914 114.181 390.91L103.121 382.444C102.712 384.629 102.712 386.814 103.121 388.998Z" fill="#01315F"/>
<path d="M111.86 362.919C108.719 366.469 111.587 370.566 122.1 375.208C124.421 369.746 122.783 360.598 119.369 359.096C115.956 357.595 114.591 359.779 111.86 362.919Z" fill="#599DF9"/>
<path d="M97.1136 374.389C99.9809 383.674 101.073 389.272 107.081 392.958C115.956 398.556 126.606 391.456 126.606 381.489C126.606 372.477 121.964 358.824 111.86 357.185C104.623 356.093 97.7962 361.008 96.7039 368.245C96.2943 370.293 96.4309 372.341 97.1136 374.389Z" fill="#9F5B53"/>
<path d="M98.8884 365.104C103.667 365.514 104.213 370.429 99.7077 381.079C94.2462 378.622 90.8447 370.014 92.3466 366.601C93.712 363.051 94.6558 364.695 98.8884 365.104Z" fill="#599DF9"/>
<path d="M94.3828 382.991C95.6116 385.175 97.5231 386.677 99.9808 387.36C103.121 388.179 104.623 385.448 103.804 382.445C102.985 379.85 100.39 376.164 97.25 376.573C94.1096 376.983 92.8808 380.26 94.3828 382.991Z" fill="#9F5B53"/>
<path d="M116.787 361.602C107.899 361.157 98.6418 371.415 95.1239 377.154C91.606 371.6 87.3475 357.714 100.123 352.714C115.7 346.619 123.452 360.121 122.897 366.045C121.601 364.194 118.564 361.602 116.787 361.602Z" fill="#FE2B1E"/>
<path d="M111.788 371.044L101.789 368.822C105.677 362.712 115.676 358.824 120.675 362.712C122.341 363.638 125.118 366.045 129.007 368.823C120.675 364.379 114.009 367.156 111.788 371.044Z" fill="#0C4983"/>
</svg>
