<svg width="715" height="678" viewBox="0 0 715 678" fill="none" xmlns="http://www.w3.org/2000/svg">
<g opacity="0.7">
<mask id="mask0" mask-type="alpha" maskUnits="userSpaceOnUse" x="0" y="0" width="715" height="678">
<path d="M219.98 240.064C186.525 229.586 143.792 214.443 106.314 229.575C60.7541 247.971 -33.5428 353.797 167.448 508.74C263.177 570.737 328.125 581.921 413.421 555.539C497.102 526.011 583.642 472.974 628.367 388.427C634.278 377.282 642.548 354.995 645.798 342.595C658.257 294.847 635.139 238.302 595.3 204.164C555.46 170.026 501.917 157.052 453.17 162.406C404.423 167.761 363.419 194.878 322.198 219.015C299.89 232.085 260.69 252.78 219.98 240.064Z" fill="#2B63A4"/>
</mask>
<g mask="url(#mask0)">
<rect opacity="0.1" width="669.659" height="250.774" transform="matrix(-1 0 0 1 669.659 155.108)" fill="#599DF9"/>
<path opacity="0.5" d="M694 406H-6.99992V565H694V406Z" fill="url(#paint0_linear)"/>
<path opacity="0.5" d="M235.921 426.769C181.804 430.092 157.791 411.736 157 406H225.834C248.778 408.967 290.039 423.446 235.921 426.769Z" fill="#0C4983"/>
<path d="M195.534 297.073H180.25V302.082H195.534V297.073Z" fill="#599DF9"/>
<path d="M195.534 290.751H180.25V292.064H195.534V290.751Z" fill="#599DF9"/>
<path d="M195.534 292.064H180.25V297.073H195.534V292.064Z" fill="white"/>
<path d="M197.876 289.251L195.534 290.751H180.25L177.909 289.251H197.876Z" fill="#FE2B1E"/>
<path d="M197.876 288.271H177.976V289.25H197.876V288.271Z" fill="#599DF9"/>
<path d="M180.482 290.751H180.25V302.081H180.482V290.751Z" fill="#599DF9"/>
<path d="M195.534 290.751H195.302V302.081H195.534V290.751Z" fill="#599DF9"/>
<path d="M185.361 290.751H185.13V302.081H185.361V290.751Z" fill="#599DF9"/>
<path d="M190.655 290.751H190.424V302.081H190.655V290.751Z" fill="#599DF9"/>
<path d="M187.859 283.035L183.127 288.271H177.976L187.859 283.035Z" fill="#FE2B1E"/>
<path d="M197.88 288.271H192.658L187.903 283.013L187.926 283L197.88 288.271Z" fill="#FE2B1E"/>
<path d="M192.658 288.271H183.126L187.859 283.036L187.903 283.014L192.658 288.271Z" fill="#599DF9"/>
<path d="M200.712 302.201H175.131V295.897H200.712V302.201ZM175.304 302.028H200.538V296.071H175.304V302.028Z" fill="#FE2B1E"/>
<path d="M188.037 295.897H187.863V302.201H188.037V295.897Z" fill="#FE2B1E"/>
<path d="M194.461 295.897H194.288V302.201H194.461V295.897Z" fill="#FE2B1E"/>
<path d="M181.64 295.897H181.466V302.201H181.64V295.897Z" fill="#FE2B1E"/>
<path d="M200.712 298.048H175.131V298.221H200.712V298.048Z" fill="#FE2B1E"/>
<path d="M200.654 299.878H175.073V300.052H200.654V299.878Z" fill="#FE2B1E"/>
<path d="M203.495 406.618H172.295L172.549 402.162L172.625 400.92H203.161L203.237 402.162L203.495 406.618Z" fill="white"/>
<path d="M205.053 402.162H170.737V408.003H205.053V402.162Z" fill="white"/>
<path d="M205.053 402.162H170.732L172.624 400.92H203.161L205.053 402.162Z" fill="#0C4983"/>
<path d="M201.829 303.8L197.698 306.444H178.087L173.96 303.8H201.829Z" fill="#0C4983"/>
<path d="M201.825 302.081H173.96V303.804H201.825V302.081Z" fill="white"/>
<path d="M203.16 400.92H172.624L173.532 385.174H202.252L203.16 400.92Z" fill="#599DF9"/>
<path d="M198.611 322.191H177.179L177.984 308.238L178.087 306.444H197.698L197.805 308.238L198.611 322.191Z" fill="white"/>
<path d="M199.519 337.934H176.266L177.179 322.191H198.611L199.519 337.934Z" fill="#599DF9"/>
<path d="M200.431 353.68H175.353L176.266 337.934H199.519L200.431 353.68Z" fill="white"/>
<path d="M201.34 369.426H174.445L175.353 353.68H200.432L201.34 369.426Z" fill="#599DF9"/>
<path d="M202.252 385.173H173.533L174.445 369.427H201.34L202.252 385.173Z" fill="white"/>
<path opacity="0.15" d="M179.16 400.916L179.681 385.173L180.202 369.427L180.722 353.68L181.243 337.933L181.764 322.187L182.285 306.444H178.082L177.98 308.238L177.174 322.187L176.266 337.933L175.353 353.68L174.441 369.427L173.533 385.173L172.62 400.916H179.16Z" fill="#01315F"/>
<path opacity="0.05" d="M198.25 315.976H193.816L193.499 306.444H197.698L198.25 315.976Z" fill="#01315F"/>
<path opacity="0.1" d="M193.816 315.976L181.537 329.083L182.285 306.444H193.5L193.816 315.976Z" fill="#01315F"/>
<path opacity="0.05" d="M196.625 400.915H179.164L181.537 329.082L193.816 315.976L196.625 400.915Z" fill="#01315F"/>
<path d="M203 386.198L195.699 396.219H194.203L202.252 385.174L203 386.198Z" fill="#FE2B1E"/>
<path d="M211.797 396.219L211.784 413.475H195.699L195.707 396.219H195.699L203 386.198L203.748 385.174L211.797 396.219Z" fill="#EEF1F5"/>
<path d="M236.354 396.219H210.301L204.723 388.562L202.252 385.174H228.305L230.771 388.562L236.354 396.219Z" fill="#599DF9"/>
<path d="M236.354 396.219V396.231L236.345 396.219H236.354Z" fill="white"/>
<path d="M236.354 396.232L236.341 413.475H210.292L210.301 396.219H236.345L236.354 396.232Z" fill="white"/>
<path opacity="0.08" d="M236.354 396.219V399.607H212.772L210.301 396.219H236.354Z" fill="#01315F"/>
</g>
</g>
<path opacity="0.5" d="M127.873 375.367C123.242 369.868 115.361 370.706 112 371.812C116.606 371.812 126.23 374.691 127.873 380C128.62 374.501 138.269 371.733 143 371.812C139.078 370.864 130.563 370.248 127.873 375.367Z" fill="#01315F"/>
<path opacity="0.5" d="M545.386 216.367C540.605 210.868 532.47 211.706 529 212.812C533.755 212.812 543.689 215.691 545.386 221C546.157 215.501 556.116 212.733 561 212.812C556.952 211.864 548.161 211.248 545.386 216.367Z" fill="#01315F"/>
<path opacity="0.5" d="M380.5 228.078C380.5 228.078 389.787 211.721 404.35 218.759C418.913 225.796 417.678 222.342 427.911 224.029C438.144 225.716 450.607 233.316 442.266 234.425C433.926 235.534 369 234.698 369 234.698C369 234.698 370.187 228.56 380.5 228.078Z" fill="white"/>
<path d="M381.668 386C351.661 386 327.337 410.154 327.337 439.952C327.337 452.428 331.608 463.91 338.757 473.05L331.412 480.344L320.277 469.288C320.005 469.023 319.639 468.875 319.259 468.875C318.878 468.875 318.512 469.023 318.24 469.288L311.127 476.351C310.86 476.621 310.711 476.985 310.711 477.363C310.711 477.741 310.86 478.104 311.127 478.374L322.261 489.431L314.236 497.399L303.102 486.343C302.83 486.078 302.464 485.93 302.083 485.93C301.703 485.93 301.337 486.078 301.065 486.343L293.952 493.406C293.685 493.677 293.536 494.04 293.536 494.418C293.536 494.796 293.685 495.159 293.952 495.429L305.086 506.486L293.415 518.075C293.149 518.342 293 518.702 293 519.078C293 519.453 293.149 519.813 293.415 520.08L300.975 527.587C301.529 528.138 302.441 528.138 302.995 527.587L348.319 482.58C357.86 489.929 369.594 493.913 381.668 493.903C411.676 493.903 436 469.749 436 439.952C436 410.154 411.676 386 381.668 386ZM410.478 468.56C402.793 476.209 392.553 480.415 381.668 480.415C370.784 480.415 360.543 476.209 352.858 468.56C345.155 460.929 340.92 450.76 340.92 439.952C340.92 429.144 345.155 418.974 352.858 411.343C360.543 403.694 370.784 399.488 381.668 399.488C392.553 399.488 402.793 403.694 410.478 411.343C418.181 418.974 422.417 429.144 422.417 439.952C422.417 450.76 418.181 460.929 410.478 468.56Z" fill="white"/>
<path d="M238.841 506.994C240.837 507.234 238.478 515.119 235.453 514.638C232.368 514.156 233.941 508.258 233.941 508.258C233.941 508.258 236.784 506.693 238.841 506.994Z" fill="#01315F"/>
<path d="M244.467 515.179C243.983 514.638 241.987 513.554 241.987 513.554C240.232 512.952 239.264 512.651 238.539 511.929C237.813 511.207 234.969 511.327 234.969 511.327C234.969 511.327 235.393 508.739 237.208 506.933C237.208 506.933 238.599 507.354 239.022 507.174C239.869 506.873 240.535 505.609 242.229 505.368C243.922 505.127 245.979 504.044 245.979 504.044C245.979 504.044 246.766 504.525 246.161 505.188C245.556 505.85 244.164 506.09 243.983 506.512C243.922 506.572 243.922 506.692 243.922 506.753C243.862 507.054 243.862 507.354 244.043 507.595C244.043 507.595 244.043 507.655 244.104 507.655C244.769 508.438 247.008 508.859 248.036 508.98C249.427 509.16 251.363 509.461 250.94 510.244C250.516 511.026 249.851 510.183 246.645 510.424L246.584 510.725C246.342 510.725 248.338 511.628 250.335 512.049C251.665 512.35 251.061 513.133 250.577 513.253C250.153 513.374 248.822 512.892 247.854 512.712C247.189 512.591 246.524 512.411 246.161 512.35L245.919 512.712C248.096 514.397 249.125 514.036 249.064 514.818C249.004 515.601 247.068 515.059 246.342 514.517C246.04 514.277 245.374 514.036 244.769 513.795C246.161 515.36 247.008 515.36 246.826 515.962C246.463 516.504 244.951 515.721 244.467 515.179Z" fill="#F7A491"/>
<path d="M241.624 508.739C242.955 508.438 243.801 506.873 243.862 506.692C243.801 506.993 243.801 507.294 243.983 507.535C243.015 509.04 241.624 508.739 241.624 508.739Z" fill="#F7A491"/>
<path d="M215.672 468.17C220.33 474.249 224.383 501.516 224.383 501.516C224.383 501.516 226.016 501.215 225.895 502.178C225.835 503.141 238.841 506.933 238.841 506.933C238.841 506.933 234.002 509.281 235.453 514.578C235.453 514.578 220.33 512.23 216.035 510.304C211.74 508.378 210.712 479.546 210.712 479.546L215.672 468.17Z" fill="#599DF9"/>
<path d="M220.451 614.917C220.451 615.579 220.391 616.06 220.391 616.06H201.335C201.335 615.699 201.335 615.338 201.335 614.917C201.577 609.981 203.15 605.647 203.15 605.647L207.929 603.601C208.353 606.068 209.381 607.573 210.712 608.596C211.075 608.897 211.438 609.078 211.801 609.319C211.982 609.439 212.164 609.499 212.345 609.56C212.768 609.74 213.131 609.861 213.555 609.981C215.249 610.462 216.943 610.583 218.092 610.763C220.149 611.125 220.451 613.472 220.451 614.917Z" fill="#0C4983"/>
<path d="M220.451 614.916C220.451 615.578 220.391 616.06 220.391 616.06H201.335C201.335 615.699 201.335 615.337 201.335 614.916H220.451Z" fill="#01315F"/>
<path d="M211.801 609.319L209.139 610.162L208.594 609.199L210.712 608.597C211.014 608.898 211.377 609.138 211.801 609.319Z" fill="#01315F"/>
<path d="M213.555 610.04L211.801 611.244L210.712 610.823L212.345 609.619C212.708 609.74 213.131 609.92 213.555 610.04Z" fill="#01315F"/>
<path d="M190.265 614.917C190.205 615.579 190.023 616.061 190.023 616.061H177.32C177.138 615.699 177.017 615.338 176.957 614.917C175.686 608.898 185.97 601.494 185.97 601.494L186.817 605.045C186.817 605.045 186.515 610.703 188.753 611.907C190.205 612.63 190.386 613.954 190.265 614.917Z" fill="#0C4983"/>
<path d="M177.017 614.917H190.265C190.205 615.579 190.023 616.061 190.023 616.061H177.32C177.259 615.639 177.138 615.278 177.017 614.917Z" fill="#01315F"/>
<path d="M188.269 611.426C188.269 611.426 182.945 610.222 180.465 611.787V610.944C180.465 610.944 185.002 608.717 188.269 611.426Z" fill="#01315F"/>
<path d="M187.18 610.102C187.18 610.102 183.792 608.537 180.465 610.102L180.828 609.199C180.889 609.199 184.821 607.694 187.18 610.102Z" fill="#01315F"/>
<path d="M183.671 517.347C183.671 529.325 179.8 572.602 179.376 575.732C178.59 581.631 179.013 591.864 177.925 598.124C176.715 604.865 177.078 610.944 177.078 610.944C177.078 610.944 183.671 605.648 187.361 609.56L188.874 604.203L187.724 599.99L189.902 593.79C188.39 591.081 199.4 533.177 199.4 533.177L200.488 532.996L200.065 599.99V603.782C200.065 603.782 201.335 608.657 201.335 611.727L212.527 608.537L211.014 604.143L212.043 598.485L211.68 590.901C211.68 590.901 215.249 525.653 216.035 518.49L183.671 517.347Z" fill="#0C4983"/>
<path d="M183.127 520.355C183.127 520.355 186.212 523.004 201.275 522.703C212.889 522.462 215.975 519.693 215.975 519.693C215.975 519.693 218.697 472.082 215.672 468.169C213.494 465.34 209.26 464.136 203.695 463.896C201.577 463.775 199.339 463.835 196.859 463.896C195.044 463.956 193.35 464.257 191.777 464.678C185.547 466.484 181.191 470.517 180.526 473.707C179.679 477.74 183.127 520.355 183.127 520.355Z" fill="#599DF9"/>
<path d="M219.725 497.122C220.996 500.432 220.27 508.618 219.06 510.785C217.668 513.253 211.498 512.109 211.498 512.109C211.498 512.109 211.68 491.464 210.651 480.99C209.683 470.517 205.086 463.956 205.086 463.956C205.086 463.956 216.156 464.377 217.85 470.517C218.939 474.49 218.636 477.74 218.273 479.485C218.092 480.449 217.85 480.93 217.85 480.93C217.91 480.93 217.91 480.93 217.971 480.93C218.334 480.99 219.544 481.532 220.391 485.926C221.419 491.102 219.06 495.978 219.06 495.978C219.362 496.339 219.544 496.7 219.725 497.122Z" fill="#FE2B1E"/>
<path d="M209.381 473.828C209.381 473.828 211.256 467.508 209.018 464.498C206.719 461.488 204.239 461.007 204.239 461.007C204.239 461.007 207.324 463.896 207.687 465.822C208.111 467.748 209.381 473.828 209.381 473.828Z" fill="#FE2B1E"/>
<path d="M201.5 464.5C200.5 462 199.7 459.4 204.5 461C209.3 462.6 209.5 469 209 472C208.2 468 203.666 464.667 201.5 464.5Z" fill="#FE2B1E"/>
<path d="M201 460.5C196.6 458.9 191.5 459.5 189.5 460L190.5 463.5L198.5 464.5C201.167 463.833 205.4 462.1 201 460.5Z" fill="#FE2B1E"/>
<path d="M197.766 491.765C197.585 509.1 195.589 514.096 195.589 514.096C195.589 514.096 182.764 515.781 180.405 513.193C178.046 510.605 180.405 502.539 180.405 502.539C180.405 502.539 179.921 501.275 179.376 499.349C179.134 498.567 178.892 497.603 178.711 496.64C178.469 495.677 178.348 494.594 178.227 493.51C177.925 490.742 178.59 488.575 179.195 487.311C179.618 486.408 179.981 485.987 179.981 485.987C179.981 485.987 177.501 475.935 178.59 471.48C178.832 470.457 179.255 469.614 179.86 468.892C183.127 464.679 190.689 464.679 190.689 464.679C192.806 465.281 196.012 470.878 197.222 481.532C197.585 484.542 197.766 487.973 197.766 491.765Z" fill="#FE2B1E"/>
<path d="M203.392 459.863L201.396 467.628C201.396 467.628 199.158 468.651 194.439 465.521C194.439 465.521 196.98 459.623 194.742 455.409C194.742 455.409 195.286 455.469 196.194 455.53C196.194 455.53 197.04 460.104 203.392 459.863Z" fill="#F7A491"/>
<path d="M194.439 451.376C194.318 460.525 203.211 461.85 205.509 458.479C206.235 457.396 206.901 455.409 207.324 453.242C207.445 452.761 207.506 452.279 207.566 451.737C207.99 448.367 207.687 444.936 205.751 444.033C199.158 440.903 194.5 442.167 194.439 451.376Z" fill="#F7A491"/>
<path d="M192.467 444.745C190.079 448.323 192.8 455.579 195.467 457.245L194.967 454.745L193.967 451.245C194.3 450.579 195.167 449.545 195.967 450.745C198.248 454.168 199.5 449 199.5 447C202.082 445.731 205.041 445.718 207.467 446.245C209.3 445.245 209.5 443.5 206.5 442.5C202.205 441.068 195.967 439.5 192.467 444.745Z" fill="white"/>
<path d="M196.286 451.21C196.286 451.21 194.956 449.344 193.504 450.247C192.052 451.21 194.048 454.58 195.561 454.641C197.012 454.641 196.286 451.21 196.286 451.21Z" fill="#F7A491"/>
<path d="M195.468 472.564C195.468 472.564 197.524 466.003 196.919 463.896C196.314 461.789 189.781 459.502 189.176 460.164C188.571 460.766 187.906 462.632 188.511 464.859C188.511 464.859 192.564 465.521 195.468 472.564Z" fill="#FE2B1E"/>
<path d="M197.222 481.533C195.286 484.061 183.792 484.121 183.792 484.121C183.792 484.121 176.231 495.136 181.675 498.567C186.999 501.938 196.556 499.59 196.919 499.47C194.802 501.215 181.615 502.359 179.316 499.289C179.195 499.169 179.134 498.988 179.074 498.868C178.832 498.266 178.711 497.484 178.651 496.581C178.409 493.691 178.832 489.659 179.134 487.311C179.558 486.408 179.921 485.987 179.921 485.987C179.921 485.987 177.441 475.935 178.53 471.481C178.772 470.458 179.195 469.615 179.8 468.893C186.575 469.073 187.18 481.533 187.18 481.533C189.055 482.255 196.98 481.593 197.222 481.533Z" fill="#FE2B1E"/>
<path d="M181.433 537.209C181.494 538.774 174.053 541.904 173.751 539.617C173.388 537.39 181.191 533.237 181.433 537.209Z" fill="#01315F"/>
<path d="M175.021 538.594C174.9 539.317 174.235 544.373 174.537 545.276C174.537 545.336 174.537 545.336 174.597 545.396C174.96 546.239 176.049 547.081 176.412 547.683C176.775 548.285 177.441 548.405 178.046 548.887C178.59 549.369 179.981 549.489 179.981 549.489C179.981 549.489 182.159 551.054 182.22 550.211C182.28 549.128 181.01 548.165 181.01 548.165L180.042 545.757C180.042 545.757 180.586 542.447 181.252 542.447C181.917 542.447 181.675 543.831 181.978 544.914C182.159 545.637 183.006 545.516 183.006 545.516L183.066 543.53C183.066 543.53 182.945 540.701 182.583 540.159C182.22 539.618 180.405 537.752 180.405 537.752L179.618 533.719L174.174 534.02C174.114 533.96 175.142 537.872 175.021 538.594Z" fill="#F7A491"/>
<path d="M174.597 545.396C174.96 546.238 176.049 547.081 176.412 547.683C176.775 548.285 177.441 548.405 178.046 548.887C178.59 549.368 179.981 549.489 179.981 549.489C179.437 549.067 178.53 546.78 178.288 546.66C178.046 546.539 177.925 546.84 177.501 546.84C177.078 546.84 176.896 545.997 176.473 546.118C176.049 546.238 175.626 546.298 175.323 545.757C175.081 545.456 174.839 545.396 174.597 545.396Z" fill="#F7A491"/>
<path d="M180.889 469.555C185.184 471.782 186.696 481.111 186.212 484.843L180.163 503.202C180.163 503.202 179.981 505.308 179.255 505.609L181.373 537.21C180.768 536.006 174.537 536.969 173.69 539.618C173.69 539.618 169.456 509.101 170.06 500.734C170.181 499.109 180.889 469.555 180.889 469.555Z" fill="#599DF9"/>
<path d="M211.377 480.99C211.377 480.99 215.249 480.87 218.273 479.546C218.092 480.509 217.85 480.99 217.85 480.99C217.85 480.99 213.676 481.532 211.377 480.99Z" fill="#FE2B1E"/>
<path d="M219.725 497.122C216.882 497.422 212.89 496.76 212.89 496.76C212.89 496.76 217.306 496.821 219.06 496.038C219.362 496.339 219.544 496.7 219.725 497.122Z" fill="#FE2B1E"/>
<path d="M546.725 536.048C546.665 537.616 554.042 540.752 554.402 538.46C554.642 536.229 546.905 532.067 546.725 536.048Z" fill="#0C4983"/>
<path d="M553.022 537.434C553.142 538.158 553.802 543.225 553.502 544.129C553.502 544.19 553.502 544.19 553.442 544.25C553.082 545.094 552.003 545.939 551.643 546.542C551.283 547.145 550.623 547.266 550.024 547.748C549.484 548.231 548.105 548.351 548.105 548.351C548.105 548.351 545.946 549.92 545.886 549.075C545.826 547.99 547.085 547.024 547.085 547.024L548.045 544.612C548.045 544.612 547.505 541.295 546.845 541.295C546.186 541.295 546.425 542.682 546.126 543.767C545.946 544.491 545.106 544.371 545.106 544.371L545.046 542.38C545.046 542.38 545.166 539.545 545.526 539.003C545.886 538.46 547.685 536.59 547.685 536.59L548.464 532.549L553.862 532.85C553.922 532.79 552.902 536.711 553.022 537.434Z" fill="#F7A491"/>
<path d="M553.502 544.189C553.142 545.034 552.063 545.878 551.703 546.481C551.343 547.085 550.683 547.205 550.084 547.688C549.544 548.17 548.165 548.291 548.165 548.291C548.704 547.869 549.604 545.577 549.844 545.456C550.084 545.335 550.204 545.637 550.623 545.637C551.043 545.637 551.223 544.793 551.643 544.913C552.063 545.034 552.483 545.094 552.782 544.551C552.962 544.25 553.202 544.25 553.502 544.189Z" fill="#F7A491"/>
<path d="M487.054 484.418C485.735 482.91 480.457 489.183 482.556 491.475C484.655 493.767 488.673 489.183 488.673 489.183C488.673 489.183 488.433 486.046 487.054 484.418Z" fill="#0C4983"/>
<path d="M477.159 484.237C477.879 484.357 479.918 485.443 479.918 485.443C481.357 486.589 482.137 487.192 483.156 487.373C484.176 487.554 485.615 489.967 485.615 489.967C485.615 489.967 487.534 488.218 488.014 485.684C488.014 485.684 486.934 484.719 486.814 484.297C486.574 483.392 487.294 482.186 486.574 480.618C485.855 479.05 485.675 476.758 485.675 476.758C485.675 476.758 484.835 476.396 484.595 477.24C484.415 478.145 484.895 479.411 484.715 479.773C484.655 479.834 484.655 479.894 484.595 479.954C484.415 480.196 484.116 480.316 483.876 480.316H483.816C482.796 480.196 481.237 478.567 480.577 477.783C479.678 476.697 478.358 475.25 477.939 476.094C477.519 476.878 478.598 476.999 480.157 479.773L479.918 480.015C480.038 480.196 478.178 479.05 476.799 477.662C475.84 476.697 475.48 477.662 475.66 478.145C475.78 478.627 476.919 479.411 477.579 480.135C478.058 480.618 478.538 481.04 478.838 481.342L478.598 481.764C476.019 480.859 475.72 479.834 475.12 480.316C474.52 480.799 476.019 482.126 476.859 482.367C477.219 482.488 477.759 482.91 478.358 483.332C476.259 483.03 475.84 482.307 475.42 482.789C475 483.332 476.439 484.176 477.159 484.237Z" fill="#F7A491"/>
<path d="M484.056 483.091C483.576 481.824 484.415 480.256 484.535 480.075C484.355 480.316 484.056 480.437 483.816 480.437C483.096 482.066 484.056 483.091 484.056 483.091Z" fill="#F7A491"/>
<path d="M512.722 466.866L498.269 493.465C498.269 493.465 497.609 491.957 496.889 492.561C496.17 493.164 487.054 484.418 487.054 484.418C487.054 484.418 487.774 489.726 482.556 491.475C482.556 491.475 494.551 502.151 498.509 504.684C502.467 507.217 515.78 484.72 515.78 484.72L512.722 466.866Z" fill="#599DF9"/>
<path d="M489.993 613.854C489.993 614.517 490.053 615 490.053 615H508.944C508.944 614.638 508.944 614.276 508.944 613.854C508.704 608.908 507.144 604.565 507.144 604.565L502.407 602.515C501.987 604.988 500.967 606.495 499.648 607.521C499.288 607.822 498.928 608.003 498.569 608.245C498.389 608.365 498.209 608.426 498.029 608.486C497.609 608.667 497.249 608.787 496.829 608.908C495.15 609.391 493.471 609.511 492.332 609.692C490.293 610.114 489.993 612.467 489.993 613.854Z" fill="#0C4983"/>
<path d="M489.993 613.854C489.993 614.517 490.053 614.999 490.053 614.999H508.944C508.944 614.638 508.944 614.276 508.944 613.854H489.993Z" fill="#01315F"/>
<path d="M498.569 608.305L501.207 609.149L501.747 608.184L499.648 607.581C499.288 607.883 498.928 608.124 498.569 608.305Z" fill="#01315F"/>
<path d="M496.829 609.029L498.569 610.235L499.648 609.813L498.029 608.606C497.669 608.727 497.249 608.908 496.829 609.029Z" fill="#01315F"/>
<path d="M523.517 613.855C523.577 614.518 523.757 615.001 523.757 615.001H536.351C536.53 614.639 536.65 614.277 536.71 613.855C537.97 607.823 529.574 600.404 529.574 600.404L526.935 603.963C526.935 603.963 527.235 609.633 525.016 610.839C523.577 611.563 523.397 612.95 523.517 613.855Z" fill="#0C4983"/>
<path d="M536.59 613.854H523.517C523.577 614.518 523.756 615 523.756 615H536.35C536.41 614.639 536.53 614.277 536.59 613.854Z" fill="#01315F"/>
<path d="M525.496 610.417C525.496 610.417 530.773 609.211 533.232 610.779V609.874C533.172 609.874 528.734 607.703 525.496 610.417Z" fill="#01315F"/>
<path d="M526.515 609.09C526.515 609.09 529.874 607.522 533.172 609.09L532.812 608.185C532.812 608.185 528.914 606.677 526.515 609.09Z" fill="#01315F"/>
<path d="M544.446 516.144C544.446 528.146 543.247 540.39 542.947 543.527C542.647 546.603 539.469 581.344 538.989 594.734C538.749 601.61 536.59 609.934 536.59 609.934C536.59 609.934 530.053 604.626 526.395 608.547L525.496 603.179L527.235 598.956C527.235 598.956 525.376 595.458 526.875 592.744C528.374 590.03 528.854 532.006 528.854 532.006L525.915 531.826L512.002 598.956V602.756C512.002 602.756 508.944 607.642 508.944 610.718L499.648 607.521L501.147 603.118L500.188 596.906L503.546 588.703C503.546 588.703 513.202 524.527 512.422 517.35L544.446 516.144Z" fill="#FE2B1E"/>
<path d="M544.387 519.159C544.387 519.159 539.349 526.276 524.596 523.924C516.2 522.597 512.422 518.496 512.422 518.496C512.422 518.496 509.723 470.786 512.722 466.866C514.881 464.031 519.079 462.825 524.596 462.583C526.695 462.463 528.914 462.523 531.373 462.583C533.172 462.644 534.851 462.945 536.41 463.367C542.587 465.117 546.905 469.158 547.565 472.354C548.405 476.396 544.387 519.159 544.387 519.159Z" fill="white"/>
<path d="M532.092 462.644C532.092 462.644 534.731 464.212 534.671 466.625C534.671 466.625 535.571 461.136 533.472 460.292C531.373 459.508 532.092 462.644 532.092 462.644Z" fill="#0C4983"/>
<path d="M545.466 524.467C545.466 524.467 539.109 528.749 531.253 527.482C531.253 527.482 528.614 477.421 529.334 472.716C529.334 472.716 531.853 469.942 533.952 468.313C535.811 466.926 536.35 464.091 536.41 463.367C542.587 465.116 547.085 466.504 547.745 469.7C548.525 473.741 545.466 524.467 545.466 524.467Z" fill="#599DF9"/>
<path d="M524.596 462.583C523.757 463.91 522.197 466.926 521.717 471.268C521.418 474.224 516.44 525.311 516.44 525.311C511.942 525.311 510.923 522.717 510.923 522.717C510.923 522.717 509.723 470.726 512.662 466.865C514.881 464.091 519.079 462.885 524.596 462.583Z" fill="#599DF9"/>
<path d="M533.472 460.352C533.472 460.352 537.85 460.412 538.929 464.936C540.009 469.459 534.311 472.957 534.311 472.957C534.311 472.957 533.352 470.545 532.092 470.545C530.833 470.545 529.274 472.716 529.274 472.716C529.274 472.716 530.473 470.002 532.272 468.615C534.071 467.167 535.811 463.307 533.472 460.352Z" fill="#599DF9"/>
<path d="M525.316 460.231C525.316 460.231 519.439 462.162 517.639 469.339C517.639 469.339 518.779 467.047 519.858 467.711C520.878 468.374 521.717 471.269 521.717 471.269C521.717 471.269 522.737 464.273 526.095 462.523L525.316 460.231Z" fill="#599DF9"/>
<path d="M547.205 468.253C542.947 470.485 541.448 479.833 541.928 483.573L547.925 501.969C547.925 501.969 548.105 504.08 548.824 504.382L546.725 536.047C547.325 534.841 553.502 535.806 554.402 538.46C554.402 538.46 558.6 507.88 558 499.496C557.82 497.868 547.205 468.253 547.205 468.253Z" fill="#599DF9"/>
<path d="M524.896 458.482L526.875 466.263C526.875 466.263 529.094 467.288 533.772 464.152C533.772 464.152 531.253 458.241 533.472 454.019C533.472 454.019 532.932 454.079 532.033 454.139C532.033 454.139 531.193 458.783 524.896 458.482Z" fill="#F7A491"/>
<path d="M534.791 450.159C534.911 459.327 525.136 460.533 522.857 457.156C522.137 456.07 521.478 454.079 521.058 451.908C520.938 451.426 520.878 450.943 520.818 450.4C520.398 447.023 520.698 443.585 522.617 442.68C529.094 439.543 534.671 440.931 534.791 450.159Z" fill="#F7A491"/>
<path d="M520.998 444.791C520.998 444.791 522.797 442.378 528.434 442.981C528.434 442.981 529.274 446.359 531.013 447.384C532.692 448.409 533.352 451.244 533.352 451.244C533.352 451.244 533.532 449.797 534.251 449.676C534.971 449.495 534.011 454.139 534.011 454.139C534.011 454.139 536.77 453.717 536.95 445.997C537.07 439.061 531.133 440.81 531.133 440.81C531.133 440.81 529.694 437.915 523.097 439.422L523.576 439.664C523.576 439.664 520.518 440.146 519.438 442.74L519.978 442.679C519.978 442.679 519.379 444.067 520.998 444.791Z" fill="#0C4983"/>
<path d="M532.812 450.098C532.812 450.098 534.131 448.228 535.571 449.133C537.01 450.098 535.031 453.476 533.532 453.536C532.092 453.536 532.812 450.098 532.812 450.098Z" fill="#F7A491"/>
<path d="M521.118 452.511C521.118 452.511 521.897 453.596 523.936 453.415C527.355 453.053 531.433 451.425 532.632 448.65L533.052 449.796C533.052 449.796 534.131 454.199 533.652 455.647L533.352 455.526C533.352 455.526 533.472 457.336 530.893 458.723C528.254 460.11 526.455 460.11 526.455 460.11L526.815 460.472C526.815 460.472 522.677 460.774 521.597 457.879L521.538 458.542C521.597 458.602 519.918 454.923 521.118 452.511Z" fill="#0C4983"/>
<path d="M523.037 453.958C523.037 453.958 523.217 454.26 524.836 453.898C526.395 453.536 527.415 453.054 527.415 453.054C527.415 453.054 527.415 456.311 525.016 456.492C522.977 456.733 523.037 453.958 523.037 453.958Z" fill="#F7A491"/>
<circle cx="517" cy="327" r="39" fill="#CDE1FD"/>
<circle cx="118.5" cy="468.5" r="39.5" fill="#CDE1FD"/>
<path d="M92.2479 470.64C92.2479 470.64 93.497 470.665 94.1141 470.739C101.609 470.889 108.792 470.502 115.664 469.578C118.329 469.274 120.887 468.831 123.459 468.266C127.832 467.292 131.974 466.166 135.899 464.764C139.742 456.734 142.035 450.142 142.035 450.142C142.035 450.142 120.303 451.78 102.542 457.89C95.157 460.442 87.9549 465.806 87.9549 465.806L92.2479 470.64Z" fill="white"/>
<path d="M92.2479 470.64L93.016 478.848L93.1394 478.863C100.14 478.954 107.585 478.473 115.582 477.56C122.178 476.853 129.079 475.683 136.119 474.405C136.119 474.405 136.119 474.405 136.243 474.419L135.898 464.764C129.106 466.071 122.328 467.256 115.826 468.224C115.564 468.318 115.441 468.303 115.194 468.273C107.937 469.276 100.956 470.061 94.1436 470.493C93.5117 470.542 92.8798 470.591 92.2479 470.64Z" fill="#2C5AA7"/>
<path d="M148.147 477.471L135.901 471.007C131.107 471.306 126.304 472.727 119.936 475.709C130.987 480.656 144.377 484.885 148.147 477.471Z" fill="#2C5AA7"/>
<path d="M119.692 476.748C119.362 476.708 118.886 476.484 118.761 476.135C118.49 475.602 118.734 474.963 119.269 474.694C127.967 470.562 129.101 470.301 135.549 469.572C136.064 469.467 136.685 469.875 136.771 470.553C136.857 471.231 136.468 471.685 135.788 471.771C129.689 472.375 128.555 472.636 120.207 476.643C120.041 476.623 119.857 476.768 119.692 476.748Z" fill="#EFEFEF"/>
<path d="M117.238 475.251C117.225 476.752 118.407 478.063 119.912 478.076C121.417 478.09 122.73 476.912 122.743 475.411C122.755 473.91 121.573 472.6 120.068 472.586C118.583 472.408 117.27 473.586 117.238 475.251Z" fill="#EFEFEF"/>
<path d="M433.493 668.11L265.984 668.12C249.507 668.12 236.025 654.643 236.025 638.166L236 269.969C236 253.492 249.477 240.01 265.954 240.01L433.463 240C449.94 240 463.422 253.477 463.422 269.954L463.447 638.146C463.447 654.628 449.97 668.11 433.493 668.11Z" fill="#0C4983"/>
<path d="M452.15 272.789L452.175 632.45C452.175 644.652 442.264 654.633 430.157 654.633L269.315 654.643C257.208 654.643 247.297 644.662 247.297 632.46L247.272 272.804C247.272 260.603 257.178 250.621 269.285 250.621L430.127 250.611C442.239 250.611 452.15 260.593 452.15 272.789Z" fill="#FEFEFE"/>
<path d="M383.326 263.989L316.101 263.994C310.626 263.994 306.145 259.513 306.145 254.037V252.472C306.145 246.996 310.626 242.516 316.101 242.516L383.321 242.511C388.797 242.511 393.277 246.991 393.277 252.467V254.032C393.282 259.508 388.802 263.989 383.326 263.989Z" fill="#0C4983"/>
<path d="M512.256 344.759L484.475 338.597C483.814 338.435 483.402 337.758 483.564 337.097L491.99 302.786C492.152 302.124 492.829 301.712 493.491 301.874L521.757 309.08L512.256 344.759Z" fill="#0C4983"/>
<path d="M511.874 344.582L539.17 352.627C539.831 352.803 540.508 352.421 540.684 351.759L549.905 317.654C550.082 316.993 549.7 316.316 549.038 316.14L520.801 308.757L511.874 344.582Z" fill="#0C4983"/>
<path opacity="0.7" d="M512.212 343.862L511.55 343.318C508.33 340.612 504.403 338.847 500.226 338.244L483.872 338.038L494.388 302.095L510.756 302.286C514.933 302.889 518.845 304.654 522.08 307.36L522.742 307.904L512.212 343.862Z" fill="white"/>
<path d="M512.212 343.862L511.55 343.317C508.33 340.611 504.403 338.847 500.226 338.244L485.475 337.582L496.005 301.624L510.756 302.286C514.933 302.889 518.845 304.654 522.08 307.36L522.742 307.904L512.212 343.862Z" fill="white"/>
<path d="M512.153 343.833L513.006 343.715C517.183 343.171 521.433 343.803 525.272 345.539L538.052 352.936L548.876 315.375L536.405 309.449C532.566 307.713 527.684 307.213 523.507 307.757L522.654 307.875L512.153 343.833Z" fill="white"/>
<g opacity="0.2">
<path d="M498.329 305.624L509.448 307.095C512.624 307.727 515.698 308.918 518.33 310.551L518.86 310.889" stroke="#599DF9" stroke-width="2" stroke-miterlimit="10"/>
<path d="M497.565 307.683L508.683 309.153C511.86 309.786 514.933 310.977 517.566 312.609L518.095 312.948" stroke="#599DF9" stroke-width="2" stroke-miterlimit="10"/>
<path d="M496.815 309.757L507.933 311.228C511.11 311.86 514.183 313.051 516.816 314.684L517.345 315.022" stroke="#599DF9" stroke-width="2" stroke-miterlimit="10"/>
<path d="M496.02 313.536L507.139 315.007C510.315 315.639 513.389 316.83 516.021 318.463L516.551 318.801" stroke="#599DF9" stroke-width="2" stroke-miterlimit="10"/>
<path d="M495.256 315.595L506.374 317.065C509.55 317.698 512.624 318.889 515.257 320.521L515.786 320.86" stroke="#599DF9" stroke-width="2" stroke-miterlimit="10"/>
<path d="M494.506 317.669L505.624 319.14C508.8 319.772 511.874 320.963 514.507 322.596L515.036 322.934" stroke="#599DF9" stroke-width="2" stroke-miterlimit="10"/>
<path d="M493.638 321.963L504.756 323.434C507.933 324.066 511.007 325.257 513.639 326.89L514.169 327.228" stroke="#599DF9" stroke-width="2" stroke-miterlimit="10"/>
<path d="M492.888 324.036L504.006 325.507C507.227 326.139 511.183 327.919 512.889 328.963L513.418 329.301" stroke="#599DF9" stroke-width="2" stroke-miterlimit="10"/>
<path d="M492.123 326.11L503.241 327.581C506.521 328.228 511.359 330.566 512.124 331.037L512.654 331.375" stroke="#599DF9" stroke-width="2" stroke-miterlimit="10"/>
<path d="M491.226 329.316L502.344 330.787C505.521 331.419 508.595 332.611 511.227 334.243L511.757 334.581" stroke="#599DF9" stroke-width="2" stroke-miterlimit="10"/>
<path d="M490.726 331.479L501.844 332.949C505.021 333.582 508.095 334.773 510.727 336.405L511.257 336.744" stroke="#599DF9" stroke-width="2" stroke-miterlimit="10"/>
<path d="M490.211 333.641L501.329 335.111C504.506 335.744 507.58 336.935 510.212 338.567L510.742 338.906" stroke="#599DF9" stroke-width="2" stroke-miterlimit="10"/>
</g>
<g opacity="0.2">
<path d="M524.213 312.345C524.213 312.345 528.889 312.198 531.566 312.61C535.625 313.257 541.669 315.933 544.302 317.566L544.831 317.904" stroke="#599DF9" stroke-width="2" stroke-miterlimit="10"/>
<path d="M523.683 314.728C523.683 314.728 530.007 314.757 532.742 315.433C536.301 316.316 540.919 318.007 543.552 319.64L544.081 319.978" stroke="#599DF9" stroke-width="2" stroke-miterlimit="10"/>
<path d="M523.139 317.095C523.139 317.095 531.125 317.271 533.904 318.242C536.963 319.301 540.155 320.065 542.787 321.698L543.317 322.036" stroke="#599DF9" stroke-width="2" stroke-miterlimit="10"/>
<path d="M521.992 320.551L533.11 322.021C536.287 322.654 539.361 323.845 541.993 325.478L542.523 325.816" stroke="#599DF9" stroke-width="2" stroke-miterlimit="10"/>
<path d="M521.242 322.625L532.36 324.096C535.537 324.728 538.611 325.919 541.243 327.552L541.773 327.89" stroke="#599DF9" stroke-width="2" stroke-miterlimit="10"/>
<path d="M520.477 324.684L531.595 326.154C534.772 326.787 537.846 327.978 540.478 329.61L541.008 329.949" stroke="#599DF9" stroke-width="2" stroke-miterlimit="10"/>
<path d="M519.624 328.993L530.742 330.464C533.919 331.096 536.993 332.287 539.625 333.92L540.155 334.258" stroke="#599DF9" stroke-width="2" stroke-miterlimit="10"/>
<path d="M518.859 331.066L529.978 332.537C533.199 333.169 537.155 334.949 538.861 335.993L539.39 336.331" stroke="#599DF9" stroke-width="2" stroke-miterlimit="10"/>
<path d="M518.109 333.126L529.228 334.597C532.507 335.244 537.346 337.582 538.111 338.053L538.64 338.391" stroke="#599DF9" stroke-width="2" stroke-miterlimit="10"/>
<path d="M517.212 336.346L528.33 337.816C531.507 338.449 534.581 339.64 537.213 341.272L537.743 341.611" stroke="#599DF9" stroke-width="2" stroke-miterlimit="10"/>
<path d="M516.698 338.508L527.816 339.978C530.992 340.611 534.066 341.802 536.699 343.435L537.228 343.773" stroke="#599DF9" stroke-width="2" stroke-miterlimit="10"/>
<path d="M516.197 340.67L527.316 342.141C530.492 342.773 533.566 343.964 536.198 345.597L536.728 345.935" stroke="#599DF9" stroke-width="2" stroke-miterlimit="10"/>
</g>
<path d="M16 275.372C16 287.393 20.0069 298.452 26.5781 307.427C28.9823 310.633 31.7069 313.518 34.7521 316.082C37.4768 318.486 40.3618 320.409 43.5672 322.172C51.2604 326.34 60.0755 328.744 69.3715 328.744C77.2249 328.744 84.7578 326.981 91.4893 323.935C92.1304 323.615 92.7716 323.294 93.4127 322.974C97.2593 321.05 100.785 318.807 103.831 316.082C108.639 312.075 112.646 307.267 115.851 301.818C120.339 293.964 122.903 284.989 122.903 275.372C122.903 245.882 99.0222 222.001 69.5317 222.001C39.8809 221.841 16 245.882 16 275.372Z" fill="#CDE1FD"/>
<path d="M43.94 294.522C44.4575 292.846 46.0073 291.702 47.762 291.702H65.5899C67.1939 291.702 68.7492 292.253 69.9956 293.263L74.7622 297.123H43.1372L43.94 294.522Z" fill="white"/>
<path d="M57.43 293.917C57.6882 293.078 58.4636 292.505 59.3416 292.505H65.8842C67.2625 292.505 68.5988 292.979 69.6684 293.849L72.7088 296.32H56.6909L57.43 293.917Z" fill="#01315F"/>
<path d="M44.8915 294.623C45.2788 293.364 46.4418 292.505 47.7589 292.505H54.3447C55.016 292.505 55.4966 293.153 55.3015 293.796L54.5347 296.32H44.3696L44.8915 294.623Z" fill="#01315F"/>
<path d="M64.2534 289.025L68.5865 288.895L77.8769 288.617L77.8503 259.56L77.845 254.073L64.2534 289.025Z" fill="white"/>
<path d="M78.2568 283.322L96.5667 283.525L102.164 283.587L98.7452 276.858L91.8484 263.299L78.5942 237.232L78.5703 240.553L78.4455 257.578L78.3764 267.162L78.2568 283.322Z" fill="white"/>
<path d="M78.0757 257.578C78.3998 260.997 78.2199 264.538 78.3766 267.162C78.5227 269.644 78.3766 271.307 78.3766 271.307C78.3766 271.307 83.3712 270.761 89.8561 272.751C92.5925 273.59 95.6317 274.881 98.7454 276.859L91.8486 263.299C88.5118 260.748 84.1257 258.168 79.6731 257.664C79.2639 257.617 78.8548 257.589 78.4457 257.578C78.1827 257.57 78.3387 257.568 78.0757 257.578Z" fill="#599DF9"/>
<path d="M77.7413 298.293C77.7413 298.51 77.9183 298.685 78.1636 298.685C78.4089 298.685 78.5859 298.51 78.5859 298.293V236.24C78.5859 236.023 78.4089 235.848 78.1636 235.848C77.9183 235.848 77.7413 236.023 77.7413 236.24V298.293Z" fill="#0C4983"/>
<path d="M77.8742 283.763C77.8742 283.958 78.0363 284.117 78.2355 284.117H103.562C103.761 284.117 103.923 283.958 103.923 283.763C103.923 283.569 103.761 283.41 103.562 283.41H78.2382C78.0363 283.41 77.8742 283.569 77.8742 283.763Z" fill="#0C4983"/>
<path d="M63.9029 289.082C63.8285 289.274 63.9294 289.484 64.126 289.557C64.3226 289.627 64.5405 289.531 64.6149 289.339L78.3593 252.601C78.4337 252.409 78.3327 252.198 78.1361 252.125C77.9395 252.055 77.7217 252.151 77.6473 252.344L63.9029 289.082Z" fill="#0C4983"/>
<path d="M103.187 283.629L103.357 283.546L78.3735 236.151L78.2035 236.237L103.187 283.629Z" fill="#0C4983"/>
<path d="M38.0032 297.123H96.7354V297.123C92.8971 303.127 86.2626 306.76 79.1364 306.76H48.7967C44.4443 306.76 40.1968 305.424 36.6284 302.932V302.932C35.6806 302.27 35.4358 300.972 36.0773 300.01L38.0032 297.123Z" fill="#0C4983"/>
<path opacity="0.1" d="M84.2086 301.741C92.2175 301.431 96.7354 297.123 96.7354 297.123V297.123C92.8971 303.127 86.2626 306.76 79.1364 306.76H50.877C45.1705 306.76 39.6015 305.008 34.9229 301.741V301.741C34.9229 301.741 66.0345 302.444 84.2086 301.741Z" fill="#01315F"/>
<rect x="269" y="290" width="71" height="71" rx="12" fill="#CDE1FD"/>
<path d="M303.354 309.362C299.577 309.572 296.142 311.067 293.48 313.416L303.354 323.291V309.362Z" fill="#4180F8"/>
<path d="M292.038 314.859C289.688 317.521 288.193 320.955 287.984 324.733H301.912L292.038 314.859Z" fill="#4180F8"/>
<path d="M287.996 326.772C288.251 330.521 289.771 333.922 292.134 336.551L301.913 326.772H287.996Z" fill="#4180F8"/>
<path d="M293.589 337.981C296.235 340.276 299.628 341.733 303.354 341.939V328.215L293.589 337.981Z" fill="#4180F8"/>
<path d="M305.394 341.927C309.091 341.676 312.45 340.193 315.064 337.885L305.394 328.215V341.927Z" fill="#4180F8"/>
<path d="M316.506 336.443C318.814 333.829 320.297 330.47 320.548 326.772H306.836L316.506 336.443Z" fill="#4180F8"/>
<path d="M320.561 324.733C320.354 321.007 318.897 317.614 316.602 314.967L306.836 324.733H320.561Z" fill="#4180F8"/>
<path d="M315.173 313.512L305.394 323.291V309.375C309.142 309.629 312.543 311.15 315.173 313.512Z" fill="#4180F8"/>
<circle cx="304.272" cy="325.651" r="12.5004" fill="#CDE1FD"/>
<path fill-rule="evenodd" clip-rule="evenodd" d="M304.36 302.923C304.923 302.923 305.38 303.379 305.38 303.943V307.41C305.38 307.973 304.923 308.43 304.36 308.43C303.797 308.43 303.34 307.973 303.34 307.41V303.943C303.34 303.379 303.797 302.923 304.36 302.923Z" fill="#4180F8"/>
<path fill-rule="evenodd" clip-rule="evenodd" d="M304.564 342.493C305.127 342.493 305.584 342.95 305.584 343.513V346.98C305.584 347.544 305.127 348 304.564 348C304.001 348 303.544 347.544 303.544 346.98V343.513C303.544 342.95 304.001 342.493 304.564 342.493Z" fill="#4180F8"/>
<path fill-rule="evenodd" clip-rule="evenodd" d="M320.328 309.452C320.726 309.85 320.726 310.496 320.328 310.894L317.876 313.346C317.478 313.744 316.832 313.744 316.434 313.346C316.035 312.947 316.035 312.302 316.434 311.903L318.885 309.452C319.284 309.053 319.929 309.053 320.328 309.452Z" fill="#4180F8"/>
<path fill-rule="evenodd" clip-rule="evenodd" d="M292.491 337.577C292.89 337.975 292.89 338.621 292.491 339.019L290.04 341.471C289.641 341.869 288.996 341.869 288.597 341.471C288.199 341.072 288.199 340.427 288.597 340.028L291.049 337.577C291.447 337.178 292.093 337.178 292.491 337.577Z" fill="#4180F8"/>
<path fill-rule="evenodd" clip-rule="evenodd" d="M288.453 309.596C288.851 309.198 289.497 309.198 289.895 309.596L292.347 312.048C292.745 312.446 292.745 313.092 292.347 313.49C291.949 313.889 291.303 313.889 290.905 313.49L288.453 311.039C288.055 310.64 288.055 309.995 288.453 309.596Z" fill="#4180F8"/>
<path fill-rule="evenodd" clip-rule="evenodd" d="M316.578 337.431C316.976 337.033 317.622 337.033 318.02 337.431L320.472 339.883C320.87 340.281 320.87 340.927 320.472 341.325C320.074 341.724 319.428 341.724 319.03 341.325L316.578 338.873C316.179 338.475 316.179 337.829 316.578 337.431Z" fill="#4180F8"/>
<path fill-rule="evenodd" clip-rule="evenodd" d="M327 325.36C327 325.923 326.543 326.38 325.98 326.38L322.513 326.38C321.949 326.38 321.493 325.923 321.493 325.36C321.493 324.796 321.949 324.34 322.513 324.34L325.98 324.34C326.543 324.34 327 324.796 327 325.36Z" fill="#4180F8"/>
<path fill-rule="evenodd" clip-rule="evenodd" d="M287.43 325.564C287.43 326.127 286.973 326.584 286.41 326.584L282.943 326.584C282.379 326.584 281.923 326.127 281.923 325.564C281.923 325.001 282.379 324.544 282.943 324.544L286.41 324.544C286.973 324.544 287.43 325.001 287.43 325.564Z" fill="#4180F8"/>
<path fill-rule="evenodd" clip-rule="evenodd" d="M304.651 327.04C306.464 327.04 307.934 325.57 307.934 323.757C307.934 321.944 306.464 320.474 304.651 320.474C302.838 320.474 301.368 321.944 301.368 323.757C301.368 325.57 302.838 327.04 304.651 327.04ZM304.651 329.061C307.58 329.061 309.954 326.686 309.954 323.757C309.954 320.828 307.58 318.454 304.651 318.454C301.722 318.454 299.348 320.828 299.348 323.757C299.348 326.686 301.722 329.061 304.651 329.061Z" fill="#4180F8"/>
<path d="M298.159 332.71C300.132 331.312 302.372 330.575 304.651 330.575C306.93 330.575 309.169 331.312 311.143 332.71C311.289 332.813 311.433 332.92 311.575 333.03C311.956 333.325 312.019 333.867 311.743 334.262C311.422 334.722 310.768 334.794 310.311 334.47C308.59 333.251 306.638 332.609 304.651 332.609C302.664 332.609 300.712 333.251 298.991 334.47C298.534 334.794 297.88 334.722 297.559 334.262C297.283 333.867 297.346 333.325 297.727 333.03C297.869 332.92 298.013 332.813 298.159 332.71Z" fill="#4180F8"/>
<rect x="269" y="380" width="71" height="71" rx="12" fill="#0C4983"/>
<path fill-rule="evenodd" clip-rule="evenodd" d="M304.429 435.805C315.583 435.805 324.625 426.763 324.625 415.609C324.625 404.455 315.583 395.413 304.429 395.413C293.275 395.413 284.233 404.455 284.233 415.609C284.233 426.763 293.275 435.805 304.429 435.805Z" fill="white"/>
<path d="M309.878 417.36V413.876C309.878 413.267 310.417 412.8 311.019 412.886L324.028 414.744C325.183 414.909 325.169 416.582 324.011 416.726L311.002 418.352C310.405 418.427 309.878 417.962 309.878 417.36Z" fill="#0C4983"/>
<path d="M302.676 421.057L306.161 421.057C306.769 421.057 307.237 421.596 307.15 422.198L305.292 435.207C305.127 436.362 303.455 436.347 303.31 435.19L301.684 422.181C301.609 421.584 302.074 421.057 302.676 421.057Z" fill="#0C4983"/>
<path d="M302.676 410.543L306.161 410.543C306.769 410.543 307.237 410.004 307.15 409.402L305.292 396.393C305.127 395.238 303.455 395.252 303.31 396.41L301.684 409.419C301.609 410.016 302.074 410.543 302.676 410.543Z" fill="#0C4983"/>
<path d="M298.722 417.36V413.876C298.722 413.267 298.183 412.8 297.581 412.886L284.572 414.744C283.417 414.909 283.432 416.582 284.589 416.726L297.598 418.352C298.195 418.427 298.722 417.962 298.722 417.36Z" fill="#0C4983"/>
<path d="M309.232 411.875L308.13 410.773C307.699 410.343 307.75 409.63 308.238 409.266L312.9 405.779C313.833 405.081 315.003 406.272 314.289 407.193L310.729 411.781C310.36 412.257 309.657 412.301 309.232 411.875Z" fill="#0C4983"/>
<path d="M308.115 420.41L309.217 419.309C309.648 418.878 310.36 418.929 310.725 419.417L314.211 424.078C314.909 425.011 313.718 426.182 312.797 425.467L308.209 421.908C307.734 421.539 307.689 420.836 308.115 420.41Z" fill="#0C4983"/>
<path d="M299.581 411.875L300.682 410.773C301.113 410.343 301.062 409.63 300.574 409.266L295.913 405.779C294.98 405.081 293.809 406.272 294.524 407.193L298.083 411.781C298.452 412.257 299.155 412.301 299.581 411.875Z" fill="#0C4983"/>
<path d="M300.696 420.41L299.595 419.309C299.164 418.878 298.451 418.929 298.087 419.417L294.6 424.078C293.902 425.011 295.093 426.182 296.014 425.467L300.602 421.908C301.078 421.539 301.122 420.836 300.696 420.41Z" fill="#0C4983"/>
<path d="M319.778 415.608C319.778 424.085 312.906 430.957 304.429 430.957C295.952 430.957 289.08 424.085 289.08 415.608C289.08 407.131 295.952 400.259 304.429 400.259C312.906 400.259 319.778 407.131 319.778 415.608Z" stroke="#0C4983" stroke-width="2"/>
<path d="M309.661 415.608C309.661 418.498 307.319 420.84 304.429 420.84C301.54 420.84 299.197 418.498 299.197 415.608C299.197 412.718 301.54 410.376 304.429 410.376C307.319 410.376 309.661 412.718 309.661 415.608Z" stroke="#0C4983" stroke-width="3"/>
<rect x="269" y="469" width="70.0139" height="71" rx="12" fill="#CDE1FD"/>
<path d="M290.23 515.155L297.062 492.509C297.396 491.574 298.885 491.682 298.863 492.696L297.356 514.313C297.318 514.806 296.93 515.308 296.464 515.474L291.865 516.761C290.912 517.102 289.969 516.133 290.23 515.155Z" fill="white"/>
<path d="M301.374 512.439L301.385 484.165C301.386 483.032 302.771 482.489 303.536 483.323L324.277 505.924C324.906 506.61 324.587 507.722 323.691 507.967L302.939 513.64C302.151 513.855 301.374 513.259 301.374 512.439Z" fill="#599DF9"/>
<path d="M286.306 522.475L316.758 512.43C317.871 512.125 318.572 513.254 317.826 514.175C317.748 514.271 317.65 514.349 317.548 514.418L296.905 528.579C296.567 528.789 296.151 528.827 295.781 528.682L286.306 524.987C285.197 524.55 285.165 522.819 286.306 522.475Z" fill="#0C4983"/>
<rect x="269" y="559" width="71" height="71" rx="12" fill="#599DF9"/>
<rect x="359" y="290" width="71" height="71" rx="12" fill="#599DF9"/>
<rect x="359" y="380" width="71" height="71" rx="12" fill="#CDE1FD"/>
<path d="M379.032 404.197C379.032 404.197 379.719 403.206 380.245 402.583C380.771 401.961 381.727 401.009 381.727 401.009C381.727 401.009 383.075 407.179 384.085 413.916C385.096 420.653 381.727 429.045 381.727 429.045C381.727 429.045 380.771 428.114 380.245 427.509C379.719 426.904 379.032 425.946 379.032 425.946C379.032 425.946 375.664 421.109 375.664 415.046C375.664 408.983 379.032 404.197 379.032 404.197Z" fill="#0C4983"/>
<path d="M383.074 399.887C403.339 405.888 400.976 426.283 395.874 434.246C412.708 433.161 416.673 417.896 412.701 407.965C408.356 397.104 394.527 391.467 383.074 399.887Z" fill="#0C4983"/>
<rect x="359" y="469" width="71" height="71" rx="12" fill="#0C4983"/>
<path d="M382.787 529.513L382.806 482.883C382.806 482.883 393.542 488.142 402.745 499.536C411.948 510.93 417.144 520.157 417.144 520.157L382.787 529.513Z" fill="#599DF9"/>
<path d="M390.912 519.695C398.353 518.074 392.665 528.898 382.586 526.269C382.148 528.138 382.148 530.213 382.148 530.213L420.275 520.133C419.544 517.942 415.805 513.56 413.701 510.054C412.386 513.998 404.06 506.548 402.745 513.998C408.004 512.683 406.922 519.058 400.115 516.627C393.98 514.436 390.912 515.751 390.912 519.695Z" fill="#0C4983"/>
<rect x="359" y="559" width="71" height="71" rx="12" fill="#CDE1FD"/>
<path d="M393.641 578.604C393.593 577.908 392.988 577.379 392.298 577.479C389.355 577.907 386.658 579.093 384.413 580.832C383.862 581.259 383.823 582.061 384.29 582.579C384.757 583.097 385.552 583.134 386.109 582.714C386.21 582.638 386.312 582.563 386.414 582.49C387.201 581.929 388.267 582.306 388.646 583.195L390.418 587.357C391.139 589.051 389.434 590.763 387.737 590.047L383.351 588.198C382.608 587.885 382.284 587 382.726 586.326C382.749 586.292 382.771 586.258 382.794 586.224C383.181 585.644 383.099 584.852 382.556 584.416C382.012 583.979 381.213 584.063 380.818 584.638C379.267 586.896 378.25 589.551 377.951 592.419C377.879 593.112 378.432 593.695 379.129 593.716C379.826 593.737 380.402 593.187 380.483 592.495C380.501 592.342 380.522 592.19 380.544 592.039C380.697 591.021 381.791 590.504 382.739 590.904L386.994 592.698C388.672 593.406 388.662 595.787 386.978 596.48L382.534 598.309C381.791 598.615 380.938 598.233 380.756 597.45C380.746 597.407 380.736 597.363 380.726 597.32C380.575 596.639 379.947 596.15 379.255 596.241C378.564 596.332 378.072 596.967 378.214 597.65C378.763 600.281 379.923 602.687 381.538 604.711C381.973 605.256 382.776 605.284 383.287 604.81C383.798 604.336 383.823 603.54 383.396 602.989C383.346 602.925 383.297 602.86 383.248 602.795C382.701 602.066 383.049 601.051 383.892 600.704L387.777 599.105C389.463 598.411 391.147 600.099 390.45 601.783L388.838 605.678C388.538 606.401 387.683 606.722 387.023 606.3C387 606.285 386.976 606.27 386.953 606.255C386.368 605.876 385.577 605.969 385.148 606.519C384.72 607.069 384.816 607.867 385.396 608.253C387.429 609.607 389.773 610.533 392.298 610.9C392.988 611 393.593 610.471 393.641 609.775C393.69 609.079 393.164 608.482 392.475 608.373C392.434 608.366 392.392 608.359 392.351 608.352C391.531 608.215 391.107 607.336 391.425 606.568L393.095 602.535C393.789 600.857 396.161 600.845 396.872 602.516L398.501 606.341C398.849 607.158 398.42 608.106 397.548 608.278C397.467 608.294 397.385 608.309 397.304 608.324C396.618 608.447 396.104 609.055 396.166 609.75C396.229 610.444 396.844 610.961 397.532 610.847C400.011 610.435 402.308 609.483 404.297 608.117C404.872 607.722 404.956 606.923 404.52 606.38L404.472 606.32C404.062 605.809 403.32 605.731 402.777 606.098C402.196 606.49 401.419 606.221 401.144 605.576L399.54 601.808C398.818 600.114 400.524 598.403 402.22 599.118L405.721 600.594C406.54 600.939 406.88 601.927 406.355 602.646C406.311 602.706 406.267 602.766 406.221 602.826C405.802 603.383 405.838 604.178 406.356 604.645C406.874 605.112 407.676 605.073 408.104 604.522C409.641 602.537 410.747 600.199 411.278 597.65C411.42 596.967 410.928 596.332 410.237 596.241C409.545 596.15 408.917 596.639 408.766 597.32C408.762 597.338 408.758 597.357 408.753 597.376C408.584 598.125 407.766 598.492 407.057 598.193L403.159 596.55C401.481 595.842 401.491 593.461 403.175 592.768L407.021 591.185C407.875 590.833 408.851 591.316 408.975 592.232C408.987 592.319 408.998 592.407 409.009 592.495C409.09 593.187 409.666 593.737 410.363 593.716C411.06 593.695 411.613 593.112 411.541 592.419C411.251 589.636 410.285 587.053 408.81 584.839C408.423 584.259 407.626 584.163 407.076 584.592C406.526 585.02 406.433 585.811 406.812 586.396C406.851 586.458 406.891 586.519 406.929 586.581C407.382 587.304 407.024 588.23 406.235 588.555L401.927 590.328C400.242 591.021 398.558 589.334 399.255 587.65L401.047 583.321C401.416 582.428 402.488 582.053 403.266 582.626C403.36 582.696 403.453 582.767 403.546 582.839C404.097 583.266 404.892 583.241 405.367 582.73C405.841 582.219 405.813 581.416 405.268 580.981C403.071 579.229 400.426 578.012 397.532 577.532C396.844 577.417 396.229 577.934 396.166 578.629C396.104 579.323 396.618 579.931 397.304 580.055C397.405 580.073 397.505 580.092 397.606 580.112C398.501 580.293 398.942 581.264 398.593 582.107L396.791 586.461C396.097 588.139 393.725 588.151 393.013 586.48L391.144 582.09C390.777 581.227 391.235 580.228 392.158 580.06C392.263 580.041 392.369 580.023 392.475 580.006C393.164 579.897 393.69 579.299 393.641 578.604Z" fill="#0C4983"/>
<circle cx="394.679" cy="594.201" r="4.78131" fill="#CDE1FD"/>
<circle cx="376.75" cy="603.166" r="1.79299" fill="#4180F8"/>
<circle cx="387.508" cy="612.729" r="1.79299" fill="#4180F8"/>
<circle cx="403.047" cy="612.132" r="1.79299" fill="#4180F8"/>
<circle cx="412.609" cy="603.166" r="1.79299" fill="#4180F8"/>
<circle cx="413.207" cy="587.029" r="1.79299" fill="#4180F8"/>
<circle cx="403.645" cy="576.271" r="1.79299" fill="#4180F8"/>
<circle cx="386.312" cy="576.271" r="1.79299" fill="#4180F8"/>
<circle cx="375.554" cy="587.029" r="1.79299" fill="#4180F8"/>
<path d="M384.283 310.024C377.907 316.123 377.734 326.206 383.763 332.513L383.902 332.651C383.937 332.686 384.006 332.755 384.04 332.79C384.075 332.825 384.144 332.894 384.179 332.929L395.302 344.052L406.668 332.686C412.871 326.414 412.767 316.261 406.391 310.093C400.257 304.168 390.451 304.133 384.283 310.024ZM392.981 318.86C394.367 317.474 396.584 317.474 397.97 318.86C399.356 320.246 399.356 322.464 397.97 323.85C396.584 325.236 394.367 325.236 392.981 323.85C391.595 322.464 391.595 320.246 392.981 318.86Z" fill="white"/>
<path d="M380.986 328.796C375.961 328.796 369.824 332.501 366.579 334.878C375.843 333.503 380.144 332.643 388.195 334.878C392.793 336.155 396.298 338.218 405.051 337.206C413.803 336.194 416.845 331.499 417.795 329.472C413.758 331.049 405.895 333.602 397.768 331.499C389.641 329.397 386.011 328.796 380.986 328.796Z" fill="white"/>
<path fill-rule="evenodd" clip-rule="evenodd" d="M419.821 327.64L418.862 329.703C417.801 331.987 414.503 336.997 405.329 338.067C398.015 338.92 394.165 337.654 390.562 336.469C389.718 336.192 388.888 335.919 388.03 335.679C380.602 333.599 376.496 334.219 368.24 335.466C367.734 335.543 367.213 335.622 366.674 335.702L366 334.071C367.665 332.84 370.073 331.265 372.719 329.994C375.349 328.73 378.3 327.724 381.026 327.724C386.192 327.724 389.929 328.356 398.13 330.495C406.008 332.551 413.682 330.058 417.706 328.473L419.821 327.64ZM370.435 333.298C377.201 332.305 381.507 331.963 388.52 333.926C389.446 334.186 390.317 334.471 391.183 334.755C394.74 335.922 398.223 337.064 405.118 336.26C411.075 335.565 414.229 333.108 415.867 331.081C411.415 332.57 404.654 334.078 397.671 332.256C389.529 330.131 385.965 329.544 381.026 329.544C378.7 329.544 376.039 330.417 373.505 331.634C372.431 332.15 371.395 332.721 370.435 333.298Z" fill="#599DF9"/>
<path d="M284.738 596.671V592.752L300.771 594.842L284.738 596.671Z" fill="#FEFEFE"/>
<path d="M289.115 582.812L291.826 580.101L301.405 592.571L289.115 582.812Z" fill="#FEFEFE"/>
<path d="M318.603 582.818L315.876 580.092L306.242 592.634L318.603 582.818Z" fill="#FEFEFE"/>
<path d="M301.84 575.648L305.759 575.648L303.669 591.682L301.84 575.648Z" fill="#FEFEFE"/>
<path d="M322.863 596.671V592.752L306.829 594.842L322.863 596.671Z" fill="#FEFEFE"/>
<path d="M303.8 600.554C307.224 600.554 310 597.778 310 594.354C310 590.93 307.224 588.154 303.8 588.154C300.376 588.154 297.6 590.93 297.6 594.354C297.6 597.778 300.376 600.554 303.8 600.554Z" fill="white" stroke="#599DF9" stroke-width="2"/>
<mask id="mask1" mask-type="alpha" maskUnits="userSpaceOnUse" x="282" y="594" width="43" height="22">
<path d="M325 594.355C325 606.063 315.509 615.555 303.8 615.555C292.092 615.555 282.6 606.063 282.6 594.355C287 594.355 292.092 594.354 303.8 594.354C315.509 594.354 318.2 594.354 325 594.355Z" fill="#C4C4C4"/>
</mask>
<g mask="url(#mask1)">
<path d="M322.318 606.194C308.562 603.085 296.284 608.171 291.864 611.102L305.952 616.623C317.139 614.442 336.075 609.302 322.318 606.194Z" fill="white"/>
<path d="M313.598 598.389C313.967 598.389 314.281 598.12 314.339 597.755C314.396 597.391 314.18 597.038 313.828 596.925C311.098 596.042 305.127 595.536 298.784 595.927C292.442 596.318 285.522 597.617 280.953 600.49C279.828 601.197 278.983 601.838 278.39 602.423C277.809 602.995 277.401 603.582 277.279 604.189C277.143 604.865 277.384 605.443 277.827 605.865C278.233 606.252 278.8 606.507 279.387 606.686C280.573 607.047 282.162 607.19 283.704 607.219C285.261 607.248 286.834 607.162 288.023 607.037C288.198 607.018 288.362 606.938 288.484 606.811C289.043 606.232 290.221 605.403 291.906 604.475C293.57 603.557 295.672 602.573 298.028 601.668C302.749 599.856 308.426 598.389 313.598 598.389Z" fill="white" stroke="#599DF9" stroke-width="1.5" stroke-linecap="round" stroke-linejoin="round"/>
<path d="M291.151 607.716C306.513 602.667 320.836 601.194 327.064 604.771C334.537 604.42 345.337 603.675 330.178 600.353C314.816 596.987 300.078 601.194 291.151 607.716Z" fill="white"/>
</g>
<path fill-rule="evenodd" clip-rule="evenodd" d="M303.8 612.569C313.846 612.569 321.989 604.494 321.989 594.533C321.989 584.571 313.846 576.496 303.8 576.496C293.754 576.496 285.611 584.571 285.611 594.533C285.611 604.494 293.754 612.569 303.8 612.569ZM303.8 615.554C315.509 615.554 325 606.143 325 594.533C325 582.923 315.509 573.511 303.8 573.511C292.092 573.511 282.6 582.923 282.6 594.533C282.6 606.143 292.092 615.554 303.8 615.554Z" fill="white"/>
<defs>
<linearGradient id="paint0_linear" x1="343.484" y1="608.345" x2="343.484" y2="405.971" gradientUnits="userSpaceOnUse">
<stop stop-color="#38C39D"/>
<stop offset="0.1713" stop-color="#3BBAA6"/>
<stop offset="0.4506" stop-color="#42A2BE"/>
<stop offset="0.5893" stop-color="#4693CD"/>
<stop offset="0.9266" stop-color="#236AC5"/>
<stop offset="1" stop-color="#1B61C3"/>
</linearGradient>
</defs>
</svg>
