<svg width="93" height="52" viewBox="0 0 93 52" fill="none" xmlns="http://www.w3.org/2000/svg">
<path d="M24.5262 18.5381C24.5262 20.397 23.9869 21.8207 22.9084 22.8094C21.8351 23.7981 20.2827 24.2924 18.2513 24.2924H15V13H18.6047C20.4791 13 21.9346 13.4866 22.9712 14.4598C24.0079 15.433 24.5262 16.7925 24.5262 18.5381ZM21.9974 18.5999C21.9974 16.1745 20.9084 14.9619 18.7304 14.9619H17.4346V22.3151H18.4791C20.8246 22.3151 21.9974 21.0767 21.9974 18.5999Z" fill="white"/>
<path d="M36.2513 13V20.3068C36.2513 21.141 36.0602 21.8722 35.678 22.5004C35.301 23.1287 34.7539 23.6101 34.0366 23.9448C33.3194 24.2795 32.4712 24.4469 31.4921 24.4469C30.0157 24.4469 28.8691 24.0761 28.0524 23.3346C27.2356 22.588 26.8272 21.5684 26.8272 20.2759V13H29.2539V19.9129C29.2539 20.7832 29.4319 21.4217 29.788 21.8285C30.144 22.2353 30.733 22.4386 31.555 22.4386C32.3508 22.4386 32.9267 22.2353 33.2827 21.8285C33.644 21.4165 33.8246 20.7729 33.8246 19.8975V13H36.2513Z" fill="white"/>
<path d="M43.9241 24.2924L41.1597 15.433H41.089C41.1885 17.2353 41.2382 18.4377 41.2382 19.0401V24.2924H39.0628V13H42.377L45.0942 21.6354H45.1414L48.0236 13H51.3377V24.2924H49.0681V18.9474C49.0681 18.6951 49.0707 18.4042 49.0759 18.0746C49.0864 17.7451 49.123 16.8697 49.1859 15.4485H49.1152L46.1545 24.2924H43.9241Z" fill="white"/>
<path d="M59.0969 24.2924L56.3325 15.433H56.2618C56.3613 17.2353 56.411 18.4377 56.411 19.0401V24.2924H54.2356V13H57.5497L60.267 21.6354H60.3141L63.1963 13H66.5105V24.2924H64.2408V18.9474C64.2408 18.6951 64.2435 18.4042 64.2487 18.0746C64.2592 17.7451 64.2958 16.8697 64.3586 15.4485H64.288L61.3272 24.2924H59.0969Z" fill="white"/>
<path d="M72.9817 17.6498L75.377 13H78L74.1911 19.8975V24.2924H71.7723V19.9747L67.9634 13H70.6021L72.9817 17.6498Z" fill="white"/>
<path d="M24.0471 38.8455V27.5531H26.4817V36.8682H31.1387V38.8455H24.0471Z" fill="white"/>
<path d="M43.5628 33.1839C43.5628 35.0531 43.0916 36.4897 42.1492 37.4938C41.2068 38.4979 39.856 39 38.0969 39C36.3377 39 34.9869 38.4979 34.0445 37.4938C33.1021 36.4897 32.6309 35.0479 32.6309 33.1684C32.6309 31.2889 33.1021 29.8549 34.0445 28.8662C34.9921 27.8724 36.3482 27.3755 38.1126 27.3755C39.877 27.3755 41.2251 27.875 42.1571 28.8739C43.0942 29.8729 43.5628 31.3095 43.5628 33.1839ZM35.1832 33.1839C35.1832 34.4455 35.4267 35.3955 35.9136 36.034C36.4005 36.6725 37.1283 36.9918 38.0969 36.9918C40.0393 36.9918 41.0105 35.7225 41.0105 33.1839C41.0105 30.6401 40.0445 29.3683 38.1126 29.3683C37.144 29.3683 36.4136 29.6901 35.9215 30.3337C35.4293 30.9723 35.1832 31.9223 35.1832 33.1839Z" fill="white"/>
<path d="M50.301 32.5042H54.856V38.3589C54.1178 38.5958 53.4215 38.7606 52.767 38.8532C52.1178 38.9511 51.4529 39 50.7723 39C49.0393 39 47.7147 38.5005 46.7984 37.5016C45.8874 36.4974 45.4319 35.0582 45.4319 33.1839C45.4319 31.361 45.9607 29.9398 47.0183 28.9203C48.0812 27.9007 49.5524 27.3909 51.4319 27.3909C52.6099 27.3909 53.7461 27.6226 54.8403 28.0861L54.0314 30.0016C53.1937 29.5897 52.322 29.3837 51.4162 29.3837C50.3639 29.3837 49.5209 29.7313 48.8874 30.4264C48.2539 31.1216 47.9372 32.0562 47.9372 33.2302C47.9372 34.4558 48.1911 35.3929 48.699 36.0417C49.212 36.6854 49.9555 37.0072 50.9293 37.0072C51.4372 37.0072 51.9529 36.9557 52.4764 36.8527V34.4969H50.301V32.5042Z" fill="white"/>
<path d="M68.0183 33.1839C68.0183 35.0531 67.5471 36.4897 66.6047 37.4938C65.6623 38.4979 64.3115 39 62.5524 39C60.7932 39 59.4424 38.4979 58.5 37.4938C57.5576 36.4897 57.0864 35.0479 57.0864 33.1684C57.0864 31.2889 57.5576 29.8549 58.5 28.8662C59.4476 27.8724 60.8037 27.3755 62.5681 27.3755C64.3325 27.3755 65.6806 27.875 66.6126 28.8739C67.5497 29.8729 68.0183 31.3095 68.0183 33.1839ZM59.6387 33.1839C59.6387 34.4455 59.8822 35.3955 60.3691 36.034C60.856 36.6725 61.5838 36.9918 62.5524 36.9918C64.4948 36.9918 65.466 35.7225 65.466 33.1839C65.466 30.6401 64.5 29.3683 62.5681 29.3683C61.5995 29.3683 60.8691 29.6901 60.377 30.3337C59.8848 30.9723 59.6387 31.9223 59.6387 33.1839Z" fill="white"/>
</svg>
