<svg width="70" height="71" viewBox="0 0 70 71" fill="none" xmlns="http://www.w3.org/2000/svg">
<circle cx="35" cy="35.6196" r="35" fill="#348CCE"/>
<path d="M49.5 53.1196L43 46.6196L38 51.6196L44.5 58.1196L49.5 53.1196Z" fill="white"/>
<path d="M31.006 60.2801C30.3956 60.3672 29.631 59.9841 29.3062 59.6646L28.7175 59.0857C28.7175 59.0857 28.4537 58.8263 28.1288 58.5069C27.8035 58.1869 27.3928 57.4143 27.4426 56.7759C27.5975 54.7952 29.0782 49.9906 37.4235 40.3426C46.6257 29.7048 53.5839 27.9257 56.1884 27.6574C56.8018 27.5942 57.3633 28.1464 57.3371 28.787C57.2255 31.5068 55.9097 38.8344 46.2168 48.9898C37.4261 58.1998 32.8988 60.0084 31.006 60.2801Z" fill="white"/>
<path d="M15.4823 27.4203C13.3869 30.5716 12.1834 33.6762 12.0021 36.3983C11.9007 37.9195 12.7521 38.9899 14.2794 39.2617C15.6074 39.498 17.2285 39.0925 18.7359 38.1698L33.9999 47L35.4999 44.5L20.7734 36.4913C21.5256 35.6644 22.0711 34.7459 22.331 33.8358C22.4198 33.5248 23.2393 30.0771 23.4116 29.3512C23.6365 28.5074 23.9522 27.6692 24.349 26.8443C25.9941 22.49 29.6184 18.3608 34.5127 15.3302C37.0159 13.7802 39.3273 12.6446 41.4046 11.9407C40.5618 11.9382 39.6734 11.9996 38.7458 12.1282C33.9997 12.7858 28.8086 15.0489 24.1286 18.5009C20.6423 21.0722 17.6525 24.1565 15.4823 27.4203Z" fill="white"/>
<path d="M35.1886 16.844C32.1096 18.7505 29.6194 21.1638 27.9598 23.7862C28.0771 23.7124 29.5664 23.0214 30.2964 22.6851C31.6806 22.1432 33.1122 21.7689 34.5422 21.5802C36.9665 21.2602 39.2996 21.5026 41.1116 22.2626C41.127 22.2692 41.1424 22.2751 41.1558 22.2799C41.7283 22.4907 42.4044 22.5352 43.1229 22.4291L41.1595 38.8483L43.2913 39.4605L45.4236 21.6299C45.5603 21.5555 45.6965 21.4769 45.8314 21.3933C46.0285 21.2713 46.2231 21.1397 46.4143 20.9986C48.8163 19.227 49.8895 16.5519 48.8279 15.0092L48.8623 14.9795C48.4508 14.4053 47.9341 13.9086 47.3245 13.4926C45.9493 12.9722 44.2997 12.9796 42.3077 13.5153C40.2626 14.0654 37.8674 15.1853 35.1886 16.844Z" fill="white"/>
</svg>
