<svg width="70" height="70" viewBox="0 0 70 70" fill="none" xmlns="http://www.w3.org/2000/svg">
<circle cx="35" cy="35" r="35" fill="#348CCE"/>
<path fill-rule="evenodd" clip-rule="evenodd" d="M20.5341 48.2535C20.5061 48.2535 20.4782 48.253 20.4504 48.252C19.7855 48.2298 19.1845 47.9686 18.7453 47.5558C18.2841 47.1257 18 46.5297 18 45.8732C18 45.8014 18.0034 45.7305 18.01 45.6604C18.0034 45.5765 18 45.4915 18 45.4057C18 43.8328 19.1345 42.5578 20.5341 42.5578H59.7687C56.7934 46.0208 52.7487 48.0499 48.4854 48.239C48.3007 48.2486 48.1156 48.2536 47.9303 48.2536H33.052C32.0283 51.7226 25.5943 53 25.5943 53V48.2536H20.5425L20.5347 48.2535H20.5341Z" fill="white"/>
<path d="M23.2254 18.5508C18.3883 22.8504 19.0286 36.1449 22.3144 39.7344C25.7255 31.0508 35.7255 32.5508 36.2255 32.5508C36.2255 26.5508 40.7255 23.5508 45.7255 21.5508C41.0196 14.4602 27.7254 14.5508 23.2254 18.5508Z" fill="white"/>
</svg>
